<?xml version="1.0" encoding="UTF-8"?>
<!DOCTYPE svg PUBLIC "-//W3C//DTD SVG 1.1//EN" "http://www.w3.org/Graphics/SVG/1.1/DTD/svg11.dtd">
<!-- Creator: CorelDRAW 2020 (64-Bit) -->
<svg xmlns="http://www.w3.org/2000/svg" xml:space="preserve" width="370mm" height="145mm" version="1.1" style="shape-rendering:geometricPrecision; text-rendering:geometricPrecision; image-rendering:optimizeQuality; fill-rule:evenodd; clip-rule:evenodd"
viewBox="0 0 37000 14500"
 xmlns:xlink="http://www.w3.org/1999/xlink"
 xmlns:xodm="http://www.corel.com/coreldraw/odm/2003">
 <defs>
  <style type="text/css">
   <![CDATA[
    .str0 {stroke:#E62129;stroke-width:7.62;stroke-miterlimit:22.9256}
    .fil0 {fill:none}
   ]]>
  </style>
 </defs>
 <g id="Layer_x0020_1">
  <metadata id="CorelCorpID_0Corel-Layer"/>
  <polygon class="fil0 str0" points="502.51,273.35 479.01,274.25 455.61,276.95 432.51,281.55 409.81,287.95 387.71,296.15 366.31,305.95 345.81,317.55 326.21,330.55 307.71,345.15 290.41,361.15 274.41,378.45 259.81,396.95 246.71,416.55 235.21,437.15 225.31,458.45 217.21,480.55 210.81,503.25 206.21,526.35 203.41,549.75 202.51,573.35 202.51,12453.16 203.41,12476.66 206.21,12500.06 210.81,12523.16 217.21,12545.86 225.31,12567.96 235.21,12589.36 246.71,12609.96 259.81,12629.46 274.41,12647.96 290.41,12665.26 307.71,12681.26 326.21,12695.86 345.81,12708.96 366.31,12720.46 387.71,12730.36 409.81,12738.46 432.51,12744.86 455.61,12749.46 479.01,12752.26 502.51,12753.16 10523.26,12750.15 17858.19,14285.62 21842.87,14285.59 29273.25,12750.13 36487.86,12750.18 36511.46,12749.28 36534.86,12746.48 36557.96,12741.88 36580.66,12735.48 36602.76,12727.38 36624.06,12717.48 36644.66,12705.98 36664.26,12692.88 36682.76,12678.28 36700.06,12662.28 36716.06,12644.98 36730.66,12626.48 36743.66,12606.98 36755.26,12586.38 36765.06,12564.98 36773.26,12542.88 36779.66,12520.18 36784.26,12497.08 36786.96,12473.68 36787.96,12450.18 36778.39,11750.01 36778.31,573.35 36777.41,549.75 36774.71,526.35 36770.11,503.25 36763.71,480.55 36755.51,458.45 36745.71,437.15 36734.11,416.55 36721.11,396.95 36706.51,378.45 36690.51,361.15 36673.21,345.15 36654.71,330.55 36635.11,317.55 36614.51,305.95 36593.21,296.15 36571.11,287.95 36548.41,281.55 36525.31,276.95 36501.91,274.25 36478.31,273.25 "/>
  <polygon class="fil0 str0" points="31566.99,2592.78 31622.79,2621.28 31666.99,2665.58 31695.39,2721.28 31705.19,2783.18 31695.39,2844.98 31666.99,2900.68 31622.79,2944.98 31566.99,2973.38 31505.19,2983.18 31443.39,2973.38 31387.69,2944.98 31343.39,2900.68 31314.99,2844.98 31305.19,2783.18 31314.99,2721.28 31343.39,2665.58 31387.69,2621.28 31443.39,2592.78 31505.19,2583.18 "/>
  <polygon class="fil0 str0" points="29566.75,2592.78 29622.55,2621.28 29666.75,2665.58 29695.15,2721.28 29704.95,2783.18 29695.15,2844.98 29666.75,2900.68 29622.55,2944.98 29566.75,2973.38 29504.95,2983.18 29443.15,2973.38 29387.45,2944.98 29343.15,2900.68 29314.75,2844.98 29304.95,2783.18 29314.75,2721.28 29343.15,2665.58 29387.45,2621.28 29443.15,2592.78 29504.95,2583.18 "/>
  <polygon class="fil0 str0" points="7537.67,2592.78 7593.47,2621.28 7637.67,2665.58 7666.07,2721.28 7675.87,2783.18 7666.07,2844.98 7637.67,2900.68 7593.47,2944.98 7537.67,2973.38 7475.87,2983.18 7414.07,2973.38 7358.37,2944.98 7314.07,2900.68 7285.67,2844.98 7275.87,2783.18 7285.67,2721.28 7314.07,2665.58 7358.37,2621.28 7414.07,2592.78 7475.87,2583.18 "/>
  <polygon class="fil0 str0" points="12622.91,582.95 12678.71,611.45 12722.91,655.75 12751.31,711.45 12761.11,773.35 12751.31,835.15 12722.91,890.85 12678.71,935.15 12622.91,963.55 12561.11,973.35 12499.31,963.55 12443.61,935.15 12399.31,890.85 12370.91,835.15 12361.11,773.35 12370.91,711.45 12399.31,655.75 12443.61,611.45 12499.31,582.95 12561.11,573.35 "/>
  <polygon class="fil0 str0" points="24481.51,582.95 24537.31,611.45 24581.51,655.75 24609.91,711.45 24619.71,773.35 24609.91,835.15 24581.51,890.85 24537.31,935.15 24481.51,963.55 24419.71,973.35 24357.91,963.55 24302.21,935.15 24257.91,890.85 24229.51,835.15 24219.71,773.35 24229.51,711.45 24257.91,655.75 24302.21,611.45 24357.91,582.95 24419.71,573.35 "/>
  <polygon class="fil0 str0" points="36341.08,12063.92 36396.88,12092.42 36441.08,12136.72 36469.48,12192.42 36479.28,12254.32 36469.48,12316.12 36441.08,12371.82 36396.88,12416.12 36341.08,12444.52 36279.28,12454.32 36217.48,12444.52 36161.78,12416.12 36117.48,12371.82 36089.08,12316.12 36079.28,12254.32 36089.08,12192.42 36117.48,12136.72 36161.78,12092.42 36217.48,12063.92 36279.28,12054.32 "/>
  <polygon class="fil0 str0" points="24477.6,13041.35 24533.4,13069.85 24577.6,13114.15 24606,13169.85 24615.8,13231.75 24606,13293.55 24577.6,13349.25 24533.4,13393.55 24477.6,13421.95 24415.8,13431.75 24354,13421.95 24298.3,13393.55 24254,13349.25 24225.6,13293.55 24215.8,13231.75 24225.6,13169.85 24254,13114.15 24298.3,13069.85 24354,13041.35 24415.8,13031.75 "/>
  <polygon class="fil0 str0" points="12617.7,12506.29 12673.5,12534.79 12717.7,12579.09 12746.1,12634.79 12755.9,12696.69 12746.1,12758.49 12717.7,12814.19 12673.5,12858.49 12617.7,12886.89 12555.9,12896.69 12494.1,12886.89 12438.4,12858.49 12394.1,12814.19 12365.7,12758.49 12355.9,12696.69 12365.7,12634.79 12394.1,12579.09 12438.4,12534.79 12494.1,12506.29 12555.9,12496.69 "/>
  <polygon class="fil0 str0" points="764.7,12062.81 820.5,12091.31 864.7,12135.61 893.1,12191.31 902.9,12253.21 893.1,12315.01 864.7,12370.71 820.5,12415.01 764.7,12443.41 702.9,12453.21 641.1,12443.41 585.4,12415.01 541.1,12370.71 512.7,12315.01 502.9,12253.21 512.7,12191.31 541.1,12135.61 585.4,12091.31 641.1,12062.81 702.9,12053.21 "/>
  <polygon class="fil0 str0" points="36340.21,582.95 36396.01,611.45 36440.21,655.75 36468.61,711.45 36478.41,773.35 36468.61,835.15 36440.21,890.85 36396.01,935.15 36340.21,963.55 36278.41,973.35 36216.61,963.55 36160.91,935.15 36116.61,890.85 36088.21,835.15 36078.41,773.35 36088.21,711.45 36116.61,655.75 36160.91,611.45 36216.61,582.95 36278.41,573.35 "/>
  <polygon class="fil0 str0" points="5537.43,2592.78 5593.23,2621.28 5637.43,2665.58 5665.83,2721.28 5675.63,2783.18 5665.83,2844.98 5637.43,2900.68 5593.23,2944.98 5537.43,2973.38 5475.63,2983.18 5413.83,2973.38 5358.13,2944.98 5313.83,2900.68 5285.43,2844.98 5275.63,2783.18 5285.43,2721.28 5313.83,2665.58 5358.13,2621.28 5413.83,2592.78 5475.63,2583.18 "/>
  <polygon class="fil0 str0" points="764.31,582.95 820.11,611.45 864.31,655.75 892.71,711.45 902.51,773.35 892.71,835.15 864.31,890.85 820.11,935.15 764.31,963.55 702.51,973.35 640.71,963.55 585.01,935.15 540.71,890.85 512.31,835.15 502.51,773.35 512.31,711.45 540.71,655.75 585.01,611.45 640.71,582.95 702.51,573.35 "/>
 </g>
</svg>
