<?xml version="1.0" encoding="UTF-8"?>
<!DOCTYPE svg PUBLIC "-//W3C//DTD SVG 1.1//EN" "http://www.w3.org/Graphics/SVG/1.1/DTD/svg11.dtd">
<!-- Creator: CorelDRAW 2020 (64-Bit) -->
<svg xmlns="http://www.w3.org/2000/svg" xml:space="preserve" width="210mm" height="297mm" version="1.1" style="shape-rendering:geometricPrecision; text-rendering:geometricPrecision; image-rendering:optimizeQuality; fill-rule:evenodd; clip-rule:evenodd"
viewBox="0 0 21000 29700"
 xmlns:xlink="http://www.w3.org/1999/xlink"
 xmlns:xodm="http://www.corel.com/coreldraw/odm/2003">
 <defs>
  <style type="text/css">
   <![CDATA[
    .str0 {stroke:#E62129;stroke-width:20;stroke-miterlimit:22.9256}
    .str1 {stroke:#E62129;stroke-width:7.62;stroke-miterlimit:22.9256}
    .fil0 {fill:none}
   ]]>
  </style>
 </defs>
 <g id="Layer_x0020_1">
  <metadata id="CorelCorpID_0Corel-Layer"/>
  <polygon class="fil0 str0" points="28487.95,7873.35 28511.45,7874.25 28534.85,7876.95 28557.95,7881.55 28580.65,7887.95 28602.75,7896.15 28624.15,7905.95 28644.65,7917.55 28664.25,7930.55 28682.75,7945.15 28700.05,7961.15 28716.05,7978.45 28730.65,7996.95 28743.75,8016.55 28755.25,8037.15 28765.15,8058.45 28773.25,8080.55 28779.65,8103.25 28784.25,8126.35 28787.05,8149.75 28787.95,8173.35 28787.95,20053.16 28787.05,20076.66 28784.25,20100.06 28779.65,20123.16 28773.25,20145.86 28765.15,20167.96 28755.25,20189.36 28743.75,20209.96 28730.65,20229.46 28716.05,20247.96 28700.05,20265.26 28682.75,20281.26 28664.25,20295.86 28644.65,20308.96 28624.15,20320.46 28602.75,20330.36 28580.65,20338.46 28557.95,20344.86 28534.85,20349.46 28511.45,20352.26 28487.95,20353.16 18467.2,20350.15 11132.27,21885.62 7147.59,21885.59 -282.79,20350.13 -7497.4,20350.18 -7521,20349.28 -7544.4,20346.48 -7567.5,20341.88 -7590.2,20335.48 -7612.3,20327.38 -7633.6,20317.48 -7654.2,20305.98 -7673.8,20292.88 -7692.3,20278.28 -7709.6,20262.28 -7725.6,20244.98 -7740.2,20226.48 -7753.2,20206.98 -7764.8,20186.38 -7774.6,20164.98 -7782.8,20142.88 -7789.2,20120.18 -7793.8,20097.08 -7796.5,20073.68 -7797.5,20050.18 -7787.93,19350.01 -7787.85,8173.35 -7786.95,8149.75 -7784.25,8126.35 -7779.65,8103.25 -7773.25,8080.55 -7765.05,8058.45 -7755.25,8037.15 -7743.65,8016.55 -7730.65,7996.95 -7716.05,7978.45 -7700.05,7961.15 -7682.75,7945.15 -7664.25,7930.55 -7644.65,7917.55 -7624.05,7905.95 -7602.75,7896.15 -7580.65,7887.95 -7557.95,7881.55 -7534.85,7876.95 -7511.45,7874.25 -7487.85,7873.25 "/>
  <polygon class="fil0 str1" points="619.4,8798.09 -1616.99,8802.4 -1624.02,9350.44 -5359.25,9350.44 -5359.25,11255.44 -5835.45,11255.44 -5835.45,13160.44 -6311.75,13160.44 -6311.75,15065.44 -6787.95,15065.44 -6787.95,18875.64 -4406.55,18875.64 -4406.55,16970.64 -442.25,16970.64 -815.25,18725.34 1514.15,19220.54 7570.15,20507.74 7966.25,18644.14 7127.65,18465.94 7523.75,16602.54 6405.75,16364.94 6801.85,14501.54 6335.95,14402.54 6731.95,12539.44 7850.05,12777.04 8246.15,10913.44 4519.25,10121.24 4519.25,10121.34 611.57,9307.5 "/>
  <polygon class="fil0 str1" points="12799.25,9961.94 12799.25,9961.84 9072.35,10754.04 9468.45,12617.44 8536.75,12815.44 8932.85,14679.04 9398.65,14580.04 9794.75,16443.34 10260.55,16344.34 10656.65,18207.54 9724.95,18405.54 10121.05,20269.14 17574.65,18684.84 17977.05,18875.64 26549.75,18875.64 26549.75,16970.64 27502.25,16970.64 27502.25,15065.64 27787.95,15065.64 27787.95,13160.44 27502.25,13160.44 27502.25,11255.44 26644.95,11255.44 26644.95,9350.44 24644.75,9350.44 18872.35,9350.44 18872.35,8894.85 16526.05,8894.86 16526.05,9169.74 "/>
  <polygon class="fil0 str1" points="4622.91,8182.95 4678.71,8211.45 4722.91,8255.75 4751.31,8311.45 4761.11,8373.35 4751.31,8435.15 4722.91,8490.85 4678.71,8535.15 4622.91,8563.55 4561.11,8573.35 4499.31,8563.55 4443.61,8535.15 4399.31,8490.85 4370.91,8435.15 4361.11,8373.35 4370.91,8311.45 4399.31,8255.75 4443.61,8211.45 4499.31,8182.95 4561.11,8173.35 "/>
  <polygon class="fil0 str1" points="16481.51,8182.95 16537.31,8211.45 16581.51,8255.75 16609.91,8311.45 16619.71,8373.35 16609.91,8435.15 16581.51,8490.85 16537.31,8535.15 16481.51,8563.55 16419.71,8573.35 16357.91,8563.55 16302.21,8535.15 16257.91,8490.85 16229.51,8435.15 16219.71,8373.35 16229.51,8311.45 16257.91,8255.75 16302.21,8211.45 16357.91,8182.95 16419.71,8173.35 "/>
  <polygon class="fil0 str1" points="28341.08,19663.92 28396.88,19692.42 28441.08,19736.72 28469.48,19792.42 28479.28,19854.32 28469.48,19916.12 28441.08,19971.82 28396.88,20016.12 28341.08,20044.52 28279.28,20054.32 28217.48,20044.52 28161.78,20016.12 28117.48,19971.82 28089.08,19916.12 28079.28,19854.32 28089.08,19792.42 28117.48,19736.72 28161.78,19692.42 28217.48,19663.92 28279.28,19654.32 "/>
  <polygon class="fil0 str1" points="16477.6,20641.35 16533.4,20669.85 16577.6,20714.15 16606,20769.85 16615.8,20831.75 16606,20893.55 16577.6,20949.25 16533.4,20993.55 16477.6,21021.95 16415.8,21031.75 16354,21021.95 16298.3,20993.55 16254,20949.25 16225.6,20893.55 16215.8,20831.75 16225.6,20769.85 16254,20714.15 16298.3,20669.85 16354,20641.35 16415.8,20631.75 "/>
  <polygon class="fil0 str1" points="4617.7,20106.29 4673.5,20134.79 4717.7,20179.09 4746.1,20234.79 4755.9,20296.69 4746.1,20358.49 4717.7,20414.19 4673.5,20458.49 4617.7,20486.89 4555.9,20496.69 4494.1,20486.89 4438.4,20458.49 4394.1,20414.19 4365.7,20358.49 4355.9,20296.69 4365.7,20234.79 4394.1,20179.09 4438.4,20134.79 4494.1,20106.29 4555.9,20096.69 "/>
  <polygon class="fil0 str1" points="-7235.3,19662.81 -7179.5,19691.31 -7135.3,19735.61 -7106.9,19791.31 -7097.1,19853.21 -7106.9,19915.01 -7135.3,19970.71 -7179.5,20015.01 -7235.3,20043.41 -7297.1,20053.21 -7358.9,20043.41 -7414.6,20015.01 -7458.9,19970.71 -7487.3,19915.01 -7497.1,19853.21 -7487.3,19791.31 -7458.9,19735.61 -7414.6,19691.31 -7358.9,19662.81 -7297.1,19653.21 "/>
  <polygon class="fil0 str1" points="28340.21,8182.95 28396.01,8211.45 28440.21,8255.75 28468.61,8311.45 28478.41,8373.35 28468.61,8435.15 28440.21,8490.85 28396.01,8535.15 28340.21,8563.55 28278.41,8573.35 28216.61,8563.55 28160.91,8535.15 28116.61,8490.85 28088.21,8435.15 28078.41,8373.35 28088.21,8311.45 28116.61,8255.75 28160.91,8211.45 28216.61,8182.95 28278.41,8173.35 "/>
  <polygon class="fil0 str1" points="-7235.69,8182.95 -7179.89,8211.45 -7135.69,8255.75 -7107.29,8311.45 -7097.49,8373.35 -7107.29,8435.15 -7135.69,8490.85 -7179.89,8535.15 -7235.69,8563.55 -7297.49,8573.35 -7359.29,8563.55 -7414.99,8535.15 -7459.29,8490.85 -7487.69,8435.15 -7497.49,8373.35 -7487.69,8311.45 -7459.29,8255.75 -7414.99,8211.45 -7359.29,8182.95 -7297.49,8173.35 "/>
 </g>
</svg>
