<?xml version="1.0" encoding="UTF-8"?>
<!DOCTYPE svg PUBLIC "-//W3C//DTD SVG 1.1//EN" "http://www.w3.org/Graphics/SVG/1.1/DTD/svg11.dtd">
<!-- Creator: CorelDRAW 2020 (64-Bit) -->
<svg xmlns="http://www.w3.org/2000/svg" xml:space="preserve" width="400mm" height="170mm" version="1.1" style="shape-rendering:geometricPrecision; text-rendering:geometricPrecision; image-rendering:optimizeQuality; fill-rule:evenodd; clip-rule:evenodd"
viewBox="0 0 40000 17000"
 xmlns:xlink="http://www.w3.org/1999/xlink"
 xmlns:xodm="http://www.corel.com/coreldraw/odm/2003">
 <defs>
  <style type="text/css">
   <![CDATA[
    .str1 {stroke:#E62129;stroke-width:7.62;stroke-miterlimit:22.9256}
    .str0 {stroke:#E62129;stroke-width:7.62;stroke-miterlimit:22.9256}
    .fil0 {fill:none}
   ]]>
  </style>
 </defs>
 <g id="Layer_x0020_1">
  <metadata id="CorelCorpID_0Corel-Layer"/>
  <g id="LEFT_x0020_SIDE_x0020_2_0">
   <line class="fil0 str0" x1="1597.81" y1="11795.76" x2="593.85" y2= "11795.35" />
   <polyline class="fil0 str0" points="18382.84,314.83 893.93,318.59 870.33,319.59 846.93,322.29 823.83,326.89 801.13,333.29 779.03,341.49 757.73,351.29 737.13,362.89 717.53,375.89 699.03,390.49 681.73,406.49 665.73,423.79 651.13,442.29 638.13,461.89 626.53,482.49 616.73,503.79 608.53,525.89 602.13,548.59 597.53,571.69 594.83,595.09 593.93,618.69 583.86,11798.51 1596.47,11798.44 "/>
   <polygon class="fil0 str0" points="1039.83,652.19 991.03,677.09 952.33,715.79 927.43,764.59 918.83,818.69 927.43,872.69 952.33,921.49 991.03,960.19 1039.83,985.09 1093.83,993.69 1147.93,985.09 1196.73,960.19 1235.43,921.49 1260.33,872.69 1268.83,818.69 1260.33,764.59 1235.43,715.79 1196.73,677.09 1147.93,652.19 1093.83,643.69 "/>
   <polygon class="fil0 str0" points="12898.33,652.19 12849.63,677.09 12810.93,715.79 12786.03,764.59 12777.53,818.69 12786.03,872.69 12810.93,921.49 12849.63,960.19 12898.33,985.09 12952.53,993.69 13006.53,985.09 13055.33,960.19 13094.03,921.49 13118.93,872.69 13127.53,818.69 13118.93,764.59 13094.03,715.79 13055.33,677.09 13006.53,652.19 12952.53,643.69 "/>
   <polyline class="fil0 str0" points="18381.71,1318.69 1593.93,1318.69 1592.73,11798.45 "/>
   <line class="fil0 str0" x1="18382.84" y1="314.83" x2="18381.71" y2= "1318.69" />
  </g>
  <g id="RIGHT_x0020_SIDE">
   <polyline class="fil0 str0" points="21615.34,402.15 39102.32,402.2 39125.82,403.1 39149.22,405.8 39172.32,410.4 39195.02,416.8 39217.12,425 39238.52,434.8 39259.02,446.4 39278.62,459.4 39297.12,474 39314.42,490 39330.42,507.3 39345.02,525.8 39358.12,545.4 39369.62,566 39379.52,587.3 39387.62,609.4 39394.02,632.1 39398.62,655.2 39401.42,678.6 39402.32,702.2 39402.32,6283.42 39402.32,11880.85 "/>
   <polygon class="fil0 str0" points="38848.22,735.7 38799.42,760.6 38760.72,799.3 38735.92,848.1 38727.32,902.2 38735.92,956.2 38760.72,1005 38799.42,1043.7 38848.22,1068.6 38902.32,1077.2 38956.42,1068.6 39005.22,1043.7 39043.92,1005 39068.72,956.2 39077.32,902.2 39068.72,848.1 39043.92,799.3 39005.22,760.6 38956.42,735.7 38902.32,727.2 "/>
   <polygon class="fil0 str0" points="26989.62,735.7 26940.82,760.6 26902.12,799.3 26877.22,848.1 26868.72,902.2 26877.22,956.2 26902.12,1005 26940.82,1043.7 26989.62,1068.6 27043.72,1077.2 27097.82,1068.6 27146.52,1043.7 27185.32,1005 27210.12,956.2 27218.72,902.2 27210.12,848.1 27185.32,799.3 27146.52,760.6 27097.82,735.7 27043.72,727.2 "/>
   <polyline class="fil0 str0" points="38401.32,11881.68 38402.32,1402.2 21615.88,1402.2 "/>
   <line class="fil0 str0" x1="38401.32" y1="11881.68" x2="39402.32" y2= "11880.85" />
   <line class="fil0 str0" x1="21615.88" y1="1402.2" x2="21615.88" y2= "402.16" />
  </g>
  <g id="Bottom_x0020_Panel">
   <polyline class="fil0 str0" points="38293.48,14236.05 38294.8,14937.92 38293.9,14961.42 38291.1,14984.82 38286.5,15007.92 38280.1,15030.62 38272,15052.72 38262.1,15074.12 38250.6,15094.72 38237.5,15114.22 38222.9,15132.72 38206.9,15150.02 38189.6,15166.02 38171.1,15180.62 38151.5,15193.72 38131,15205.22 38109.6,15215.12 38087.5,15223.22 38064.8,15229.62 38041.7,15234.22 38018.3,15237.02 37994.8,15237.92 27974.05,15234.91 20639.12,16770.38 16654.44,16770.35 9224.06,15234.89 2009.45,15234.94 1985.85,15234.04 1962.45,15231.24 1939.35,15226.64 1916.65,15220.24 1894.55,15212.14 1873.25,15202.24 1852.65,15190.74 1833.05,15177.64 1814.55,15163.04 1797.25,15147.04 1781.25,15129.74 1766.65,15111.24 1753.65,15091.74 1742.05,15071.14 1732.25,15049.74 1724.05,15027.64 1717.65,15004.94 1713.05,14981.84 1710.35,14958.44 1709.35,14934.94 1709.92,14238.17 "/>
   <polygon class="fil0 str0" points="2164.03,14572.68 2115.23,14597.48 2076.53,14636.18 2051.63,14684.98 2043.03,14739.08 2051.63,14793.18 2076.53,14841.98 2115.23,14880.68 2164.03,14905.48 2218.03,14914.08 2272.13,14905.48 2320.93,14880.68 2359.63,14841.98 2384.53,14793.18 2393.03,14739.08 2384.53,14684.98 2359.63,14636.18 2320.93,14597.48 2272.13,14572.68 2218.03,14564.08 "/>
   <polygon class="fil0 str0" points="14027.31,15550.11 13978.61,15574.91 13939.91,15613.61 13915.01,15662.41 13906.51,15716.51 13915.01,15770.61 13939.91,15819.41 13978.61,15858.11 14027.31,15882.91 14081.51,15891.51 14135.51,15882.91 14184.31,15858.11 14223.01,15819.41 14247.91,15770.61 14256.51,15716.51 14247.91,15662.41 14223.01,15613.61 14184.31,15574.91 14135.51,15550.11 14081.51,15541.51 "/>
   <polygon class="fil0 str0" points="25887.31,15015.05 25838.51,15039.85 25799.81,15078.55 25774.91,15127.35 25766.41,15181.45 25774.91,15235.55 25799.81,15284.35 25838.51,15323.05 25887.31,15347.85 25941.41,15356.45 25995.51,15347.85 26044.21,15323.05 26083.01,15284.35 26107.81,15235.55 26116.41,15181.45 26107.81,15127.35 26083.01,15078.55 26044.21,15039.85 25995.51,15015.05 25941.41,15006.45 "/>
   <polygon class="fil0 str0" points="37740.31,14571.57 37691.51,14596.37 37652.81,14635.07 37628.01,14683.87 37619.41,14737.97 37628.01,14792.07 37652.81,14840.87 37691.51,14879.57 37740.31,14904.37 37794.41,14912.97 37848.51,14904.37 37897.31,14879.57 37936.01,14840.87 37960.81,14792.07 37969.41,14737.97 37960.81,14683.87 37936.01,14635.07 37897.31,14596.37 37848.51,14571.57 37794.41,14562.97 "/>
   <polyline class="fil0 str0" points="2719,14235.28 9223.62,14235.28 16670.64,15770.24 20639.14,15770.24 27974.08,14235.44 32634.44,14236.68 37294.8,14237.92 "/>
   <line class="fil0 str0" x1="37294.8" y1="14237.92" x2="38297.32" y2= "14236.05" />
   <line class="fil0 str0" x1="1706.11" y1="14238.17" x2="2719" y2= "14235.28" />
  </g>
  <polygon class="fil0 str0" points="37987.95,1523.35 38011.45,1524.25 38034.85,1526.95 38057.95,1531.55 38080.65,1537.95 38102.75,1546.15 38124.15,1555.95 38144.65,1567.55 38164.25,1580.55 38182.75,1595.15 38200.05,1611.15 38216.05,1628.45 38230.65,1646.95 38243.75,1666.55 38255.25,1687.15 38265.15,1708.45 38273.25,1730.55 38279.65,1753.25 38284.25,1776.35 38287.05,1799.75 38287.95,1823.35 38287.95,13703.16 38287.05,13726.66 38284.25,13750.06 38279.65,13773.16 38273.25,13795.86 38265.15,13817.96 38255.25,13839.36 38243.75,13859.96 38230.65,13879.46 38216.05,13897.96 38200.05,13915.26 38182.75,13931.26 38164.25,13945.86 38144.65,13958.96 38124.15,13970.46 38102.75,13980.36 38080.65,13988.46 38057.95,13994.86 38034.85,13999.46 38011.45,14002.26 37987.95,14003.16 27967.2,14000.15 20632.27,15535.62 16647.59,15535.59 9217.21,14000.13 2002.6,14000.18 1979,13999.28 1955.6,13996.48 1932.5,13991.88 1909.8,13985.48 1887.7,13977.38 1866.4,13967.48 1845.8,13955.98 1826.2,13942.88 1807.7,13928.28 1790.4,13912.28 1774.4,13894.98 1759.8,13876.48 1746.8,13856.98 1735.2,13836.38 1725.4,13814.98 1717.2,13792.88 1710.8,13770.18 1706.2,13747.08 1703.5,13723.68 1702.5,13700.18 1712.07,13000.01 1712.15,1823.35 1713.05,1799.75 1715.75,1776.35 1720.35,1753.25 1726.75,1730.55 1734.95,1708.45 1744.75,1687.15 1756.35,1666.55 1769.35,1646.95 1783.95,1628.45 1799.95,1611.15 1817.25,1595.15 1835.75,1580.55 1855.35,1567.55 1875.95,1555.95 1897.25,1546.15 1919.35,1537.95 1942.05,1531.55 1965.15,1526.95 1988.55,1524.25 2012.15,1523.25 "/>
  <polygon class="fil0 str0" points="2157.18,13337.92 2108.38,13362.72 2069.68,13401.42 2044.78,13450.22 2036.18,13504.32 2044.78,13558.42 2069.68,13607.22 2108.38,13645.92 2157.18,13670.72 2211.18,13679.32 2265.28,13670.72 2314.08,13645.92 2352.78,13607.22 2377.68,13558.42 2386.18,13504.32 2377.68,13450.22 2352.78,13401.42 2314.08,13362.72 2265.28,13337.92 2211.18,13329.32 "/>
  <polygon class="fil0 str0" points="14020.46,14315.35 13971.76,14340.15 13933.06,14378.85 13908.16,14427.65 13899.66,14481.75 13908.16,14535.85 13933.06,14584.65 13971.76,14623.35 14020.46,14648.15 14074.66,14656.75 14128.66,14648.15 14177.46,14623.35 14216.16,14584.65 14241.06,14535.85 14249.66,14481.75 14241.06,14427.65 14216.16,14378.85 14177.46,14340.15 14128.66,14315.35 14074.66,14306.75 "/>
  <polygon class="fil0 str0" points="25880.46,13780.29 25831.66,13805.09 25792.96,13843.79 25768.06,13892.59 25759.56,13946.69 25768.06,14000.79 25792.96,14049.59 25831.66,14088.29 25880.46,14113.09 25934.56,14121.69 25988.66,14113.09 26037.36,14088.29 26076.16,14049.59 26100.96,14000.79 26109.56,13946.69 26100.96,13892.59 26076.16,13843.79 26037.36,13805.09 25988.66,13780.29 25934.56,13771.69 "/>
  <polygon class="fil0 str0" points="37733.46,13336.81 37684.66,13361.61 37645.96,13400.31 37621.16,13449.11 37612.56,13503.21 37621.16,13557.31 37645.96,13606.11 37684.66,13644.81 37733.46,13669.61 37787.56,13678.21 37841.66,13669.61 37890.46,13644.81 37929.16,13606.11 37953.96,13557.31 37962.56,13503.21 37953.96,13449.11 37929.16,13400.31 37890.46,13361.61 37841.66,13336.81 37787.56,13328.21 "/>
  <polygon class="fil0 str0" points="2158.05,1856.85 2109.25,1881.75 2070.55,1920.45 2045.65,1969.25 2037.05,2023.35 2045.65,2077.35 2070.55,2126.15 2109.25,2164.85 2158.05,2189.75 2212.05,2198.35 2266.15,2189.75 2314.95,2164.85 2353.65,2126.15 2378.55,2077.35 2387.05,2023.35 2378.55,1969.25 2353.65,1920.45 2314.95,1881.75 2266.15,1856.85 2212.05,1848.35 "/>
  <polygon class="fil0 str0" points="37733.85,1856.85 37685.05,1881.75 37646.35,1920.45 37621.55,1969.25 37612.95,2023.35 37621.55,2077.35 37646.35,2126.15 37685.05,2164.85 37733.85,2189.75 37787.95,2198.35 37842.05,2189.75 37890.85,2164.85 37929.55,2126.15 37954.35,2077.35 37962.95,2023.35 37954.35,1969.25 37929.55,1920.45 37890.85,1881.75 37842.05,1856.85 37787.95,1848.35 "/>
  <polygon class="fil0 str0" points="25875.25,1856.85 25826.45,1881.75 25787.75,1920.45 25762.85,1969.25 25754.35,2023.35 25762.85,2077.35 25787.75,2126.15 25826.45,2164.85 25875.25,2189.75 25929.35,2198.35 25983.45,2189.75 26032.15,2164.85 26070.95,2126.15 26095.75,2077.35 26104.35,2023.35 26095.75,1969.25 26070.95,1920.45 26032.15,1881.75 25983.45,1856.85 25929.35,1848.35 "/>
  <polygon class="fil0 str0" points="14016.55,1856.85 13967.85,1881.75 13929.15,1920.45 13904.25,1969.25 13895.75,2023.35 13904.25,2077.35 13929.15,2126.15 13967.85,2164.85 14016.55,2189.75 14070.75,2198.35 14124.75,2189.75 14173.55,2164.85 14212.25,2126.15 14237.15,2077.35 14245.75,2023.35 14237.15,1969.25 14212.25,1920.45 14173.55,1881.75 14124.75,1856.85 14070.75,1848.35 "/>
  <polygon class="fil0 str1" points="6923.47,3842.78 6867.67,3871.28 6823.47,3915.58 6795.07,3971.28 6785.27,4033.18 6795.07,4094.98 6823.47,4150.68 6867.67,4194.98 6923.47,4223.38 6985.27,4233.18 7047.07,4223.38 7102.77,4194.98 7147.07,4150.68 7175.47,4094.98 7185.27,4033.18 7175.47,3971.28 7147.07,3915.58 7102.77,3871.28 7047.07,3842.78 6985.27,3833.18 "/>
  <polygon class="fil0 str1" points="8923.71,3842.78 8867.91,3871.28 8823.71,3915.58 8795.31,3971.28 8785.51,4033.18 8795.31,4094.98 8823.71,4150.68 8867.91,4194.98 8923.71,4223.38 8985.51,4233.18 9047.31,4223.38 9103.01,4194.98 9147.31,4150.68 9175.71,4094.98 9185.51,4033.18 9175.71,3971.28 9147.31,3915.58 9103.01,3871.28 9047.31,3842.78 8985.51,3833.18 "/>
  <polygon class="fil0 str1" points="30952.79,3842.78 30896.99,3871.28 30852.79,3915.58 30824.39,3971.28 30814.59,4033.18 30824.39,4094.98 30852.79,4150.68 30896.99,4194.98 30952.79,4223.38 31014.59,4233.18 31076.39,4223.38 31132.09,4194.98 31176.39,4150.68 31204.79,4094.98 31214.59,4033.18 31204.79,3971.28 31176.39,3915.58 31132.09,3871.28 31076.39,3842.78 31014.59,3833.18 "/>
  <polygon class="fil0 str1" points="32953.03,3842.78 32897.23,3871.28 32853.03,3915.58 32824.63,3971.28 32814.83,4033.18 32824.63,4094.98 32853.03,4150.68 32897.23,4194.98 32953.03,4223.38 33014.83,4233.18 33076.63,4223.38 33132.33,4194.98 33176.63,4150.68 33205.03,4094.98 33214.83,4033.18 33205.03,3971.28 33176.63,3915.58 33132.33,3871.28 33076.63,3842.78 33014.83,3833.18 "/>
 </g>
</svg>
