<?xml version="1.0" encoding="UTF-8"?>
<!DOCTYPE svg PUBLIC "-//W3C//DTD SVG 1.1//EN" "http://www.w3.org/Graphics/SVG/1.1/DTD/svg11.dtd">
<!-- Creator: CorelDRAW 2020 (64-Bit) -->
<svg xmlns="http://www.w3.org/2000/svg" xml:space="preserve" width="370mm" height="145mm" version="1.1" style="shape-rendering:geometricPrecision; text-rendering:geometricPrecision; image-rendering:optimizeQuality; fill-rule:evenodd; clip-rule:evenodd"
viewBox="0 0 37000 14500"
 xmlns:xlink="http://www.w3.org/1999/xlink"
 xmlns:xodm="http://www.corel.com/coreldraw/odm/2003">
 <defs>
  <style type="text/css">
   <![CDATA[
    .str0 {stroke:#E62129;stroke-width:7.62;stroke-miterlimit:22.9256}
    .fil0 {fill:none}
   ]]>
  </style>
 </defs>
 <g id="Layer_x0020_1">
  <metadata id="CorelCorpID_0Corel-Layer"/>
  <polygon class="fil0 str0" points="7973.65,9086.25 9343.05,9377.35 9634.15,8007.95 8264.75,7716.85 "/>
  <polygon class="fil0 str0" points="5941.35,7717.05 5941.35,9117.05 7341.35,9117.05 7341.35,7717.05 "/>
  <polygon class="fil0 str0" points="24150.25,7749.45 24441.35,9118.95 25810.75,8827.85 25519.65,7458.45 "/>
  <polygon class="fil0 str0" points="2893.35,2002.05 2893.35,3402.05 4293.35,3402.05 4293.35,2002.05 "/>
  <polygon class="fil0 str0" points="25140.07,1547.03 25140.07,2947.03 26539.97,2947.03 26539.97,1547.03 "/>
  <polygon class="fil0 str0" points="6782.88,1497.03 6782.88,2897.03 8182.78,2897.03 8182.78,1497.03 "/>
  <polygon class="fil0 str0" points="4798.35,2002.05 4798.35,3402.05 6198.25,3402.05 6198.25,2002.05 "/>
  <polygon class="fil0 str0" points="27124.95,2002.05 27124.95,3402.05 28524.95,3402.05 28524.95,2002.05 "/>
  <polygon class="fil0 str0" points="32992.35,2002.05 32992.35,3402.05 34392.35,3402.05 34392.35,2002.05 "/>
  <polygon class="fil0 str0" points="30039.65,2002.05 30039.65,2472.05 29887.15,2472.05 29887.15,2149.05 29212.15,2149.05 29212.15,2472.05 29129.65,2472.05 29129.65,2752.05 29212.15,2752.05 29212.15,3379.05 29384.65,3379.05 29384.65,3499.05 29714.65,3499.05 29714.65,3379.05 29887.15,3379.05 29887.15,2932.05 30039.65,2932.05 30039.65,3402.05 31439.65,3402.05 31439.65,2932.05 31592.15,2932.05 31592.15,3379.05 31764.65,3379.05 31764.65,3499.05 32094.65,3499.05 32094.65,3379.05 32267.15,3379.05 32267.15,2752.05 32349.65,2752.05 32349.65,2472.05 32267.15,2472.05 32267.15,2149.05 31592.15,2149.05 31592.15,2472.05 31439.65,2472.05 31439.65,2002.05 "/>
  <polygon class="fil0 str0" points="22962.05,2159.45 23253.15,3528.85 24622.55,3237.75 24331.45,1868.35 "/>
  <polygon class="fil0 str0" points="8695.95,3397.15 10065.35,3688.25 10356.45,2318.85 8987.05,2027.75 "/>
  <polygon class="fil0 str0" points="21098.65,2555.45 21389.75,3924.85 22759.15,3633.85 22468.05,2264.45 "/>
  <polygon class="fil0 str0" points="10559.35,3793.25 11928.75,4084.25 12219.85,2714.85 10850.45,2423.85 "/>
  <polygon class="fil0 str0" points="19235.35,2951.55 19526.35,4320.95 20895.75,4029.85 20604.75,2660.45 "/>
  <polygon class="fil0 str0" points="12422.75,4189.25 13792.15,4480.35 14083.25,3110.95 12713.55,2819.85 "/>
  <polygon class="fil0 str0" points="17371.95,3347.65 17663.05,4717.05 19032.45,4425.95 18741.35,3056.55 "/>
  <polygon class="fil0 str0" points="14286.05,4585.35 15655.45,4876.45 15946.55,3507.05 14577.15,3215.95 "/>
  <polygon class="fil0 str0" points="24289.85,3824.75 24580.85,5194.15 25950.25,4903.05 25659.25,3533.65 "/>
  <polygon class="fil0 str0" points="2893.35,3907.05 2893.35,5307.05 4293.35,5307.05 4293.35,3907.05 "/>
  <polygon class="fil0 str0" points="5274.65,3907.05 5274.65,5307.05 6674.65,5307.05 6674.65,3907.05 "/>
  <polygon class="fil0 str0" points="27086.85,3907.05 27086.85,5307.05 28486.85,5307.05 28486.85,3907.05 "/>
  <polygon class="fil0 str0" points="28991.85,3907.05 28991.85,5307.05 30391.85,5307.05 30391.85,3907.05 "/>
  <polygon class="fil0 str0" points="31373.15,3907.05 31373.15,5307.05 32773.15,5307.05 32773.15,3907.05 "/>
  <polygon class="fil0 str0" points="33849.65,3907.05 33849.65,5307.05 35249.65,5307.05 35249.65,3907.05 "/>
  <polygon class="fil0 str0" points="7181.85,5022.85 8551.25,5313.95 8842.35,3944.55 7472.95,3653.45 "/>
  <polygon class="fil0 str0" points="22426.45,4220.85 22717.55,5590.25 24086.95,5299.15 23795.85,3929.75 "/>
  <polygon class="fil0 str0" points="9045.25,5418.95 10414.65,5710.05 10705.75,4340.65 9336.35,4049.55 "/>
  <polygon class="fil0 str0" points="20563.05,4616.85 20854.15,5986.25 22223.55,5695.25 21932.45,4325.85 "/>
  <polygon class="fil0 str0" points="10908.65,5815.05 12278.05,6106.05 12569.15,4736.65 11199.75,4445.65 "/>
  <polygon class="fil0 str0" points="18699.65,5012.95 18990.75,6382.35 20360.15,6091.25 20069.05,4721.85 "/>
  <polygon class="fil0 str0" points="12771.95,6210.95 14141.45,6502.15 14432.45,5132.75 13063.05,4841.65 "/>
  <polygon class="fil0 str0" points="16836.35,5409.05 17127.35,6778.45 18496.75,6487.35 18205.75,5117.95 "/>
  <polygon class="fil0 str0" points="2655.25,5812.05 2655.25,7212.05 4055.25,7212.05 4055.25,5812.05 "/>
  <polygon class="fil0 str0" points="5274.65,5812.05 5274.65,7212.05 6674.65,7212.05 6674.65,5812.05 "/>
  <polygon class="fil0 str0" points="26134.35,5812.05 26134.35,7212.05 27534.35,7212.05 27534.35,5812.05 "/>
  <polygon class="fil0 str0" points="28039.35,5812.05 28039.35,7212.05 29439.35,7212.05 29439.35,5812.05 "/>
  <polygon class="fil0 str0" points="34135.35,5812.05 34135.35,7212.05 35535.35,7212.05 35535.35,5812.05 "/>
  <polygon class="fil0 str0" points="7251.65,6985.25 8621.05,7276.35 8912.15,5906.95 7542.75,5615.85 "/>
  <polygon class="fil0 str0" points="31134.95,5812.05 31134.95,6282.05 30982.45,6282.05 30982.45,5959.05 30307.45,5959.05 30307.45,6282.05 30224.95,6282.05 30224.95,6562.05 30307.45,6562.05 30307.45,7189.05 30479.95,7189.05 30479.95,7309.05 30809.95,7309.05 30809.95,7189.05 30982.45,7189.05 30982.45,6742.05 31134.95,6742.05 31134.95,7212.05 32534.95,7212.05 32534.95,6742.05 32687.45,6742.05 32687.45,7189.05 32859.95,7189.05 32859.95,7309.05 33189.95,7309.05 33189.95,7189.05 33362.45,7189.05 33362.45,6562.05 33444.95,6562.05 33444.95,6282.05 33362.45,6282.05 33362.45,5959.05 32687.45,5959.05 32687.45,6282.05 32534.95,6282.05 32534.95,5812.05 "/>
  <polygon class="fil0 str0" points="23288.35,5985.15 23579.45,7354.55 24948.85,7063.55 24657.75,5694.05 "/>
  <polygon class="fil0 str0" points="9115.05,7381.35 10484.45,7672.45 10775.55,6302.95 9406.15,6011.95 "/>
  <polygon class="fil0 str0" points="21424.95,6381.25 21716.05,7750.65 23085.45,7459.55 22794.35,6090.15 "/>
  <polygon class="fil0 str0" points="10978.35,7777.35 12347.85,8068.45 12638.85,6699.05 11269.45,6407.95 "/>
  <polygon class="fil0 str0" points="19561.65,6777.35 19852.65,8146.75 21222.05,7855.65 20931.05,6486.25 "/>
  <polygon class="fil0 str0" points="12841.75,8173.45 14211.15,8464.55 14502.25,7095.15 13132.85,6804.05 "/>
  <polygon class="fil0 str0" points="17698.25,7173.35 17989.35,8542.75 19358.75,8251.75 19067.65,6882.35 "/>
  <polygon class="fil0 str0" points="26705.85,7717.05 26705.85,9117.05 28105.85,9117.05 28105.85,7717.05 "/>
  <polygon class="fil0 str0" points="28848.95,7717.05 28848.95,9117.05 30248.95,9117.05 30248.95,7717.05 "/>
  <polygon class="fil0 str0" points="30992.15,7717.05 30992.15,9117.05 32392.15,9117.05 32392.15,7717.05 "/>
  <polygon class="fil0 str0" points="33849.65,7717.05 33849.65,9117.05 35249.65,9117.05 35249.65,7717.05 "/>
  <polygon class="fil0 str0" points="2655.25,7717.05 2655.25,8187.05 2502.75,8187.05 2502.75,7864.05 1827.75,7864.05 1827.75,8187.05 1745.25,8187.05 1745.25,8467.05 1827.75,8467.05 1827.75,9094.05 2000.25,9094.05 2000.25,9214.05 2330.25,9214.05 2330.25,9094.05 2502.75,9094.05 2502.75,8647.05 2655.25,8647.05 2655.25,9117.05 4055.25,9117.05 4055.25,8647.05 4207.75,8647.05 4207.75,9094.05 4380.25,9094.05 4380.25,9214.05 4710.25,9214.05 4710.25,9094.05 4882.75,9094.05 4882.75,8467.05 4965.25,8467.05 4965.25,8187.05 4882.75,8187.05 4882.75,7864.05 4207.75,7864.05 4207.75,8187.05 4055.25,8187.05 4055.25,7717.05 "/>
  <polygon class="fil0 str0" points="22286.85,8145.55 22577.95,9515.05 23947.35,9223.95 23656.25,7854.55 "/>
  <polygon class="fil0 str0" points="9836.95,9482.35 11206.35,9773.45 11497.45,8404.05 10128.05,8112.95 "/>
  <polygon class="fil0 str0" points="20423.55,8541.65 20714.55,9911.05 22083.95,9619.95 21792.95,8250.55 "/>
  <polygon class="fil0 str0" points="11700.35,9878.45 13069.75,10169.45 13360.85,8800.05 11991.45,8509.05 "/>
  <polygon class="fil0 str0" points="18560.15,8937.75 18851.25,10307.15 20220.65,10016.05 19929.55,8646.65 "/>
  <polygon class="fil0 str0" points="13563.75,10274.45 14933.15,10565.55 15224.25,9196.15 13854.75,8905.05 "/>
  <polygon class="fil0 str0" points="1702.75,9622.05 1702.75,11022.05 3102.75,11022.05 3102.75,9622.05 "/>
  <polygon class="fil0 str0" points="29087.15,9622.05 29087.15,11022.05 30487.15,11022.05 30487.15,9622.05 "/>
  <polygon class="fil0 str0" points="30992.15,9622.05 30992.15,11022.05 32392.15,11022.05 32392.15,9622.05 "/>
  <polygon class="fil0 str0" points="32897.15,9622.05 32897.15,11022.05 34297.15,11022.05 34297.15,9622.05 "/>
  <polygon class="fil0 str0" points="26467.75,9622.05 26467.75,11022.05 27867.75,11022.05 27867.75,9622.05 "/>
  <polygon class="fil0 str0" points="23381.75,9860.45 23672.75,11229.85 25042.25,10938.75 24751.15,9569.35 "/>
  <polygon class="fil0 str0" points="7717.25,10979.35 9086.65,11270.45 9377.75,9901.05 8008.35,9609.95 "/>
  <polygon class="fil0 str0" points="10390.85,10139.85 10222.15,10104.05 10091.75,10717.35 10011.05,10700.15 9952.85,10974.05 10033.55,10991.15 9966.45,11307.15 10626.65,11447.45 10693.85,11131.55 10842.95,11163.25 10745.25,11622.95 12114.65,11914.05 12212.35,11454.35 12361.55,11486.05 12294.45,11801.95 12954.65,11942.25 13021.85,11626.35 13102.55,11643.55 13160.75,11369.65 13080.05,11352.45 13210.35,10739.15 13041.65,10703.35 13066.65,10585.95 12743.85,10517.35 12718.85,10634.65 12550.15,10598.85 12457.15,11036.05 12308.05,11004.35 12405.75,10544.65 11036.35,10253.55 10938.65,10713.25 10789.45,10681.55 10882.35,10244.35 10713.65,10208.45 10738.65,10091.15 10415.85,10022.45 "/>
  <polygon class="fil0 str0" points="21204.15,10473.55 21271.25,10789.55 21122.05,10821.25 21024.35,10361.55 19654.95,10652.55 19752.65,11112.35 19603.55,11144.05 19536.35,10828.05 18876.15,10968.45 18943.25,11284.35 18862.55,11301.55 18920.85,11575.35 19001.45,11558.25 19131.85,12171.55 19300.55,12135.65 19325.55,12253.05 19648.35,12184.45 19623.35,12067.05 19792.15,12031.25 19699.15,11593.95 19848.35,11562.25 19946.05,12021.95 21315.45,11730.95 21217.75,11271.15 21366.95,11239.45 21459.85,11676.75 21628.55,11640.85 21653.55,11758.25 21976.35,11689.65 21951.35,11572.25 22120.05,11536.35 21989.75,10923.05 22070.45,10905.95 22012.25,10632.05 21931.55,10649.15 21864.35,10333.25 "/>
  <polygon class="fil0 str0" points="13773.25,12266.55 15142.65,12557.65 15433.75,11188.25 14064.35,10897.15 "/>
  <polygon class="fil0 str0" points="36487.95,273.35 36511.45,274.25 36534.85,276.95 36557.95,281.55 36580.65,287.95 36602.75,296.15 36624.15,305.95 36644.65,317.55 36664.25,330.55 36682.75,345.15 36700.05,361.15 36716.05,378.45 36730.65,396.95 36743.75,416.55 36755.25,437.15 36765.15,458.45 36773.25,480.55 36779.65,503.25 36784.25,526.35 36787.05,549.75 36787.95,573.35 36787.95,12453.16 36787.05,12476.66 36784.25,12500.06 36779.65,12523.16 36773.25,12545.86 36765.15,12567.96 36755.25,12589.36 36743.75,12609.96 36730.65,12629.46 36716.05,12647.96 36700.05,12665.26 36682.75,12681.26 36664.25,12695.86 36644.65,12708.96 36624.15,12720.46 36602.75,12730.36 36580.65,12738.46 36557.95,12744.86 36534.85,12749.46 36511.45,12752.26 36487.95,12753.16 26467.2,12750.15 19132.27,14285.62 15147.59,14285.59 7717.21,12750.13 502.6,12750.18 479,12749.28 455.6,12746.48 432.5,12741.88 409.8,12735.48 387.7,12727.38 366.4,12717.48 345.8,12705.98 326.2,12692.88 307.7,12678.28 290.4,12662.28 274.4,12644.98 259.8,12626.48 246.8,12606.98 235.2,12586.38 225.4,12564.98 217.2,12542.88 210.8,12520.18 206.2,12497.08 203.5,12473.68 202.5,12450.18 212.07,11750.01 212.15,573.35 213.05,549.75 215.75,526.35 220.35,503.25 226.75,480.55 234.95,458.45 244.75,437.15 256.35,416.55 269.35,396.95 283.95,378.45 299.95,361.15 317.25,345.15 335.75,330.55 355.35,317.55 375.95,305.95 397.25,296.15 419.35,287.95 442.05,281.55 465.15,276.95 488.55,274.25 512.15,273.25 "/>
  <polygon class="fil0 str0" points="773.85,582.95 829.65,611.45 873.85,655.75 902.25,711.45 912.05,773.35 902.25,835.15 873.85,890.85 829.65,935.15 773.85,963.55 712.05,973.35 650.25,963.55 594.55,935.15 550.25,890.85 521.85,835.15 512.05,773.35 521.85,711.45 550.25,655.75 594.55,611.45 650.25,582.95 712.05,573.35 "/>
  <polygon class="fil0 str0" points="12632.55,582.95 12688.35,611.45 12732.55,655.75 12760.95,711.45 12770.75,773.35 12760.95,835.15 12732.55,890.85 12688.35,935.15 12632.55,963.55 12570.75,973.35 12508.95,963.55 12453.25,935.15 12408.95,890.85 12380.55,835.15 12370.75,773.35 12380.55,711.45 12408.95,655.75 12453.25,611.45 12508.95,582.95 12570.75,573.35 "/>
  <polygon class="fil0 str0" points="772.98,12063.92 828.78,12092.42 872.98,12136.72 901.38,12192.42 911.18,12254.32 901.38,12316.12 872.98,12371.82 828.78,12416.12 772.98,12444.52 711.18,12454.32 649.38,12444.52 593.68,12416.12 549.38,12371.82 520.98,12316.12 511.18,12254.32 520.98,12192.42 549.38,12136.72 593.68,12092.42 649.38,12063.92 711.18,12054.32 "/>
  <polygon class="fil0 str0" points="12636.46,13041.35 12692.26,13069.85 12736.46,13114.15 12764.86,13169.85 12774.66,13231.75 12764.86,13293.55 12736.46,13349.25 12692.26,13393.55 12636.46,13421.95 12574.66,13431.75 12512.86,13421.95 12457.16,13393.55 12412.86,13349.25 12384.46,13293.55 12374.66,13231.75 12384.46,13169.85 12412.86,13114.15 12457.16,13069.85 12512.86,13041.35 12574.66,13031.75 "/>
  <polygon class="fil0 str0" points="24496.36,12506.29 24552.16,12534.79 24596.36,12579.09 24624.76,12634.79 24634.56,12696.69 24624.76,12758.49 24596.36,12814.19 24552.16,12858.49 24496.36,12886.89 24434.56,12896.69 24372.76,12886.89 24317.06,12858.49 24272.76,12814.19 24244.36,12758.49 24234.56,12696.69 24244.36,12634.79 24272.76,12579.09 24317.06,12534.79 24372.76,12506.29 24434.56,12496.69 "/>
  <polygon class="fil0 str0" points="24491.15,582.95 24546.95,611.45 24591.15,655.75 24619.55,711.45 24629.35,773.35 24619.55,835.15 24591.15,890.85 24546.95,935.15 24491.15,963.55 24429.35,973.35 24367.55,963.55 24311.85,935.15 24267.55,890.85 24239.15,835.15 24229.35,773.35 24239.15,711.45 24267.55,655.75 24311.85,611.45 24367.55,582.95 24429.35,573.35 "/>
  <polygon class="fil0 str0" points="36349.75,582.95 36405.55,611.45 36449.75,655.75 36478.15,711.45 36487.95,773.35 36478.15,835.15 36449.75,890.85 36405.55,935.15 36349.75,963.55 36287.95,973.35 36226.15,963.55 36170.45,935.15 36126.15,890.85 36097.75,835.15 36087.95,773.35 36097.75,711.45 36126.15,655.75 36170.45,611.45 36226.15,582.95 36287.95,573.35 "/>
  <polygon class="fil0 str0" points="36349.36,12062.81 36405.16,12091.31 36449.36,12135.61 36477.76,12191.31 36487.56,12253.21 36477.76,12315.01 36449.36,12370.71 36405.16,12415.01 36349.36,12443.41 36287.56,12453.21 36225.76,12443.41 36170.06,12415.01 36125.76,12370.71 36097.36,12315.01 36087.56,12253.21 36097.36,12191.31 36125.76,12135.61 36170.06,12091.31 36225.76,12062.81 36287.56,12053.21 "/>
 </g>
</svg>
