<?xml version="1.0"?>
<!-- Generated by SVGo -->
<svg width="349.091mm" height="136.335mm"
     viewBox="0.000 0.000 349.091 136.335"
     xmlns="http://www.w3.org/2000/svg" 
     xmlns:xlink="http://www.w3.org/1999/xlink">
<polygon points="344.091,131.334 5.000,131.334 5.000,5.000 344.091,5.000" style="fill:none;stroke-width:0.050000mm;stroke:black"/>
<polygon points="130.610,124.932 144.305,127.843 147.216,114.149 133.522,111.238" style="fill:none;stroke-width:0.050000mm;stroke:black"/>
<polygon points="204.920,107.002 205.591,110.162 204.099,110.479 203.122,105.882 189.428,108.792 190.405,113.390 188.914,113.707 188.242,110.547 181.640,111.951 182.311,115.110 181.504,115.282 182.087,118.020 182.893,117.849 184.197,123.982 185.884,123.623 186.134,124.797 189.362,124.111 189.112,122.937 190.800,122.579 189.870,118.206 191.362,117.889 192.339,122.486 206.033,119.576 205.056,114.978 206.548,114.661 207.477,119.034 209.164,118.675 209.414,119.849 212.642,119.163 212.392,117.989 214.079,117.630 212.776,111.497 213.583,111.326 213.001,108.587 212.194,108.758 211.522,105.599" style="fill:none;stroke-width:0.050000mm;stroke:black"/>
<polygon points="96.787,103.665 95.100,103.307 93.796,109.440 92.989,109.268 92.407,112.007 93.214,112.178 92.543,115.338 99.145,116.741 99.817,113.582 101.308,113.899 100.331,118.496 114.025,121.407 115.002,116.810 116.494,117.127 115.823,120.286 122.425,121.689 123.097,118.530 123.904,118.702 124.486,115.963 123.679,115.791 124.982,109.658 123.295,109.300 123.545,108.126 120.317,107.440 120.067,108.613 118.380,108.255 117.450,112.627 115.959,112.310 116.936,107.713 103.242,104.802 102.265,109.399 100.773,109.082 101.702,104.710 100.015,104.351 100.265,103.178 97.037,102.491" style="fill:none;stroke-width:0.050000mm;stroke:black"/>
<polygon points="70.051,112.060 83.745,114.971 86.656,101.277 72.962,98.366" style="fill:none;stroke-width:0.050000mm;stroke:black"/>
<polygon points="225.764,101.069 228.675,114.763 242.369,111.852 239.458,98.158" style="fill:none;stroke-width:0.050000mm;stroke:black"/>
<polygon points="11.811,98.487 11.811,112.487 25.811,112.487 25.811,98.487" style="fill:none;stroke-width:0.050000mm;stroke:black"/>
<polygon points="128.514,105.011 142.210,107.922 145.121,94.228 131.426,91.317" style="fill:none;stroke-width:0.050000mm;stroke:black"/>
<polygon points="326.612,93.725 326.612,107.725 340.612,107.725 340.612,93.725" style="fill:none;stroke-width:0.050000mm;stroke:black"/>
<polygon points="307.562,93.725 307.562,107.725 321.562,107.725 321.562,93.725" style="fill:none;stroke-width:0.050000mm;stroke:black"/>
<polygon points="288.512,93.725 288.512,107.725 302.512,107.725 302.512,93.725" style="fill:none;stroke-width:0.050000mm;stroke:black"/>
<polygon points="267.081,93.725 267.081,107.725 281.081,107.725 281.081,93.725" style="fill:none;stroke-width:0.050000mm;stroke:black"/>
<polygon points="178.480,91.644 181.391,105.338 195.085,102.427 192.174,88.733" style="fill:none;stroke-width:0.050000mm;stroke:black"/>
<polygon points="109.882,101.051 123.576,103.961 126.487,90.267 112.793,87.357" style="fill:none;stroke-width:0.050000mm;stroke:black"/>
<polygon points="197.114,87.683 200.024,101.377 213.718,98.466 210.808,84.772" style="fill:none;stroke-width:0.050000mm;stroke:black"/>
<polygon points="91.248,97.090 104.942,100.001 107.853,86.307 94.159,83.396" style="fill:none;stroke-width:0.050000mm;stroke:black"/>
<polygon points="215.747,83.722 218.658,97.417 232.352,94.506 229.441,80.812" style="fill:none;stroke-width:0.050000mm;stroke:black"/>
<polygon points="72.615,93.129 86.309,96.040 89.219,82.346 75.525,79.435" style="fill:none;stroke-width:0.050000mm;stroke:black"/>
<polygon points="21.336,79.437 21.336,84.137 19.811,84.137 19.811,80.907 13.061,80.907 13.061,84.137 12.236,84.137 12.236,86.937 13.061,86.937 13.061,93.207 14.786,93.207 14.786,94.407 18.086,94.407 18.086,93.207 19.811,93.207 19.811,88.737 21.336,88.737 21.336,93.437 35.336,93.437 35.336,88.737 36.861,88.737 36.861,93.207 38.586,93.207 38.586,94.407 41.886,94.407 41.886,93.207 43.611,93.207 43.611,86.937 44.436,86.937 44.436,84.137 43.611,84.137 43.611,80.907 36.861,80.907 36.861,84.137 35.336,84.137 35.336,79.437" style="fill:none;stroke-width:0.050000mm;stroke:black"/>
<polygon points="234.381,79.762 237.292,93.456 250.986,90.545 248.075,76.851" style="fill:none;stroke-width:0.050000mm;stroke:black"/>
<polygon points="52.292,79.437 52.292,93.437 66.292,93.437 66.292,79.437" style="fill:none;stroke-width:0.050000mm;stroke:black"/>
<polygon points="326.612,74.675 326.612,88.675 340.612,88.675 340.612,74.675" style="fill:none;stroke-width:0.050000mm;stroke:black"/>
<polygon points="307.562,74.675 307.562,88.675 321.562,88.675 321.562,74.675" style="fill:none;stroke-width:0.050000mm;stroke:black"/>
<polygon points="282.321,74.675 282.321,88.675 296.321,88.675 296.321,74.675" style="fill:none;stroke-width:0.050000mm;stroke:black"/>
<polygon points="256.127,74.675 256.127,88.675 270.127,88.675 270.127,74.675" style="fill:none;stroke-width:0.050000mm;stroke:black"/>
<polygon points="169.861,74.000 172.772,87.694 186.466,84.784 183.555,71.090" style="fill:none;stroke-width:0.050000mm;stroke:black"/>
<polygon points="121.296,84.001 134.990,86.912 137.901,73.218 124.207,70.307" style="fill:none;stroke-width:0.050000mm;stroke:black"/>
<polygon points="188.495,70.040 191.405,83.734 205.099,80.823 202.189,67.129" style="fill:none;stroke-width:0.050000mm;stroke:black"/>
<polygon points="102.662,80.040 116.357,82.951 119.267,69.257 105.573,66.346" style="fill:none;stroke-width:0.050000mm;stroke:black"/>
<polygon points="207.128,66.079 210.039,79.773 223.733,76.862 220.822,63.168" style="fill:none;stroke-width:0.050000mm;stroke:black"/>
<polygon points="84.029,76.080 97.723,78.991 100.634,65.296 86.940,62.386" style="fill:none;stroke-width:0.050000mm;stroke:black"/>
<polygon points="225.762,62.118 228.673,75.812 242.367,72.902 239.456,59.207" style="fill:none;stroke-width:0.050000mm;stroke:black"/>
<polygon points="65.394,72.119 79.089,75.030 82.000,61.336 68.306,58.425" style="fill:none;stroke-width:0.050000mm;stroke:black"/>
<polygon points="45.625,60.387 45.625,74.387 59.625,74.387 59.625,60.387" style="fill:none;stroke-width:0.050000mm;stroke:black"/>
<polygon points="19.431,60.387 19.431,74.387 33.431,74.387 33.431,60.387" style="fill:none;stroke-width:0.050000mm;stroke:black"/>
<polygon points="243.464,58.356 246.375,72.050 260.069,69.139 257.158,55.445" style="fill:none;stroke-width:0.050000mm;stroke:black"/>
<polygon points="296.608,55.625 296.608,60.325 295.083,60.325 295.083,57.095 288.333,57.095 288.333,60.325 287.508,60.325 287.508,63.125 288.333,63.125 288.333,69.395 290.058,69.395 290.058,70.595 293.358,70.595 293.358,69.395 295.083,69.395 295.083,64.925 296.608,64.925 296.608,69.625 310.608,69.625 310.608,64.925 312.133,64.925 312.133,69.395 313.858,69.395 313.858,70.595 317.158,70.595 317.158,69.395 318.883,69.395 318.883,63.125 319.708,63.125 319.708,60.325 318.883,60.325 318.883,57.095 312.133,57.095 312.133,60.325 310.608,60.325 310.608,55.625" style="fill:none;stroke-width:0.050000mm;stroke:black"/>
<polygon points="161.242,56.357 164.152,70.051 177.846,67.140 174.936,53.446" style="fill:none;stroke-width:0.050000mm;stroke:black"/>
<polygon points="327.565,55.625 327.565,69.625 341.565,69.625 341.565,55.625" style="fill:none;stroke-width:0.050000mm;stroke:black"/>
<polygon points="265.652,55.625 265.652,69.625 279.652,69.625 279.652,55.625" style="fill:none;stroke-width:0.050000mm;stroke:black"/>
<polygon points="120.598,64.376 134.293,67.288 137.203,53.594 123.509,50.683" style="fill:none;stroke-width:0.050000mm;stroke:black"/>
<polygon points="179.875,52.396 182.786,66.090 196.480,63.179 193.569,49.485" style="fill:none;stroke-width:0.050000mm;stroke:black"/>
<polygon points="101.965,60.417 115.659,63.327 118.570,49.633 104.876,46.723" style="fill:none;stroke-width:0.050000mm;stroke:black"/>
<polygon points="198.509,48.435 201.420,62.129 215.114,59.219 212.203,45.525" style="fill:none;stroke-width:0.050000mm;stroke:black"/>
<polygon points="83.331,56.456 97.025,59.367 99.936,45.673 86.242,42.762" style="fill:none;stroke-width:0.050000mm;stroke:black"/>
<polygon points="217.143,44.475 220.054,58.169 233.748,55.258 230.837,41.564" style="fill:none;stroke-width:0.050000mm;stroke:black"/>
<polygon points="64.697,52.495 78.391,55.406 81.302,41.712 67.608,38.801" style="fill:none;stroke-width:0.050000mm;stroke:black"/>
<polygon points="45.625,41.337 45.625,55.337 59.625,55.337 59.625,41.337" style="fill:none;stroke-width:0.050000mm;stroke:black"/>
<polygon points="21.812,41.337 21.812,55.337 35.812,55.337 35.812,41.337" style="fill:none;stroke-width:0.050000mm;stroke:black"/>
<polygon points="235.777,40.514 238.687,54.208 252.381,51.297 249.471,37.603" style="fill:none;stroke-width:0.050000mm;stroke:black"/>
<polygon points="135.739,48.120 149.433,51.031 152.344,37.337 138.650,34.426" style="fill:none;stroke-width:0.050000mm;stroke:black"/>
<polygon points="323.755,36.575 323.755,50.575 337.755,50.575 337.755,36.575" style="fill:none;stroke-width:0.050000mm;stroke:black"/>
<polygon points="299.942,36.575 299.942,50.575 313.942,50.575 313.942,36.575" style="fill:none;stroke-width:0.050000mm;stroke:black"/>
<polygon points="276.130,36.575 276.130,50.575 290.130,50.575 290.130,36.575" style="fill:none;stroke-width:0.050000mm;stroke:black"/>
<polygon points="257.079,36.575 257.079,50.575 271.080,50.575 271.080,36.575" style="fill:none;stroke-width:0.050000mm;stroke:black"/>
<polygon points="166.598,35.743 169.509,49.437 183.203,46.526 180.292,32.832" style="fill:none;stroke-width:0.050000mm;stroke:black"/>
<polygon points="117.106,44.159 130.800,47.070 133.711,33.376 120.016,30.465" style="fill:none;stroke-width:0.050000mm;stroke:black"/>
<polygon points="185.232,31.782 188.142,45.476 201.836,42.565 198.926,28.871" style="fill:none;stroke-width:0.050000mm;stroke:black"/>
<polygon points="98.472,40.199 112.166,43.109 115.077,29.415 101.383,26.505" style="fill:none;stroke-width:0.050000mm;stroke:black"/>
<polygon points="203.865,27.821 206.776,41.515 220.470,38.605 217.559,24.911" style="fill:none;stroke-width:0.050000mm;stroke:black"/>
<polygon points="79.838,36.238 93.532,39.149 96.443,25.455 82.749,22.544" style="fill:none;stroke-width:0.050000mm;stroke:black"/>
<polygon points="222.499,23.861 225.410,37.555 239.104,34.644 236.193,20.950" style="fill:none;stroke-width:0.050000mm;stroke:black"/>
<polygon points="40.862,22.287 40.862,36.287 54.862,36.287 54.862,22.287" style="fill:none;stroke-width:0.050000mm;stroke:black"/>
<polygon points="21.812,22.287 21.812,36.287 35.812,36.287 35.812,22.287" style="fill:none;stroke-width:0.050000mm;stroke:black"/>
<polygon points="59.912,19.430 59.912,33.430 73.912,33.430 73.912,19.430" style="fill:none;stroke-width:0.050000mm;stroke:black"/>
<polygon points="293.275,17.525 293.275,22.224 291.750,22.224 291.750,18.994 285.000,18.994 285.000,22.224 284.174,22.224 284.174,25.025 285.000,25.025 285.000,31.294 286.724,31.294 286.724,32.494 290.025,32.494 290.025,31.294 291.750,31.294 291.750,26.825 293.275,26.825 293.275,31.525 307.275,31.525 307.275,26.825 308.799,26.825 308.799,31.294 310.525,31.294 310.525,32.494 313.825,32.494 313.825,31.294 315.549,31.294 315.549,25.025 316.375,25.025 316.375,22.224 315.549,22.224 315.549,18.994 308.799,18.994 308.799,22.224 307.275,22.224 307.275,17.525" style="fill:none;stroke-width:0.050000mm;stroke:black"/>
<polygon points="244.697,17.525 244.697,31.525 258.697,31.525 258.697,17.525" style="fill:none;stroke-width:0.050000mm;stroke:black"/>
<polygon points="321.849,17.525 321.849,31.525 335.849,31.525 335.849,17.525" style="fill:none;stroke-width:0.050000mm;stroke:black"/>
<polygon points="264.128,17.525 264.128,31.525 278.128,31.525 278.128,17.525" style="fill:none;stroke-width:0.050000mm;stroke:black"/>
</svg>
