<?xml version="1.0" encoding="UTF-8"?>
<!DOCTYPE svg PUBLIC "-//W3C//DTD SVG 1.1//EN" "http://www.w3.org/Graphics/SVG/1.1/DTD/svg11.dtd">
<!-- Creator: CorelDRAW 2020 (64-Bit) -->
<svg xmlns="http://www.w3.org/2000/svg" xml:space="preserve" width="370mm" height="145mm" version="1.1" style="shape-rendering:geometricPrecision; text-rendering:geometricPrecision; image-rendering:optimizeQuality; fill-rule:evenodd; clip-rule:evenodd"
viewBox="0 0 37000 14500"
 xmlns:xlink="http://www.w3.org/1999/xlink"
 xmlns:xodm="http://www.corel.com/coreldraw/odm/2003">
 <defs>
  <style type="text/css">
   <![CDATA[
    .str0 {stroke:#E62129;stroke-width:20;stroke-miterlimit:22.9256}
    .fil0 {fill:none}
   ]]>
  </style>
 </defs>
 <g id="Layer_x0020_1">
  <metadata id="CorelCorpID_0Corel-Layer"/>
  <polygon class="fil0 str0" points="36487.95,273.35 36511.45,274.25 36534.85,276.95 36557.95,281.55 36580.65,287.95 36602.75,296.15 36624.15,305.95 36644.65,317.55 36664.25,330.55 36682.75,345.15 36700.05,361.15 36716.05,378.45 36730.65,396.95 36743.75,416.55 36755.25,437.15 36765.15,458.45 36773.25,480.55 36779.65,503.25 36784.25,526.35 36787.05,549.75 36787.95,573.35 36787.95,12453.16 36787.05,12476.66 36784.25,12500.06 36779.65,12523.16 36773.25,12545.86 36765.15,12567.96 36755.25,12589.36 36743.75,12609.96 36730.65,12629.46 36716.05,12647.96 36700.05,12665.26 36682.75,12681.26 36664.25,12695.86 36644.65,12708.96 36624.15,12720.46 36602.75,12730.36 36580.65,12738.46 36557.95,12744.86 36534.85,12749.46 36511.45,12752.26 36487.95,12753.16 26467.2,12750.15 19132.27,14285.62 15147.59,14285.59 7717.21,12750.13 502.6,12750.18 479,12749.28 455.6,12746.48 432.5,12741.88 409.8,12735.48 387.7,12727.38 366.4,12717.48 345.8,12705.98 326.2,12692.88 307.7,12678.28 290.4,12662.28 274.4,12644.98 259.8,12626.48 246.8,12606.98 235.2,12586.38 225.4,12564.98 217.2,12542.88 210.8,12520.18 206.2,12497.08 203.5,12473.68 202.5,12450.18 212.07,11750.01 212.15,573.35 213.05,549.75 215.75,526.35 220.35,503.25 226.75,480.55 234.95,458.45 244.75,437.15 256.35,416.55 269.35,396.95 283.95,378.45 299.95,361.15 317.25,345.15 335.75,330.55 355.35,317.55 375.95,305.95 397.25,296.15 419.35,287.95 442.05,281.55 465.15,276.95 488.55,274.25 512.15,273.25 "/>
  <polygon class="fil0 str0" points="657.18,12087.92 608.38,12112.72 569.68,12151.42 544.78,12200.22 536.18,12254.32 544.78,12308.42 569.68,12357.22 608.38,12395.92 657.18,12420.72 711.18,12429.32 765.28,12420.72 814.08,12395.92 852.78,12357.22 877.68,12308.42 886.18,12254.32 877.68,12200.22 852.78,12151.42 814.08,12112.72 765.28,12087.92 711.18,12079.32 "/>
  <polygon class="fil0 str0" points="12520.46,13065.35 12471.76,13090.15 12433.06,13128.85 12408.16,13177.65 12399.66,13231.75 12408.16,13285.85 12433.06,13334.65 12471.76,13373.35 12520.46,13398.15 12574.66,13406.75 12628.66,13398.15 12677.46,13373.35 12716.16,13334.65 12741.06,13285.85 12749.66,13231.75 12741.06,13177.65 12716.16,13128.85 12677.46,13090.15 12628.66,13065.35 12574.66,13056.75 "/>
  <polygon class="fil0 str0" points="24380.46,12530.29 24331.66,12555.09 24292.96,12593.79 24268.06,12642.59 24259.56,12696.69 24268.06,12750.79 24292.96,12799.59 24331.66,12838.29 24380.46,12863.09 24434.56,12871.69 24488.66,12863.09 24537.36,12838.29 24576.16,12799.59 24600.96,12750.79 24609.56,12696.69 24600.96,12642.59 24576.16,12593.79 24537.36,12555.09 24488.66,12530.29 24434.56,12521.69 "/>
  <polygon class="fil0 str0" points="36233.46,12086.81 36184.66,12111.61 36145.96,12150.31 36121.16,12199.11 36112.56,12253.21 36121.16,12307.31 36145.96,12356.11 36184.66,12394.81 36233.46,12419.61 36287.56,12428.21 36341.66,12419.61 36390.46,12394.81 36429.16,12356.11 36453.96,12307.31 36462.56,12253.21 36453.96,12199.11 36429.16,12150.31 36390.46,12111.61 36341.66,12086.81 36287.56,12078.21 "/>
  <polygon class="fil0 str0" points="658.05,606.85 609.25,631.75 570.55,670.45 545.65,719.25 537.05,773.35 545.65,827.35 570.55,876.15 609.25,914.85 658.05,939.75 712.05,948.35 766.15,939.75 814.95,914.85 853.65,876.15 878.55,827.35 887.05,773.35 878.55,719.25 853.65,670.45 814.95,631.75 766.15,606.85 712.05,598.35 "/>
  <polygon class="fil0 str0" points="36233.85,606.85 36185.05,631.75 36146.35,670.45 36121.55,719.25 36112.95,773.35 36121.55,827.35 36146.35,876.15 36185.05,914.85 36233.85,939.75 36287.95,948.35 36342.05,939.75 36390.85,914.85 36429.55,876.15 36454.35,827.35 36462.95,773.35 36454.35,719.25 36429.55,670.45 36390.85,631.75 36342.05,606.85 36287.95,598.35 "/>
  <polygon class="fil0 str0" points="24375.25,606.85 24326.45,631.75 24287.75,670.45 24262.85,719.25 24254.35,773.35 24262.85,827.35 24287.75,876.15 24326.45,914.85 24375.25,939.75 24429.35,948.35 24483.45,939.75 24532.15,914.85 24570.95,876.15 24595.75,827.35 24604.35,773.35 24595.75,719.25 24570.95,670.45 24532.15,631.75 24483.45,606.85 24429.35,598.35 "/>
  <polygon class="fil0 str0" points="12516.55,606.85 12467.85,631.75 12429.15,670.45 12404.25,719.25 12395.75,773.35 12404.25,827.35 12429.15,876.15 12467.85,914.85 12516.55,939.75 12570.75,948.35 12624.75,939.75 12673.55,914.85 12712.25,876.15 12737.15,827.35 12745.75,773.35 12737.15,719.25 12712.25,670.45 12673.55,631.75 12624.75,606.85 12570.75,598.35 "/>
  <polygon class="fil0 str0" points="6450.95,1750.44 2640.75,1750.44 2640.75,3655.44 2164.55,3655.44 2164.55,5560.44 1688.25,5560.44 1688.25,7465.44 1212.05,7465.44 1212.05,11275.64 3593.45,11275.64 3593.45,9370.64 7557.75,9370.64 7184.75,11125.34 9514.15,11620.54 15570.15,12907.74 15966.25,11044.14 15127.65,10865.94 15523.75,9002.54 14405.75,8764.94 14801.85,6901.54 14335.95,6802.54 14731.95,4939.44 15850.05,5177.04 16246.15,3313.44 12519.25,2521.24 12519.25,2521.34 8792.45,1729.14 "/>
  <polygon class="fil0 str0" points="20799.25,2361.94 20799.25,2361.84 17072.35,3154.04 17468.45,5017.44 16536.75,5215.44 16932.85,7079.04 17398.65,6980.04 17794.75,8843.34 18260.55,8744.34 18656.65,10607.54 17724.95,10805.54 18121.05,12669.14 25574.65,11084.84 25977.05,11275.64 34549.75,11275.64 34549.75,9370.64 35502.25,9370.64 35502.25,7465.64 35787.95,7465.64 35787.95,5560.44 35502.25,5560.44 35502.25,3655.44 34644.95,3655.44 34644.95,1750.44 32644.75,1750.44 26872.35,1750.44 24526.05,1569.74 "/>
 </g>
</svg>
