<?xml version="1.0"?>
<!-- Generated by SVGo -->
<svg width="102.202mm" height="121.252mm"
     viewBox="0.000 0.000 102.202 121.252"
     xmlns="http://www.w3.org/2000/svg" 
     xmlns:xlink="http://www.w3.org/1999/xlink">
<polygon points="94.202,5.001 94.437,5.010 94.671,5.037 94.902,5.083 95.129,5.147 95.350,5.229 95.563,5.327 95.769,5.443 95.965,5.573 96.150,5.719 96.323,5.879 96.483,6.052 96.629,6.237 96.759,6.433 96.875,6.639 96.973,6.852 97.055,7.073 97.119,7.300 97.165,7.531 97.192,7.765 97.202,8.001 97.202,113.252 97.192,113.487 97.165,113.721 97.119,113.952 97.055,114.179 96.973,114.400 96.875,114.613 96.759,114.819 96.629,115.015 96.483,115.200 96.323,115.373 96.150,115.533 95.965,115.679 95.769,115.809 95.563,115.925 95.350,116.023 95.129,116.105 94.902,116.169 94.671,116.215 94.437,116.242 94.201,116.252 8.001,116.252 7.765,116.242 7.531,116.215 7.300,116.169 7.073,116.105 6.852,116.023 6.639,115.925 6.433,115.809 6.237,115.679 6.052,115.533 5.879,115.373 5.719,115.200 5.573,115.015 5.443,114.819 5.327,114.613 5.229,114.400 5.147,114.179 5.083,113.952 5.037,113.721 5.010,113.487 5.000,113.252 5.001,8.001 5.010,7.765 5.037,7.531 5.083,7.300 5.147,7.073 5.229,6.852 5.327,6.639 5.443,6.433 5.573,6.237 5.719,6.052 5.879,5.879 6.052,5.719 6.237,5.573 6.433,5.443 6.639,5.327 6.852,5.229 7.073,5.147 7.300,5.083 7.531,5.037 7.765,5.010 8.001,5.000" style="fill:none;stroke-width:0.050000mm;stroke:black"/>
<polygon points="8.382,110.349 7.825,110.633 7.382,111.076 7.098,111.633 7.000,112.252 7.098,112.870 7.382,113.427 7.825,113.870 8.382,114.154 9.001,114.252 9.619,114.154 10.176,113.870 10.619,113.427 10.903,112.870 11.001,112.252 10.903,111.633 10.619,111.076 10.176,110.633 9.619,110.349 9.001,110.252" style="fill:none;stroke-width:0.050000mm;stroke:black"/>
<polygon points="92.583,110.349 92.026,110.633 91.583,111.076 91.299,111.633 91.202,112.252 91.299,112.870 91.583,113.427 92.026,113.870 92.583,114.154 93.202,114.252 93.820,114.154 94.377,113.870 94.820,113.427 95.104,112.870 95.202,112.252 95.104,111.633 94.820,111.076 94.377,110.633 93.820,110.349 93.202,110.252" style="fill:none;stroke-width:0.050000mm;stroke:black"/>
<polygon points="53.626,91.726 53.626,105.726 67.626,105.726 67.626,91.726" style="fill:none;stroke-width:0.050000mm;stroke:black"/>
<polygon points="34.576,91.726 34.576,105.726 48.576,105.726 48.576,91.726" style="fill:none;stroke-width:0.050000mm;stroke:black"/>
<polygon points="15.525,91.726 15.525,105.726 29.526,105.726 29.526,91.726" style="fill:none;stroke-width:0.050000mm;stroke:black"/>
<polygon points="79.176,73.101 79.176,73.926 72.906,73.926 72.906,75.651 71.706,75.651 71.706,78.951 72.906,78.951 72.906,80.676 77.376,80.676 77.376,82.201 72.676,82.201 72.676,96.201 77.376,96.201 77.376,97.726 72.906,97.726 72.906,99.451 71.706,99.451 71.706,102.751 72.906,102.751 72.906,104.476 79.176,104.476 79.176,105.301 81.976,105.301 81.976,104.476 85.206,104.476 85.206,97.726 81.976,97.726 81.976,96.201 86.676,96.201 86.676,82.201 81.976,82.201 81.976,80.676 85.206,80.676 85.206,73.926 81.976,73.926 81.976,73.101" style="fill:none;stroke-width:0.050000mm;stroke:black"/>
<polygon points="53.626,72.676 53.626,86.676 67.626,86.676 67.626,72.676" style="fill:none;stroke-width:0.050000mm;stroke:black"/>
<polygon points="34.576,72.676 34.576,86.676 48.576,86.676 48.576,72.676" style="fill:none;stroke-width:0.050000mm;stroke:black"/>
<polygon points="15.525,72.676 15.525,86.676 29.526,86.676 29.526,72.676" style="fill:none;stroke-width:0.050000mm;stroke:black"/>
<polygon points="53.626,53.626 53.626,67.626 67.626,67.626 67.626,53.626" style="fill:none;stroke-width:0.050000mm;stroke:black"/>
<polygon points="34.576,53.626 34.576,67.626 48.576,67.626 48.576,53.626" style="fill:none;stroke-width:0.050000mm;stroke:black"/>
<polygon points="15.525,53.626 15.525,67.626 29.526,67.626 29.526,53.626" style="fill:none;stroke-width:0.050000mm;stroke:black"/>
<polygon points="79.176,35.001 79.176,35.826 72.906,35.826 72.906,37.551 71.706,37.551 71.706,40.851 72.906,40.851 72.906,42.576 77.376,42.576 77.376,44.101 72.676,44.101 72.676,58.101 77.376,58.101 77.376,59.626 72.906,59.626 72.906,61.351 71.706,61.351 71.706,64.651 72.906,64.651 72.906,66.376 79.176,66.376 79.176,67.201 81.976,67.201 81.976,66.376 85.206,66.376 85.206,59.626 81.976,59.626 81.976,58.101 86.676,58.101 86.676,44.101 81.976,44.101 81.976,42.576 85.206,42.576 85.206,35.826 81.976,35.826 81.976,35.001" style="fill:none;stroke-width:0.050000mm;stroke:black"/>
<polygon points="53.626,34.576 53.626,48.576 67.626,48.576 67.626,34.576" style="fill:none;stroke-width:0.050000mm;stroke:black"/>
<polygon points="34.576,34.576 34.576,48.576 48.576,48.576 48.576,34.576" style="fill:none;stroke-width:0.050000mm;stroke:black"/>
<polygon points="15.525,34.576 15.525,48.576 29.526,48.576 29.526,34.576" style="fill:none;stroke-width:0.050000mm;stroke:black"/>
<polygon points="72.676,15.525 72.676,29.526 86.676,29.526 86.676,15.525" style="fill:none;stroke-width:0.050000mm;stroke:black"/>
<polygon points="53.626,15.525 53.626,29.526 67.626,29.526 67.626,15.525" style="fill:none;stroke-width:0.050000mm;stroke:black"/>
<polygon points="34.576,15.525 34.576,29.526 48.576,29.526 48.576,15.525" style="fill:none;stroke-width:0.050000mm;stroke:black"/>
<polygon points="15.525,15.525 15.525,29.526 29.526,29.526 29.526,15.525" style="fill:none;stroke-width:0.050000mm;stroke:black"/>
<polygon points="8.382,7.098 7.825,7.382 7.382,7.825 7.098,8.382 7.000,9.001 7.098,9.619 7.382,10.176 7.825,10.619 8.382,10.903 9.001,11.001 9.619,10.903 10.176,10.619 10.619,10.176 10.903,9.619 11.001,9.001 10.903,8.382 10.619,7.825 10.176,7.382 9.619,7.098 9.001,7.001" style="fill:none;stroke-width:0.050000mm;stroke:black"/>
<polygon points="92.583,7.098 92.026,7.382 91.583,7.825 91.299,8.382 91.202,9.001 91.299,9.619 91.583,10.176 92.026,10.619 92.583,10.903 93.202,11.001 93.820,10.903 94.377,10.619 94.820,10.176 95.104,9.619 95.202,9.001 95.104,8.382 94.820,7.825 94.377,7.382 93.820,7.098 93.202,7.001" style="fill:none;stroke-width:0.050000mm;stroke:black"/>
</svg>
