<?xml version="1.0"?>
<!-- Generated by SVGo -->
<svg width="375.759mm" height="146.335mm"
     viewBox="0.000 0.000 375.759 146.335"
     xmlns="http://www.w3.org/2000/svg" 
     xmlns:xlink="http://www.w3.org/1999/xlink">
<polygon points="367.759,5.001 367.994,5.010 368.228,5.037 368.459,5.083 368.686,5.147 368.907,5.229 369.121,5.327 369.326,5.443 369.522,5.573 369.707,5.719 369.880,5.879 370.040,6.052 370.186,6.237 370.317,6.433 370.432,6.639 370.531,6.852 370.612,7.073 370.676,7.300 370.722,7.531 370.750,7.765 370.759,8.001 370.759,138.335 370.750,138.570 370.722,138.804 370.676,139.035 370.612,139.262 370.531,139.483 370.432,139.697 370.317,139.903 370.186,140.098 370.040,140.283 369.880,140.456 369.707,140.616 369.522,140.762 369.326,140.893 369.121,141.008 368.907,141.107 368.686,141.188 368.459,141.252 368.228,141.298 367.994,141.326 367.759,141.335 8.001,141.335 7.765,141.326 7.531,141.298 7.300,141.252 7.073,141.188 6.852,141.107 6.639,141.008 6.433,140.893 6.237,140.762 6.052,140.616 5.879,140.456 5.719,140.283 5.573,140.098 5.443,139.903 5.327,139.697 5.229,139.483 5.147,139.262 5.083,139.035 5.037,138.804 5.010,138.570 5.000,138.335 5.001,8.001 5.010,7.765 5.037,7.531 5.083,7.300 5.147,7.073 5.229,6.852 5.327,6.639 5.443,6.433 5.573,6.237 5.719,6.052 5.879,5.879 6.052,5.719 6.237,5.573 6.433,5.443 6.639,5.327 6.852,5.229 7.073,5.147 7.300,5.083 7.531,5.037 7.765,5.010 8.001,5.000" style="fill:none;stroke-width:0.050000mm;stroke:black"/>
<polygon points="9.382,134.433 8.825,134.717 8.382,135.160 8.097,135.717 8.000,136.335 8.097,136.953 8.382,137.511 8.825,137.953 9.382,138.237 10.000,138.335 10.619,138.237 11.176,137.953 11.619,137.511 11.903,136.953 12.000,136.335 11.903,135.717 11.619,135.160 11.176,134.717 10.619,134.433 10.000,134.335" style="fill:none;stroke-width:0.050000mm;stroke:black"/>
<polygon points="127.969,134.433 127.411,134.717 126.969,135.160 126.685,135.717 126.587,136.335 126.685,136.953 126.969,137.511 127.411,137.953 127.969,138.237 128.587,138.335 129.205,138.237 129.762,137.953 130.205,137.511 130.489,136.953 130.587,136.335 130.489,135.717 130.205,135.160 129.762,134.717 129.205,134.433 128.587,134.335" style="fill:none;stroke-width:0.050000mm;stroke:black"/>
<polygon points="246.555,134.433 245.997,134.717 245.555,135.160 245.271,135.717 245.173,136.335 245.271,136.953 245.555,137.511 245.997,137.953 246.555,138.237 247.173,138.335 247.791,138.237 248.348,137.953 248.791,137.511 249.075,136.953 249.173,136.335 249.075,135.717 248.791,135.160 248.348,134.717 247.791,134.433 247.173,134.335" style="fill:none;stroke-width:0.050000mm;stroke:black"/>
<polygon points="365.141,134.433 364.583,134.717 364.141,135.160 363.857,135.717 363.759,136.335 363.857,136.953 364.141,137.511 364.583,137.953 365.141,138.237 365.759,138.335 366.377,138.237 366.935,137.953 367.377,137.511 367.661,136.953 367.759,136.335 367.661,135.717 367.377,135.160 366.935,134.717 366.377,134.433 365.759,134.335" style="fill:none;stroke-width:0.050000mm;stroke:black"/>
<polygon points="9.382,8.097 8.825,8.382 8.382,8.825 8.097,9.382 8.000,10.001 8.097,10.619 8.382,11.176 8.825,11.619 9.382,11.903 10.000,12.001 10.619,11.903 11.176,11.619 11.619,11.176 11.903,10.619 12.000,10.001 11.903,9.382 11.619,8.825 11.176,8.382 10.619,8.097 10.000,8.001" style="fill:none;stroke-width:0.050000mm;stroke:black"/>
<polygon points="365.141,8.097 364.583,8.382 364.141,8.825 363.857,9.382 363.759,10.001 363.857,10.619 364.141,11.176 364.583,11.619 365.141,11.903 365.759,12.001 366.377,11.903 366.935,11.619 367.377,11.176 367.661,10.619 367.759,10.001 367.661,9.382 367.377,8.825 366.935,8.382 366.377,8.097 365.759,8.001" style="fill:none;stroke-width:0.050000mm;stroke:black"/>
<polygon points="246.555,8.097 245.997,8.382 245.555,8.825 245.271,9.382 245.173,10.001 245.271,10.619 245.555,11.176 245.997,11.619 246.555,11.903 247.173,12.001 247.791,11.903 248.348,11.619 248.791,11.176 249.075,10.619 249.173,10.001 249.075,9.382 248.791,8.825 248.348,8.382 247.791,8.097 247.173,8.001" style="fill:none;stroke-width:0.050000mm;stroke:black"/>
<polygon points="127.969,8.097 127.411,8.382 126.969,8.825 126.685,9.382 126.587,10.001 126.685,10.619 126.969,11.176 127.411,11.619 127.969,11.903 128.587,12.001 129.205,11.903 129.762,11.619 130.205,11.176 130.489,10.619 130.587,10.001 130.489,9.382 130.205,8.825 129.762,8.382 129.205,8.097 128.587,8.001" style="fill:none;stroke-width:0.050000mm;stroke:black"/>
</svg>
