<?xml version="1.0" encoding="UTF-8"?>
<!DOCTYPE svg PUBLIC "-//W3C//DTD SVG 1.1//EN" "http://www.w3.org/Graphics/SVG/1.1/DTD/svg11.dtd">
<!-- Creator: CorelDRAW 2020 (64-Bit) -->
<svg xmlns="http://www.w3.org/2000/svg" xml:space="preserve" width="210mm" height="297mm" version="1.1" style="shape-rendering:geometricPrecision; text-rendering:geometricPrecision; image-rendering:optimizeQuality; fill-rule:evenodd; clip-rule:evenodd"
viewBox="0 0 21000 29700"
 xmlns:xlink="http://www.w3.org/1999/xlink"
 xmlns:xodm="http://www.corel.com/coreldraw/odm/2003">
 <defs>
  <style type="text/css">
   <![CDATA[
    .str1 {stroke:#E62129;stroke-width:20;stroke-miterlimit:22.9256}
    .str0 {stroke:#E62129;stroke-width:7.62;stroke-miterlimit:22.9256}
    .fil0 {fill:none}
   ]]>
  </style>
 </defs>
 <g id="Layer_x0020_1">
  <metadata id="CorelCorpID_0Corel-Layer"/>
  <polygon class="fil0 str0" points="28487.95,7873.35 28511.45,7874.25 28534.85,7876.95 28557.95,7881.55 28580.65,7887.95 28602.75,7896.15 28624.15,7905.95 28644.65,7917.55 28664.25,7930.55 28682.75,7945.15 28700.05,7961.15 28716.05,7978.45 28730.65,7996.95 28743.75,8016.55 28755.25,8037.15 28765.15,8058.45 28773.25,8080.55 28779.65,8103.25 28784.25,8126.35 28787.05,8149.75 28787.95,8173.35 28787.95,20053.16 28787.05,20076.66 28784.25,20100.06 28779.65,20123.16 28773.25,20145.86 28765.15,20167.96 28755.25,20189.36 28743.75,20209.96 28730.65,20229.46 28716.05,20247.96 28700.05,20265.26 28682.75,20281.26 28664.25,20295.86 28644.65,20308.96 28624.15,20320.46 28602.75,20330.36 28580.65,20338.46 28557.95,20344.86 28534.85,20349.46 28511.45,20352.26 28487.95,20353.16 18467.2,20350.15 11132.27,21885.62 7147.59,21885.59 -282.79,20350.13 -7497.4,20350.18 -7521,20349.28 -7544.4,20346.48 -7567.5,20341.88 -7590.2,20335.48 -7612.3,20327.38 -7633.6,20317.48 -7654.2,20305.98 -7673.8,20292.88 -7692.3,20278.28 -7709.6,20262.28 -7725.6,20244.98 -7740.2,20226.48 -7753.2,20206.98 -7764.8,20186.38 -7774.6,20164.98 -7782.8,20142.88 -7789.2,20120.18 -7793.8,20097.08 -7796.5,20073.68 -7797.5,20050.18 -7787.93,19350.01 -7787.85,8173.35 -7786.95,8149.75 -7784.25,8126.35 -7779.65,8103.25 -7773.25,8080.55 -7765.05,8058.45 -7755.25,8037.15 -7743.65,8016.55 -7730.65,7996.95 -7716.05,7978.45 -7700.05,7961.15 -7682.75,7945.15 -7664.25,7930.55 -7644.65,7917.55 -7624.05,7905.95 -7602.75,7896.15 -7580.65,7887.95 -7557.95,7881.55 -7534.85,7876.95 -7511.45,7874.25 -7487.85,7873.25 "/>
  <polygon class="fil0 str1" points="-7342.82,19687.92 -7391.62,19712.72 -7430.32,19751.42 -7455.22,19800.22 -7463.82,19854.32 -7455.22,19908.42 -7430.32,19957.22 -7391.62,19995.92 -7342.82,20020.72 -7288.82,20029.32 -7234.72,20020.72 -7185.92,19995.92 -7147.22,19957.22 -7122.32,19908.42 -7113.82,19854.32 -7122.32,19800.22 -7147.22,19751.42 -7185.92,19712.72 -7234.72,19687.92 -7288.82,19679.32 "/>
  <polygon class="fil0 str1" points="4520.46,20665.35 4471.76,20690.15 4433.06,20728.85 4408.16,20777.65 4399.66,20831.75 4408.16,20885.85 4433.06,20934.65 4471.76,20973.35 4520.46,20998.15 4574.66,21006.75 4628.66,20998.15 4677.46,20973.35 4716.16,20934.65 4741.06,20885.85 4749.66,20831.75 4741.06,20777.65 4716.16,20728.85 4677.46,20690.15 4628.66,20665.35 4574.66,20656.75 "/>
  <polygon class="fil0 str1" points="16380.46,20130.29 16331.66,20155.09 16292.96,20193.79 16268.06,20242.59 16259.56,20296.69 16268.06,20350.79 16292.96,20399.59 16331.66,20438.29 16380.46,20463.09 16434.56,20471.69 16488.66,20463.09 16537.36,20438.29 16576.16,20399.59 16600.96,20350.79 16609.56,20296.69 16600.96,20242.59 16576.16,20193.79 16537.36,20155.09 16488.66,20130.29 16434.56,20121.69 "/>
  <polygon class="fil0 str1" points="28233.46,19686.81 28184.66,19711.61 28145.96,19750.31 28121.16,19799.11 28112.56,19853.21 28121.16,19907.31 28145.96,19956.11 28184.66,19994.81 28233.46,20019.61 28287.56,20028.21 28341.66,20019.61 28390.46,19994.81 28429.16,19956.11 28453.96,19907.31 28462.56,19853.21 28453.96,19799.11 28429.16,19750.31 28390.46,19711.61 28341.66,19686.81 28287.56,19678.21 "/>
  <polygon class="fil0 str1" points="-7341.95,8206.85 -7390.75,8231.75 -7429.45,8270.45 -7454.35,8319.25 -7462.95,8373.35 -7454.35,8427.35 -7429.45,8476.15 -7390.75,8514.85 -7341.95,8539.75 -7287.95,8548.35 -7233.85,8539.75 -7185.05,8514.85 -7146.35,8476.15 -7121.45,8427.35 -7112.95,8373.35 -7121.45,8319.25 -7146.35,8270.45 -7185.05,8231.75 -7233.85,8206.85 -7287.95,8198.35 "/>
  <polygon class="fil0 str1" points="28233.85,8206.85 28185.05,8231.75 28146.35,8270.45 28121.55,8319.25 28112.95,8373.35 28121.55,8427.35 28146.35,8476.15 28185.05,8514.85 28233.85,8539.75 28287.95,8548.35 28342.05,8539.75 28390.85,8514.85 28429.55,8476.15 28454.35,8427.35 28462.95,8373.35 28454.35,8319.25 28429.55,8270.45 28390.85,8231.75 28342.05,8206.85 28287.95,8198.35 "/>
  <polygon class="fil0 str1" points="16375.25,8206.85 16326.45,8231.75 16287.75,8270.45 16262.85,8319.25 16254.35,8373.35 16262.85,8427.35 16287.75,8476.15 16326.45,8514.85 16375.25,8539.75 16429.35,8548.35 16483.45,8539.75 16532.15,8514.85 16570.95,8476.15 16595.75,8427.35 16604.35,8373.35 16595.75,8319.25 16570.95,8270.45 16532.15,8231.75 16483.45,8206.85 16429.35,8198.35 "/>
  <polygon class="fil0 str1" points="4516.55,8206.85 4467.85,8231.75 4429.15,8270.45 4404.25,8319.25 4395.75,8373.35 4404.25,8427.35 4429.15,8476.15 4467.85,8514.85 4516.55,8539.75 4570.75,8548.35 4624.75,8539.75 4673.55,8514.85 4712.25,8476.15 4737.15,8427.35 4745.75,8373.35 4737.15,8319.25 4712.25,8270.45 4673.55,8231.75 4624.75,8206.85 4570.75,8198.35 "/>
  <g id="LEFT_x0020_SIDE_x0020_2_0">
   <line class="fil0 str0" x1="-7902.19" y1="18145.76" x2="-8906.15" y2= "18145.35" />
   <polyline class="fil0 str0" points="8882.84,6664.83 -8606.07,6668.59 -8629.67,6669.59 -8653.07,6672.29 -8676.17,6676.89 -8698.87,6683.29 -8720.97,6691.49 -8742.27,6701.29 -8762.87,6712.89 -8782.47,6725.89 -8800.97,6740.49 -8818.27,6756.49 -8834.27,6773.79 -8848.87,6792.29 -8861.87,6811.89 -8873.47,6832.49 -8883.27,6853.79 -8891.47,6875.89 -8897.87,6898.59 -8902.47,6921.69 -8905.17,6945.09 -8906.07,6968.69 -8916.14,18148.51 -7903.53,18148.44 "/>
   <polygon class="fil0 str0" points="-8460.17,7002.19 -8508.97,7027.09 -8547.67,7065.79 -8572.57,7114.59 -8581.17,7168.69 -8572.57,7222.69 -8547.67,7271.49 -8508.97,7310.19 -8460.17,7335.09 -8406.17,7343.69 -8352.07,7335.09 -8303.27,7310.19 -8264.57,7271.49 -8239.67,7222.69 -8231.17,7168.69 -8239.67,7114.59 -8264.57,7065.79 -8303.27,7027.09 -8352.07,7002.19 -8406.17,6993.69 "/>
   <polygon class="fil0 str0" points="3398.33,7002.19 3349.63,7027.09 3310.93,7065.79 3286.03,7114.59 3277.53,7168.69 3286.03,7222.69 3310.93,7271.49 3349.63,7310.19 3398.33,7335.09 3452.53,7343.69 3506.53,7335.09 3555.33,7310.19 3594.03,7271.49 3618.93,7222.69 3627.53,7168.69 3618.93,7114.59 3594.03,7065.79 3555.33,7027.09 3506.53,7002.19 3452.53,6993.69 "/>
   <polyline class="fil0 str0" points="8881.71,7668.69 -7906.07,7668.69 -7907.27,18148.45 "/>
   <line class="fil0 str0" x1="8882.84" y1="6664.83" x2="8881.71" y2= "7668.69" />
  </g>
  <g id="RIGHT_x0020_SIDE">
   <polyline class="fil0 str0" points="12115.34,6752.15 29602.32,6752.2 29625.82,6753.1 29649.22,6755.8 29672.32,6760.4 29695.02,6766.8 29717.12,6775 29738.52,6784.8 29759.02,6796.4 29778.62,6809.4 29797.12,6824 29814.42,6840 29830.42,6857.3 29845.02,6875.8 29858.12,6895.4 29869.62,6916 29879.52,6937.3 29887.62,6959.4 29894.02,6982.1 29898.62,7005.2 29901.42,7028.6 29902.32,7052.2 29902.32,12633.42 29902.32,18230.85 "/>
   <polygon class="fil0 str0" points="29348.22,7085.7 29299.42,7110.6 29260.72,7149.3 29235.92,7198.1 29227.32,7252.2 29235.92,7306.2 29260.72,7355 29299.42,7393.7 29348.22,7418.6 29402.32,7427.2 29456.42,7418.6 29505.22,7393.7 29543.92,7355 29568.72,7306.2 29577.32,7252.2 29568.72,7198.1 29543.92,7149.3 29505.22,7110.6 29456.42,7085.7 29402.32,7077.2 "/>
   <polygon class="fil0 str0" points="17489.62,7085.7 17440.82,7110.6 17402.12,7149.3 17377.22,7198.1 17368.72,7252.2 17377.22,7306.2 17402.12,7355 17440.82,7393.7 17489.62,7418.6 17543.72,7427.2 17597.82,7418.6 17646.52,7393.7 17685.32,7355 17710.12,7306.2 17718.72,7252.2 17710.12,7198.1 17685.32,7149.3 17646.52,7110.6 17597.82,7085.7 17543.72,7077.2 "/>
   <polyline class="fil0 str0" points="28901.32,18231.68 28902.32,7752.2 12115.88,7752.2 "/>
   <line class="fil0 str0" x1="28901.32" y1="18231.68" x2="29902.32" y2= "18230.85" />
   <line class="fil0 str0" x1="12115.88" y1="7752.2" x2="12115.88" y2= "6752.16" />
  </g>
  <g id="Bottom_x0020_Panel">
   <polyline class="fil0 str0" points="28793.48,20586.05 28794.8,21287.92 28793.9,21311.42 28791.1,21334.82 28786.5,21357.92 28780.1,21380.62 28772,21402.72 28762.1,21424.12 28750.6,21444.72 28737.5,21464.22 28722.9,21482.72 28706.9,21500.02 28689.6,21516.02 28671.1,21530.62 28651.5,21543.72 28631,21555.22 28609.6,21565.12 28587.5,21573.22 28564.8,21579.62 28541.7,21584.22 28518.3,21587.02 28494.8,21587.92 18474.05,21584.91 11139.12,23120.38 7154.44,23120.35 -275.94,21584.89 -7490.55,21584.94 -7514.15,21584.04 -7537.55,21581.24 -7560.65,21576.64 -7583.35,21570.24 -7605.45,21562.14 -7626.75,21552.24 -7647.35,21540.74 -7666.95,21527.64 -7685.45,21513.04 -7702.75,21497.04 -7718.75,21479.74 -7733.35,21461.24 -7746.35,21441.74 -7757.95,21421.14 -7767.75,21399.74 -7775.95,21377.64 -7782.35,21354.94 -7786.95,21331.84 -7789.65,21308.44 -7790.65,21284.94 -7790.08,20588.17 "/>
   <polygon class="fil0 str0" points="-7335.97,20922.68 -7384.77,20947.48 -7423.47,20986.18 -7448.37,21034.98 -7456.97,21089.08 -7448.37,21143.18 -7423.47,21191.98 -7384.77,21230.68 -7335.97,21255.48 -7281.97,21264.08 -7227.87,21255.48 -7179.07,21230.68 -7140.37,21191.98 -7115.47,21143.18 -7106.97,21089.08 -7115.47,21034.98 -7140.37,20986.18 -7179.07,20947.48 -7227.87,20922.68 -7281.97,20914.08 "/>
   <polygon class="fil0 str0" points="4527.31,21900.11 4478.61,21924.91 4439.91,21963.61 4415.01,22012.41 4406.51,22066.51 4415.01,22120.61 4439.91,22169.41 4478.61,22208.11 4527.31,22232.91 4581.51,22241.51 4635.51,22232.91 4684.31,22208.11 4723.01,22169.41 4747.91,22120.61 4756.51,22066.51 4747.91,22012.41 4723.01,21963.61 4684.31,21924.91 4635.51,21900.11 4581.51,21891.51 "/>
   <polygon class="fil0 str0" points="16387.31,21365.05 16338.51,21389.85 16299.81,21428.55 16274.91,21477.35 16266.41,21531.45 16274.91,21585.55 16299.81,21634.35 16338.51,21673.05 16387.31,21697.85 16441.41,21706.45 16495.51,21697.85 16544.21,21673.05 16583.01,21634.35 16607.81,21585.55 16616.41,21531.45 16607.81,21477.35 16583.01,21428.55 16544.21,21389.85 16495.51,21365.05 16441.41,21356.45 "/>
   <polygon class="fil0 str0" points="28240.31,20921.57 28191.51,20946.37 28152.81,20985.07 28128.01,21033.87 28119.41,21087.97 28128.01,21142.07 28152.81,21190.87 28191.51,21229.57 28240.31,21254.37 28294.41,21262.97 28348.51,21254.37 28397.31,21229.57 28436.01,21190.87 28460.81,21142.07 28469.41,21087.97 28460.81,21033.87 28436.01,20985.07 28397.31,20946.37 28348.51,20921.57 28294.41,20912.97 "/>
   <polyline class="fil0 str0" points="-6781,20585.28 -276.38,20585.28 7170.64,22120.24 11139.14,22120.24 18474.08,20585.44 23134.44,20586.68 27794.8,20587.92 "/>
   <line class="fil0 str0" x1="27794.8" y1="20587.92" x2="28797.32" y2= "20586.05" />
   <line class="fil0 str0" x1="-7793.89" y1="20588.17" x2="-6781" y2= "20585.28" />
  </g>
 </g>
</svg>
