<?xml version="1.0" encoding="UTF-8"?>
<!DOCTYPE svg PUBLIC "-//W3C//DTD SVG 1.1//EN" "http://www.w3.org/Graphics/SVG/1.1/DTD/svg11.dtd">
<!-- Creator: CorelDRAW 2020 (64-Bit) -->
<svg xmlns="http://www.w3.org/2000/svg" xml:space="preserve" width="395mm" height="170mm" version="1.1" style="shape-rendering:geometricPrecision; text-rendering:geometricPrecision; image-rendering:optimizeQuality; fill-rule:evenodd; clip-rule:evenodd"
viewBox="0 0 39500 17000"
 xmlns:xlink="http://www.w3.org/1999/xlink"
 xmlns:xodm="http://www.corel.com/coreldraw/odm/2003">
 <defs>
  <style type="text/css">
   <![CDATA[
    .str0 {stroke:#E62129;stroke-width:7.62;stroke-miterlimit:22.9256}
    .str1 {stroke:#009B4C;stroke-width:7.62;stroke-miterlimit:22.9256}
    .fil0 {fill:none}
   ]]>
  </style>
 </defs>
 <g id="Layer_x0020_1">
  <metadata id="CorelCorpID_0Corel-Layer"/>
  <g id="Bottom_x0020_Panel">
   <polyline class="fil0 str0" points="38163.63,14728.29 38338.67,14048.6 38343.62,14025.61 38346.7,14002.25 38347.96,13978.73 38347.38,13955.15 38345,13931.73 38340.71,13908.55 38334.67,13885.74 38326.8,13863.6 38317.24,13842.07 38306.02,13821.34 38293.22,13801.56 38278.91,13782.83 38263.16,13765.29 38246.15,13749.07 38227.87,13734.18 38208.46,13720.86 38188.05,13709.04 38166.81,13698.86 38144.83,13690.36 38122.28,13683.67 28412.75,11205.7 21686.3,7902.09 17825.66,6915.62 10246.46,6563.7 3256.46,4777.5 3233.37,4772.53 3210.01,4769.45 3186.49,4768.19 3162.91,4768.77 3139.49,4771.14 3116.41,4775.46 3093.6,4781.5 3071.37,4789.34 3049.83,4798.91 3029.11,4810.13 3009.32,4822.93 2990.59,4837.24 2973.17,4852.91 2956.83,4870 2942.04,4888.31 2928.62,4907.69 2916.8,4928.1 2906.63,4949.34 2898.22,4971.34 2891.43,4993.86 2719.48,5669.08 "/>
   <polygon class="fil0 str0" points="3242.27,5457.41 3201.13,5421.3 3173.22,5374.23 3161.17,5320.78 3166.23,5266.24 3187.96,5215.95 3224.17,5174.83 3271.24,5146.92 3324.66,5134.97 3379.11,5140.01 3429.4,5161.74 3470.54,5197.85 3498.45,5244.92 3510.5,5298.37 3505.34,5352.89 3483.71,5403.2 3447.5,5444.32 3400.43,5472.23 3347.01,5484.18 3292.46,5479.11 "/>
   <polygon class="fil0 str0" points="14978.22,7447.46 14937.18,7411.37 14909.26,7364.3 14897.22,7310.85 14902.38,7256.33 14924.01,7206.02 14960.21,7164.9 15007.29,7136.99 15060.61,7125.02 15115.25,7130.1 15165.44,7151.81 15206.58,7187.92 15234.5,7234.99 15246.54,7288.44 15241.48,7342.98 15219.75,7393.27 15183.55,7434.38 15136.47,7462.3 15083.05,7474.25 15028.6,7469.21 "/>
   <polygon class="fil0 str0" points="26336.54,10902.09 26295.4,10865.98 26267.48,10818.91 26255.44,10765.46 26260.6,10710.94 26282.23,10660.63 26318.43,10619.52 26365.51,10591.6 26418.93,10579.65 26473.47,10584.72 26523.76,10606.44 26564.81,10642.53 26592.82,10689.63 26604.76,10743.05 26599.7,10797.59 26577.98,10847.88 26541.87,10889.02 26494.69,10916.91 26441.37,10928.88 26386.82,10923.82 "/>
   <polygon class="fil0 str0" points="37710.75,14266.27 37669.6,14230.16 37641.69,14183.08 37629.74,14129.66 37634.81,14075.12 37656.53,14024.83 37692.64,13983.69 37739.72,13955.78 37793.14,13943.83 37847.68,13948.89 37897.97,13970.62 37939.11,14006.73 37967.02,14053.8 37978.97,14107.22 37973.91,14161.77 37952.18,14212.06 37916.07,14253.2 37869,14281.11 37815.58,14293.06 37761.03,14287.99 "/>
   <polyline class="fil0 str0" points="3696.43,5921.71 9998.56,7532.08 17593.76,7888.6 21438.71,8871.1 28165.33,12174.07 32680.92,13326.65 37196.5,14479.24 "/>
   <line class="fil0 str0" x1="37196.5" y1="14479.24" x2="38167.35" y2= "14729.25" />
   <line class="fil0 str0" x1="2715.79" y1="5668.14" x2="3696.43" y2= "5921.71" />
  </g>
  <g id="LEFT_x0020_SIDE">
   <line class="fil0 str1" x1="2466.03" y1="13000.42" x2="1462.07" y2= "13000.01" />
   <polyline class="fil0 str1" points="19251.06,1519.49 1762.15,1523.25 1738.55,1524.25 1715.15,1526.95 1692.05,1531.55 1669.35,1537.95 1647.25,1546.15 1625.95,1555.95 1605.35,1567.55 1585.75,1580.55 1567.25,1595.15 1549.95,1611.15 1533.95,1628.45 1519.35,1646.95 1506.35,1666.55 1494.75,1687.15 1484.95,1708.45 1476.75,1730.55 1470.35,1753.25 1465.75,1776.35 1463.05,1799.75 1462.15,1823.35 1452.08,13003.17 2464.69,13003.1 "/>
   <polygon class="fil0 str1" points="1908.05,1856.85 1859.25,1881.75 1820.55,1920.45 1795.65,1969.25 1787.05,2023.35 1795.65,2077.35 1820.55,2126.15 1859.25,2164.85 1908.05,2189.75 1962.05,2198.35 2016.15,2189.75 2064.95,2164.85 2103.65,2126.15 2128.55,2077.35 2137.05,2023.35 2128.55,1969.25 2103.65,1920.45 2064.95,1881.75 2016.15,1856.85 1962.05,1848.35 "/>
   <polygon class="fil0 str1" points="13766.55,1856.85 13717.85,1881.75 13679.15,1920.45 13654.25,1969.25 13645.75,2023.35 13654.25,2077.35 13679.15,2126.15 13717.85,2164.85 13766.55,2189.75 13820.75,2198.35 13874.75,2189.75 13923.55,2164.85 13962.25,2126.15 13987.15,2077.35 13995.75,2023.35 13987.15,1969.25 13962.25,1920.45 13923.55,1881.75 13874.75,1856.85 13820.75,1848.35 "/>
   <polyline class="fil0 str1" points="19249.93,2523.35 2462.15,2523.35 2460.95,13003.11 "/>
   <line class="fil0 str1" x1="19251.06" y1="1519.49" x2="19249.93" y2= "2523.35" />
  </g>
  <g id="LEFT_x0020_SIDE_x0020_2">
   <polyline class="fil0 str1" points="19878.95,1523.31 37365.93,1523.36 37389.43,1524.26 37412.83,1526.96 37435.93,1531.56 37458.63,1537.96 37480.73,1546.16 37502.13,1555.96 37522.63,1567.56 37542.23,1580.56 37560.73,1595.16 37578.03,1611.16 37594.03,1628.46 37608.63,1646.96 37621.73,1666.56 37633.23,1687.16 37643.13,1708.46 37651.23,1730.56 37657.63,1753.26 37662.23,1776.36 37665.03,1799.76 37665.93,1823.36 37665.93,7404.58 37665.93,13002.01 "/>
   <polygon class="fil0 str1" points="37111.83,1856.86 37063.03,1881.76 37024.33,1920.46 36999.53,1969.26 36990.93,2023.36 36999.53,2077.36 37024.33,2126.16 37063.03,2164.86 37111.83,2189.76 37165.93,2198.36 37220.03,2189.76 37268.83,2164.86 37307.53,2126.16 37332.33,2077.36 37340.93,2023.36 37332.33,1969.26 37307.53,1920.46 37268.83,1881.76 37220.03,1856.86 37165.93,1848.36 "/>
   <polygon class="fil0 str1" points="25253.23,1856.86 25204.43,1881.76 25165.73,1920.46 25140.83,1969.26 25132.33,2023.36 25140.83,2077.36 25165.73,2126.16 25204.43,2164.86 25253.23,2189.76 25307.33,2198.36 25361.43,2189.76 25410.13,2164.86 25448.93,2126.16 25473.73,2077.36 25482.33,2023.36 25473.73,1969.26 25448.93,1920.46 25410.13,1881.76 25361.43,1856.86 25307.33,1848.36 "/>
   <polyline class="fil0 str1" points="36664.93,13002.84 36665.93,2523.36 19879.49,2523.36 "/>
   <line class="fil0 str1" x1="36664.93" y1="13002.84" x2="37665.93" y2= "13002.01" />
   <line class="fil0 str1" x1="19879.49" y1="2523.36" x2="19879.49" y2= "1523.32" />
  </g>
  <g id="LEFT_x0020_SIDE_x0020_2_0">
   <line class="fil0 str1" x1="1231.31" y1="11659.86" x2="227.35" y2= "11659.45" />
   <polyline class="fil0 str1" points="18016.34,178.93 527.43,182.69 503.83,183.69 480.43,186.39 457.33,190.99 434.63,197.39 412.53,205.59 391.23,215.39 370.63,226.99 351.03,239.99 332.53,254.59 315.23,270.59 299.23,287.89 284.63,306.39 271.63,325.99 260.03,346.59 250.23,367.89 242.03,389.99 235.63,412.69 231.03,435.79 228.33,459.19 227.43,482.79 217.36,11662.61 1229.97,11662.54 "/>
   <polygon class="fil0 str1" points="673.33,516.29 624.53,541.19 585.83,579.89 560.93,628.69 552.33,682.79 560.93,736.79 585.83,785.59 624.53,824.29 673.33,849.19 727.33,857.79 781.43,849.19 830.23,824.29 868.93,785.59 893.83,736.79 902.33,682.79 893.83,628.69 868.93,579.89 830.23,541.19 781.43,516.29 727.33,507.79 "/>
   <polygon class="fil0 str1" points="12531.83,516.29 12483.13,541.19 12444.43,579.89 12419.53,628.69 12411.03,682.79 12419.53,736.79 12444.43,785.59 12483.13,824.29 12531.83,849.19 12586.03,857.79 12640.03,849.19 12688.83,824.29 12727.53,785.59 12752.43,736.79 12761.03,682.79 12752.43,628.69 12727.53,579.89 12688.83,541.19 12640.03,516.29 12586.03,507.79 "/>
   <polyline class="fil0 str1" points="18015.21,1182.79 1227.43,1182.79 1226.23,11662.55 "/>
   <line class="fil0 str1" x1="18016.34" y1="178.93" x2="18015.21" y2= "1182.79" />
  </g>
  <g id="RIGHT_x0020_SIDE">
   <polyline class="fil0 str1" points="21325.34,282.15 38812.32,282.2 38835.82,283.1 38859.22,285.8 38882.32,290.4 38905.02,296.8 38927.12,305 38948.52,314.8 38969.02,326.4 38988.62,339.4 39007.12,354 39024.42,370 39040.42,387.3 39055.02,405.8 39068.12,425.4 39079.62,446 39089.52,467.3 39097.62,489.4 39104.02,512.1 39108.62,535.2 39111.42,558.6 39112.32,582.2 39112.32,6163.42 39112.32,11760.85 "/>
   <polygon class="fil0 str1" points="38558.22,615.7 38509.42,640.6 38470.72,679.3 38445.92,728.1 38437.32,782.2 38445.92,836.2 38470.72,885 38509.42,923.7 38558.22,948.6 38612.32,957.2 38666.42,948.6 38715.22,923.7 38753.92,885 38778.72,836.2 38787.32,782.2 38778.72,728.1 38753.92,679.3 38715.22,640.6 38666.42,615.7 38612.32,607.2 "/>
   <polygon class="fil0 str1" points="26699.62,615.7 26650.82,640.6 26612.12,679.3 26587.22,728.1 26578.72,782.2 26587.22,836.2 26612.12,885 26650.82,923.7 26699.62,948.6 26753.72,957.2 26807.82,948.6 26856.52,923.7 26895.32,885 26920.12,836.2 26928.72,782.2 26920.12,728.1 26895.32,679.3 26856.52,640.6 26807.82,615.7 26753.72,607.2 "/>
   <polyline class="fil0 str1" points="38111.32,11761.68 38112.32,1282.2 21325.88,1282.2 "/>
   <line class="fil0 str1" x1="38111.32" y1="11761.68" x2="39112.32" y2= "11760.85" />
   <line class="fil0 str1" x1="21325.88" y1="1282.2" x2="21325.88" y2= "282.16" />
  </g>
  <g id="Bottom_x0020_Panel_1">
   <polyline class="fil0 str0" points="37124.63,15801.13 37154.03,15099.87 37154.07,15076.36 37152.21,15052.86 37148.54,15029.6 37143.05,15006.66 37135.84,14984.25 37126.81,14962.48 37116.14,14941.43 37103.83,14921.42 37089.98,14902.35 37074.69,14884.43 37058.04,14867.75 37040.14,14852.42 37021.08,14838.55 37001.06,14826.24 36980.07,14815.49 36958.31,14806.51 36935.89,14799.21 36912.99,14793.69 36889.72,14789.95 36866.28,14788.11 26853.43,14390.17 19585.81,12562.44 15604.32,12403.04 8118.45,13639.96 909.62,13351.24 886.01,13351.2 862.51,13353.06 839.25,13356.73 816.31,13362.22 793.9,13369.42 772.22,13378.46 751.18,13389.13 731.07,13401.44 712,13415.28 694.08,13430.58 677.4,13447.23 662.07,13465.13 648.3,13484.09 635.88,13504.21 625.24,13525.2 616.16,13546.95 608.85,13569.38 603.33,13592.28 599.7,13615.55 597.76,13638.99 570.45,14335.23 "/>
   <polygon class="fil0 str0" points="1037.58,14019.15 989.81,13992.42 952.69,13952.2 929.77,13902.45 923.34,13848.05 934.09,13794.33 960.93,13746.57 1001.14,13709.45 1050.9,13686.62 1105.2,13680.19 1158.91,13690.95 1206.68,13717.68 1243.8,13757.9 1266.73,13807.65 1273.06,13862.05 1262.4,13915.77 1235.57,13963.53 1195.35,14000.65 1145.6,14023.48 1091.19,14029.91 "/>
   <polygon class="fil0 str0" points="12930.47,13517.18 12882.8,13490.45 12845.68,13450.24 12822.75,13400.48 12816.43,13346.08 12827.08,13292.37 12853.92,13244.6 12894.13,13207.48 12943.79,13184.65 12998.29,13178.22 13051.9,13188.98 13099.67,13215.71 13136.79,13255.93 13159.72,13305.69 13166.15,13360.09 13155.39,13413.8 13128.55,13461.56 13088.34,13498.68 13038.58,13521.51 12984.28,13527.94 "/>
   <polygon class="fil0 str0" points="24759.56,14526.36 24711.8,14499.62 24674.68,14459.41 24651.75,14409.65 24645.42,14355.25 24656.08,14301.54 24682.91,14253.77 24723.13,14216.65 24772.88,14193.82 24827.28,14187.4 24880.99,14198.15 24928.66,14224.88 24965.88,14265.1 24988.71,14314.86 24995.14,14369.26 24984.38,14422.97 24957.65,14470.74 24917.33,14507.85 24867.68,14530.69 24813.28,14537.11 "/>
   <polygon class="fil0 str0" points="36585.33,15443.75 36537.56,15417.01 36500.44,15376.8 36477.61,15327.04 36471.18,15272.64 36481.94,15218.93 36508.67,15171.16 36548.89,15134.04 36598.64,15111.21 36653.04,15104.78 36706.76,15115.54 36754.53,15142.27 36791.65,15182.49 36814.47,15232.24 36820.9,15286.65 36810.14,15340.36 36783.41,15388.13 36743.19,15425.25 36693.44,15448.07 36639.04,15454.5 "/>
   <polyline class="fil0 str0" points="1578.61,14378.49 8078.02,14638.75 15580.49,13402.99 19545.81,13561.78 26813.47,15388.84 31470.15,15574.07 36126.82,15759.3 "/>
   <line class="fil0 str0" x1="36126.82" y1="15759.3" x2="37128.47" y2= "15801.28" />
   <line class="fil0 str0" x1="566.64" y1="14335.07" x2="1578.61" y2= "14378.49" />
  </g>
 </g>
</svg>
