<?xml version="1.0" encoding="UTF-8"?>
<!DOCTYPE svg PUBLIC "-//W3C//DTD SVG 1.1//EN" "http://www.w3.org/Graphics/SVG/1.1/DTD/svg11.dtd">
<!-- Creator: CorelDRAW 2020 (64-Bit) -->
<svg xmlns="http://www.w3.org/2000/svg" xml:space="preserve" width="395mm" height="170mm" version="1.1" style="shape-rendering:geometricPrecision; text-rendering:geometricPrecision; image-rendering:optimizeQuality; fill-rule:evenodd; clip-rule:evenodd"
viewBox="0 0 39500 17000"
 xmlns:xlink="http://www.w3.org/1999/xlink"
 xmlns:xodm="http://www.corel.com/coreldraw/odm/2003">
 <defs>
  <style type="text/css">
   <![CDATA[
    .str0 {stroke:#E62129;stroke-width:7.62;stroke-miterlimit:22.9256}
    .fil0 {fill:none}
   ]]>
  </style>
 </defs>
 <g id="Layer_x0020_1">
  <metadata id="CorelCorpID_0Corel-Layer"/>
  <g id="Plate">
   <polygon class="fil0 str0" points="37737.95,1523.35 37761.45,1524.25 37784.85,1526.95 37807.95,1531.55 37830.65,1537.95 37852.75,1546.15 37874.15,1555.95 37894.65,1567.55 37914.25,1580.55 37932.75,1595.15 37950.05,1611.15 37966.05,1628.45 37980.65,1646.95 37993.75,1666.55 38005.25,1687.15 38015.15,1708.45 38023.25,1730.55 38029.65,1753.25 38034.25,1776.35 38037.05,1799.75 38037.95,1823.35 38037.95,13703.16 38037.05,13726.66 38034.25,13750.06 38029.65,13773.16 38023.25,13795.86 38015.15,13817.96 38005.25,13839.36 37993.75,13859.96 37980.65,13879.46 37966.05,13897.96 37950.05,13915.26 37932.75,13931.26 37914.25,13945.86 37894.65,13958.96 37874.15,13970.46 37852.75,13980.36 37830.65,13988.46 37807.95,13994.86 37784.85,13999.46 37761.45,14002.26 37737.95,14003.16 27717.2,14000.15 20382.27,15535.62 16397.59,15535.59 8967.21,14000.13 1752.6,14000.18 1729,13999.28 1705.6,13996.48 1682.5,13991.88 1659.8,13985.48 1637.7,13977.38 1616.4,13967.48 1595.8,13955.98 1576.2,13942.88 1557.7,13928.28 1540.4,13912.28 1524.4,13894.98 1509.8,13876.48 1496.8,13856.98 1485.2,13836.38 1475.4,13814.98 1467.2,13792.88 1460.8,13770.18 1456.2,13747.08 1453.5,13723.68 1452.5,13700.18 1462.07,13000.01 1462.15,1823.35 1463.05,1799.75 1465.75,1776.35 1470.35,1753.25 1476.75,1730.55 1484.95,1708.45 1494.75,1687.15 1506.35,1666.55 1519.35,1646.95 1533.95,1628.45 1549.95,1611.15 1567.25,1595.15 1585.75,1580.55 1605.35,1567.55 1625.95,1555.95 1647.25,1546.15 1669.35,1537.95 1692.05,1531.55 1715.15,1526.95 1738.55,1524.25 1762.15,1523.25 "/>
   <polygon class="fil0 str0" points="15023.25,13516.55 16392.65,13807.65 16683.75,12438.25 15314.35,12147.15 "/>
   <polygon class="fil0 str0" points="22454.15,11723.55 22521.25,12039.55 22372.05,12071.25 22274.35,11611.55 20904.95,11902.55 21002.65,12362.35 20853.55,12394.05 20786.35,12078.05 20126.15,12218.45 20193.25,12534.35 20112.55,12551.55 20170.85,12825.35 20251.45,12808.25 20381.85,13421.55 20550.55,13385.65 20575.55,13503.05 20898.35,13434.45 20873.35,13317.05 21042.15,13281.25 20949.15,12843.95 21098.35,12812.25 21196.05,13271.95 22565.45,12980.95 22467.75,12521.15 22616.95,12489.45 22709.85,12926.75 22878.55,12890.85 22903.55,13008.25 23226.35,12939.65 23201.35,12822.25 23370.05,12786.35 23239.75,12173.05 23320.45,12155.95 23262.25,11882.05 23181.55,11899.15 23114.35,11583.25 "/>
   <polygon class="fil0 str0" points="11640.85,11389.85 11472.15,11354.05 11341.75,11967.35 11261.05,11950.15 11202.85,12224.05 11283.55,12241.15 11216.45,12557.15 11876.65,12697.45 11943.85,12381.55 12092.95,12413.25 11995.25,12872.95 13364.65,13164.05 13462.35,12704.35 13611.55,12736.05 13544.45,13051.95 14204.65,13192.25 14271.85,12876.35 14352.55,12893.55 14410.75,12619.65 14330.05,12602.45 14460.35,11989.15 14291.65,11953.35 14316.65,11835.95 13993.85,11767.35 13968.85,11884.65 13800.15,11848.85 13707.15,12286.05 13558.05,12254.35 13655.75,11794.65 12286.35,11503.55 12188.65,11963.25 12039.45,11931.55 12132.35,11494.35 11963.65,11458.45 11988.65,11341.15 11665.85,11272.45 "/>
   <polygon class="fil0 str0" points="8967.25,12229.35 10336.65,12520.45 10627.75,11151.05 9258.35,10859.95 "/>
   <polygon class="fil0 str0" points="24631.75,11110.45 24922.75,12479.85 26292.25,12188.75 26001.15,10819.35 "/>
   <polygon class="fil0 str0" points="27717.75,10872.05 27717.75,12272.05 29117.75,12272.05 29117.75,10872.05 "/>
   <polygon class="fil0 str0" points="34147.15,10872.05 34147.15,12272.05 35547.15,12272.05 35547.15,10872.05 "/>
   <polygon class="fil0 str0" points="32242.15,10872.05 32242.15,12272.05 33642.15,12272.05 33642.15,10872.05 "/>
   <polygon class="fil0 str0" points="30337.15,10872.05 30337.15,12272.05 31737.15,12272.05 31737.15,10872.05 "/>
   <polygon class="fil0 str0" points="2952.75,10872.05 2952.75,12272.05 4352.75,12272.05 4352.75,10872.05 "/>
   <polygon class="fil0 str0" points="14813.75,11524.45 16183.15,11815.55 16474.25,10446.15 15104.75,10155.05 "/>
   <polygon class="fil0 str0" points="19810.15,10187.75 20101.25,11557.15 21470.65,11266.05 21179.55,9896.65 "/>
   <polygon class="fil0 str0" points="12950.35,11128.45 14319.75,11419.45 14610.85,10050.05 13241.45,9759.05 "/>
   <polygon class="fil0 str0" points="21673.55,9791.65 21964.55,11161.05 23333.95,10869.95 23042.95,9500.55 "/>
   <polygon class="fil0 str0" points="11086.95,10732.35 12456.35,11023.45 12747.45,9654.05 11378.05,9362.95 "/>
   <polygon class="fil0 str0" points="23536.85,9395.55 23827.95,10765.05 25197.35,10473.95 24906.25,9104.55 "/>
   <polygon class="fil0 str0" points="3905.25,8967.05 3905.25,9437.05 3752.75,9437.05 3752.75,9114.05 3077.75,9114.05 3077.75,9437.05 2995.25,9437.05 2995.25,9717.05 3077.75,9717.05 3077.75,10344.05 3250.25,10344.05 3250.25,10464.05 3580.25,10464.05 3580.25,10344.05 3752.75,10344.05 3752.75,9897.05 3905.25,9897.05 3905.25,10367.05 5305.25,10367.05 5305.25,9897.05 5457.75,9897.05 5457.75,10344.05 5630.25,10344.05 5630.25,10464.05 5960.25,10464.05 5960.25,10344.05 6132.75,10344.05 6132.75,9717.05 6215.25,9717.05 6215.25,9437.05 6132.75,9437.05 6132.75,9114.05 5457.75,9114.05 5457.75,9437.05 5305.25,9437.05 5305.25,8967.05 "/>
   <polygon class="fil0 str0" points="35099.65,8967.05 35099.65,10367.05 36499.65,10367.05 36499.65,8967.05 "/>
   <polygon class="fil0 str0" points="32242.15,8967.05 32242.15,10367.05 33642.15,10367.05 33642.15,8967.05 "/>
   <polygon class="fil0 str0" points="30098.95,8967.05 30098.95,10367.05 31498.95,10367.05 31498.95,8967.05 "/>
   <polygon class="fil0 str0" points="27955.85,8967.05 27955.85,10367.05 29355.85,10367.05 29355.85,8967.05 "/>
   <polygon class="fil0 str0" points="18948.25,8423.35 19239.35,9792.75 20608.75,9501.75 20317.65,8132.35 "/>
   <polygon class="fil0 str0" points="14091.75,9423.45 15461.15,9714.55 15752.25,8345.15 14382.85,8054.05 "/>
   <polygon class="fil0 str0" points="20811.65,8027.35 21102.65,9396.75 22472.05,9105.65 22181.05,7736.25 "/>
   <polygon class="fil0 str0" points="12228.35,9027.35 13597.85,9318.45 13888.85,7949.05 12519.45,7657.95 "/>
   <polygon class="fil0 str0" points="22674.95,7631.25 22966.05,9000.65 24335.45,8709.55 24044.35,7340.15 "/>
   <polygon class="fil0 str0" points="10365.05,8631.35 11734.45,8922.45 12025.55,7552.95 10656.15,7261.95 "/>
   <polygon class="fil0 str0" points="24538.35,7235.15 24829.45,8604.55 26198.85,8313.55 25907.75,6944.05 "/>
   <polygon class="fil0 str0" points="32384.95,7062.05 32384.95,7532.05 32232.45,7532.05 32232.45,7209.05 31557.45,7209.05 31557.45,7532.05 31474.95,7532.05 31474.95,7812.05 31557.45,7812.05 31557.45,8439.05 31729.95,8439.05 31729.95,8559.05 32059.95,8559.05 32059.95,8439.05 32232.45,8439.05 32232.45,7992.05 32384.95,7992.05 32384.95,8462.05 33784.95,8462.05 33784.95,7992.05 33937.45,7992.05 33937.45,8439.05 34109.95,8439.05 34109.95,8559.05 34439.95,8559.05 34439.95,8439.05 34612.45,8439.05 34612.45,7812.05 34694.95,7812.05 34694.95,7532.05 34612.45,7532.05 34612.45,7209.05 33937.45,7209.05 33937.45,7532.05 33784.95,7532.05 33784.95,7062.05 "/>
   <polygon class="fil0 str0" points="8501.65,8235.25 9871.05,8526.35 10162.15,7156.95 8792.75,6865.85 "/>
   <polygon class="fil0 str0" points="35385.35,7062.05 35385.35,8462.05 36785.35,8462.05 36785.35,7062.05 "/>
   <polygon class="fil0 str0" points="29289.35,7062.05 29289.35,8462.05 30689.35,8462.05 30689.35,7062.05 "/>
   <polygon class="fil0 str0" points="27384.35,7062.05 27384.35,8462.05 28784.35,8462.05 28784.35,7062.05 "/>
   <polygon class="fil0 str0" points="6524.65,7062.05 6524.65,8462.05 7924.65,8462.05 7924.65,7062.05 "/>
   <polygon class="fil0 str0" points="3905.25,7062.05 3905.25,8462.05 5305.25,8462.05 5305.25,7062.05 "/>
   <polygon class="fil0 str0" points="18086.35,6659.05 18377.35,8028.45 19746.75,7737.35 19455.75,6367.95 "/>
   <polygon class="fil0 str0" points="14021.95,7460.95 15391.45,7752.15 15682.45,6382.75 14313.05,6091.65 "/>
   <polygon class="fil0 str0" points="19949.65,6262.95 20240.75,7632.35 21610.15,7341.25 21319.05,5971.85 "/>
   <polygon class="fil0 str0" points="12158.65,7065.05 13528.05,7356.05 13819.15,5986.65 12449.75,5695.65 "/>
   <polygon class="fil0 str0" points="21813.05,5866.85 22104.15,7236.25 23473.55,6945.25 23182.45,5575.85 "/>
   <polygon class="fil0 str0" points="10295.25,6668.95 11664.65,6960.05 11955.75,5590.65 10586.35,5299.55 "/>
   <polygon class="fil0 str0" points="23676.45,5470.85 23967.55,6840.25 25336.95,6549.15 25045.85,5179.75 "/>
   <polygon class="fil0 str0" points="8431.85,6272.85 9801.25,6563.95 10092.35,5194.55 8722.95,4903.45 "/>
   <polygon class="fil0 str0" points="35099.65,5157.05 35099.65,6557.05 36499.65,6557.05 36499.65,5157.05 "/>
   <polygon class="fil0 str0" points="32623.15,5157.05 32623.15,6557.05 34023.15,6557.05 34023.15,5157.05 "/>
   <polygon class="fil0 str0" points="30241.85,5157.05 30241.85,6557.05 31641.85,6557.05 31641.85,5157.05 "/>
   <polygon class="fil0 str0" points="28336.85,5157.05 28336.85,6557.05 29736.85,6557.05 29736.85,5157.05 "/>
   <polygon class="fil0 str0" points="6524.65,5157.05 6524.65,6557.05 7924.65,6557.05 7924.65,5157.05 "/>
   <polygon class="fil0 str0" points="4143.35,5157.05 4143.35,6557.05 5543.35,6557.05 5543.35,5157.05 "/>
   <polygon class="fil0 str0" points="25539.85,5074.75 25830.85,6444.15 27200.25,6153.05 26909.25,4783.65 "/>
   <polygon class="fil0 str0" points="15536.05,5835.35 16905.45,6126.45 17196.55,4757.05 15827.15,4465.95 "/>
   <polygon class="fil0 str0" points="18621.95,4597.65 18913.05,5967.05 20282.45,5675.95 19991.35,4306.55 "/>
   <polygon class="fil0 str0" points="13672.75,5439.25 15042.15,5730.35 15333.25,4360.95 13963.55,4069.85 "/>
   <polygon class="fil0 str0" points="20485.35,4201.55 20776.35,5570.95 22145.75,5279.85 21854.75,3910.45 "/>
   <polygon class="fil0 str0" points="11809.35,5043.25 13178.75,5334.25 13469.85,3964.85 12100.45,3673.85 "/>
   <polygon class="fil0 str0" points="22348.65,3805.45 22639.75,5174.85 24009.15,4883.85 23718.05,3514.45 "/>
   <polygon class="fil0 str0" points="9945.95,4647.15 11315.35,4938.25 11606.45,3568.85 10237.05,3277.75 "/>
   <polygon class="fil0 str0" points="24212.05,3409.45 24503.15,4778.85 25872.55,4487.75 25581.45,3118.35 "/>
   <polygon class="fil0 str0" points="31289.65,3252.05 31289.65,3722.05 31137.15,3722.05 31137.15,3399.05 30462.15,3399.05 30462.15,3722.05 30379.65,3722.05 30379.65,4002.05 30462.15,4002.05 30462.15,4629.05 30634.65,4629.05 30634.65,4749.05 30964.65,4749.05 30964.65,4629.05 31137.15,4629.05 31137.15,4182.05 31289.65,4182.05 31289.65,4652.05 32689.65,4652.05 32689.65,4182.05 32842.15,4182.05 32842.15,4629.05 33014.65,4629.05 33014.65,4749.05 33344.65,4749.05 33344.65,4629.05 33517.15,4629.05 33517.15,4002.05 33599.65,4002.05 33599.65,3722.05 33517.15,3722.05 33517.15,3399.05 32842.15,3399.05 32842.15,3722.05 32689.65,3722.05 32689.65,3252.05 "/>
   <polygon class="fil0 str0" points="34242.35,3252.05 34242.35,4652.05 35642.35,4652.05 35642.35,3252.05 "/>
   <polygon class="fil0 str0" points="28374.95,3252.05 28374.95,4652.05 29774.95,4652.05 29774.95,3252.05 "/>
   <polygon class="fil0 str0" points="6048.35,3252.05 6048.35,4652.05 7448.25,4652.05 7448.25,3252.05 "/>
   <polygon class="fil0 str0" points="4143.35,3252.05 4143.35,4652.05 5543.35,4652.05 5543.35,3252.05 "/>
   <polygon class="fil0 str0" points="25400.25,8999.45 25691.35,10368.95 27060.75,10077.85 26769.65,8708.45 "/>
   <polygon class="fil0 str0" points="7191.35,8967.05 7191.35,10367.05 8591.35,10367.05 8591.35,8967.05 "/>
   <polygon class="fil0 str0" points="9223.65,10336.25 10593.05,10627.35 10884.15,9257.95 9514.75,8966.85 "/>
   <polygon class="fil0 str0" points="1907.18,13337.92 1858.38,13362.72 1819.68,13401.42 1794.78,13450.22 1786.18,13504.32 1794.78,13558.42 1819.68,13607.22 1858.38,13645.92 1907.18,13670.72 1961.18,13679.32 2015.28,13670.72 2064.08,13645.92 2102.78,13607.22 2127.68,13558.42 2136.18,13504.32 2127.68,13450.22 2102.78,13401.42 2064.08,13362.72 2015.28,13337.92 1961.18,13329.32 "/>
   <polygon class="fil0 str0" points="13770.46,14315.35 13721.76,14340.15 13683.06,14378.85 13658.16,14427.65 13649.66,14481.75 13658.16,14535.85 13683.06,14584.65 13721.76,14623.35 13770.46,14648.15 13824.66,14656.75 13878.66,14648.15 13927.46,14623.35 13966.16,14584.65 13991.06,14535.85 13999.66,14481.75 13991.06,14427.65 13966.16,14378.85 13927.46,14340.15 13878.66,14315.35 13824.66,14306.75 "/>
   <polygon class="fil0 str0" points="25630.46,13780.29 25581.66,13805.09 25542.96,13843.79 25518.06,13892.59 25509.56,13946.69 25518.06,14000.79 25542.96,14049.59 25581.66,14088.29 25630.46,14113.09 25684.56,14121.69 25738.66,14113.09 25787.36,14088.29 25826.16,14049.59 25850.96,14000.79 25859.56,13946.69 25850.96,13892.59 25826.16,13843.79 25787.36,13805.09 25738.66,13780.29 25684.56,13771.69 "/>
   <polygon class="fil0 str0" points="37483.46,13336.81 37434.66,13361.61 37395.96,13400.31 37371.16,13449.11 37362.56,13503.21 37371.16,13557.31 37395.96,13606.11 37434.66,13644.81 37483.46,13669.61 37537.56,13678.21 37591.66,13669.61 37640.46,13644.81 37679.16,13606.11 37703.96,13557.31 37712.56,13503.21 37703.96,13449.11 37679.16,13400.31 37640.46,13361.61 37591.66,13336.81 37537.56,13328.21 "/>
   <polygon class="fil0 str0" points="1908.05,1856.85 1859.25,1881.75 1820.55,1920.45 1795.65,1969.25 1787.05,2023.35 1795.65,2077.35 1820.55,2126.15 1859.25,2164.85 1908.05,2189.75 1962.05,2198.35 2016.15,2189.75 2064.95,2164.85 2103.65,2126.15 2128.55,2077.35 2137.05,2023.35 2128.55,1969.25 2103.65,1920.45 2064.95,1881.75 2016.15,1856.85 1962.05,1848.35 "/>
   <polygon class="fil0 str0" points="37483.85,1856.85 37435.05,1881.75 37396.35,1920.45 37371.55,1969.25 37362.95,2023.35 37371.55,2077.35 37396.35,2126.15 37435.05,2164.85 37483.85,2189.75 37537.95,2198.35 37592.05,2189.75 37640.85,2164.85 37679.55,2126.15 37704.35,2077.35 37712.95,2023.35 37704.35,1969.25 37679.55,1920.45 37640.85,1881.75 37592.05,1856.85 37537.95,1848.35 "/>
   <polygon class="fil0 str0" points="25625.25,1856.85 25576.45,1881.75 25537.75,1920.45 25512.85,1969.25 25504.35,2023.35 25512.85,2077.35 25537.75,2126.15 25576.45,2164.85 25625.25,2189.75 25679.35,2198.35 25733.45,2189.75 25782.15,2164.85 25820.95,2126.15 25845.75,2077.35 25854.35,2023.35 25845.75,1969.25 25820.95,1920.45 25782.15,1881.75 25733.45,1856.85 25679.35,1848.35 "/>
   <polygon class="fil0 str0" points="13766.55,1856.85 13717.85,1881.75 13679.15,1920.45 13654.25,1969.25 13645.75,2023.35 13654.25,2077.35 13679.15,2126.15 13717.85,2164.85 13766.55,2189.75 13820.75,2198.35 13874.75,2189.75 13923.55,2164.85 13962.25,2126.15 13987.15,2077.35 13995.75,2023.35 13987.15,1969.25 13962.25,1920.45 13923.55,1881.75 13874.75,1856.85 13820.75,1848.35 "/>
  </g>
  <g id="Bottom_x0020_Panel">
   <polyline class="fil0 str0" points="38008.38,14225.16 38009.7,14927.03 38008.8,14950.53 38006,14973.93 38001.4,14997.03 37995,15019.73 37986.9,15041.83 37977,15063.23 37965.5,15083.83 37952.4,15103.33 37937.8,15121.83 37921.8,15139.13 37904.5,15155.13 37886,15169.73 37866.4,15182.83 37845.9,15194.33 37824.5,15204.23 37802.4,15212.33 37779.7,15218.73 37756.6,15223.33 37733.2,15226.13 37709.7,15227.03 27688.95,15224.02 20354.02,16759.49 16369.34,16759.46 8938.96,15224 1724.35,15224.05 1700.75,15223.15 1677.35,15220.35 1654.25,15215.75 1631.55,15209.35 1609.45,15201.25 1588.15,15191.35 1567.55,15179.85 1547.95,15166.75 1529.45,15152.15 1512.15,15136.15 1496.15,15118.85 1481.55,15100.35 1468.55,15080.85 1456.95,15060.25 1447.15,15038.85 1438.95,15016.75 1432.55,14994.05 1427.95,14970.95 1425.25,14947.55 1424.25,14924.05 1424.82,14227.28 "/>
   <polygon class="fil0 str0" points="1878.93,14561.79 1830.13,14586.59 1791.43,14625.29 1766.53,14674.09 1757.93,14728.19 1766.53,14782.29 1791.43,14831.09 1830.13,14869.79 1878.93,14894.59 1932.93,14903.19 1987.03,14894.59 2035.83,14869.79 2074.53,14831.09 2099.43,14782.29 2107.93,14728.19 2099.43,14674.09 2074.53,14625.29 2035.83,14586.59 1987.03,14561.79 1932.93,14553.19 "/>
   <polygon class="fil0 str0" points="13742.21,15539.22 13693.51,15564.02 13654.81,15602.72 13629.91,15651.52 13621.41,15705.62 13629.91,15759.72 13654.81,15808.52 13693.51,15847.22 13742.21,15872.02 13796.41,15880.62 13850.41,15872.02 13899.21,15847.22 13937.91,15808.52 13962.81,15759.72 13971.41,15705.62 13962.81,15651.52 13937.91,15602.72 13899.21,15564.02 13850.41,15539.22 13796.41,15530.62 "/>
   <polygon class="fil0 str0" points="25602.21,15004.16 25553.41,15028.96 25514.71,15067.66 25489.81,15116.46 25481.31,15170.56 25489.81,15224.66 25514.71,15273.46 25553.41,15312.16 25602.21,15336.96 25656.31,15345.56 25710.41,15336.96 25759.11,15312.16 25797.91,15273.46 25822.71,15224.66 25831.31,15170.56 25822.71,15116.46 25797.91,15067.66 25759.11,15028.96 25710.41,15004.16 25656.31,14995.56 "/>
   <polygon class="fil0 str0" points="37455.21,14560.68 37406.41,14585.48 37367.71,14624.18 37342.91,14672.98 37334.31,14727.08 37342.91,14781.18 37367.71,14829.98 37406.41,14868.68 37455.21,14893.48 37509.31,14902.08 37563.41,14893.48 37612.21,14868.68 37650.91,14829.98 37675.71,14781.18 37684.31,14727.08 37675.71,14672.98 37650.91,14624.18 37612.21,14585.48 37563.41,14560.68 37509.31,14552.08 "/>
   <polyline class="fil0 str0" points="2433.9,14224.39 8938.52,14224.39 16385.54,15759.35 20354.04,15759.35 27688.98,14224.55 32349.34,14225.79 37009.7,14227.03 "/>
   <line class="fil0 str0" x1="37009.7" y1="14227.03" x2="38012.22" y2= "14225.16" />
   <line class="fil0 str0" x1="1421.01" y1="14227.28" x2="2433.9" y2= "14224.39" />
  </g>
  <g id="Left_x0020_Side">
   <g>
    <polyline class="fil0 str0" points="18535.28,274.99 545.07,283.19 521.47,284.19 498.07,286.89 474.97,291.49 452.27,297.89 430.17,306.09 408.87,315.89 388.27,327.49 368.67,340.49 350.17,355.09 332.87,371.09 316.87,388.39 302.27,406.89 289.27,426.49 277.67,447.09 267.87,468.39 259.67,490.49 253.27,513.19 248.67,536.29 245.97,559.69 245.07,583.29 235,11763.11 1247.61,11763.04 "/>
    <polygon class="fil0 str0" points="690.97,616.79 642.17,641.69 603.47,680.39 578.57,729.19 569.97,783.29 578.57,837.29 603.47,886.09 642.17,924.79 690.97,949.69 744.97,958.29 799.07,949.69 847.87,924.79 886.57,886.09 911.47,837.29 919.97,783.29 911.47,729.19 886.57,680.39 847.87,641.69 799.07,616.79 744.97,608.29 "/>
    <polygon class="fil0 str0" points="12549.47,616.79 12500.77,641.69 12462.07,680.39 12437.17,729.19 12428.67,783.29 12437.17,837.29 12462.07,886.09 12500.77,924.79 12549.47,949.69 12603.67,958.29 12657.67,949.69 12706.47,924.79 12745.17,886.09 12770.07,837.29 12778.67,783.29 12770.07,729.19 12745.17,680.39 12706.47,641.69 12657.67,616.79 12603.67,608.29 "/>
    <polyline class="fil0 str0" points="18535.32,1283.29 1245.07,1283.29 1243.87,11763.05 "/>
   </g>
   <line class="fil0 str0" x1="18535.32" y1="271.2" x2="18535.32" y2= "1287.17" />
  </g>
  <g id="Right_x0020_Side">
   <polyline class="fil0 str0" points="20982.99,290.14 38968.58,298.44 38992.08,299.34 39015.48,302.04 39038.58,306.64 39061.28,313.04 39083.38,321.24 39104.78,331.04 39125.28,342.64 39144.88,355.64 39163.38,370.24 39180.68,386.24 39196.68,403.54 39211.28,422.04 39224.38,441.64 39235.88,462.24 39245.78,483.54 39253.88,505.64 39260.28,528.34 39264.88,551.44 39267.68,574.84 39268.58,598.44 39268.58,6179.66 39268.58,11777.09 "/>
   <polygon class="fil0 str0" points="38714.48,631.94 38665.68,656.84 38626.98,695.54 38602.18,744.34 38593.58,798.44 38602.18,852.44 38626.98,901.24 38665.68,939.94 38714.48,964.84 38768.58,973.44 38822.68,964.84 38871.48,939.94 38910.18,901.24 38934.98,852.44 38943.58,798.44 38934.98,744.34 38910.18,695.54 38871.48,656.84 38822.68,631.94 38768.58,623.44 "/>
   <polygon class="fil0 str0" points="26855.88,631.94 26807.08,656.84 26768.38,695.54 26743.48,744.34 26734.98,798.44 26743.48,852.44 26768.38,901.24 26807.08,939.94 26855.88,964.84 26909.98,973.44 26964.08,964.84 27012.78,939.94 27051.58,901.24 27076.38,852.44 27084.98,798.44 27076.38,744.34 27051.58,695.54 27012.78,656.84 26964.08,631.94 26909.98,623.44 "/>
   <polyline class="fil0 str0" points="38267.58,11777.92 38268.58,1298.44 21482.14,1298.44 "/>
   <line class="fil0 str0" x1="38267.58" y1="11777.92" x2="39268.58" y2= "11777.09" />
   <polyline class="fil0 str0" points="21482.14,1298.44 20983.6,1298.44 20982.99,290.14 "/>
  </g>
 </g>
</svg>
