<?xml version="1.0" encoding="UTF-8"?>
<!DOCTYPE svg PUBLIC "-//W3C//DTD SVG 1.1//EN" "http://www.w3.org/Graphics/SVG/1.1/DTD/svg11.dtd">
<!-- Creator: CorelDRAW 2020 (64-Bit) -->
<svg xmlns="http://www.w3.org/2000/svg" xml:space="preserve" width="390mm" height="170mm" version="1.1" style="shape-rendering:geometricPrecision; text-rendering:geometricPrecision; image-rendering:optimizeQuality; fill-rule:evenodd; clip-rule:evenodd"
viewBox="0 0 39000 17000"
 xmlns:xlink="http://www.w3.org/1999/xlink"
 xmlns:xodm="http://www.corel.com/coreldraw/odm/2003">
 <defs>
  <style type="text/css">
   <![CDATA[
    .str1 {stroke:black;stroke-width:30;stroke-linecap:round;stroke-linejoin:round;stroke-miterlimit:22.9256}
    .str0 {stroke:#BB002C;stroke-width:30;stroke-linecap:round;stroke-linejoin:round;stroke-miterlimit:22.9256}
    .fil0 {fill:none}
   ]]>
  </style>
 </defs>
 <g id="Layer_x0020_1">
  <metadata id="CorelCorpID_0Corel-Layer"/>
  <g id="_2533038427424">
   <path class="fil0 str0" d="M33157.77 15089.51c0,0 -0.28,-267.34 -0.42,-400.97 -0.11,-133.67 -0.11,-133.67 -0.11,-133.67 0,0 0,0 -0.14,-3 -0.11,-2.96 -0.35,-8.92 -0.49,-11.92 -0.11,-2.96 -0.11,-2.96 -0.11,-2.96 0,0 0,0 -0.35,-3 -0.39,-2.97 -1.1,-8.89 -1.48,-11.86 -0.36,-2.99 -0.36,-2.99 -0.36,-2.99 0,0 0,0 -0.6,-2.93 -0.6,-2.93 -1.76,-8.79 -2.36,-11.71 -0.6,-2.93 -0.6,-2.93 -0.6,-2.93 0,0 0,0 -0.81,-2.9 -0.81,-2.85 -2.47,-8.64 -3.28,-11.5 -0.81,-2.89 -0.81,-2.89 -0.81,-2.89 0,0 0,0 -1.06,-2.79 -1.02,-2.82 -3.11,-8.43 -4.16,-11.21 -1.03,-2.83 -1.03,-2.83 -1.03,-2.83 0,0 0,0 -1.27,-2.71 -1.23,-2.68 -3.77,-8.12 -5.04,-10.83 -1.27,-2.72 -1.27,-2.72 -1.27,-2.72 0,0 0,0 -1.45,-2.61 -1.48,-2.61 -4.41,-7.83 -5.89,-10.44 -1.45,-2.61 -1.45,-2.61 -1.45,-2.61 0,0 0,0 -1.69,-2.47 -1.66,-2.47 -5.01,-7.41 -6.67,-9.88 -1.65,-2.47 -1.65,-2.47 -1.65,-2.47 0,0 0,0 -1.87,-2.36 -1.87,-2.33 -5.61,-7.02 -7.45,-9.35 -1.87,-2.37 -1.87,-2.37 -1.87,-2.37 0,0 0,0 -2.04,-2.18 -2.01,-2.19 -6.11,-6.56 -8.15,-8.75 -2.01,-2.19 -2.01,-2.19 -2.01,-2.19 0,0 0,0 -2.23,-2.04 -2.18,-2.02 -6.59,-6.07 -8.82,-8.08 -2.18,-2.05 -2.18,-2.05 -2.18,-2.05 0,0 0,0 -2.37,-1.83 -2.33,-1.84 -7.05,-5.54 -9.42,-7.41 -2.32,-1.84 -2.32,-1.84 -2.32,-1.84 0,0 0,0 -2.51,-1.65 -2.5,-1.66 -7.48,-4.98 -9.98,-6.64 -2.47,-1.62 -2.47,-1.62 -2.47,-1.62 0,0 0,0 -2.61,-1.48 -2.61,-1.45 -7.83,-4.34 -10.44,-5.79 -2.62,-1.44 -2.62,-1.44 -2.62,-1.44 0,0 0,0 -2.71,-1.27 -2.72,-1.24 -8.15,-3.74 -10.87,-5.01 -2.71,-1.24 -2.71,-1.24 -2.71,-1.24 0,0 0,0 -2.83,-1.02 -2.82,-1.02 -8.43,-3.07 -11.21,-4.09 -2.83,-1.03 -2.83,-1.03 -2.83,-1.03 0,0 0,0 -2.89,-0.77 -2.89,-0.81 -8.64,-2.44 -11.54,-3.21 -2.89,-0.81 -2.89,-0.81 -2.89,-0.81 0,0 0,0 -2.93,-0.6 -2.92,-0.57 -8.78,-1.73 -11.71,-2.3 -2.96,-0.56 -2.96,-0.56 -2.96,-0.56 0,0 0,0 -2.96,-0.35 -2.97,-0.36 -8.93,-1.06 -11.89,-1.38 -2.97,-0.35 -2.97,-0.35 -2.97,-0.35 0,0 0,0 -3,-0.11 -2.96,-0.1 -8.92,-0.32 -11.92,-0.42 -3,-0.11 -3,-0.11 -3,-0.11 0,0 0,0 -1272.15,4.02 -1272.19,4.03 -3816.56,12.1 -5088.75,16.13 -1272.15,4.02 -1272.15,4.02 -1272.15,4.02 0,0 0,0 -931.79,-192.27 -931.76,-192.26 -2795.27,-576.79 -3727.06,-769.05 -931.76,-192.26 -931.76,-192.26 -931.76,-192.26 0,0 0,0 -505.85,1.44 -505.88,1.45 -1517.65,4.34 -2023.49,5.82 -505.89,1.45 -505.89,1.45 -505.89,1.45 0,0 0,0 -942.76,197.62 -942.76,197.63 -2828.29,592.92 -3771.05,790.58 -942.77,197.63 -942.77,197.63 -942.77,197.63 0,0 0,0 -915.95,2.61 -915.91,2.61 -2747.77,7.86 -3663.7,10.47 -915.93,2.61 -915.93,2.61 -915.93,2.61 0,0 0,0 -2.99,0.15 -3,0.1 -8.98,0.35 -11.98,0.49 -2.99,0.11 -2.99,0.11 -2.99,0.11 0,0 0,0 -2.97,0.38 -2.98,0.36 -8.92,1.1 -11.89,1.45 -2.97,0.35 -2.97,0.35 -2.97,0.35 0,0 0,0 -2.93,0.6 -2.93,0.6 -8.79,1.77 -11.72,2.37 -2.93,0.6 -2.93,0.6 -2.93,0.6 0,0 0,0 -2.88,0.81 -2.88,0.81 -8.64,2.47 -11.52,3.28 -2.88,0.84 -2.88,0.84 -2.88,0.84 0,0 0,0 -2.8,1.03 -2.8,1.02 -8.41,3.1 -11.21,4.12 -2.81,1.06 -2.81,1.06 -2.81,1.06 0,0 0,0 -2.7,1.27 -2.7,1.24 -8.1,3.78 -10.8,5.05 -2.71,1.27 -2.71,1.27 -2.71,1.27 0,0 0,0 -2.61,1.44 -2.61,1.49 -7.83,4.41 -10.44,5.9 -2.61,1.44 -2.61,1.44 -2.61,1.44 0,0 0,0 -2.48,1.7 -2.48,1.65 -7.45,5 -9.93,6.66 -2.49,1.7 -2.49,1.7 -2.49,1.7 0,0 0,0 -2.34,1.83 -2.34,1.87 -7.03,5.57 -9.38,7.44 -2.34,1.87 -2.34,1.87 -2.34,1.87 0,0 0,0 -2.19,2.05 -2.19,2.01 -6.57,6.1 -8.76,8.15 -2.19,2.01 -2.19,2.01 -2.19,2.01 0,0 0,0 -2.02,2.22 -2.03,2.19 -6.08,6.6 -8.1,8.82 -2.03,2.19 -2.03,2.19 -2.03,2.19 0,0 0,0 -1.84,2.36 -1.85,2.33 -5.55,7.06 -7.39,9.42 -1.85,2.33 -1.85,2.33 -1.85,2.33 0,0 0,0 -1.64,2.51 -1.65,2.46 -4.93,7.44 -6.58,9.91 -1.64,2.47 -1.64,2.47 -1.64,2.47 0,0 0,0 -1.46,2.61 -1.47,2.64 -4.4,7.87 -5.87,10.48 -1.46,2.64 -1.46,2.64 -1.46,2.64 0,0 0,0 -1.24,2.72 -1.24,2.71 -3.71,8.15 -4.94,10.86 -1.24,2.72 -1.24,2.72 -1.24,2.72 0,0 0,0 -1.03,2.82 -1.03,2.79 -3.1,8.43 -4.13,11.22 -1.04,2.82 -1.04,2.82 -1.04,2.82 0,0 0,0 -0.8,2.9 -0.81,2.85 -2.42,8.64 -3.22,11.53 -0.81,2.89 -0.81,2.89 -0.81,2.89 0,0 0,0 -0.57,2.93 -0.58,2.93 -1.73,8.79 -2.3,11.75 -0.58,2.93 -0.58,2.93 -0.58,2.93 0,0 0,0 -0.33,2.96 -0.33,2.96 -1,8.93 -1.34,11.89 -0.33,2.96 -0.33,2.96 -0.33,2.96 0,0 0,0 -0.12,3 -0.12,2.96 -0.36,8.93 -0.48,11.93 -0.12,2.99 -0.12,2.99 -0.12,2.99 0,0 0,0 0.49,132.68 0.49,132.68 1.47,398.04 1.47,398.04"/>
   <path class="fil0 str0" d="M6059.67 15167.75c0,0 2477.36,-7.09 3716.07,-10.65 1238.67,-3.53 1238.67,-3.53 1238.67,-3.53 0,0 0,0 944.88,-197.59 944.88,-197.59 2834.64,-592.74 3779.52,-790.33 944.88,-197.55 944.88,-197.55 944.88,-197.55 0,0 0,0 503.8,-1.45 503.84,-1.45 1511.48,-4.34 2015.28,-5.79 503.83,-1.44 503.83,-1.44 503.83,-1.44 0,0 0,0 931.76,192.19 931.76,192.16 2795.31,576.51 3727.06,768.7 931.76,192.2 931.76,192.2 931.76,192.2 0,0 0,0 591.64,-1.87 591.68,-1.84 1774.97,-5.54 2366.65,-7.41 591.64,-1.83 591.64,-1.83 591.64,-1.83 0,0 0,0 887.48,-2.79 887.49,-2.79 2662.45,-8.36 2662.45,-8.36"/>
   <path class="fil0 str0" d="M32397.04 15090.25c0,0 763.66,-0.74 763.66,-0.74"/>
   <path class="fil0 str0" d="M5288.11 15167.75c0,0 771.56,0 771.56,0"/>
   <path class="fil0 str1" d="M14658.32 13871.79c0,0 -20.74,11.75 -31.15,17.64 -10.37,5.85 -10.37,5.85 -10.37,5.85 0,0 0,0 -5.36,5.86 -5.37,5.86 -16.09,17.57 -21.49,23.46 -5.36,5.86 -5.36,5.86 -5.36,5.86 0,0 0,0 -3.28,7.19 -3.32,7.23 -9.91,21.66 -13.2,28.89 -3.31,7.24 -3.31,7.24 -3.31,7.24 0,0 0,0 -0.88,7.9 -0.92,7.9 -2.72,23.71 -3.64,31.61 -0.91,7.9 -0.91,7.9 -0.91,7.9 0,0 0,0 1.58,7.8 1.59,7.76 4.73,23.35 6.32,31.11 1.59,7.8 1.59,7.8 1.59,7.8 0,0 0,0 3.91,6.91 3.88,6.92 11.71,20.75 15.59,27.66 3.92,6.91 3.92,6.91 3.92,6.91 0,0 0,0 5.86,5.37 5.85,5.36 17.53,16.12 23.39,21.52 5.85,5.36 5.85,5.36 5.85,5.36 0,0 0,0 7.23,3.31 7.24,3.29 21.7,9.88 28.93,13.2 7.23,3.28 7.23,3.28 7.23,3.28 0,0 0,0 7.87,0.92 7.9,0.91 23.67,2.71 31.57,3.63 7.91,0.88 7.91,0.88 7.91,0.88 0,0 0,0 7.79,-1.55 7.76,-1.59 23.36,-4.76 31.12,-6.35 7.79,-1.55 7.79,-1.55 7.79,-1.55 0,0 0,0 6.92,-3.92 6.91,-3.91 20.74,-11.71 27.66,-15.63 6.87,-3.88 6.87,-3.88 6.87,-3.88 0,0 0,0 5.4,-5.89 5.36,-5.85 16.12,-17.57 21.52,-23.42 5.36,-5.86 5.36,-5.86 5.36,-5.86 0,0 0,0 3.32,-7.23 3.28,-7.23 9.88,-21.66 13.19,-28.89 3.28,-7.2 3.28,-7.2 3.28,-7.2 0,0 0,0 0.92,-7.9 0.88,-7.9 2.72,-23.67 3.64,-31.58 0.88,-7.86 0.88,-7.86 0.88,-7.86 0,0 0,0 -1.59,-7.8 -1.55,-7.8 -4.73,-23.39 -6.31,-31.18 -1.56,-7.84 -1.56,-7.84 -1.56,-7.84 0,0 0,0 -3.91,-6.88 -3.92,-6.91 -11.71,-20.74 -15.63,-27.65 -3.92,-6.92 -3.92,-6.92 -3.92,-6.92 0,0 0,0 -5.85,-5.36 -5.86,-5.4 -17.57,-16.16 -23.43,-21.52 -5.85,-5.36 -5.85,-5.36 -5.85,-5.36 0,0 0,0 -7.24,-3.32 -7.23,-3.31 -21.66,-9.95 -28.89,-13.26 -7.19,-3.32 -7.19,-3.32 -7.19,-3.32 0,0 0,0 -7.91,-0.88 -7.9,-0.88 -23.67,-2.65 -31.57,-3.53 -7.87,-0.88 -7.87,-0.88 -7.87,-0.88 0,0 0,0 -11.71,2.33 -11.68,2.33 -35.03,7.02 -35.03,7.02"/>
   <path class="fil0 str1" d="M5623.71 14642.22c0,0 -20.77,11.75 -31.15,17.64 -10.38,5.85 -10.38,5.85 -10.38,5.85 0,0 0,0 -5.37,5.86 -5.37,5.89 -16.09,17.6 -21.46,23.46 -5.37,5.86 -5.37,5.86 -5.37,5.86 0,0 0,0 -3.29,7.23 -3.3,7.2 -9.9,21.66 -13.2,28.86 -3.3,7.23 -3.3,7.23 -3.3,7.23 0,0 0,0 -0.9,7.9 -0.91,7.9 -2.72,23.71 -3.63,31.61 -0.9,7.9 -0.9,7.9 -0.9,7.9 0,0 0,0 1.57,7.8 1.58,7.79 4.74,23.35 6.32,31.15 1.58,7.76 1.58,7.76 1.58,7.76 0,0 0,0 3.91,6.91 3.9,6.92 11.71,20.75 15.62,27.66 3.9,6.92 3.9,6.92 3.9,6.92 0,0 0,0 5.85,5.36 5.85,5.4 17.54,16.15 23.39,21.52 5.85,5.39 5.85,5.39 5.85,5.39 0,0 0,0 7.23,3.29 7.23,3.31 21.7,9.91 28.93,13.19 7.23,3.32 7.23,3.32 7.23,3.32 0,0 0,0 7.89,0.88 7.9,0.91 23.68,2.71 31.57,3.63 7.89,0.92 7.89,0.92 7.89,0.92 0,0 0,0 7.79,-1.59 7.78,-1.59 23.36,-4.73 31.15,-6.31 7.78,-1.59 7.78,-1.59 7.78,-1.59 0,0 0,0 6.91,-3.92 6.91,-3.88 20.73,-11.71 27.64,-15.59 6.91,-3.92 6.91,-3.92 6.91,-3.92 0,0 0,0 5.38,-5.85 5.38,-5.86 16.13,-17.61 21.51,-23.46 5.38,-5.86 5.38,-5.86 5.38,-5.86 0,0 0,0 3.3,-7.19 3.3,-7.24 9.89,-21.67 13.19,-28.9 3.3,-7.23 3.3,-7.23 3.3,-7.23 0,0 0,0 0.91,-7.87 0.9,-7.9 2.71,-23.7 3.62,-31.57 0.91,-7.9 0.91,-7.9 0.91,-7.9 0,0 0,0 -1.58,-7.8 -1.58,-7.79 -4.74,-23.39 -6.32,-31.18 -1.58,-7.8 -1.58,-7.8 -1.58,-7.8 0,0 0,0 -3.91,-6.91 -3.9,-6.92 -11.71,-20.75 -15.62,-27.66 -3.9,-6.92 -3.9,-6.92 -3.9,-6.92 0,0 0,0 -5.86,-5.36 -5.86,-5.36 -17.58,-16.12 -23.44,-21.52 -5.86,-5.36 -5.86,-5.36 -5.86,-5.36 0,0 0,0 -7.22,-3.32 -7.22,-3.31 -21.66,-9.94 -28.88,-13.26 -7.22,-3.28 -7.22,-3.28 -7.22,-3.28 0,0 0,0 -7.89,-0.88 -7.89,-0.89 -23.68,-2.65 -31.57,-3.53 -7.89,-0.88 -7.89,-0.88 -7.89,-0.88 0,0 0,0 -11.68,2.32 -11.68,2.33 -35.04,6.99 -35.04,6.99"/>
   <path class="fil0 str1" d="M23693.52 14253.46c0,0 -20.78,11.75 -31.15,17.64 -10.37,5.85 -10.37,5.85 -10.37,5.85 0,0 0,0 -5.36,5.86 -5.36,5.86 -16.12,17.6 -21.49,23.46 -5.36,5.86 -5.36,5.86 -5.36,5.86 0,0 0,0 -3.28,7.19 -3.32,7.23 -9.91,21.66 -13.19,28.89 -3.32,7.24 -3.32,7.24 -3.32,7.24 0,0 0,0 -0.92,7.9 -0.88,7.9 -2.71,23.71 -3.6,31.61 -0.91,7.9 -0.91,7.9 -0.91,7.9 0,0 0,0 1.58,7.8 1.56,7.76 4.73,23.35 6.32,31.15 1.55,7.76 1.55,7.76 1.55,7.76 0,0 0,0 3.92,6.91 3.91,6.92 11.71,20.75 15.63,27.66 3.91,6.91 3.91,6.91 3.91,6.91 0,0 0,0 5.86,5.37 5.82,5.39 17.53,16.12 23.39,21.52 5.82,5.36 5.82,5.36 5.82,5.36 0,0 0,0 7.23,3.31 7.23,3.29 21.7,9.88 28.93,13.2 7.23,3.28 7.23,3.28 7.23,3.28 0,0 0,0 7.9,0.92 7.9,0.91 23.67,2.71 31.58,3.63 7.86,0.88 7.86,0.88 7.86,0.88 0,0 0,0 7.8,-1.55 7.79,-1.59 23.35,-4.76 31.15,-6.31 7.8,-1.59 7.8,-1.59 7.8,-1.59 0,0 0,0 6.91,-3.92 6.91,-3.91 20.71,-11.71 27.62,-15.63 6.92,-3.88 6.92,-3.88 6.92,-3.88 0,0 0,0 5.36,-5.85 5.4,-5.89 16.16,-17.61 21.52,-23.46 5.4,-5.86 5.4,-5.86 5.4,-5.86 0,0 0,0 3.28,-7.23 3.31,-7.2 9.91,-21.66 13.19,-28.86 3.32,-7.23 3.32,-7.23 3.32,-7.23 0,0 0,0 0.88,-7.9 0.92,-7.87 2.75,-23.67 3.63,-31.54 0.92,-7.9 0.92,-7.9 0.92,-7.9 0,0 0,0 -1.59,-7.8 -1.59,-7.8 -4.73,-23.39 -6.31,-31.18 -1.59,-7.8 -1.59,-7.8 -1.59,-7.8 0,0 0,0 -3.92,-6.92 -3.88,-6.91 -11.71,-20.74 -15.59,-27.65 -3.92,-6.92 -3.92,-6.92 -3.92,-6.92 0,0 0,0 -5.85,-5.36 -5.86,-5.4 -17.57,-16.16 -23.46,-21.52 -5.86,-5.36 -5.86,-5.36 -5.86,-5.36 0,0 0,0 -7.19,-3.32 -7.24,-3.31 -21.66,-9.95 -28.9,-13.26 -7.23,-3.32 -7.23,-3.32 -7.23,-3.32 0,0 0,0 -7.86,-0.88 -7.91,-0.88 -23.68,-2.65 -31.58,-3.53 -7.9,-0.88 -7.9,-0.88 -7.9,-0.88 0,0 0,0 -11.68,2.36 -11.67,2.33 -35.03,6.99 -35.03,6.99"/>
   <path class="fil0 str1" d="M32723.25 14565.38c0,0 -20.77,11.75 -31.15,17.64 -10.37,5.86 -10.37,5.86 -10.37,5.86 0,0 0,0 -5.36,5.86 -5.36,5.89 -16.12,17.6 -21.48,23.46 -5.37,5.85 -5.37,5.85 -5.37,5.85 0,0 0,0 -3.28,7.23 -3.31,7.2 -9.91,21.66 -13.19,28.86 -3.32,7.23 -3.32,7.23 -3.32,7.23 0,0 0,0 -0.91,7.91 -0.89,7.9 -2.72,23.7 -3.6,31.6 -0.92,7.91 -0.92,7.91 -0.92,7.91 0,0 0,0 1.59,7.79 1.55,7.8 4.73,23.36 6.31,31.15 1.56,7.76 1.56,7.76 1.56,7.76 0,0 0,0 3.91,6.92 3.92,6.91 11.71,20.74 15.63,27.66 3.91,6.91 3.91,6.91 3.91,6.91 0,0 0,0 5.86,5.36 5.82,5.4 17.53,16.16 23.35,21.52 5.86,5.4 5.86,5.4 5.86,5.4 0,0 0,0 7.23,3.28 7.23,3.32 21.7,9.91 28.93,13.19 7.23,3.32 7.23,3.32 7.23,3.32 0,0 0,0 7.9,0.88 7.91,0.92 23.68,2.72 31.58,3.64 7.9,0.91 7.9,0.91 7.9,0.91 0,0 0,0 7.76,-1.58 7.8,-1.59 23.36,-4.73 31.15,-6.32 7.8,-1.59 7.8,-1.59 7.8,-1.59 0,0 0,0 6.91,-3.91 6.92,-3.88 20.71,-11.71 27.63,-15.6 6.91,-3.91 6.91,-3.91 6.91,-3.91 0,0 0,0 5.4,-5.86 5.36,-5.85 16.12,-17.6 21.48,-23.46 5.4,-5.85 5.4,-5.85 5.4,-5.85 0,0 0,0 3.28,-7.2 3.32,-7.23 9.91,-21.66 13.19,-28.89 3.32,-7.23 3.32,-7.23 3.32,-7.23 0,0 0,0 0.88,-7.87 0.92,-7.9 2.75,-23.71 3.64,-31.57 0.91,-7.91 0.91,-7.91 0.91,-7.91 0,0 0,0 -1.58,-7.79 -1.59,-7.8 -4.73,-23.39 -6.32,-31.19 -1.59,-7.79 -1.59,-7.79 -1.59,-7.79 0,0 0,0 -3.88,-6.92 -3.91,-6.91 -11.75,-20.74 -15.63,-27.66 -3.91,-6.91 -3.91,-6.91 -3.91,-6.91 0,0 0,0 -5.86,-5.36 -5.85,-5.4 -17.57,-16.13 -23.46,-21.52 -5.85,-5.37 -5.85,-5.37 -5.85,-5.37 0,0 0,0 -7.2,-3.31 -7.23,-3.32 -21.66,-9.95 -28.89,-13.27 -7.23,-3.28 -7.23,-3.28 -7.23,-3.28 0,0 0,0 -7.87,-0.88 -7.9,-0.88 -23.67,-2.64 -31.58,-3.53 -7.9,-0.88 -7.9,-0.88 -7.9,-0.88 0,0 0,0 -11.67,2.33 -11.68,2.33 -35.04,6.98 -35.04,6.98"/>
   <path class="fil0 str0" d="M33118.01 13868.86c0,0 -0.28,-267.33 -0.42,-400.97 -0.11,-133.66 -0.11,-133.66 -0.11,-133.66 0,0 0,0 -0.14,-3 -0.1,-2.97 -0.35,-8.93 -0.49,-11.93 -0.11,-2.96 -0.11,-2.96 -0.11,-2.96 0,0 0,0 -0.35,-3 -0.39,-2.96 -1.09,-8.89 -1.48,-11.85 -0.35,-3 -0.35,-3 -0.35,-3 0,0 0,0 -0.6,-2.93 -0.6,-2.93 -1.77,-8.78 -2.37,-11.71 -0.6,-2.93 -0.6,-2.93 -0.6,-2.93 0,0 0,0 -0.81,-2.89 -0.81,-2.86 -2.47,-8.64 -3.28,-11.5 -0.81,-2.89 -0.81,-2.89 -0.81,-2.89 0,0 0,0 -1.06,-2.79 -1.02,-2.82 -3.1,-8.43 -4.13,-11.22 -1.06,-2.82 -1.06,-2.82 -1.06,-2.82 0,0 0,0 -1.27,-2.68 -1.23,-2.72 -3.77,-8.15 -5.04,-10.87 -1.27,-2.72 -1.27,-2.72 -1.27,-2.72 0,0 0,0 -1.45,-2.61 -1.48,-2.61 -4.41,-7.83 -5.89,-10.44 -1.44,-2.61 -1.44,-2.61 -1.44,-2.61 0,0 0,0 -1.7,-2.47 -1.66,-2.47 -5.01,-7.41 -6.66,-9.88 -1.66,-2.47 -1.66,-2.47 -1.66,-2.47 0,0 0,0 -1.87,-2.36 -1.87,-2.33 -5.58,-7.02 -7.45,-9.35 -1.87,-2.36 -1.87,-2.36 -1.87,-2.36 0,0 0,0 -2.04,-2.19 -2.01,-2.19 -6.11,-6.56 -8.15,-8.75 -2.01,-2.18 -2.01,-2.18 -2.01,-2.18 0,0 0,0 -2.22,-2.05 -2.19,-2.01 -6.6,-6.07 -8.79,-8.08 -2.22,-2.05 -2.22,-2.05 -2.22,-2.05 0,0 0,0 -2.36,-1.83 -2.33,-1.83 -7.06,-5.54 -9.39,-7.37 -2.36,-1.87 -2.36,-1.87 -2.36,-1.87 0,0 0,0 -2.51,-1.66 -2.5,-1.66 -7.48,-4.97 -9.98,-6.6 -2.47,-1.66 -2.47,-1.66 -2.47,-1.66 0,0 0,0 -2.61,-1.48 -2.61,-1.44 -7.83,-4.34 -10.44,-5.78 -2.61,-1.45 -2.61,-1.45 -2.61,-1.45 0,0 0,0 -2.72,-1.27 -2.72,-1.23 -8.15,-3.74 -10.87,-4.97 -2.71,-1.27 -2.71,-1.27 -2.71,-1.27 0,0 0,0 -2.82,-1.03 -2.79,-1.02 -8.44,-3.07 -11.22,-4.09 -2.82,-0.99 -2.82,-0.99 -2.82,-0.99 0,0 0,0 -2.9,-0.81 -2.85,-0.81 -8.64,-2.43 -11.53,-3.21 -2.9,-0.81 -2.9,-0.81 -2.9,-0.81 0,0 0,0 -2.92,-0.6 -2.93,-0.56 -8.79,-1.73 -11.72,-2.29 -2.96,-0.57 -2.96,-0.57 -2.96,-0.57 0,0 0,0 -2.96,-0.35 -2.97,-0.35 -8.89,-1.06 -11.89,-1.38 -2.96,-0.35 -2.96,-0.35 -2.96,-0.35 0,0 0,0 -2.97,-0.1 -3,-0.11 -8.96,-0.32 -11.96,-0.43 -2.96,-0.1 -2.96,-0.1 -2.96,-0.1 0,0 0,0 -1272.19,4.02 -1272.18,4.02 -3816.56,12.1 -5088.71,16.12 -1272.19,4.02 -1272.19,4.02 -1272.19,4.02 0,0 0,0 -931.79,-192.26 -931.76,-192.27 -2795.27,-576.79 -3727.02,-769.06 -931.8,-192.26 -931.8,-192.26 -931.8,-192.26 0,0 0,0 -505.84,1.45 -505.89,1.44 -1517.65,4.33 -2023.5,5.82 -505.89,1.44 -505.89,1.44 -505.89,1.44 0,0 0,0 -942.76,197.63 -942.76,197.66 -2828.29,592.91 -3771.05,790.57 -942.76,197.63 -942.76,197.63 -942.76,197.63 0,0 0,0 -915.92,2.61 -915.95,2.61 -2747.8,7.87 -3663.73,10.48 -915.93,2.61 -915.93,2.61 -915.93,2.61 0,0 0,0 -3,0.14 -2.99,0.11 -8.98,0.35 -11.97,0.49 -3,0.11 -3,0.11 -3,0.11 0,0 0,0 -2.97,0.39 -2.97,0.35 -8.91,1.09 -11.88,1.44 -2.97,0.36 -2.97,0.36 -2.97,0.36 0,0 0,0 -2.94,0.6 -2.92,0.6 -8.78,1.76 -11.72,2.36 -2.92,0.6 -2.92,0.6 -2.92,0.6 0,0 0,0 -2.89,0.81 -2.87,0.81 -8.63,2.47 -11.51,3.28 -2.88,0.85 -2.88,0.85 -2.88,0.85 0,0 0,0 -2.8,1.02 -2.81,1.02 -8.41,3.11 -11.22,4.13 -2.8,1.06 -2.8,1.06 -2.8,1.06 0,0 0,0 -2.7,1.27 -2.7,1.23 -8.11,3.77 -10.81,5.04 -2.7,1.27 -2.7,1.27 -2.7,1.27 0,0 0,0 -2.61,1.45 -2.61,1.48 -7.83,4.41 -10.44,5.89 -2.61,1.45 -2.61,1.45 -2.61,1.45 0,0 0,0 -2.48,1.69 -2.49,1.66 -7.45,5.01 -9.94,6.67 -2.48,1.69 -2.48,1.69 -2.48,1.69 0,0 0,0 -2.34,1.83 -2.35,1.87 -7.03,5.58 -9.38,7.45 -2.34,1.87 -2.34,1.87 -2.34,1.87 0,0 0,0 -2.19,2.04 -2.19,2.01 -6.57,6.11 -8.76,8.15 -2.19,2.01 -2.19,2.01 -2.19,2.01 0,0 0,0 -2.03,2.23 -2.02,2.18 -6.07,6.59 -8.1,8.82 -2.02,2.18 -2.02,2.18 -2.02,2.18 0,0 0,0 -1.85,2.37 -1.85,2.36 -5.54,7.05 -7.39,9.42 -1.84,2.32 -1.84,2.32 -1.84,2.32 0,0 0,0 -1.65,2.51 -1.64,2.47 -4.93,7.44 -6.57,9.91 -1.64,2.47 -1.64,2.47 -1.64,2.47 0,0 0,0 -1.47,2.61 -1.47,2.65 -4.4,7.87 -5.86,10.51 -1.47,2.62 -1.47,2.62 -1.47,2.62 0,0 0,0 -1.23,2.71 -1.24,2.72 -3.71,8.15 -4.95,10.87 -1.23,2.71 -1.23,2.71 -1.23,2.71 0,0 0,0 -1.03,2.83 -1.04,2.82 -3.11,8.43 -4.14,11.21 -1.03,2.83 -1.03,2.83 -1.03,2.83 0,0 0,0 -0.81,2.89 -0.8,2.89 -2.41,8.64 -3.22,11.54 -0.8,2.89 -0.8,2.89 -0.8,2.89 0,0 0,0 -0.58,2.93 -0.57,2.92 -1.72,8.78 -2.3,11.74 -0.57,2.93 -0.57,2.93 -0.57,2.93 0,0 0,0 -0.34,2.96 -0.33,2.97 -1,8.93 -1.33,11.89 -0.34,2.97 -0.34,2.97 -0.34,2.97 0,0 0,0 -0.12,3 -0.11,2.96 -0.35,8.92 -0.47,11.92 -0.12,3 -0.12,3 -0.12,3 0,0 0,0 0.49,132.68 0.49,132.68 1.47,398.07 1.47,398.07"/>
   <path class="fil0 str0" d="M6019.91 13947.11c0,0 2477.39,-7.09 3716.07,-10.66 1238.67,-3.53 1238.67,-3.53 1238.67,-3.53 0,0 0,0 944.88,-197.59 944.88,-197.59 2834.64,-592.73 3779.52,-790.32 944.88,-197.56 944.88,-197.56 944.88,-197.56 0,0 0,0 503.8,-1.45 503.84,-1.44 1511.48,-4.33 2015.28,-5.78 503.84,-1.45 503.84,-1.45 503.84,-1.45 0,0 0,0 931.75,192.2 931.76,192.15 2795.31,576.54 3727.06,768.7 931.76,192.19 931.76,192.19 931.76,192.19 0,0 0,0 591.64,-1.87 591.68,-1.83 1774.97,-5.54 2366.65,-7.41 591.64,-1.83 591.64,-1.83 591.64,-1.83 0,0 0,0 887.48,-2.79 887.49,-2.78 2662.45,-8.36 2662.45,-8.36"/>
   <path class="fil0 str0" d="M32357.28 13869.6c0,0 763.66,-0.74 763.66,-0.74"/>
   <path class="fil0 str0" d="M5248.35 13947.14c0,0 771.56,-0.03 771.56,-0.03"/>
   <path class="fil0 str1" d="M14618.56 12651.14c0,0 -20.74,11.75 -31.15,17.64 -10.37,5.86 -10.37,5.86 -10.37,5.86 0,0 0,0 -5.36,5.85 -5.36,5.86 -16.09,17.61 -21.45,23.46 -5.4,5.86 -5.4,5.86 -5.4,5.86 0,0 0,0 -3.28,7.2 -3.32,7.23 -9.91,21.66 -13.19,28.89 -3.32,7.23 -3.32,7.23 -3.32,7.23 0,0 0,0 -0.88,7.9 -0.92,7.9 -2.72,23.71 -3.63,31.61 -0.92,7.9 -0.92,7.9 -0.92,7.9 0,0 0,0 1.59,7.8 1.58,7.76 4.72,23.35 6.31,31.12 1.59,7.79 1.59,7.79 1.59,7.79 0,0 0,0 3.91,6.92 3.88,6.91 11.72,20.74 15.63,27.65 3.88,6.92 3.88,6.92 3.88,6.92 0,0 0,0 5.86,5.36 5.85,5.36 17.53,16.12 23.39,21.52 5.85,5.36 5.85,5.36 5.85,5.36 0,0 0,0 7.24,3.32 7.23,3.28 21.69,9.88 28.92,13.19 7.24,3.28 7.24,3.28 7.24,3.28 0,0 0,0 7.86,0.92 7.9,0.92 23.71,2.72 31.58,3.63 7.9,0.89 7.9,0.89 7.9,0.89 0,0 0,0 7.79,-1.56 7.77,-1.58 23.36,-4.76 31.12,-6.31 7.8,-1.59 7.8,-1.59 7.8,-1.59 0,0 0,0 6.91,-3.91 6.91,-3.92 20.74,-11.72 27.66,-15.63 6.88,-3.88 6.88,-3.88 6.88,-3.88 0,0 0,0 5.39,-5.89 5.37,-5.86 16.13,-17.57 21.52,-23.43 5.37,-5.86 5.37,-5.86 5.37,-5.86 0,0 0,0 3.31,-7.23 3.28,-7.19 9.88,-21.66 13.2,-28.85 3.28,-7.24 3.28,-7.24 3.28,-7.24 0,0 0,0 0.91,-7.9 0.89,-7.9 2.72,-23.67 3.64,-31.57 0.88,-7.87 0.88,-7.87 0.88,-7.87 0,0 0,0 -1.55,-7.8 -1.59,-7.79 -4.77,-23.38 -6.35,-31.18 -1.55,-7.83 -1.55,-7.83 -1.55,-7.83 0,0 0,0 -3.92,-6.88 -3.92,-6.92 -11.71,-20.75 -15.63,-27.66 -3.91,-6.91 -3.91,-6.91 -3.91,-6.91 0,0 0,0 -5.86,-5.37 -5.86,-5.39 -17.57,-16.15 -23.43,-21.52 -5.85,-5.36 -5.85,-5.36 -5.85,-5.36 0,0 0,0 -7.23,-3.31 -7.24,-3.32 -21.66,-9.95 -28.9,-13.27 -7.19,-3.31 -7.19,-3.31 -7.19,-3.31 0,0 0,0 -7.9,-0.89 -7.91,-0.88 -23.68,-2.64 -31.58,-3.52 -7.86,-0.89 -7.86,-0.89 -7.86,-0.89 0,0 0,0 -11.68,2.33 -11.68,2.37 -35.07,7.02 -35.07,7.02"/>
   <path class="fil0 str1" d="M5583.96 13421.57c0,0 -20.77,11.75 -31.15,17.64 -10.39,5.86 -10.39,5.86 -10.39,5.86 0,0 0,0 -5.37,5.89 -5.36,5.86 -16.09,17.57 -21.45,23.42 -5.37,5.86 -5.37,5.86 -5.37,5.86 0,0 0,0 -3.3,7.23 -3.3,7.2 -9.89,21.66 -13.19,28.86 -3.3,7.23 -3.3,7.23 -3.3,7.23 0,0 0,0 -0.91,7.9 -0.9,7.91 -2.72,23.71 -3.62,31.61 -0.91,7.9 -0.91,7.9 -0.91,7.9 0,0 0,0 1.58,7.8 1.58,7.8 4.74,23.36 6.32,31.15 1.58,7.76 1.58,7.76 1.58,7.76 0,0 0,0 3.9,6.92 3.91,6.91 11.72,20.74 15.62,27.65 3.91,6.92 3.91,6.92 3.91,6.92 0,0 0,0 5.85,5.36 5.84,5.4 17.54,16.16 23.38,21.52 5.85,5.4 5.85,5.4 5.85,5.4 0,0 0,0 7.24,3.28 7.23,3.32 21.69,9.91 28.93,13.19 7.23,3.32 7.23,3.32 7.23,3.32 0,0 0,0 7.89,0.88 7.89,0.92 23.68,2.72 31.57,3.63 7.89,0.92 7.89,0.92 7.89,0.92 0,0 0,0 7.78,-1.59 7.79,-1.58 23.36,-4.72 31.15,-6.31 7.79,-1.59 7.79,-1.59 7.79,-1.59 0,0 0,0 6.9,-3.91 6.92,-3.88 20.74,-11.72 27.65,-15.6 6.91,-3.91 6.91,-3.91 6.91,-3.91 0,0 0,0 5.38,-5.86 5.37,-5.85 16.13,-17.57 21.5,-23.46 5.38,-5.85 5.38,-5.85 5.38,-5.85 0,0 0,0 3.3,-7.2 3.3,-7.23 9.9,-21.66 13.2,-28.89 3.29,-7.24 3.29,-7.24 3.29,-7.24 0,0 0,0 0.91,-7.86 0.91,-7.9 2.72,-23.67 3.62,-31.58 0.91,-7.9 0.91,-7.9 0.91,-7.9 0,0 0,0 -1.58,-7.79 -1.58,-7.8 -4.73,-23.39 -6.31,-31.19 -1.58,-7.8 -1.58,-7.8 -1.58,-7.8 0,0 0,0 -3.91,-6.91 -3.91,-6.92 -11.72,-20.74 -15.62,-27.66 -3.91,-6.91 -3.91,-6.91 -3.91,-6.91 0,0 0,0 -5.86,-5.37 -5.86,-5.36 -17.57,-16.12 -23.43,-21.51 -5.87,-5.37 -5.87,-5.37 -5.87,-5.37 0,0 0,0 -7.22,-3.31 -7.22,-3.32 -21.66,-9.95 -28.88,-13.23 -7.22,-3.32 -7.22,-3.32 -7.22,-3.32 0,0 0,0 -7.89,-0.88 -7.89,-0.88 -23.67,-2.65 -31.56,-3.53 -7.89,-0.88 -7.89,-0.88 -7.89,-0.88 0,0 0,0 -11.69,2.33 -11.67,2.33 -35.03,6.98 -35.03,6.98"/>
   <path class="fil0 str1" d="M23653.76 13032.81c0,0 -20.78,11.75 -31.15,17.64 -10.37,5.86 -10.37,5.86 -10.37,5.86 0,0 0,0 -5.36,5.85 -5.36,5.86 -16.12,17.61 -21.48,23.46 -5.37,5.86 -5.37,5.86 -5.37,5.86 0,0 0,0 -3.28,7.2 -3.31,7.23 -9.91,21.66 -13.19,28.89 -3.32,7.23 -3.32,7.23 -3.32,7.23 0,0 0,0 -0.92,7.9 -0.88,7.91 -2.71,23.71 -3.59,31.61 -0.92,7.9 -0.92,7.9 -0.92,7.9 0,0 0,0 1.59,7.8 1.55,7.8 4.72,23.35 6.31,31.15 1.59,7.76 1.59,7.76 1.59,7.76 0,0 0,0 3.88,6.92 3.92,6.91 11.71,20.74 15.63,27.65 3.91,6.92 3.91,6.92 3.91,6.92 0,0 0,0 5.86,5.36 5.82,5.4 17.53,16.12 23.39,21.52 5.82,5.36 5.82,5.36 5.82,5.36 0,0 0,0 7.23,3.32 7.23,3.28 21.7,9.88 28.93,13.19 7.23,3.28 7.23,3.28 7.23,3.28 0,0 0,0 7.9,0.92 7.91,0.92 23.67,2.72 31.58,3.63 7.9,0.89 7.9,0.89 7.9,0.89 0,0 0,0 7.76,-1.56 7.8,-1.58 23.35,-4.76 31.15,-6.31 7.8,-1.59 7.8,-1.59 7.8,-1.59 0,0 0,0 6.91,-3.91 6.92,-3.92 20.71,-11.72 27.62,-15.63 6.92,-3.88 6.92,-3.88 6.92,-3.88 0,0 0,0 5.4,-5.86 5.36,-5.89 16.12,-17.6 21.48,-23.46 5.4,-5.85 5.4,-5.85 5.4,-5.85 0,0 0,0 3.28,-7.24 3.31,-7.19 9.91,-21.66 13.19,-28.85 3.32,-7.24 3.32,-7.24 3.32,-7.24 0,0 0,0 0.88,-7.9 0.92,-7.87 2.75,-23.67 3.63,-31.54 0.92,-7.9 0.92,-7.9 0.92,-7.9 0,0 0,0 -1.59,-7.8 -1.55,-7.79 -4.72,-23.38 -6.31,-31.18 -1.59,-7.8 -1.59,-7.8 -1.59,-7.8 0,0 0,0 -3.88,-6.91 -3.91,-6.92 -11.75,-20.74 -15.63,-27.66 -3.91,-6.91 -3.91,-6.91 -3.91,-6.91 0,0 0,0 -5.86,-5.37 -5.86,-5.39 -17.57,-16.12 -23.46,-21.52 -5.85,-5.36 -5.85,-5.36 -5.85,-5.36 0,0 0,0 -7.2,-3.31 -7.23,-3.32 -21.66,-9.95 -28.89,-13.27 -7.24,-3.31 -7.24,-3.31 -7.24,-3.31 0,0 0,0 -7.86,-0.89 -7.91,-0.88 -23.67,-2.64 -31.58,-3.52 -7.9,-0.89 -7.9,-0.89 -7.9,-0.89 0,0 0,0 -11.68,2.37 -11.67,2.33 -35.03,6.98 -35.03,6.98"/>
   <path class="fil0 str1" d="M32683.5 13344.74c0,0 -20.78,11.75 -31.15,17.64 -10.38,5.85 -10.38,5.85 -10.38,5.85 0,0 0,0 -5.36,5.9 -5.36,5.85 -16.12,17.56 -21.48,23.42 -5.36,5.86 -5.36,5.86 -5.36,5.86 0,0 0,0 -3.28,7.23 -3.32,7.19 -9.92,21.66 -13.2,28.85 -3.31,7.24 -3.31,7.24 -3.31,7.24 0,0 0,0 -0.89,7.9 -0.91,7.9 -2.75,23.71 -3.63,31.61 -0.92,7.9 -0.92,7.9 -0.92,7.9 0,0 0,0 1.59,7.8 1.59,7.79 4.73,23.35 6.31,31.15 1.59,7.76 1.59,7.76 1.59,7.76 0,0 0,0 3.88,6.91 3.92,6.92 11.72,20.75 15.63,27.66 3.92,6.91 3.92,6.91 3.92,6.91 0,0 0,0 5.85,5.37 5.82,5.39 17.54,16.15 23.39,21.52 5.82,5.39 5.82,5.39 5.82,5.39 0,0 0,0 7.23,3.28 7.24,3.32 21.7,9.92 28.93,13.2 7.27,3.31 7.27,3.31 7.27,3.31 0,0 0,0 7.87,0.89 7.9,0.91 23.67,2.71 31.57,3.63 7.9,0.92 7.9,0.92 7.9,0.92 0,0 0,0 7.76,-1.59 7.8,-1.59 23.39,-4.73 31.15,-6.32 7.8,-1.58 7.8,-1.58 7.8,-1.58 0,0 0,0 6.91,-3.92 6.92,-3.88 20.71,-11.71 27.63,-15.59 6.91,-3.92 6.91,-3.92 6.91,-3.92 0,0 0,0 5.4,-5.85 5.36,-5.86 16.12,-17.61 21.48,-23.46 5.4,-5.86 5.4,-5.86 5.4,-5.86 0,0 0,0 3.28,-7.2 3.32,-7.23 9.91,-21.66 13.2,-28.89 3.31,-7.23 3.31,-7.23 3.31,-7.23 0,0 0,0 0.88,-7.87 0.92,-7.9 2.76,-23.7 3.64,-31.57 0.91,-7.9 0.91,-7.9 0.91,-7.9 0,0 0,0 -1.58,-7.8 -1.59,-7.8 -4.73,-23.39 -6.32,-31.18 -1.59,-7.8 -1.59,-7.8 -1.59,-7.8 0,0 0,0 -3.88,-6.92 -3.91,-6.91 -11.71,-20.74 -15.62,-27.65 -3.92,-6.92 -3.92,-6.92 -3.92,-6.92 0,0 0,0 -5.86,-5.36 -5.85,-5.36 -17.56,-16.12 -23.42,-21.52 -5.86,-5.36 -5.86,-5.36 -5.86,-5.36 0,0 0,0 -7.23,-3.32 -7.23,-3.31 -21.66,-9.95 -28.89,-13.26 -7.23,-3.28 -7.23,-3.28 -7.23,-3.28 0,0 0,0 -7.87,-0.88 -7.9,-0.89 -23.67,-2.65 -31.57,-3.53 -7.91,-0.88 -7.91,-0.88 -7.91,-0.88 0,0 0,0 -11.67,2.32 -11.68,2.33 -35.03,6.99 -35.03,6.99"/>
   <path class="fil0 str0" d="M5094.87 11726.34c0,0 -764.75,-0.29 -764.75,-0.29"/>
   <path class="fil0 str0" d="M17880.56 2980.98c0,0 -6660.94,1.41 -9991.41,2.11 -3330.45,0.74 -3330.45,0.74 -3330.45,0.74 0,0 0,0 -3,0.11 -3,0.14 -8.99,0.39 -11.98,0.53 -3,0.1 -3,0.1 -3,0.1 0,0 0,0 -2.97,0.36 -2.97,0.35 -8.91,1.02 -11.88,1.37 -2.97,0.36 -2.97,0.36 -2.97,0.36 0,0 0,0 -2.94,0.56 -2.93,0.6 -8.79,1.76 -11.73,2.33 -2.93,0.6 -2.93,0.6 -2.93,0.6 0,0 0,0 -2.88,0.81 -2.88,0.81 -8.65,2.43 -11.53,3.25 -2.88,0.81 -2.88,0.81 -2.88,0.81 0,0 0,0 -2.81,1.06 -2.8,1.02 -8.41,3.1 -11.22,4.16 -2.81,1.02 -2.81,1.02 -2.81,1.02 0,0 0,0 -2.7,1.27 -2.7,1.24 -8.11,3.71 -10.82,4.98 -2.7,1.23 -2.7,1.23 -2.7,1.23 0,0 0,0 -2.62,1.48 -2.61,1.45 -7.84,4.41 -10.46,5.89 -2.61,1.45 -2.61,1.45 -2.61,1.45 0,0 0,0 -2.49,1.66 -2.49,1.66 -7.47,4.94 -9.95,6.59 -2.49,1.66 -2.49,1.66 -2.49,1.66 0,0 0,0 -2.35,1.87 -2.35,1.84 -7.05,5.54 -9.4,7.41 -2.34,1.83 -2.34,1.83 -2.34,1.83 0,0 0,0 -2.2,2.05 -2.2,2.01 -6.59,6.1 -8.79,8.11 -2.19,2.05 -2.19,2.05 -2.19,2.05 0,0 0,0 -2.03,2.19 -2.03,2.19 -6.1,6.6 -8.13,8.78 -2.03,2.19 -2.03,2.19 -2.03,2.19 0,0 0,0 -1.85,2.36 -1.86,2.33 -5.56,7.06 -7.42,9.39 -1.85,2.36 -1.85,2.36 -1.85,2.36 0,0 0,0 -1.65,2.47 -1.65,2.5 -4.95,7.48 -6.6,9.95 -1.65,2.5 -1.65,2.5 -1.65,2.5 0,0 0,0 -1.48,2.61 -1.47,2.61 -4.41,7.87 -5.89,10.48 -1.47,2.61 -1.47,2.61 -1.47,2.61 0,0 0,0 -1.24,2.68 -1.25,2.72 -3.74,8.12 -4.98,10.83 -1.24,2.72 -1.24,2.72 -1.24,2.72 0,0 0,0 -1.05,2.79 -1.04,2.82 -3.12,8.43 -4.16,11.21 -1.04,2.83 -1.04,2.83 -1.04,2.83 0,0 0,0 -0.81,2.89 -0.82,2.86 -2.44,8.64 -3.25,11.5 -0.82,2.89 -0.82,2.89 -0.82,2.89 0,0 0,0 -0.58,2.93 -0.58,2.93 -1.75,8.82 -2.34,11.75 -0.58,2.93 -0.58,2.93 -0.58,2.93 0,0 0,0 -0.34,2.96 -0.35,2.96 -1.03,8.93 -1.37,11.89 -0.35,2.96 -0.35,2.96 -0.35,2.96 0,0 0,0 -0.11,3 -0.12,3 -0.34,9 -0.46,12 -0.11,2.99 -0.11,2.99 -0.11,2.99 0,0 0,0 -1.28,1419.33 -1.28,1419.33 -3.84,4258 -5.11,5677.36 -1.28,1419.33 -1.28,1419.33 -1.28,1419.33 0,0 0,0 192.83,-0.03 192.84,0 578.5,-0.04 578.5,-0.04"/>
   <path class="fil0 str0" d="M17879.71 3745.62c0,0 -6393.92,0 -9590.86,0 -3196.94,0 -3196.94,0 -3196.94,0 0,0 0,0 -0.23,1995.7 -0.23,1995.7 -0.68,5987.06 -0.68,5987.06"/>
   <path class="fil0 str0" d="M17880.56 2980.98c0,0 -0.85,764.64 -0.85,764.64"/>
   <path class="fil0 str1" d="M4657.71 3221.89c0,0 -20.76,11.75 -31.15,17.64 -10.38,5.85 -10.38,5.85 -10.38,5.85 0,0 0,0 -5.37,5.86 -5.36,5.86 -16.09,17.6 -21.46,23.46 -5.36,5.86 -5.36,5.86 -5.36,5.86 0,0 0,0 -3.3,7.23 -3.3,7.19 -9.9,21.62 -13.19,28.85 -3.3,7.24 -3.3,7.24 -3.3,7.24 0,0 0,0 -0.91,7.9 -0.91,7.9 -2.72,23.71 -3.63,31.61 -0.9,7.9 -0.9,7.9 -0.9,7.9 0,0 0,0 1.58,7.8 1.58,7.79 4.74,23.35 6.31,31.15 1.58,7.76 1.58,7.76 1.58,7.76 0,0 0,0 3.91,6.91 3.9,6.92 11.71,20.75 15.62,27.66 3.91,6.91 3.91,6.91 3.91,6.91 0,0 0,0 5.84,5.37 5.85,5.36 17.55,16.12 23.39,21.52 5.85,5.36 5.85,5.36 5.85,5.36 0,0 0,0 7.23,3.31 7.24,3.28 21.7,9.88 28.93,13.2 7.24,3.28 7.24,3.28 7.24,3.28 0,0 0,0 7.89,0.92 7.89,0.91 23.67,2.71 31.56,3.63 7.9,0.92 7.9,0.92 7.9,0.92 0,0 0,0 7.78,-1.59 7.79,-1.59 23.36,-4.76 31.14,-6.32 7.79,-1.58 7.79,-1.58 7.79,-1.58 0,0 0,0 6.91,-3.92 6.91,-3.88 20.73,-11.71 27.64,-15.63 6.91,-3.88 6.91,-3.88 6.91,-3.88 0,0 0,0 5.38,-5.85 5.38,-5.86 16.14,-17.61 21.51,-23.46 5.38,-5.86 5.38,-5.86 5.38,-5.86 0,0 0,0 3.3,-7.23 3.3,-7.2 9.9,-21.66 13.19,-28.86 3.3,-7.23 3.3,-7.23 3.3,-7.23 0,0 0,0 0.91,-7.9 0.9,-7.87 2.72,-23.67 3.62,-31.54 0.91,-7.9 0.91,-7.9 0.91,-7.9 0,0 0,0 -1.58,-7.8 -1.58,-7.8 -4.74,-23.39 -6.32,-31.19 -1.58,-7.83 -1.58,-7.83 -1.58,-7.83 0,0 0,0 -3.9,-6.88 -3.91,-6.91 -11.72,-20.74 -15.62,-27.65 -3.91,-6.92 -3.91,-6.92 -3.91,-6.92 0,0 0,0 -5.86,-5.36 -5.86,-5.4 -17.58,-16.16 -23.44,-21.52 -5.86,-5.36 -5.86,-5.36 -5.86,-5.36 0,0 0,0 -7.22,-3.32 -7.22,-3.31 -21.66,-9.95 -28.88,-13.26 -7.22,-3.32 -7.22,-3.32 -7.22,-3.32 0,0 0,0 -7.89,-0.88 -7.89,-0.88 -23.67,-2.61 -31.57,-3.49 -7.89,-0.89 -7.89,-0.89 -7.89,-0.89 0,0 0,0 -11.68,2.33 -11.68,2.33 -35.04,6.99 -35.04,6.99"/>
   <path class="fil0 str1" d="M13690.86 3221.89c0,0 -20.78,11.75 -31.15,17.64 -10.37,5.85 -10.37,5.85 -10.37,5.85 0,0 0,0 -5.4,5.86 -5.36,5.86 -16.08,17.6 -21.45,23.46 -5.36,5.86 -5.36,5.86 -5.36,5.86 0,0 0,0 -3.28,7.23 -3.32,7.19 -9.91,21.62 -13.19,28.85 -3.32,7.24 -3.32,7.24 -3.32,7.24 0,0 0,0 -0.92,7.9 -0.88,7.9 -2.71,23.71 -3.59,31.61 -0.92,7.9 -0.92,7.9 -0.92,7.9 0,0 0,0 1.59,7.8 1.55,7.79 4.72,23.35 6.31,31.15 1.59,7.76 1.59,7.76 1.59,7.76 0,0 0,0 3.88,6.91 3.91,6.92 11.71,20.75 15.63,27.66 3.91,6.91 3.91,6.91 3.91,6.91 0,0 0,0 5.82,5.37 5.86,5.36 17.57,16.12 23.43,21.52 5.82,5.36 5.82,5.36 5.82,5.36 0,0 0,0 7.23,3.31 7.23,3.28 21.7,9.88 28.93,13.2 7.23,3.28 7.23,3.28 7.23,3.28 0,0 0,0 7.9,0.92 7.9,0.91 23.67,2.71 31.58,3.63 7.9,0.92 7.9,0.92 7.9,0.92 0,0 0,0 7.76,-1.59 7.8,-1.59 23.35,-4.76 31.15,-6.32 7.8,-1.58 7.8,-1.58 7.8,-1.58 0,0 0,0 6.91,-3.92 6.91,-3.88 20.71,-11.71 27.62,-15.63 6.92,-3.88 6.92,-3.88 6.92,-3.88 0,0 0,0 5.39,-5.85 5.37,-5.86 16.13,-17.61 21.49,-23.46 5.4,-5.86 5.4,-5.86 5.4,-5.86 0,0 0,0 3.28,-7.23 3.31,-7.2 9.91,-21.66 13.19,-28.86 3.32,-7.23 3.32,-7.23 3.32,-7.23 0,0 0,0 0.88,-7.9 0.92,-7.87 2.72,-23.67 3.63,-31.54 0.92,-7.9 0.92,-7.9 0.92,-7.9 0,0 0,0 -1.59,-7.8 -1.58,-7.8 -4.72,-23.39 -6.31,-31.19 -1.59,-7.83 -1.59,-7.83 -1.59,-7.83 0,0 0,0 -3.88,-6.88 -3.92,-6.91 -11.71,-20.74 -15.63,-27.65 -3.91,-6.92 -3.91,-6.92 -3.91,-6.92 0,0 0,0 -5.86,-5.36 -5.86,-5.4 -17.57,-16.16 -23.42,-21.52 -5.9,-5.36 -5.9,-5.36 -5.9,-5.36 0,0 0,0 -7.19,-3.32 -7.23,-3.31 -21.66,-9.95 -28.9,-13.26 -7.23,-3.32 -7.23,-3.32 -7.23,-3.32 0,0 0,0 -7.86,-0.88 -7.91,-0.88 -23.68,-2.61 -31.58,-3.49 -7.9,-0.89 -7.9,-0.89 -7.9,-0.89 0,0 0,0 -11.68,2.33 -11.67,2.33 -35.03,6.99 -35.03,6.99"/>
   <path class="fil0 str0" d="M6120.66 12796.59c0,0 -764.75,-0.31 -764.75,-0.31"/>
   <path class="fil0 str0" d="M18906.36 4051.2c0,0 -6660.93,1.44 -9991.4,2.15 -3330.47,0.71 -3330.47,0.71 -3330.47,0.71 0,0 0,0 -3,0.14 -2.99,0.1 -8.98,0.38 -11.98,0.49 -2.99,0.14 -2.99,0.14 -2.99,0.14 0,0 0,0 -2.98,0.32 -2.97,0.35 -8.91,1.06 -11.88,1.38 -2.97,0.35 -2.97,0.35 -2.97,0.35 0,0 0,0 -2.93,0.6 -2.94,0.56 -8.8,1.73 -11.74,2.33 -2.93,0.56 -2.93,0.56 -2.93,0.56 0,0 0,0 -2.88,0.81 -2.88,0.81 -8.65,2.44 -11.52,3.28 -2.89,0.81 -2.89,0.81 -2.89,0.81 0,0 0,0 -2.8,1.03 -2.81,1.06 -8.42,3.14 -11.23,4.16 -2.8,1.06 -2.8,1.06 -2.8,1.06 0,0 0,0 -2.71,1.23 -2.7,1.24 -8.11,3.74 -10.81,4.98 -2.71,1.23 -2.71,1.23 -2.71,1.23 0,0 0,0 -2.61,1.48 -2.62,1.49 -7.85,4.41 -10.46,5.89 -2.62,1.49 -2.62,1.49 -2.62,1.49 0,0 0,0 -2.49,1.62 -2.48,1.66 -7.46,4.97 -9.95,6.63 -2.49,1.62 -2.49,1.62 -2.49,1.62 0,0 0,0 -2.35,1.87 -2.35,1.84 -7.04,5.58 -9.39,7.41 -2.35,1.87 -2.35,1.87 -2.35,1.87 0,0 0,0 -2.2,2.01 -2.19,2.05 -6.58,6.11 -8.78,8.15 -2.2,2.01 -2.2,2.01 -2.2,2.01 0,0 0,0 -2.03,2.19 -2.03,2.22 -6.09,6.6 -8.13,8.78 -2.02,2.23 -2.02,2.23 -2.02,2.23 0,0 0,0 -1.86,2.33 -1.85,2.36 -5.56,7.05 -7.42,9.41 -1.85,2.33 -1.85,2.33 -1.85,2.33 0,0 0,0 -1.65,2.51 -1.65,2.47 -4.95,7.44 -6.6,9.95 -1.65,2.47 -1.65,2.47 -1.65,2.47 0,0 0,0 -1.47,2.61 -1.48,2.64 -4.42,7.86 -5.89,10.47 -1.48,2.61 -1.48,2.61 -1.48,2.61 0,0 0,0 -1.24,2.72 -1.24,2.68 -3.73,8.11 -4.98,10.8 -1.24,2.71 -1.24,2.71 -1.24,2.71 0,0 0,0 -1.04,2.82 -1.04,2.79 -3.12,8.4 -4.17,11.22 -1.04,2.79 -1.04,2.79 -1.04,2.79 0,0 0,0 -0.81,2.89 -0.81,2.89 -2.44,8.64 -3.25,11.54 -0.81,2.86 -0.81,2.86 -0.81,2.86 0,0 0,0 -0.59,2.96 -0.58,2.93 -1.75,8.78 -2.33,11.71 -0.58,2.93 -0.58,2.93 -0.58,2.93 0,0 0,0 -0.35,2.96 -0.34,3 -1.03,8.93 -1.37,11.89 -0.34,2.96 -0.34,2.96 -0.34,2.96 0,0 0,0 -0.12,3 -0.11,3 -0.34,9 -0.45,12 -0.12,3 -0.12,3 -0.12,3 0,0 0,0 -1.28,1419.33 -1.28,1419.33 -3.83,4258.02 -5.11,5677.35 -1.28,1419.33 -1.28,1419.33 -1.28,1419.33 0,0 0,0 192.84,0 192.83,-0.03 578.5,-0.03 578.5,-0.03"/>
   <path class="fil0 str0" d="M18905.48 4815.88c0,0 -6393.88,0 -9590.82,0 -3196.96,0 -3196.96,0 -3196.96,0 0,0 0,0 -0.23,1995.66 -0.22,1995.7 -0.68,5987.1 -0.68,5987.1"/>
   <path class="fil0 str0" d="M18906.36 4051.2c0,0 -0.88,764.68 -0.88,764.68"/>
   <path class="fil0 str1" d="M5683.51 4292.11c0,0 -20.77,11.75 -31.15,17.64 -10.39,5.89 -10.39,5.89 -10.39,5.89 0,0 0,0 -5.36,5.86 -5.37,5.85 -16.1,17.56 -21.46,23.42 -5.37,5.86 -5.37,5.86 -5.37,5.86 0,0 0,0 -3.3,7.23 -3.3,7.23 -9.89,21.66 -13.19,28.86 -3.3,7.23 -3.3,7.23 -3.3,7.23 0,0 0,0 -0.91,7.9 -0.9,7.9 -2.71,23.71 -3.62,31.61 -0.91,7.94 -0.91,7.94 -0.91,7.94 0,0 0,0 1.58,7.76 1.58,7.79 4.74,23.35 6.32,31.15 1.58,7.79 1.58,7.79 1.58,7.79 0,0 0,0 3.9,6.88 3.91,6.92 11.72,20.75 15.62,27.66 3.91,6.92 3.91,6.92 3.91,6.92 0,0 0,0 5.85,5.36 5.84,5.4 17.54,16.16 23.38,21.52 5.85,5.39 5.85,5.39 5.85,5.39 0,0 0,0 7.24,3.29 7.23,3.31 21.7,9.91 28.93,13.19 7.23,3.32 7.23,3.32 7.23,3.32 0,0 0,0 7.89,0.88 7.89,0.91 23.68,2.71 31.57,3.63 7.89,0.92 7.89,0.92 7.89,0.92 0,0 0,0 7.78,-1.59 7.79,-1.59 23.37,-4.73 31.15,-6.31 7.79,-1.59 7.79,-1.59 7.79,-1.59 0,0 0,0 6.9,-3.88 6.92,-3.92 20.74,-11.75 27.65,-15.63 6.91,-3.92 6.91,-3.92 6.91,-3.92 0,0 0,0 5.38,-5.85 5.37,-5.86 16.13,-17.57 21.51,-23.46 5.37,-5.86 5.37,-5.86 5.37,-5.86 0,0 0,0 3.3,-7.19 3.3,-7.24 9.9,-21.66 13.2,-28.9 3.29,-7.23 3.29,-7.23 3.29,-7.23 0,0 0,0 0.91,-7.87 0.91,-7.9 2.72,-23.67 3.62,-31.57 0.91,-7.9 0.91,-7.9 0.91,-7.9 0,0 0,0 -1.58,-7.8 -1.58,-7.79 -4.73,-23.39 -6.31,-31.18 -1.58,-7.8 -1.58,-7.8 -1.58,-7.8 0,0 0,0 -3.91,-6.91 -3.9,-6.92 -11.72,-20.75 -15.62,-27.66 -3.91,-6.88 -3.91,-6.88 -3.91,-6.88 0,0 0,0 -5.86,-5.4 -5.86,-5.36 -17.57,-16.12 -23.43,-21.52 -5.87,-5.36 -5.87,-5.36 -5.87,-5.36 0,0 0,0 -7.21,-3.32 -7.23,-3.31 -21.67,-9.94 -28.89,-13.23 -7.21,-3.31 -7.21,-3.31 -7.21,-3.31 0,0 0,0 -7.9,-0.88 -7.89,-0.89 -23.67,-2.65 -31.56,-3.53 -7.89,-0.88 -7.89,-0.88 -7.89,-0.88 0,0 0,0 -11.69,2.33 -11.67,2.32 -35.03,6.98 -35.03,6.98"/>
   <path class="fil0 str1" d="M14716.67 4292.11c0,0 -20.78,11.75 -31.15,17.64 -10.41,5.89 -10.41,5.89 -10.41,5.89 0,0 0,0 -5.36,5.86 -5.36,5.85 -16.09,17.56 -21.45,23.42 -5.36,5.86 -5.36,5.86 -5.36,5.86 0,0 0,0 -3.32,7.23 -3.28,7.23 -9.87,21.66 -13.19,28.86 -3.28,7.23 -3.28,7.23 -3.28,7.23 0,0 0,0 -0.92,7.9 -0.92,7.9 -2.72,23.71 -3.63,31.61 -0.88,7.94 -0.88,7.94 -0.88,7.94 0,0 0,0 1.55,7.76 1.59,7.79 4.76,23.35 6.31,31.15 1.59,7.79 1.59,7.79 1.59,7.79 0,0 0,0 3.92,6.88 3.91,6.92 11.71,20.75 15.62,27.66 3.88,6.92 3.88,6.92 3.88,6.92 0,0 0,0 5.86,5.36 5.86,5.4 17.53,16.16 23.39,21.52 5.86,5.39 5.86,5.39 5.86,5.39 0,0 0,0 7.23,3.29 7.23,3.31 21.69,9.91 28.93,13.19 7.23,3.32 7.23,3.32 7.23,3.32 0,0 0,0 7.9,0.88 7.87,0.91 23.67,2.71 31.54,3.63 7.9,0.92 7.9,0.92 7.9,0.92 0,0 0,0 7.8,-1.59 7.79,-1.59 23.35,-4.73 31.15,-6.31 7.76,-1.59 7.76,-1.59 7.76,-1.59 0,0 0,0 6.91,-3.88 6.92,-3.92 20.75,-11.75 27.66,-15.63 6.91,-3.92 6.91,-3.92 6.91,-3.92 0,0 0,0 5.37,-5.85 5.39,-5.86 16.12,-17.57 21.52,-23.46 5.36,-5.86 5.36,-5.86 5.36,-5.86 0,0 0,0 3.31,-7.19 3.29,-7.24 9.88,-21.66 13.2,-28.9 3.28,-7.23 3.28,-7.23 3.28,-7.23 0,0 0,0 0.92,-7.87 0.91,-7.9 2.71,-23.67 3.63,-31.57 0.92,-7.9 0.92,-7.9 0.92,-7.9 0,0 0,0 -1.59,-7.8 -1.59,-7.79 -4.76,-23.39 -6.32,-31.18 -1.58,-7.8 -1.58,-7.8 -1.58,-7.8 0,0 0,0 -3.92,-6.91 -3.88,-6.92 -11.71,-20.75 -15.63,-27.66 -3.88,-6.88 -3.88,-6.88 -3.88,-6.88 0,0 0,0 -5.85,-5.4 -5.89,-5.36 -17.61,-16.12 -23.46,-21.52 -5.86,-5.36 -5.86,-5.36 -5.86,-5.36 0,0 0,0 -7.23,-3.32 -7.2,-3.31 -21.66,-9.94 -28.86,-13.23 -7.23,-3.31 -7.23,-3.31 -7.23,-3.31 0,0 0,0 -7.9,-0.88 -7.87,-0.89 -23.67,-2.65 -31.54,-3.53 -7.9,-0.88 -7.9,-0.88 -7.9,-0.88 0,0 0,0 -11.68,2.33 -11.68,2.32 -35.03,6.98 -35.03,6.98"/>
   <path class="fil0 str0" d="M20401.12 3059.58c0,0 6660.19,0.03 9990.31,0.03 3330.08,0 3330.08,0 3330.08,0 0,0 0,0 3,0.14 2.96,0.11 8.92,0.32 11.92,0.46 2.97,0.11 2.97,0.11 2.97,0.11 0,0 0,0 2.99,0.35 2.97,0.32 8.89,1.02 11.89,1.34 2.97,0.35 2.97,0.35 2.97,0.35 0,0 0,0 2.92,0.6 2.93,0.57 8.79,1.73 11.72,2.33 2.96,0.6 2.96,0.6 2.96,0.6 0,0 0,0 2.86,0.81 2.89,0.81 8.64,2.44 11.53,3.25 2.9,0.81 2.9,0.81 2.9,0.81 0,0 0,0 2.78,1.02 2.83,1.06 8.43,3.14 11.22,4.16 2.82,1.06 2.82,1.06 2.82,1.06 0,0 0,0 2.72,1.24 2.72,1.23 8.15,3.74 10.87,4.97 2.71,1.24 2.71,1.24 2.71,1.24 0,0 0,0 2.61,1.48 2.58,1.48 7.8,4.41 10.41,5.89 2.61,1.48 2.61,1.48 2.61,1.48 0,0 0,0 2.47,1.66 2.5,1.62 7.48,4.94 9.95,6.6 2.5,1.65 2.5,1.65 2.5,1.65 0,0 0,0 2.33,1.84 2.36,1.87 7.06,5.57 9.42,7.41 2.33,1.87 2.33,1.87 2.33,1.87 0,0 0,0 2.19,2.01 2.22,2.04 6.59,6.1 8.81,8.15 2.19,2.01 2.19,2.01 2.19,2.01 0,0 0,0 2.01,2.22 2.05,2.19 6.11,6.56 8.15,8.78 2.01,2.19 2.01,2.19 2.01,2.19 0,0 0,0 1.87,2.33 1.84,2.36 5.54,7.05 7.41,9.42 1.84,2.33 1.84,2.33 1.84,2.33 0,0 0,0 1.69,2.5 1.66,2.47 4.97,7.45 6.63,9.95 1.66,2.47 1.66,2.47 1.66,2.47 0,0 0,0 1.48,2.65 1.45,2.61 4.38,7.83 5.82,10.44 1.48,2.61 1.48,2.61 1.48,2.61 0,0 0,0 1.24,2.71 1.27,2.72 3.77,8.12 5.04,10.83 1.24,2.69 1.24,2.69 1.24,2.69 0,0 0,0 1.06,2.82 1.02,2.78 3.06,8.39 4.09,11.22 1.02,2.78 1.02,2.78 1.02,2.78 0,0 0,0 0.81,2.9 0.81,2.89 2.47,8.64 3.28,11.53 0.81,2.89 0.81,2.89 0.81,2.89 0,0 0,0 0.57,2.93 0.6,2.93 1.76,8.79 2.33,11.71 0.6,2.93 0.6,2.93 0.6,2.93 0,0 0,0 0.35,3 0.35,2.96 1.06,8.89 1.41,11.85 0.35,3 0.35,3 0.35,3 0,0 0,0 0.14,3 0.11,2.97 0.32,8.96 0.43,11.96 0.14,3 0.14,3 0.14,3 0,0 0,0 0,708.55 0,708.59 0,2125.7 0,2834.29 0,708.55 0,708.55 0,708.55 0,0 0,0 0,1065.96 0,1065.92 0,3197.79 0,3197.79"/>
   <path class="fil0 str0" d="M33187.55 11803.91c0,0 0.38,-3991.29 0.56,-5986.92 0.18,-1995.63 0.18,-1995.63 0.18,-1995.63 0,0 0,0 -3196.7,0 -3196.66,0 -9590.05,0 -9590.05,0"/>
   <path class="fil0 str0" d="M33187.55 11803.91c0,0 762.49,-0.63 762.49,-0.63"/>
   <path class="fil0 str0" d="M20401.54 3821.36c0,0 0,-761.75 0,-761.75"/>
   <path class="fil0 str1" d="M24489.04 3295.44c0,0 -21.28,10.87 -31.9,16.3 -10.61,5.43 -10.61,5.43 -10.61,5.43 0,0 0,0 -5.61,5.61 -5.65,5.65 -16.87,16.9 -22.48,22.51 -5.6,5.61 -5.6,5.61 -5.6,5.61 0,0 0,0 -3.6,7.09 -3.6,7.06 -10.83,21.2 -14.43,28.29 -3.6,7.06 -3.6,7.06 -3.6,7.06 0,0 0,0 -1.23,7.87 -1.27,7.86 -3.74,23.56 -4.98,31.43 -1.27,7.86 -1.27,7.86 -1.27,7.86 0,0 0,0 1.27,7.84 1.24,7.83 3.71,23.53 4.98,31.39 1.23,7.84 1.23,7.84 1.23,7.84 0,0 0,0 3.6,7.09 3.6,7.05 10.83,21.2 14.43,28.25 3.6,7.09 3.6,7.09 3.6,7.09 0,0 0,0 5.6,5.61 5.61,5.65 16.83,16.87 22.48,22.51 5.61,5.61 5.61,5.61 5.61,5.61 0,0 0,0 7.05,3.63 7.09,3.6 21.27,10.8 28.36,14.4 7.1,3.63 7.1,3.63 7.1,3.63 0,0 0,0 7.83,1.24 7.83,1.23 23.53,3.73 31.39,4.97 7.84,1.23 7.84,1.23 7.84,1.23 0,0 0,0 7.83,-1.23 7.86,-1.24 23.56,-3.74 31.39,-4.97 7.84,-1.24 7.84,-1.24 7.84,-1.24 0,0 0,0 7.09,-3.63 7.05,-3.6 21.2,-10.8 28.29,-14.4 7.06,-3.63 7.06,-3.63 7.06,-3.63 0,0 0,0 5.6,-5.61 5.65,-5.64 16.9,-16.86 22.51,-22.51 5.65,-5.61 5.65,-5.61 5.65,-5.61 0,0 0,0 3.59,-7.09 3.6,-7.05 10.8,-21.2 14.43,-28.25 3.6,-7.09 3.6,-7.09 3.6,-7.09 0,0 0,0 1.24,-7.84 1.23,-7.86 3.74,-23.56 4.97,-31.39 1.24,-7.84 1.24,-7.84 1.24,-7.84 0,0 0,0 -1.24,-7.86 -1.23,-7.87 -3.74,-23.57 -4.97,-31.43 -1.24,-7.87 -1.24,-7.87 -1.24,-7.87 0,0 0,0 -3.6,-7.06 -3.63,-7.09 -10.83,-21.23 -14.43,-28.29 -3.59,-7.09 -3.59,-7.09 -3.59,-7.09 0,0 0,0 -5.65,-5.61 -5.61,-5.61 -16.86,-16.86 -22.51,-22.51 -5.6,-5.61 -5.6,-5.61 -5.6,-5.61 0,0 0,0 -7.06,-3.63 -7.09,-3.6 -21.24,-10.83 -28.29,-14.46 -7.09,-3.64 -7.09,-3.64 -7.09,-3.64 0,0 0,0 -7.84,-1.2 -7.83,-1.23 -23.53,-3.67 -31.39,-4.87 -7.83,-1.23 -7.83,-1.23 -7.83,-1.23 0,0 0,0 -11.79,1.83 -11.74,1.84 -35.27,5.47 -35.27,5.47"/>
   <path class="fil0 str1" d="M33522.08 3295.44c0,0 -21.23,10.87 -31.89,16.3 -10.62,5.43 -10.62,5.43 -10.62,5.43 0,0 0,0 -5.6,5.61 -5.61,5.65 -16.83,16.9 -22.44,22.51 -5.61,5.61 -5.61,5.61 -5.61,5.61 0,0 0,0 -3.6,7.09 -3.63,7.06 -10.83,21.2 -14.43,28.29 -3.6,7.06 -3.6,7.06 -3.6,7.06 0,0 0,0 -1.27,7.87 -1.23,7.86 -3.7,23.56 -4.97,31.43 -1.23,7.86 -1.23,7.86 -1.23,7.86 0,0 0,0 1.23,7.84 1.27,7.83 3.74,23.53 4.97,31.39 1.27,7.84 1.27,7.84 1.27,7.84 0,0 0,0 3.6,7.09 3.6,7.05 10.8,21.2 14.43,28.25 3.6,7.09 3.6,7.09 3.6,7.09 0,0 0,0 5.61,5.61 5.61,5.65 16.83,16.87 22.44,22.51 5.6,5.61 5.6,5.61 5.6,5.61 0,0 0,0 7.1,3.63 7.09,3.6 21.23,10.8 28.32,14.4 7.09,3.63 7.09,3.63 7.09,3.63 0,0 0,0 7.87,1.24 7.83,1.23 23.53,3.73 31.36,4.97 7.87,1.23 7.87,1.23 7.87,1.23 0,0 0,0 7.83,-1.23 7.83,-1.24 23.53,-3.74 31.4,-4.97 7.83,-1.24 7.83,-1.24 7.83,-1.24 0,0 0,0 7.06,-3.63 7.09,-3.6 21.23,-10.8 28.29,-14.4 7.09,-3.63 7.09,-3.63 7.09,-3.63 0,0 0,0 5.61,-5.61 5.61,-5.64 16.86,-16.86 22.51,-22.51 5.61,-5.61 5.61,-5.61 5.61,-5.61 0,0 0,0 3.59,-7.09 3.64,-7.05 10.83,-21.2 14.43,-28.25 3.6,-7.09 3.6,-7.09 3.6,-7.09 0,0 0,0 1.27,-7.84 1.24,-7.86 3.71,-23.56 4.98,-31.39 1.23,-7.84 1.23,-7.84 1.23,-7.84 0,0 0,0 -1.23,-7.86 -1.27,-7.87 -3.74,-23.57 -4.98,-31.43 -1.27,-7.87 -1.27,-7.87 -1.27,-7.87 0,0 0,0 -3.6,-7.06 -3.6,-7.09 -10.79,-21.23 -14.43,-28.29 -3.59,-7.09 -3.59,-7.09 -3.59,-7.09 0,0 0,0 -5.61,-5.61 -5.65,-5.61 -16.9,-16.86 -22.51,-22.51 -5.61,-5.61 -5.61,-5.61 -5.61,-5.61 0,0 0,0 -7.09,-3.63 -7.06,-3.6 -21.2,-10.83 -28.29,-14.46 -7.06,-3.64 -7.06,-3.64 -7.06,-3.64 0,0 0,0 -7.83,-1.2 -7.87,-1.23 -23.57,-3.67 -31.4,-4.87 -7.83,-1.23 -7.83,-1.23 -7.83,-1.23 0,0 0,0 -11.78,1.83 -11.79,1.84 -35.32,5.47 -35.32,5.47"/>
   <path class="fil0 str0" d="M19395.38 4080.02c0,0 6660.2,0 9990.28,0 3330.12,0.04 3330.12,0.04 3330.12,0.04 0,0 0,0 2.99,0.1 2.97,0.11 8.93,0.35 11.93,0.46 2.96,0.11 2.96,0.11 2.96,0.11 0,0 0,0 3,0.35 2.96,0.32 8.89,1.02 11.85,1.37 3,0.32 3,0.32 3,0.32 0,0 0,0 2.93,0.6 2.93,0.57 8.78,1.77 11.71,2.33 2.93,0.6 2.93,0.6 2.93,0.6 0,0 0,0 2.89,0.81 2.9,0.81 8.65,2.44 11.54,3.25 2.86,0.81 2.86,0.81 2.86,0.81 0,0 0,0 2.82,1.02 2.82,1.06 8.43,3.14 11.22,4.16 2.82,1.06 2.82,1.06 2.82,1.06 0,0 0,0 2.72,1.24 2.71,1.27 8.15,3.74 10.86,4.97 2.72,1.27 2.72,1.27 2.72,1.27 0,0 0,0 2.61,1.45 2.57,1.48 7.79,4.41 10.41,5.89 2.57,1.48 2.57,1.48 2.57,1.48 0,0 0,0 2.51,1.66 2.5,1.66 7.47,4.94 9.94,6.6 2.51,1.65 2.51,1.65 2.51,1.65 0,0 0,0 2.33,1.84 2.36,1.87 7.05,5.57 9.42,7.41 2.32,1.87 2.32,1.87 2.32,1.87 0,0 0,0 2.19,2.04 2.22,2.01 6.6,6.07 8.79,8.12 2.22,2.01 2.22,2.01 2.22,2.01 0,0 0,0 2.01,2.22 2.05,2.19 6.1,6.56 8.15,8.78 2.01,2.19 2.01,2.19 2.01,2.19 0,0 0,0 1.87,2.36 1.83,2.33 5.54,7.02 7.41,9.39 1.83,2.33 1.83,2.33 1.83,2.33 0,0 0,0 1.69,2.5 1.66,2.51 4.98,7.48 6.64,9.95 1.66,2.5 1.66,2.5 1.66,2.5 0,0 0,0 1.48,2.61 1.44,2.62 4.37,7.84 5.82,10.45 1.48,2.64 1.48,2.64 1.48,2.64 0,0 0,0 1.23,2.68 1.27,2.72 3.78,8.12 5.05,10.83 1.23,2.69 1.23,2.69 1.23,2.69 0,0 0,0 1.03,2.82 1.05,2.78 3.1,8.43 4.12,11.22 1.03,2.82 1.03,2.82 1.03,2.82 0,0 0,0 0.81,2.86 0.81,2.89 2.43,8.64 3.24,11.53 0.82,2.89 0.82,2.89 0.82,2.89 0,0 0,0 0.6,2.93 0.59,2.93 1.76,8.79 2.32,11.71 0.6,2.97 0.6,2.97 0.6,2.97 0,0 0,0 0.36,2.96 0.35,2.96 1.05,8.89 1.41,11.89 0.35,2.96 0.35,2.96 0.35,2.96 0,0 0,0 0.11,3 0.14,3 0.35,9 0.45,11.96 0.15,3 0.15,3 0.15,3 0,0 0,0 0,708.59 0,708.55 0,2125.7 0,2834.25 0,708.55 0,708.55 0,708.55 0,0 0,0 0,1065.96 0,1065.92 0,3197.79 0,3197.79"/>
   <path class="fil0 str0" d="M32181.81 12824.32c0,0 0.35,-3991.26 0.57,-5986.92 0.17,-1995.63 0.17,-1995.63 0.17,-1995.63 0,0 0,0 -3196.69,0 -3196.7,0 -9590.05,0 -9590.05,0"/>
   <path class="fil0 str0" d="M32181.81 12824.32c0,0 762.5,-0.63 762.5,-0.63"/>
   <path class="fil0 str0" d="M19395.81 4841.77c0,0 0,-761.75 0,-761.75"/>
   <path class="fil0 str1" d="M23483.27 4315.89c0,0 -21.24,10.83 -31.86,16.26 -10.62,5.43 -10.62,5.43 -10.62,5.43 0,0 0,0 -5.61,5.61 -5.64,5.65 -16.86,16.9 -22.47,22.51 -5.61,5.64 -5.61,5.64 -5.61,5.64 0,0 0,0 -3.6,7.06 -3.6,7.05 -10.83,21.2 -14.43,28.29 -3.59,7.06 -3.59,7.06 -3.59,7.06 0,0 0,0 -1.24,7.86 -1.27,7.87 -3.74,23.57 -4.97,31.44 -1.27,7.86 -1.27,7.86 -1.27,7.86 0,0 0,0 1.27,7.84 1.23,7.86 3.7,23.53 4.97,31.39 1.24,7.83 1.24,7.83 1.24,7.83 0,0 0,0 3.59,7.1 3.6,7.05 10.83,21.2 14.43,28.25 3.6,7.09 3.6,7.09 3.6,7.09 0,0 0,0 5.61,5.61 5.61,5.65 16.83,16.9 22.47,22.51 5.61,5.61 5.61,5.61 5.61,5.61 0,0 0,0 7.06,3.63 7.09,3.6 21.27,10.8 28.36,14.43 7.06,3.6 7.06,3.6 7.06,3.6 0,0 0,0 7.86,1.23 7.83,1.24 23.53,3.74 31.36,4.98 7.87,1.23 7.87,1.23 7.87,1.23 0,0 0,0 7.83,-1.23 7.87,-1.24 23.53,-3.74 31.4,-4.98 7.83,-1.23 7.83,-1.23 7.83,-1.23 0,0 0,0 7.09,-3.6 7.06,-3.63 21.21,-10.83 28.26,-14.43 7.09,-3.63 7.09,-3.63 7.09,-3.63 0,0 0,0 5.61,-5.61 5.65,-5.61 16.9,-16.86 22.51,-22.51 5.61,-5.61 5.61,-5.61 5.61,-5.61 0,0 0,0 3.63,-7.09 3.6,-7.05 10.8,-21.2 14.43,-28.25 3.6,-7.1 3.6,-7.1 3.6,-7.1 0,0 0,0 1.23,-7.83 1.24,-7.86 3.74,-23.53 4.98,-31.39 1.23,-7.84 1.23,-7.84 1.23,-7.84 0,0 0,0 -1.23,-7.86 -1.24,-7.87 -3.74,-23.57 -4.98,-31.44 -1.23,-7.86 -1.23,-7.86 -1.23,-7.86 0,0 0,0 -3.6,-7.06 -3.63,-7.09 -10.83,-21.24 -14.43,-28.29 -3.63,-7.06 -3.63,-7.06 -3.63,-7.06 0,0 0,0 -5.61,-5.64 -5.61,-5.61 -16.86,-16.86 -22.51,-22.51 -5.61,-5.61 -5.61,-5.61 -5.61,-5.61 0,0 0,0 -7.09,-3.63 -7.05,-3.6 -21.2,-10.83 -28.26,-14.46 -7.09,-3.6 -7.09,-3.6 -7.09,-3.6 0,0 0,0 -7.83,-1.24 -7.87,-1.2 -23.53,-3.67 -31.4,-4.87 -7.83,-1.23 -7.83,-1.23 -7.83,-1.23 0,0 0,0 -11.78,1.83 -11.75,1.84 -35.31,5.51 -35.31,5.51"/>
   <path class="fil0 str1" d="M32516.35 4315.89c0,0 -21.24,10.83 -31.89,16.26 -10.62,5.43 -10.62,5.43 -10.62,5.43 0,0 0,0 -5.61,5.61 -5.61,5.65 -16.83,16.9 -22.43,22.51 -5.61,5.64 -5.61,5.64 -5.61,5.64 0,0 0,0 -3.6,7.06 -3.64,7.05 -10.83,21.2 -14.43,28.29 -3.6,7.06 -3.6,7.06 -3.6,7.06 0,0 0,0 -1.27,7.86 -1.23,7.87 -3.7,23.57 -4.97,31.44 -1.24,7.86 -1.24,7.86 -1.24,7.86 0,0 0,0 1.24,7.84 1.27,7.86 3.74,23.53 4.97,31.39 1.27,7.83 1.27,7.83 1.27,7.83 0,0 0,0 3.6,7.1 3.6,7.05 10.79,21.2 14.43,28.25 3.6,7.09 3.6,7.09 3.6,7.09 0,0 0,0 5.61,5.61 5.6,5.65 16.82,16.9 22.43,22.51 5.61,5.61 5.61,5.61 5.61,5.61 0,0 0,0 7.09,3.63 7.09,3.6 21.24,10.8 28.33,14.43 7.09,3.6 7.09,3.6 7.09,3.6 0,0 0,0 7.83,1.23 7.87,1.24 23.57,3.74 31.4,4.98 7.83,1.23 7.83,1.23 7.83,1.23 0,0 0,0 7.87,-1.23 7.83,-1.24 23.53,-3.74 31.36,-4.98 7.87,-1.23 7.87,-1.23 7.87,-1.23 0,0 0,0 7.05,-3.6 7.09,-3.63 21.24,-10.83 28.3,-14.43 7.09,-3.63 7.09,-3.63 7.09,-3.63 0,0 0,0 5.61,-5.61 5.6,-5.61 16.86,-16.86 22.5,-22.51 5.61,-5.61 5.61,-5.61 5.61,-5.61 0,0 0,0 3.6,-7.09 3.63,-7.05 10.83,-21.2 14.43,-28.25 3.6,-7.1 3.6,-7.1 3.6,-7.1 0,0 0,0 1.27,-7.83 1.23,-7.86 3.7,-23.53 4.97,-31.39 1.24,-7.84 1.24,-7.84 1.24,-7.84 0,0 0,0 -1.24,-7.86 -1.27,-7.87 -3.74,-23.57 -4.97,-31.44 -1.27,-7.86 -1.27,-7.86 -1.27,-7.86 0,0 0,0 -3.6,-7.06 -3.6,-7.09 -10.8,-21.24 -14.43,-28.29 -3.6,-7.06 -3.6,-7.06 -3.6,-7.06 0,0 0,0 -5.61,-5.64 -5.64,-5.61 -16.9,-16.86 -22.5,-22.51 -5.61,-5.61 -5.61,-5.61 -5.61,-5.61 0,0 0,0 -7.09,-3.63 -7.06,-3.6 -21.21,-10.83 -28.3,-14.46 -7.05,-3.6 -7.05,-3.6 -7.05,-3.6 0,0 0,0 -7.87,-1.24 -7.83,-1.2 -23.53,-3.67 -31.36,-4.87 -7.87,-1.23 -7.87,-1.23 -7.87,-1.23 0,0 0,0 -11.75,1.83 -11.78,1.84 -35.31,5.51 -35.31,5.51"/>
   <polyline class="fil0 str0" points="7200.08,6564.77 10247.01,6564.77 10247.01,5803.06 7200.08,5803.06 7200.08,6564.77 "/>
   <path class="fil0 str0" d="M7914.66 6038.89c0,0 -21.28,10.86 -31.89,16.3 -10.62,5.39 -10.62,5.39 -10.62,5.39 0,0 0,0 -5.61,5.65 -5.61,5.61 -16.83,16.86 -22.46,22.47 -5.61,5.65 -5.61,5.65 -5.61,5.65 0,0 0,0 -3.6,7.05 -3.61,7.09 -10.82,21.24 -14.43,28.29 -3.6,7.09 -3.6,7.09 -3.6,7.09 0,0 0,0 -1.25,7.84 -1.24,7.86 -3.73,23.6 -4.97,31.43 -1.25,7.87 -1.25,7.87 -1.25,7.87 0,0 0,0 1.25,7.86 1.24,7.83 3.73,23.53 4.97,31.36 1.25,7.87 1.25,7.87 1.25,7.87 0,0 0,0 3.6,7.06 3.61,7.09 10.82,21.2 14.43,28.29 3.6,7.06 3.6,7.06 3.6,7.06 0,0 0,0 5.61,5.64 5.63,5.61 16.85,16.86 22.46,22.47 5.61,5.65 5.61,5.65 5.61,5.65 0,0 0,0 7.09,3.59 7.05,3.6 21.24,10.83 28.33,14.43 7.09,3.6 7.09,3.6 7.09,3.6 0,0 0,0 7.83,1.24 7.83,1.27 23.53,3.74 31.4,4.97 7.83,1.27 7.83,1.27 7.83,1.27 0,0 0,0 7.83,-1.27 7.87,-1.23 23.56,-3.7 31.4,-4.97 7.83,-1.24 7.83,-1.24 7.83,-1.24 0,0 0,0 7.09,-3.6 7.05,-3.6 21.2,-10.83 28.29,-14.43 7.06,-3.59 7.06,-3.59 7.06,-3.59 0,0 0,0 5.64,-5.65 5.61,-5.61 16.86,-16.86 22.47,-22.47 5.65,-5.64 5.65,-5.64 5.65,-5.64 0,0 0,0 3.6,-7.06 3.59,-7.09 10.79,-21.2 14.42,-28.29 3.6,-7.06 3.6,-7.06 3.6,-7.06 0,0 0,0 1.24,-7.87 1.23,-7.83 3.74,-23.53 4.97,-31.36 1.27,-7.86 1.27,-7.86 1.27,-7.86 0,0 0,0 -1.27,-7.87 -1.23,-7.83 -3.74,-23.57 -4.97,-31.43 -1.24,-7.84 -1.24,-7.84 -1.24,-7.84 0,0 0,0 -3.6,-7.09 -3.63,-7.05 -10.83,-21.2 -14.42,-28.29 -3.6,-7.05 -3.6,-7.05 -3.6,-7.05 0,0 0,0 -5.65,-5.65 -5.61,-5.61 -16.86,-16.86 -22.47,-22.47 -5.64,-5.65 -5.64,-5.65 -5.64,-5.65 0,0 0,0 -7.06,-3.59 -7.09,-3.64 -21.24,-10.87 -28.29,-14.47 -7.09,-3.63 -7.09,-3.63 -7.09,-3.63 0,0 0,0 -7.83,-1.24 -7.84,-1.2 -23.53,-3.63 -31.4,-4.86 -7.83,-1.2 -7.83,-1.2 -7.83,-1.2 0,0 0,0 -11.79,1.83 -11.74,1.8 -35.27,5.47 -35.27,5.47"/>
   <path class="fil0 str0" d="M9438.3 6038.89c0,0 -21.27,10.86 -31.89,16.3 -10.62,5.39 -10.62,5.39 -10.62,5.39 0,0 0,0 -5.61,5.65 -5.6,5.61 -16.86,16.86 -22.47,22.47 -5.61,5.65 -5.61,5.65 -5.61,5.65 0,0 0,0 -3.59,7.05 -3.6,7.09 -10.8,21.24 -14.43,28.29 -3.6,7.09 -3.6,7.09 -3.6,7.09 0,0 0,0 -1.24,7.84 -1.23,7.86 -3.74,23.6 -4.97,31.43 -1.24,7.87 -1.24,7.87 -1.24,7.87 0,0 0,0 1.24,7.86 1.23,7.83 3.74,23.53 4.97,31.36 1.24,7.87 1.24,7.87 1.24,7.87 0,0 0,0 3.6,7.06 3.63,7.09 10.83,21.2 14.43,28.29 3.59,7.06 3.59,7.06 3.59,7.06 0,0 0,0 5.61,5.64 5.61,5.61 16.87,16.86 22.47,22.47 5.61,5.65 5.61,5.65 5.61,5.65 0,0 0,0 7.09,3.59 7.06,3.6 21.24,10.83 28.33,14.43 7.09,3.6 7.09,3.6 7.09,3.6 0,0 0,0 7.84,1.24 7.83,1.27 23.53,3.74 31.39,4.97 7.83,1.27 7.83,1.27 7.83,1.27 0,0 0,0 7.84,-1.27 7.86,-1.23 23.56,-3.7 31.39,-4.97 7.83,-1.24 7.83,-1.24 7.83,-1.24 0,0 0,0 7.1,-3.6 7.05,-3.6 21.2,-10.83 28.29,-14.43 7.05,-3.59 7.05,-3.59 7.05,-3.59 0,0 0,0 5.65,-5.65 5.61,-5.61 16.86,-16.86 22.47,-22.47 5.64,-5.64 5.64,-5.64 5.64,-5.64 0,0 0,0 3.6,-7.06 3.6,-7.09 10.8,-21.2 14.43,-28.29 3.6,-7.06 3.6,-7.06 3.6,-7.06 0,0 0,0 1.23,-7.87 1.24,-7.83 3.74,-23.53 4.98,-31.36 1.23,-7.86 1.23,-7.86 1.23,-7.86 0,0 0,0 -1.23,-7.87 -1.24,-7.83 -3.74,-23.57 -4.98,-31.43 -1.23,-7.84 -1.23,-7.84 -1.23,-7.84 0,0 0,0 -3.6,-7.09 -3.63,-7.05 -10.83,-21.2 -14.43,-28.29 -3.6,-7.05 -3.6,-7.05 -3.6,-7.05 0,0 0,0 -5.64,-5.65 -5.61,-5.61 -16.86,-16.86 -22.47,-22.47 -5.65,-5.65 -5.65,-5.65 -5.65,-5.65 0,0 0,0 -7.05,-3.59 -7.09,-3.64 -21.24,-10.87 -28.29,-14.47 -7.1,-3.63 -7.1,-3.63 -7.1,-3.63 0,0 0,0 -7.83,-1.24 -7.83,-1.2 -23.53,-3.63 -31.39,-4.86 -7.84,-1.2 -7.84,-1.2 -7.84,-1.2 0,0 0,0 -11.78,1.83 -11.75,1.8 -35.28,5.47 -35.28,5.47"/>
   <polyline class="fil0 str0" points="7200.08,8754.11 10247.01,8754.11 10247.01,7992.36 7200.08,7992.36 7200.08,8754.11 "/>
   <path class="fil0 str0" d="M7914.66 8228.19c0,0 -21.28,10.87 -31.89,16.3 -10.62,5.43 -10.62,5.43 -10.62,5.43 0,0 0,0 -5.61,5.61 -5.61,5.61 -16.83,16.86 -22.46,22.51 -5.61,5.61 -5.61,5.61 -5.61,5.61 0,0 0,0 -3.6,7.09 -3.61,7.05 -10.82,21.2 -14.43,28.26 -3.6,7.09 -3.6,7.09 -3.6,7.09 0,0 0,0 -1.25,7.86 -1.24,7.84 -3.73,23.57 -4.97,31.44 -1.25,7.83 -1.25,7.83 -1.25,7.83 0,0 0,0 1.25,7.87 1.24,7.83 3.73,23.53 4.97,31.36 1.25,7.86 1.25,7.86 1.25,7.86 0,0 0,0 3.6,7.06 3.61,7.09 10.82,21.24 14.43,28.29 3.6,7.06 3.6,7.06 3.6,7.06 0,0 0,0 5.61,5.64 5.63,5.61 16.85,16.87 22.46,22.51 5.61,5.61 5.61,5.61 5.61,5.61 0,0 0,0 7.09,3.6 7.05,3.6 21.24,10.83 28.33,14.43 7.09,3.59 7.09,3.59 7.09,3.59 0,0 0,0 7.83,1.27 7.83,1.24 23.53,3.71 31.4,4.98 7.83,1.23 7.83,1.23 7.83,1.23 0,0 0,0 7.83,-1.23 7.87,-1.27 23.56,-3.74 31.4,-4.98 7.83,-1.27 7.83,-1.27 7.83,-1.27 0,0 0,0 7.09,-3.59 7.05,-3.6 21.2,-10.83 28.29,-14.43 7.06,-3.6 7.06,-3.6 7.06,-3.6 0,0 0,0 5.64,-5.61 5.61,-5.64 16.86,-16.9 22.47,-22.51 5.65,-5.64 5.65,-5.64 5.65,-5.64 0,0 0,0 3.6,-7.06 3.59,-7.05 10.79,-21.2 14.42,-28.29 3.6,-7.06 3.6,-7.06 3.6,-7.06 0,0 0,0 1.24,-7.86 1.23,-7.83 3.74,-23.53 4.97,-31.36 1.27,-7.87 1.27,-7.87 1.27,-7.87 0,0 0,0 -1.27,-7.83 -1.23,-7.87 -3.74,-23.6 -4.97,-31.44 -1.24,-7.86 -1.24,-7.86 -1.24,-7.86 0,0 0,0 -3.6,-7.09 -3.63,-7.06 -10.83,-21.21 -14.42,-28.26 -3.6,-7.09 -3.6,-7.09 -3.6,-7.09 0,0 0,0 -5.65,-5.61 -5.61,-5.65 -16.86,-16.9 -22.47,-22.51 -5.64,-5.61 -5.64,-5.61 -5.64,-5.61 0,0 0,0 -7.06,-3.63 -7.09,-3.63 -21.24,-10.87 -28.29,-14.46 -7.09,-3.64 -7.09,-3.64 -7.09,-3.64 0,0 0,0 -7.83,-1.2 -7.84,-1.23 -23.53,-3.67 -31.4,-4.9 -7.83,-1.2 -7.83,-1.2 -7.83,-1.2 0,0 0,0 -11.79,1.83 -11.74,1.8 -35.27,5.47 -35.27,5.47"/>
   <path class="fil0 str0" d="M9438.3 8228.19c0,0 -21.27,10.87 -31.89,16.3 -10.62,5.43 -10.62,5.43 -10.62,5.43 0,0 0,0 -5.61,5.61 -5.6,5.61 -16.86,16.86 -22.47,22.51 -5.61,5.61 -5.61,5.61 -5.61,5.61 0,0 0,0 -3.59,7.09 -3.6,7.05 -10.8,21.2 -14.43,28.26 -3.6,7.09 -3.6,7.09 -3.6,7.09 0,0 0,0 -1.24,7.86 -1.23,7.84 -3.74,23.57 -4.97,31.44 -1.24,7.83 -1.24,7.83 -1.24,7.83 0,0 0,0 1.24,7.87 1.23,7.83 3.74,23.53 4.97,31.36 1.24,7.86 1.24,7.86 1.24,7.86 0,0 0,0 3.6,7.06 3.63,7.09 10.83,21.24 14.43,28.29 3.59,7.06 3.59,7.06 3.59,7.06 0,0 0,0 5.61,5.64 5.61,5.61 16.87,16.87 22.47,22.51 5.61,5.61 5.61,5.61 5.61,5.61 0,0 0,0 7.09,3.6 7.06,3.6 21.24,10.83 28.33,14.43 7.09,3.59 7.09,3.59 7.09,3.59 0,0 0,0 7.84,1.27 7.83,1.24 23.53,3.71 31.39,4.98 7.83,1.23 7.83,1.23 7.83,1.23 0,0 0,0 7.84,-1.23 7.86,-1.27 23.56,-3.74 31.39,-4.98 7.83,-1.27 7.83,-1.27 7.83,-1.27 0,0 0,0 7.1,-3.59 7.05,-3.6 21.2,-10.83 28.29,-14.43 7.05,-3.6 7.05,-3.6 7.05,-3.6 0,0 0,0 5.65,-5.61 5.61,-5.64 16.86,-16.9 22.47,-22.51 5.64,-5.64 5.64,-5.64 5.64,-5.64 0,0 0,0 3.6,-7.06 3.6,-7.05 10.8,-21.2 14.43,-28.29 3.6,-7.06 3.6,-7.06 3.6,-7.06 0,0 0,0 1.23,-7.86 1.24,-7.83 3.74,-23.53 4.98,-31.36 1.23,-7.87 1.23,-7.87 1.23,-7.87 0,0 0,0 -1.23,-7.83 -1.24,-7.87 -3.74,-23.6 -4.98,-31.44 -1.23,-7.86 -1.23,-7.86 -1.23,-7.86 0,0 0,0 -3.6,-7.09 -3.63,-7.06 -10.83,-21.21 -14.43,-28.26 -3.6,-7.09 -3.6,-7.09 -3.6,-7.09 0,0 0,0 -5.64,-5.61 -5.61,-5.65 -16.86,-16.9 -22.47,-22.51 -5.65,-5.61 -5.65,-5.61 -5.65,-5.61 0,0 0,0 -7.05,-3.63 -7.09,-3.63 -21.24,-10.87 -28.29,-14.46 -7.1,-3.64 -7.1,-3.64 -7.1,-3.64 0,0 0,0 -7.83,-1.2 -7.83,-1.23 -23.53,-3.67 -31.39,-4.9 -7.84,-1.2 -7.84,-1.2 -7.84,-1.2 0,0 0,0 -11.78,1.83 -11.75,1.8 -35.28,5.47 -35.28,5.47"/>
   <polyline class="fil0 str0" points="7196.68,7725.66 10243.62,7725.66 10243.62,6963.94 7196.68,6963.94 7196.68,7725.66 "/>
   <path class="fil0 str0" d="M7911.23 7199.77c0,0 -21.23,10.83 -31.85,16.27 -10.65,5.43 -10.65,5.43 -10.65,5.43 0,0 0,0 -5.61,5.64 -5.61,5.61 -16.82,16.87 -22.44,22.48 -5.61,5.64 -5.61,5.64 -5.61,5.64 0,0 0,0 -3.6,7.06 -3.61,7.09 -10.82,21.23 -14.43,28.29 -3.6,7.05 -3.6,7.05 -3.6,7.05 0,0 0,0 -1.24,7.87 -1.25,7.87 -3.74,23.57 -4.98,31.43 -1.25,7.87 -1.25,7.87 -1.25,7.87 0,0 0,0 1.25,7.83 1.24,7.87 3.73,23.57 4.98,31.4 1.24,7.83 1.24,7.83 1.24,7.83 0,0 0,0 3.6,7.09 3.61,7.06 10.82,21.2 14.43,28.3 3.6,7.05 3.6,7.05 3.6,7.05 0,0 0,0 5.61,5.61 5.62,5.64 16.83,16.9 22.44,22.51 5.61,5.64 5.61,5.64 5.61,5.64 0,0 0,0 7.09,3.6 7.09,3.6 21.27,10.8 28.36,14.43 7.05,3.6 7.05,3.6 7.05,3.6 0,0 0,0 7.87,1.23 7.83,1.24 23.53,3.74 31.36,4.98 7.87,1.23 7.87,1.23 7.87,1.23 0,0 0,0 7.83,-1.23 7.87,-1.24 23.53,-3.74 31.4,-4.98 7.83,-1.23 7.83,-1.23 7.83,-1.23 0,0 0,0 7.09,-3.6 7.06,-3.63 21.2,-10.83 28.26,-14.43 7.09,-3.6 7.09,-3.6 7.09,-3.6 0,0 0,0 5.61,-5.64 5.64,-5.61 16.9,-16.87 22.51,-22.51 5.61,-5.61 5.61,-5.61 5.61,-5.61 0,0 0,0 3.63,-7.05 3.6,-7.1 10.79,-21.24 14.39,-28.3 3.64,-7.09 3.64,-7.09 3.64,-7.09 0,0 0,0 1.23,-7.83 1.24,-7.83 3.74,-23.53 4.98,-31.4 1.23,-7.83 1.23,-7.83 1.23,-7.83 0,0 0,0 -1.23,-7.87 -1.24,-7.86 -3.74,-23.56 -4.98,-31.43 -1.23,-7.87 -1.23,-7.87 -1.23,-7.87 0,0 0,0 -3.64,-7.05 -3.6,-7.06 -10.79,-21.2 -14.39,-28.29 -3.63,-7.06 -3.63,-7.06 -3.63,-7.06 0,0 0,0 -5.61,-5.64 -5.61,-5.61 -16.87,-16.87 -22.51,-22.48 -5.61,-5.64 -5.61,-5.64 -5.61,-5.64 0,0 0,0 -7.09,-3.6 -7.06,-3.63 -21.2,-10.86 -28.26,-14.5 -7.09,-3.6 -7.09,-3.6 -7.09,-3.6 0,0 0,0 -7.83,-1.23 -7.87,-1.2 -23.53,-3.63 -31.4,-4.87 -7.83,-1.2 -7.83,-1.2 -7.83,-1.2 0,0 0,0 -11.78,1.8 -11.75,1.84 -35.32,5.5 -35.32,5.5"/>
   <path class="fil0 str0" d="M9434.88 7199.77c0,0 -21.24,10.83 -31.85,16.27 -10.66,5.43 -10.66,5.43 -10.66,5.43 0,0 0,0 -5.61,5.64 -5.61,5.61 -16.82,16.87 -22.43,22.48 -5.61,5.64 -5.61,5.64 -5.61,5.64 0,0 0,0 -3.6,7.06 -3.6,7.09 -10.83,21.23 -14.43,28.29 -3.6,7.05 -3.6,7.05 -3.6,7.05 0,0 0,0 -1.23,7.87 -1.27,7.87 -3.74,23.57 -5.01,31.43 -1.24,7.87 -1.24,7.87 -1.24,7.87 0,0 0,0 1.24,7.83 1.27,7.87 3.74,23.57 5.01,31.4 1.23,7.83 1.23,7.83 1.23,7.83 0,0 0,0 3.6,7.09 3.6,7.06 10.83,21.2 14.43,28.3 3.6,7.05 3.6,7.05 3.6,7.05 0,0 0,0 5.61,5.61 5.61,5.64 16.82,16.9 22.43,22.51 5.61,5.64 5.61,5.64 5.61,5.64 0,0 0,0 7.09,3.6 7.09,3.6 21.28,10.8 28.33,14.43 7.09,3.6 7.09,3.6 7.09,3.6 0,0 0,0 7.87,1.23 7.83,1.24 23.53,3.74 31.36,4.98 7.87,1.23 7.87,1.23 7.87,1.23 0,0 0,0 7.83,-1.23 7.87,-1.24 23.53,-3.74 31.4,-4.98 7.83,-1.23 7.83,-1.23 7.83,-1.23 0,0 0,0 7.09,-3.6 7.05,-3.63 21.2,-10.83 28.26,-14.43 7.09,-3.6 7.09,-3.6 7.09,-3.6 0,0 0,0 5.61,-5.64 5.64,-5.61 16.89,-16.87 22.5,-22.51 5.61,-5.61 5.61,-5.61 5.61,-5.61 0,0 0,0 3.64,-7.05 3.59,-7.1 10.79,-21.24 14.39,-28.3 3.63,-7.09 3.63,-7.09 3.63,-7.09 0,0 0,0 1.24,-7.83 1.23,-7.83 3.74,-23.53 4.97,-31.4 1.24,-7.83 1.24,-7.83 1.24,-7.83 0,0 0,0 -1.24,-7.87 -1.23,-7.86 -3.74,-23.56 -4.97,-31.43 -1.24,-7.87 -1.24,-7.87 -1.24,-7.87 0,0 0,0 -3.63,-7.05 -3.6,-7.06 -10.8,-21.2 -14.39,-28.29 -3.64,-7.06 -3.64,-7.06 -3.64,-7.06 0,0 0,0 -5.61,-5.64 -5.61,-5.61 -16.86,-16.87 -22.5,-22.48 -5.61,-5.64 -5.61,-5.64 -5.61,-5.64 0,0 0,0 -7.09,-3.6 -7.06,-3.63 -21.21,-10.86 -28.26,-14.5 -7.09,-3.6 -7.09,-3.6 -7.09,-3.6 0,0 0,0 -7.83,-1.23 -7.87,-1.2 -23.53,-3.63 -31.4,-4.87 -7.83,-1.2 -7.83,-1.2 -7.83,-1.2 0,0 0,0 -11.79,1.8 -11.78,1.84 -35.31,5.5 -35.31,5.5"/>
   <polyline class="fil0 str0" points="7200.08,11117.65 10247.01,11117.65 10247.01,10355.94 7200.08,10355.94 7200.08,11117.65 "/>
   <path class="fil0 str0" d="M7914.66 10591.77c0,0 -21.28,10.86 -31.89,16.3 -10.62,5.39 -10.62,5.39 -10.62,5.39 0,0 0,0 -5.61,5.65 -5.61,5.61 -16.83,16.86 -22.46,22.47 -5.61,5.64 -5.61,5.64 -5.61,5.64 0,0 0,0 -3.6,7.06 -3.61,7.09 -10.82,21.24 -14.43,28.29 -3.6,7.09 -3.6,7.09 -3.6,7.09 0,0 0,0 -1.25,7.83 -1.24,7.87 -3.73,23.61 -4.97,31.44 -1.25,7.86 -1.25,7.86 -1.25,7.86 0,0 0,0 1.25,7.87 1.24,7.83 3.73,23.53 4.97,31.36 1.25,7.87 1.25,7.87 1.25,7.87 0,0 0,0 3.6,7.06 3.61,7.05 10.82,21.2 14.43,28.29 3.6,7.05 3.6,7.05 3.6,7.05 0,0 0,0 5.61,5.65 5.63,5.61 16.85,16.86 22.46,22.47 5.61,5.64 5.61,5.64 5.61,5.64 0,0 0,0 7.09,3.6 7.05,3.6 21.24,10.83 28.33,14.43 7.09,3.6 7.09,3.6 7.09,3.6 0,0 0,0 7.83,1.23 7.83,1.27 23.53,3.74 31.4,4.98 7.83,1.27 7.83,1.27 7.83,1.27 0,0 0,0 7.83,-1.27 7.87,-1.24 23.56,-3.71 31.4,-4.98 7.83,-1.23 7.83,-1.23 7.83,-1.23 0,0 0,0 7.09,-3.6 7.05,-3.6 21.2,-10.83 28.29,-14.43 7.06,-3.6 7.06,-3.6 7.06,-3.6 0,0 0,0 5.64,-5.64 5.61,-5.61 16.86,-16.86 22.47,-22.47 5.65,-5.65 5.65,-5.65 5.65,-5.65 0,0 0,0 3.6,-7.05 3.59,-7.09 10.79,-21.24 14.42,-28.29 3.6,-7.06 3.6,-7.06 3.6,-7.06 0,0 0,0 1.24,-7.87 1.23,-7.83 3.74,-23.53 4.97,-31.36 1.27,-7.87 1.27,-7.87 1.27,-7.87 0,0 0,0 -1.27,-7.86 -1.23,-7.83 -3.74,-23.57 -4.97,-31.44 -1.24,-7.83 -1.24,-7.83 -1.24,-7.83 0,0 0,0 -3.6,-7.09 -3.63,-7.05 -10.83,-21.2 -14.42,-28.29 -3.6,-7.06 -3.6,-7.06 -3.6,-7.06 0,0 0,0 -5.65,-5.64 -5.61,-5.61 -16.86,-16.86 -22.47,-22.47 -5.64,-5.65 -5.64,-5.65 -5.64,-5.65 0,0 0,0 -7.06,-3.6 -7.09,-3.63 -21.24,-10.86 -28.29,-14.46 -7.09,-3.63 -7.09,-3.63 -7.09,-3.63 0,0 0,0 -7.83,-1.24 -7.84,-1.2 -23.53,-3.63 -31.4,-4.87 -7.83,-1.2 -7.83,-1.2 -7.83,-1.2 0,0 0,0 -11.79,1.8 -11.74,1.84 -35.27,5.51 -35.27,5.51"/>
   <path class="fil0 str0" d="M9438.3 10591.77c0,0 -21.27,10.86 -31.89,16.3 -10.62,5.39 -10.62,5.39 -10.62,5.39 0,0 0,0 -5.61,5.65 -5.6,5.61 -16.86,16.86 -22.47,22.47 -5.61,5.64 -5.61,5.64 -5.61,5.64 0,0 0,0 -3.59,7.06 -3.6,7.09 -10.8,21.24 -14.43,28.29 -3.6,7.09 -3.6,7.09 -3.6,7.09 0,0 0,0 -1.24,7.83 -1.23,7.87 -3.74,23.61 -4.97,31.44 -1.24,7.86 -1.24,7.86 -1.24,7.86 0,0 0,0 1.24,7.87 1.23,7.83 3.74,23.53 4.97,31.36 1.24,7.87 1.24,7.87 1.24,7.87 0,0 0,0 3.6,7.06 3.63,7.05 10.83,21.2 14.43,28.29 3.59,7.05 3.59,7.05 3.59,7.05 0,0 0,0 5.61,5.65 5.61,5.61 16.87,16.86 22.47,22.47 5.61,5.64 5.61,5.64 5.61,5.64 0,0 0,0 7.09,3.6 7.06,3.6 21.24,10.83 28.33,14.43 7.09,3.6 7.09,3.6 7.09,3.6 0,0 0,0 7.84,1.23 7.83,1.27 23.53,3.74 31.39,4.98 7.83,1.27 7.83,1.27 7.83,1.27 0,0 0,0 7.84,-1.27 7.86,-1.24 23.56,-3.71 31.39,-4.98 7.83,-1.23 7.83,-1.23 7.83,-1.23 0,0 0,0 7.1,-3.6 7.05,-3.6 21.2,-10.83 28.29,-14.43 7.05,-3.6 7.05,-3.6 7.05,-3.6 0,0 0,0 5.65,-5.64 5.61,-5.61 16.86,-16.86 22.47,-22.47 5.64,-5.65 5.64,-5.65 5.64,-5.65 0,0 0,0 3.6,-7.05 3.6,-7.09 10.8,-21.24 14.43,-28.29 3.6,-7.06 3.6,-7.06 3.6,-7.06 0,0 0,0 1.23,-7.87 1.24,-7.83 3.74,-23.53 4.98,-31.36 1.23,-7.87 1.23,-7.87 1.23,-7.87 0,0 0,0 -1.23,-7.86 -1.24,-7.83 -3.74,-23.57 -4.98,-31.44 -1.23,-7.83 -1.23,-7.83 -1.23,-7.83 0,0 0,0 -3.6,-7.09 -3.63,-7.05 -10.83,-21.2 -14.43,-28.29 -3.6,-7.06 -3.6,-7.06 -3.6,-7.06 0,0 0,0 -5.64,-5.64 -5.61,-5.61 -16.86,-16.86 -22.47,-22.47 -5.65,-5.65 -5.65,-5.65 -5.65,-5.65 0,0 0,0 -7.05,-3.6 -7.09,-3.63 -21.24,-10.86 -28.29,-14.46 -7.1,-3.63 -7.1,-3.63 -7.1,-3.63 0,0 0,0 -7.83,-1.24 -7.83,-1.2 -23.53,-3.63 -31.39,-4.87 -7.84,-1.2 -7.84,-1.2 -7.84,-1.2 0,0 0,0 -11.78,1.8 -11.75,1.84 -35.28,5.51 -35.28,5.51"/>
   <polyline class="fil0 str0" points="7200.08,12028.63 10247.01,12028.63 10247.01,11266.91 7200.08,11266.91 7200.08,12028.63 "/>
   <path class="fil0 str0" d="M7914.66 11502.75c0,0 -21.28,10.83 -31.89,16.26 -10.62,5.43 -10.62,5.43 -10.62,5.43 0,0 0,0 -5.61,5.65 -5.61,5.6 -16.83,16.86 -22.46,22.47 -5.61,5.64 -5.61,5.64 -5.61,5.64 0,0 0,0 -3.6,7.06 -3.61,7.09 -10.82,21.2 -14.43,28.29 -3.6,7.06 -3.6,7.06 -3.6,7.06 0,0 0,0 -1.25,7.86 -1.24,7.87 -3.73,23.57 -4.97,31.44 -1.25,7.86 -1.25,7.86 -1.25,7.86 0,0 0,0 1.25,7.83 1.24,7.87 3.73,23.57 4.97,31.4 1.25,7.83 1.25,7.83 1.25,7.83 0,0 0,0 3.6,7.09 3.61,7.06 10.82,21.21 14.43,28.3 3.6,7.05 3.6,7.05 3.6,7.05 0,0 0,0 5.61,5.61 5.63,5.65 16.85,16.9 22.46,22.51 5.61,5.64 5.61,5.64 5.61,5.64 0,0 0,0 7.09,3.6 7.05,3.6 21.24,10.8 28.33,14.43 7.09,3.6 7.09,3.6 7.09,3.6 0,0 0,0 7.83,1.23 7.83,1.24 23.53,3.74 31.4,4.98 7.83,1.23 7.83,1.23 7.83,1.23 0,0 0,0 7.83,-1.23 7.87,-1.24 23.56,-3.74 31.4,-4.98 7.83,-1.23 7.83,-1.23 7.83,-1.23 0,0 0,0 7.09,-3.6 7.05,-3.63 21.2,-10.83 28.29,-14.43 7.06,-3.6 7.06,-3.6 7.06,-3.6 0,0 0,0 5.64,-5.64 5.61,-5.61 16.86,-16.86 22.47,-22.51 5.65,-5.61 5.65,-5.61 5.65,-5.61 0,0 0,0 3.6,-7.05 3.59,-7.09 10.79,-21.24 14.42,-28.3 3.6,-7.09 3.6,-7.09 3.6,-7.09 0,0 0,0 1.24,-7.83 1.23,-7.83 3.74,-23.53 4.97,-31.4 1.27,-7.83 1.27,-7.83 1.27,-7.83 0,0 0,0 -1.27,-7.86 -1.23,-7.87 -3.74,-23.57 -4.97,-31.44 -1.24,-7.86 -1.24,-7.86 -1.24,-7.86 0,0 0,0 -3.6,-7.06 -3.63,-7.09 -10.83,-21.2 -14.42,-28.29 -3.6,-7.06 -3.6,-7.06 -3.6,-7.06 0,0 0,0 -5.65,-5.64 -5.61,-5.61 -16.86,-16.87 -22.47,-22.47 -5.64,-5.65 -5.64,-5.65 -5.64,-5.65 0,0 0,0 -7.06,-3.6 -7.09,-3.63 -21.24,-10.86 -28.29,-14.5 -7.09,-3.59 -7.09,-3.59 -7.09,-3.59 0,0 0,0 -7.83,-1.24 -7.84,-1.2 -23.53,-3.63 -31.4,-4.87 -7.83,-1.23 -7.83,-1.23 -7.83,-1.23 0,0 0,0 -11.79,1.83 -11.74,1.84 -35.27,5.51 -35.27,5.51"/>
   <path class="fil0 str0" d="M9438.3 11502.75c0,0 -21.27,10.83 -31.89,16.26 -10.62,5.43 -10.62,5.43 -10.62,5.43 0,0 0,0 -5.61,5.65 -5.6,5.6 -16.86,16.86 -22.47,22.47 -5.61,5.64 -5.61,5.64 -5.61,5.64 0,0 0,0 -3.59,7.06 -3.6,7.09 -10.8,21.2 -14.43,28.29 -3.6,7.06 -3.6,7.06 -3.6,7.06 0,0 0,0 -1.24,7.86 -1.23,7.87 -3.74,23.57 -4.97,31.44 -1.24,7.86 -1.24,7.86 -1.24,7.86 0,0 0,0 1.24,7.83 1.23,7.87 3.74,23.57 4.97,31.4 1.24,7.83 1.24,7.83 1.24,7.83 0,0 0,0 3.6,7.09 3.63,7.06 10.83,21.21 14.43,28.3 3.59,7.05 3.59,7.05 3.59,7.05 0,0 0,0 5.61,5.61 5.61,5.65 16.87,16.9 22.47,22.51 5.61,5.64 5.61,5.64 5.61,5.64 0,0 0,0 7.09,3.6 7.06,3.6 21.24,10.8 28.33,14.43 7.09,3.6 7.09,3.6 7.09,3.6 0,0 0,0 7.84,1.23 7.83,1.24 23.53,3.74 31.39,4.98 7.83,1.23 7.83,1.23 7.83,1.23 0,0 0,0 7.84,-1.23 7.86,-1.24 23.56,-3.74 31.39,-4.98 7.83,-1.23 7.83,-1.23 7.83,-1.23 0,0 0,0 7.1,-3.6 7.05,-3.63 21.2,-10.83 28.29,-14.43 7.05,-3.6 7.05,-3.6 7.05,-3.6 0,0 0,0 5.65,-5.64 5.61,-5.61 16.86,-16.86 22.47,-22.51 5.64,-5.61 5.64,-5.61 5.64,-5.61 0,0 0,0 3.6,-7.05 3.6,-7.09 10.8,-21.24 14.43,-28.3 3.6,-7.09 3.6,-7.09 3.6,-7.09 0,0 0,0 1.23,-7.83 1.24,-7.83 3.74,-23.53 4.98,-31.4 1.23,-7.83 1.23,-7.83 1.23,-7.83 0,0 0,0 -1.23,-7.86 -1.24,-7.87 -3.74,-23.57 -4.98,-31.44 -1.23,-7.86 -1.23,-7.86 -1.23,-7.86 0,0 0,0 -3.6,-7.06 -3.63,-7.09 -10.83,-21.2 -14.43,-28.29 -3.6,-7.06 -3.6,-7.06 -3.6,-7.06 0,0 0,0 -5.64,-5.64 -5.61,-5.61 -16.86,-16.87 -22.47,-22.47 -5.65,-5.65 -5.65,-5.65 -5.65,-5.65 0,0 0,0 -7.05,-3.6 -7.09,-3.63 -21.24,-10.86 -28.29,-14.5 -7.1,-3.59 -7.1,-3.59 -7.1,-3.59 0,0 0,0 -7.83,-1.24 -7.83,-1.2 -23.53,-3.63 -31.39,-4.87 -7.84,-1.23 -7.84,-1.23 -7.84,-1.23 0,0 0,0 -11.78,1.83 -11.75,1.84 -35.28,5.51 -35.28,5.51"/>
   <polyline class="fil0 str0" points="7167.85,10126.07 10214.77,10126.07 10214.77,9364.35 7167.85,9364.35 7167.85,10126.07 "/>
   <path class="fil0 str0" d="M7882.41 9600.18c0,0 -21.23,10.87 -31.89,16.3 -10.61,5.4 -10.61,5.4 -10.61,5.4 0,0 0,0 -5.61,5.64 -5.61,5.61 -16.84,16.86 -22.45,22.51 -5.61,5.61 -5.61,5.61 -5.61,5.61 0,0 0,0 -3.6,7.05 -3.61,7.09 -10.82,21.24 -14.43,28.29 -3.6,7.1 -3.6,7.1 -3.6,7.1 0,0 0,0 -1.25,7.83 -1.24,7.86 -3.73,23.6 -4.97,31.46 -1.25,7.84 -1.25,7.84 -1.25,7.84 0,0 0,0 1.25,7.86 1.24,7.84 3.73,23.53 4.97,31.37 1.25,7.86 1.25,7.86 1.25,7.86 0,0 0,0 3.6,7.06 3.61,7.09 10.82,21.2 14.43,28.29 3.6,7.06 3.6,7.06 3.6,7.06 0,0 0,0 5.61,5.64 5.61,5.61 16.84,16.86 22.45,22.51 5.61,5.61 5.61,5.61 5.61,5.61 0,0 0,0 7.08,3.6 7.09,3.59 21.24,10.83 28.33,14.42 7.09,3.6 7.09,3.6 7.09,3.6 0,0 0,0 7.83,1.24 7.87,1.27 23.57,3.74 31.4,4.97 7.83,1.27 7.83,1.27 7.83,1.27 0,0 0,0 7.87,-1.27 7.83,-1.23 23.53,-3.7 31.36,-4.97 7.87,-1.24 7.87,-1.24 7.87,-1.24 0,0 0,0 7.05,-3.6 7.1,-3.59 21.24,-10.83 28.3,-14.42 7.09,-3.6 7.09,-3.6 7.09,-3.6 0,0 0,0 5.61,-5.61 5.61,-5.65 16.86,-16.9 22.5,-22.51 5.61,-5.64 5.61,-5.64 5.61,-5.64 0,0 0,0 3.6,-7.06 3.64,-7.09 10.83,-21.2 14.43,-28.29 3.6,-7.06 3.6,-7.06 3.6,-7.06 0,0 0,0 1.27,-7.86 1.23,-7.84 3.7,-23.53 4.97,-31.37 1.24,-7.86 1.24,-7.86 1.24,-7.86 0,0 0,0 -1.24,-7.84 -1.27,-7.86 -3.74,-23.6 -4.97,-31.46 -1.27,-7.83 -1.27,-7.83 -1.27,-7.83 0,0 0,0 -3.6,-7.1 -3.6,-7.05 -10.79,-21.2 -14.43,-28.29 -3.6,-7.05 -3.6,-7.05 -3.6,-7.05 0,0 0,0 -5.61,-5.61 -5.64,-5.65 -16.89,-16.9 -22.5,-22.51 -5.61,-5.64 -5.61,-5.64 -5.61,-5.64 0,0 0,0 -7.09,-3.6 -7.06,-3.64 -21.2,-10.87 -28.3,-14.47 -7.05,-3.63 -7.05,-3.63 -7.05,-3.63 0,0 0,0 -7.87,-1.2 -7.83,-1.23 -23.53,-3.67 -31.36,-4.9 -7.87,-1.2 -7.87,-1.2 -7.87,-1.2 0,0 0,0 -11.74,1.83 -11.79,1.8 -35.32,5.47 -35.32,5.47"/>
   <path class="fil0 str0" d="M9406.06 9600.18c0,0 -21.24,10.87 -31.89,16.3 -10.62,5.4 -10.62,5.4 -10.62,5.4 0,0 0,0 -5.61,5.64 -5.61,5.61 -16.83,16.86 -22.44,22.51 -5.6,5.61 -5.6,5.61 -5.6,5.61 0,0 0,0 -3.6,7.05 -3.64,7.09 -10.83,21.24 -14.43,28.29 -3.6,7.1 -3.6,7.1 -3.6,7.1 0,0 0,0 -1.27,7.83 -1.23,7.86 -3.74,23.6 -4.97,31.46 -1.24,7.84 -1.24,7.84 -1.24,7.84 0,0 0,0 1.24,7.86 1.23,7.84 3.74,23.53 4.97,31.37 1.27,7.86 1.27,7.86 1.27,7.86 0,0 0,0 3.6,7.06 3.6,7.09 10.79,21.2 14.43,28.29 3.6,7.06 3.6,7.06 3.6,7.06 0,0 0,0 5.6,5.64 5.61,5.61 16.83,16.86 22.44,22.51 5.61,5.61 5.61,5.61 5.61,5.61 0,0 0,0 7.09,3.6 7.09,3.59 21.24,10.83 28.33,14.42 7.09,3.6 7.09,3.6 7.09,3.6 0,0 0,0 7.83,1.24 7.87,1.27 23.57,3.74 31.4,4.97 7.83,1.27 7.83,1.27 7.83,1.27 0,0 0,0 7.87,-1.27 7.83,-1.23 23.53,-3.7 31.36,-4.97 7.87,-1.24 7.87,-1.24 7.87,-1.24 0,0 0,0 7.05,-3.6 7.09,-3.59 21.24,-10.83 28.29,-14.42 7.1,-3.6 7.1,-3.6 7.1,-3.6 0,0 0,0 5.6,-5.61 5.61,-5.65 16.87,-16.9 22.51,-22.51 5.61,-5.64 5.61,-5.64 5.61,-5.64 0,0 0,0 3.6,-7.06 3.6,-7.09 10.83,-21.2 14.43,-28.29 3.6,-7.06 3.6,-7.06 3.6,-7.06 0,0 0,0 1.27,-7.86 1.23,-7.84 3.7,-23.53 4.97,-31.37 1.23,-7.86 1.23,-7.86 1.23,-7.86 0,0 0,0 -1.23,-7.84 -1.27,-7.86 -3.74,-23.6 -4.97,-31.46 -1.27,-7.83 -1.27,-7.83 -1.27,-7.83 0,0 0,0 -3.6,-7.1 -3.6,-7.05 -10.83,-21.2 -14.43,-28.29 -3.6,-7.05 -3.6,-7.05 -3.6,-7.05 0,0 0,0 -5.61,-5.61 -5.64,-5.65 -16.9,-16.9 -22.51,-22.51 -5.6,-5.64 -5.6,-5.64 -5.6,-5.64 0,0 0,0 -7.1,-3.6 -7.05,-3.64 -21.2,-10.87 -28.29,-14.47 -7.05,-3.63 -7.05,-3.63 -7.05,-3.63 0,0 0,0 -7.87,-1.2 -7.83,-1.23 -23.53,-3.67 -31.36,-4.9 -7.87,-1.2 -7.87,-1.2 -7.87,-1.2 0,0 0,0 -11.75,1.83 -11.78,1.8 -35.31,5.47 -35.31,5.47"/>
  </g>
 </g>
</svg>
