<?xml version="1.0"?>
<!-- Generated by SVGo -->
<svg width="102.202mm" height="121.252mm"
     viewBox="0.000 0.000 102.202 121.252"
     xmlns="http://www.w3.org/2000/svg" 
     xmlns:xlink="http://www.w3.org/1999/xlink">
<polygon points="94.202,5.001 94.437,5.010 94.671,5.037 94.902,5.083 95.129,5.147 95.350,5.229 95.563,5.327 95.769,5.443 95.965,5.573 96.150,5.719 96.323,5.879 96.483,6.052 96.629,6.237 96.759,6.433 96.875,6.639 96.973,6.852 97.055,7.073 97.119,7.300 97.165,7.531 97.192,7.765 97.202,8.001 97.202,113.252 97.192,113.487 97.165,113.721 97.119,113.952 97.055,114.179 96.973,114.400 96.875,114.613 96.759,114.819 96.629,115.015 96.483,115.200 96.323,115.373 96.150,115.533 95.965,115.679 95.769,115.809 95.563,115.925 95.350,116.023 95.129,116.105 94.902,116.169 94.671,116.215 94.437,116.242 94.201,116.252 8.001,116.252 7.765,116.242 7.531,116.215 7.300,116.169 7.073,116.105 6.852,116.023 6.639,115.925 6.433,115.809 6.237,115.679 6.052,115.533 5.879,115.373 5.719,115.200 5.573,115.015 5.443,114.819 5.327,114.613 5.229,114.400 5.147,114.179 5.083,113.952 5.037,113.721 5.010,113.487 5.000,113.252 5.001,8.001 5.010,7.765 5.037,7.531 5.083,7.300 5.147,7.073 5.229,6.852 5.327,6.639 5.443,6.433 5.573,6.237 5.719,6.052 5.879,5.879 6.052,5.719 6.237,5.573 6.433,5.443 6.639,5.327 6.852,5.229 7.073,5.147 7.300,5.083 7.531,5.037 7.765,5.010 8.001,5.000" style="fill:none;stroke-width:0.050000mm;stroke:black"/>
<polygon points="8.460,110.587 7.972,110.836 7.585,111.223 7.336,111.711 7.251,112.252 7.336,112.792 7.585,113.280 7.972,113.667 8.460,113.916 9.001,114.002 9.541,113.916 10.029,113.667 10.416,113.280 10.665,112.792 10.751,112.252 10.665,111.711 10.416,111.223 10.029,110.836 9.541,110.587 9.001,110.502" style="fill:none;stroke-width:0.050000mm;stroke:black"/>
<polygon points="92.661,110.587 92.173,110.836 91.786,111.223 91.537,111.711 91.452,112.252 91.537,112.792 91.786,113.280 92.173,113.667 92.661,113.916 93.202,114.002 93.742,113.916 94.230,113.667 94.617,113.280 94.866,112.792 94.952,112.252 94.866,111.711 94.617,111.223 94.230,110.836 93.742,110.587 93.202,110.502" style="fill:none;stroke-width:0.050000mm;stroke:black"/>
<polygon points="53.626,91.726 53.626,105.726 67.626,105.726 67.626,91.726" style="fill:none;stroke-width:0.050000mm;stroke:black"/>
<polygon points="34.576,91.726 34.576,105.726 48.576,105.726 48.576,91.726" style="fill:none;stroke-width:0.050000mm;stroke:black"/>
<polygon points="15.525,91.726 15.525,105.726 29.526,105.726 29.526,91.726" style="fill:none;stroke-width:0.050000mm;stroke:black"/>
<polygon points="79.176,73.101 79.176,73.926 72.906,73.926 72.906,75.651 71.706,75.651 71.706,78.951 72.906,78.951 72.906,80.676 77.376,80.676 77.376,82.201 72.676,82.201 72.676,96.201 77.376,96.201 77.376,97.726 72.906,97.726 72.906,99.451 71.706,99.451 71.706,102.751 72.906,102.751 72.906,104.476 79.176,104.476 79.176,105.301 81.976,105.301 81.976,104.476 85.206,104.476 85.206,97.726 81.976,97.726 81.976,96.201 86.676,96.201 86.676,82.201 81.976,82.201 81.976,80.676 85.206,80.676 85.206,73.926 81.976,73.926 81.976,73.101" style="fill:none;stroke-width:0.050000mm;stroke:black"/>
<polygon points="53.626,72.676 53.626,86.676 67.626,86.676 67.626,72.676" style="fill:none;stroke-width:0.050000mm;stroke:black"/>
<polygon points="34.576,72.676 34.576,86.676 48.576,86.676 48.576,72.676" style="fill:none;stroke-width:0.050000mm;stroke:black"/>
<polygon points="15.525,72.676 15.525,86.676 29.526,86.676 29.526,72.676" style="fill:none;stroke-width:0.050000mm;stroke:black"/>
<polygon points="53.626,53.626 53.626,67.626 67.626,67.626 67.626,53.626" style="fill:none;stroke-width:0.050000mm;stroke:black"/>
<polygon points="34.576,53.626 34.576,67.626 48.576,67.626 48.576,53.626" style="fill:none;stroke-width:0.050000mm;stroke:black"/>
<polygon points="15.525,53.626 15.525,67.626 29.526,67.626 29.526,53.626" style="fill:none;stroke-width:0.050000mm;stroke:black"/>
<polygon points="79.176,35.001 79.176,35.826 72.906,35.826 72.906,37.551 71.706,37.551 71.706,40.851 72.906,40.851 72.906,42.576 77.376,42.576 77.376,44.101 72.676,44.101 72.676,58.101 77.376,58.101 77.376,59.626 72.906,59.626 72.906,61.351 71.706,61.351 71.706,64.651 72.906,64.651 72.906,66.376 79.176,66.376 79.176,67.201 81.976,67.201 81.976,66.376 85.206,66.376 85.206,59.626 81.976,59.626 81.976,58.101 86.676,58.101 86.676,44.101 81.976,44.101 81.976,42.576 85.206,42.576 85.206,35.826 81.976,35.826 81.976,35.001" style="fill:none;stroke-width:0.050000mm;stroke:black"/>
<polygon points="53.626,34.576 53.626,48.576 67.626,48.576 67.626,34.576" style="fill:none;stroke-width:0.050000mm;stroke:black"/>
<polygon points="34.576,34.576 34.576,48.576 48.576,48.576 48.576,34.576" style="fill:none;stroke-width:0.050000mm;stroke:black"/>
<polygon points="15.525,34.576 15.525,48.576 29.526,48.576 29.526,34.576" style="fill:none;stroke-width:0.050000mm;stroke:black"/>
<polygon points="72.676,15.525 72.676,29.526 86.676,29.526 86.676,15.525" style="fill:none;stroke-width:0.050000mm;stroke:black"/>
<polygon points="53.626,15.525 53.626,29.526 67.626,29.526 67.626,15.525" style="fill:none;stroke-width:0.050000mm;stroke:black"/>
<polygon points="34.576,15.525 34.576,29.526 48.576,29.526 48.576,15.525" style="fill:none;stroke-width:0.050000mm;stroke:black"/>
<polygon points="15.525,15.525 15.525,29.526 29.526,29.526 29.526,15.525" style="fill:none;stroke-width:0.050000mm;stroke:black"/>
<polygon points="8.460,7.336 7.972,7.585 7.585,7.972 7.336,8.460 7.251,9.001 7.336,9.541 7.585,10.029 7.972,10.416 8.460,10.665 9.001,10.751 9.541,10.665 10.029,10.416 10.416,10.029 10.665,9.541 10.751,9.001 10.665,8.460 10.416,7.972 10.029,7.585 9.541,7.336 9.001,7.251" style="fill:none;stroke-width:0.050000mm;stroke:black"/>
<polygon points="92.661,7.336 92.173,7.585 91.786,7.972 91.537,8.460 91.452,9.001 91.537,9.541 91.786,10.029 92.173,10.416 92.661,10.665 93.202,10.751 93.742,10.665 94.230,10.416 94.617,10.029 94.866,9.541 94.952,9.001 94.866,8.460 94.617,7.972 94.230,7.585 93.742,7.336 93.202,7.251" style="fill:none;stroke-width:0.050000mm;stroke:black"/>
</svg>
