<?xml version="1.0" encoding="UTF-8"?>
<!-- Generated by SVGo -->
<svg width="295.752mm" height="105.252mm" viewBox="0.000 0.000 295.752 105.252" xmlns="http://www.w3.org/2000/svg" xmlns:xlink="http://www.w3.org/1999/xlink">
<polygon points="290.564,60.326 286.063,60.325 285.599,60.399 285.181,60.612 284.850,60.944 284.637,61.361 284.564,61.825 284.637,62.291 284.850,62.709 285.181,63.039 285.599,63.252 286.063,63.326 290.564,63.326 290.564,100.090 5.189,100.090 5.189,63.326 9.690,63.326 10.153,63.252 10.571,63.039 10.902,62.709 11.115,62.291 11.189,61.826 11.188,61.825 11.115,61.361 10.902,60.944 10.571,60.612 10.153,60.399 9.690,60.326 5.189,60.325 5.189,5.163 290.564,5.163" style="fill:none;stroke-width:0.050000mm;stroke:black"/>
<polygon points="162.306,83.725 162.306,88.425 160.781,88.425 160.781,85.195 154.031,85.195 154.031,88.425 153.207,88.425 153.207,91.225 154.031,91.225 154.031,97.495 155.757,97.495 155.757,98.695 159.056,98.695 159.056,97.495 160.781,97.495 160.781,93.025 162.306,93.025 162.306,97.725 176.306,97.725 176.306,93.025 177.832,93.025 177.832,97.495 179.556,97.495 179.556,98.695 182.857,98.695 182.857,97.495 184.582,97.495 184.582,91.225 185.406,91.225 185.406,88.425 184.582,88.425 184.582,85.195 177.832,85.195 177.832,88.425 176.306,88.425 176.306,83.725" style="fill:none;stroke-width:0.050000mm;stroke:black"/>
<polygon points="88.489,83.725 88.489,88.425 86.963,88.425 86.963,85.195 80.213,85.195 80.213,88.425 79.388,88.425 79.388,91.225 80.213,91.225 80.213,97.495 81.939,97.495 81.939,98.695 85.239,98.695 85.239,97.495 86.963,97.495 86.963,93.025 88.489,93.025 88.489,97.725 102.489,97.725 102.489,93.025 104.014,93.025 104.014,97.495 105.739,97.495 105.739,98.695 109.038,98.695 109.038,97.495 110.764,97.495 110.764,91.225 111.589,91.225 111.589,88.425 110.764,88.425 110.764,85.195 104.014,85.195 104.014,88.425 102.489,88.425 102.489,83.725" style="fill:none;stroke-width:0.050000mm;stroke:black"/>
<polygon points="271.844,83.725 271.844,97.725 285.844,97.725 285.844,83.725" style="fill:none;stroke-width:0.050000mm;stroke:black"/>
<polygon points="248.031,83.725 248.031,97.725 262.031,97.725 262.031,83.725" style="fill:none;stroke-width:0.050000mm;stroke:black"/>
<polygon points="224.220,83.725 224.220,97.725 238.220,97.725 238.220,83.725" style="fill:none;stroke-width:0.050000mm;stroke:black"/>
<polygon points="200.406,83.725 200.406,97.725 214.406,97.725 214.406,83.725" style="fill:none;stroke-width:0.050000mm;stroke:black"/>
<polygon points="121.826,83.725 121.826,97.725 135.826,97.725 135.826,83.725" style="fill:none;stroke-width:0.050000mm;stroke:black"/>
<polygon points="57.532,83.725 57.532,97.725 71.532,97.725 71.532,83.725" style="fill:none;stroke-width:0.050000mm;stroke:black"/>
<polygon points="33.719,83.725 33.719,97.725 47.719,97.725 47.719,83.725" style="fill:none;stroke-width:0.050000mm;stroke:black"/>
<polygon points="9.907,83.725 9.907,97.725 23.907,97.725 23.907,83.725" style="fill:none;stroke-width:0.050000mm;stroke:black"/>
<polygon points="195.412,89.100 194.995,89.312 194.662,89.644 194.450,90.062 194.376,90.526 194.450,90.989 194.662,91.407 194.995,91.739 195.412,91.953 195.876,92.026 196.340,91.953 196.757,91.739 197.090,91.407 197.303,90.989 197.376,90.526 197.303,90.062 197.090,89.644 196.757,89.312 196.340,89.100 195.876,89.026" style="fill:none;stroke-width:0.050000mm;stroke:black"/>
<polygon points="19.431,64.675 19.431,69.376 17.907,69.376 17.907,66.145 11.157,66.145 11.157,69.376 10.332,69.376 10.332,72.175 11.157,72.175 11.157,78.445 12.882,78.445 12.882,79.645 16.181,79.645 16.181,78.445 17.907,78.445 17.907,73.975 19.431,73.975 19.431,78.675 33.431,78.675 33.431,73.975 34.957,73.975 34.957,78.445 36.681,78.445 36.681,79.645 39.981,79.645 39.981,78.445 41.707,78.445 41.707,72.175 42.532,72.175 42.532,69.376 41.707,69.376 41.707,66.145 34.957,66.145 34.957,69.376 33.431,69.376 33.431,64.675" style="fill:none;stroke-width:0.050000mm;stroke:black"/>
<polygon points="274.225,64.675 274.225,78.675 288.225,78.675 288.225,64.675" style="fill:none;stroke-width:0.050000mm;stroke:black"/>
<polygon points="248.031,64.675 248.031,78.675 262.031,78.675 262.031,64.675" style="fill:none;stroke-width:0.050000mm;stroke:black"/>
<polygon points="221.839,64.675 221.839,78.675 235.839,78.675 235.839,64.675" style="fill:none;stroke-width:0.050000mm;stroke:black"/>
<polygon points="202.788,64.675 202.788,78.675 216.788,78.675 216.788,64.675" style="fill:none;stroke-width:0.050000mm;stroke:black"/>
<polygon points="183.739,64.675 183.739,78.675 197.739,78.675 197.739,64.675" style="fill:none;stroke-width:0.050000mm;stroke:black"/>
<polygon points="164.689,64.675 164.689,78.675 178.689,78.675 178.689,64.675" style="fill:none;stroke-width:0.050000mm;stroke:black"/>
<polygon points="145.638,64.675 145.638,78.675 159.638,78.675 159.638,64.675" style="fill:none;stroke-width:0.050000mm;stroke:black"/>
<polygon points="126.589,64.675 126.589,78.675 140.589,78.675 140.589,64.675" style="fill:none;stroke-width:0.050000mm;stroke:black"/>
<polygon points="107.538,64.675 107.538,78.675 121.538,78.675 121.538,64.675" style="fill:none;stroke-width:0.050000mm;stroke:black"/>
<polygon points="88.489,64.675 88.489,78.675 102.489,78.675 102.489,64.675" style="fill:none;stroke-width:0.050000mm;stroke:black"/>
<polygon points="69.439,64.675 69.439,78.675 83.439,78.675 83.439,64.675" style="fill:none;stroke-width:0.050000mm;stroke:black"/>
<polygon points="50.389,64.675 50.389,78.675 64.389,78.675 64.389,64.675" style="fill:none;stroke-width:0.050000mm;stroke:black"/>
<polygon points="262.318,45.626 262.318,50.325 260.794,50.325 260.794,47.096 254.044,47.096 254.044,50.325 253.220,50.325 253.220,53.126 254.044,53.126 254.044,59.395 255.769,59.395 255.769,60.596 259.068,60.596 259.068,59.395 260.794,59.395 260.794,54.925 262.318,54.925 262.318,59.626 276.319,59.626 276.319,54.925 277.844,54.925 277.844,59.395 279.569,59.395 279.569,60.596 282.869,60.596 282.869,59.395 284.594,59.395 284.594,53.126 285.419,53.126 285.419,50.325 284.594,50.325 284.594,47.096 277.844,47.096 277.844,50.325 276.319,50.325 276.319,45.626" style="fill:none;stroke-width:0.050000mm;stroke:black"/>
<polygon points="231.364,45.626 231.364,59.626 245.364,59.626 245.364,45.626" style="fill:none;stroke-width:0.050000mm;stroke:black"/>
<polygon points="212.314,45.626 212.314,59.626 226.314,59.626 226.314,45.626" style="fill:none;stroke-width:0.050000mm;stroke:black"/>
<polygon points="193.263,45.626 193.263,59.626 207.263,59.626 207.263,45.626" style="fill:none;stroke-width:0.050000mm;stroke:black"/>
<polygon points="174.214,45.626 174.214,59.626 188.214,59.626 188.214,45.626" style="fill:none;stroke-width:0.050000mm;stroke:black"/>
<polygon points="155.163,45.626 155.163,59.626 169.163,59.626 169.163,45.626" style="fill:none;stroke-width:0.050000mm;stroke:black"/>
<polygon points="136.113,45.626 136.113,59.626 150.113,59.626 150.113,45.626" style="fill:none;stroke-width:0.050000mm;stroke:black"/>
<polygon points="117.062,45.626 117.062,59.626 131.064,59.626 131.064,45.626" style="fill:none;stroke-width:0.050000mm;stroke:black"/>
<polygon points="98.013,45.626 98.013,59.626 112.013,59.626 112.013,45.626" style="fill:none;stroke-width:0.050000mm;stroke:black"/>
<polygon points="78.963,45.626 78.963,59.626 92.963,59.626 92.963,45.626" style="fill:none;stroke-width:0.050000mm;stroke:black"/>
<polygon points="59.912,45.626 59.912,59.626 73.913,59.626 73.913,45.626" style="fill:none;stroke-width:0.050000mm;stroke:black"/>
<polygon points="40.864,45.626 40.864,59.626 54.864,59.626 54.864,45.626" style="fill:none;stroke-width:0.050000mm;stroke:black"/>
<polygon points="14.670,45.626 14.670,59.626 28.670,59.626 28.670,45.626" style="fill:none;stroke-width:0.050000mm;stroke:black"/>
<polygon points="133.113,51.200 132.695,51.413 132.363,51.745 132.150,52.163 132.077,52.627 132.150,53.090 132.363,53.508 132.695,53.840 133.113,54.053 133.577,54.127 134.040,54.053 134.458,53.840 134.790,53.508 135.002,53.090 135.077,52.627 135.002,52.163 134.790,51.745 134.458,51.413 134.040,51.200 133.577,51.127" style="fill:none;stroke-width:0.050000mm;stroke:black"/>
<polygon points="269.463,26.575 269.463,40.575 283.463,40.575 283.463,26.575" style="fill:none;stroke-width:0.050000mm;stroke:black"/>
<polygon points="245.650,26.575 245.650,40.575 259.650,40.575 259.650,26.575" style="fill:none;stroke-width:0.050000mm;stroke:black"/>
<polygon points="226.601,26.575 226.601,40.575 240.601,40.575 240.601,26.575" style="fill:none;stroke-width:0.050000mm;stroke:black"/>
<polygon points="207.550,26.575 207.550,40.575 221.550,40.575 221.550,26.575" style="fill:none;stroke-width:0.050000mm;stroke:black"/>
<polygon points="188.501,26.575 188.501,40.575 202.501,40.575 202.501,26.575" style="fill:none;stroke-width:0.050000mm;stroke:black"/>
<polygon points="169.451,26.575 169.451,40.575 183.451,40.575 183.451,26.575" style="fill:none;stroke-width:0.050000mm;stroke:black"/>
<polygon points="150.400,26.575 150.400,40.575 164.400,40.575 164.400,26.575" style="fill:none;stroke-width:0.050000mm;stroke:black"/>
<polygon points="131.351,26.575 131.351,40.575 145.351,40.575 145.351,26.575" style="fill:none;stroke-width:0.050000mm;stroke:black"/>
<polygon points="112.300,26.575 112.300,40.575 126.300,40.575 126.300,26.575" style="fill:none;stroke-width:0.050000mm;stroke:black"/>
<polygon points="93.251,26.575 93.251,40.575 107.251,40.575 107.251,26.575" style="fill:none;stroke-width:0.050000mm;stroke:black"/>
<polygon points="74.201,26.575 74.201,40.575 88.201,40.575 88.201,26.575" style="fill:none;stroke-width:0.050000mm;stroke:black"/>
<polygon points="55.151,26.575 55.151,40.575 69.151,40.575 69.151,26.575" style="fill:none;stroke-width:0.050000mm;stroke:black"/>
<polygon points="36.100,26.575 36.100,40.575 50.100,40.575 50.100,26.575" style="fill:none;stroke-width:0.050000mm;stroke:black"/>
<polygon points="12.289,26.575 12.289,40.575 26.289,40.575 26.289,26.575" style="fill:none;stroke-width:0.050000mm;stroke:black"/>
<polygon points="264.962,31.799 264.544,32.013 264.212,32.343 263.999,32.761 263.926,33.227 263.999,33.690 264.212,34.108 264.544,34.440 264.962,34.652 265.426,34.727 265.889,34.652 266.308,34.440 266.639,34.108 266.852,33.690 266.926,33.227 266.852,32.761 266.639,32.343 266.308,32.013 265.889,31.799 265.426,31.726" style="fill:none;stroke-width:0.050000mm;stroke:black"/>
<polygon points="30.113,31.799 29.695,32.013 29.363,32.343 29.149,32.761 29.077,33.227 29.149,33.690 29.363,34.108 29.695,34.440 30.113,34.652 30.577,34.727 31.040,34.652 31.457,34.440 31.790,34.108 32.002,33.690 32.077,33.227 32.002,32.761 31.790,32.343 31.457,32.013 31.040,31.799 30.577,31.726" style="fill:none;stroke-width:0.050000mm;stroke:black"/>
<polygon points="274.225,7.525 274.225,21.525 288.225,21.525 288.225,7.525" style="fill:none;stroke-width:0.050000mm;stroke:black"/>
<polygon points="255.175,7.525 255.175,21.525 269.175,21.525 269.175,7.525" style="fill:none;stroke-width:0.050000mm;stroke:black"/>
<polygon points="236.126,7.525 236.126,21.525 250.126,21.525 250.126,7.525" style="fill:none;stroke-width:0.050000mm;stroke:black"/>
<polygon points="217.076,7.525 217.076,21.525 231.076,21.525 231.076,7.525" style="fill:none;stroke-width:0.050000mm;stroke:black"/>
<polygon points="198.025,7.525 198.025,21.525 212.025,21.525 212.025,7.525" style="fill:none;stroke-width:0.050000mm;stroke:black"/>
<polygon points="178.976,7.525 178.976,21.525 192.976,21.525 192.976,7.525" style="fill:none;stroke-width:0.050000mm;stroke:black"/>
<polygon points="159.925,7.525 159.925,21.525 173.925,21.525 173.925,7.525" style="fill:none;stroke-width:0.050000mm;stroke:black"/>
<polygon points="140.876,7.525 140.876,21.525 154.876,21.525 154.876,7.525" style="fill:none;stroke-width:0.050000mm;stroke:black"/>
<polygon points="121.826,7.525 121.826,21.525 135.826,21.525 135.826,7.525" style="fill:none;stroke-width:0.050000mm;stroke:black"/>
<polygon points="102.776,7.525 102.776,21.525 116.776,21.525 116.776,7.525" style="fill:none;stroke-width:0.050000mm;stroke:black"/>
<polygon points="83.726,7.525 83.726,21.525 97.726,21.525 97.726,7.525" style="fill:none;stroke-width:0.050000mm;stroke:black"/>
<polygon points="64.675,7.525 64.675,21.525 78.675,21.525 78.675,7.525" style="fill:none;stroke-width:0.050000mm;stroke:black"/>
<polygon points="45.626,7.525 45.626,21.525 59.626,21.525 59.626,7.525" style="fill:none;stroke-width:0.050000mm;stroke:black"/>
<polygon points="26.576,7.525 26.576,21.525 40.576,21.525 40.576,7.525" style="fill:none;stroke-width:0.050000mm;stroke:black"/>
<polygon points="7.526,7.525 7.526,21.525 21.526,21.525 21.526,7.525" style="fill:none;stroke-width:0.050000mm;stroke:black"/>
</svg>