<?xml version="1.0"?>
<!-- Generated by SVGo -->
<svg width="381.473mm" height="171.805mm"
     viewBox="0.000 0.000 381.473 171.805"
     xmlns="http://www.w3.org/2000/svg" 
     xmlns:xlink="http://www.w3.org/1999/xlink">
<polygon points="376.473,166.805 5.000,166.805 5.000,5.000 376.473,5.000" style="fill:none;stroke-width:0.050000mm;stroke:black"/>
<polygon points="9.459,160.140 8.971,160.389 8.584,160.776 8.335,161.264 8.250,161.805 8.335,162.345 8.584,162.833 8.971,163.220 9.459,163.469 10.000,163.555 10.540,163.469 11.028,163.220 11.415,162.833 11.664,162.345 11.750,161.805 11.664,161.264 11.415,160.776 11.028,160.389 10.540,160.140 10.000,160.055" style="fill:none;stroke-width:0.050000mm;stroke:black"/>
<polygon points="129.949,160.140 129.461,160.389 129.074,160.776 128.826,161.264 128.741,161.805 128.826,162.345 129.074,162.833 129.461,163.220 129.949,163.469 130.491,163.555 131.031,163.469 131.519,163.220 131.906,162.833 132.155,162.345 132.241,161.805 132.155,161.264 131.906,160.776 131.519,160.389 131.031,160.140 130.491,160.055" style="fill:none;stroke-width:0.050000mm;stroke:black"/>
<polygon points="250.441,160.140 249.953,160.389 249.566,160.776 249.317,161.264 249.232,161.805 249.317,162.345 249.566,162.833 249.953,163.220 250.441,163.469 250.982,163.555 251.523,163.469 252.010,163.220 252.398,162.833 252.646,162.345 252.732,161.805 252.646,161.264 252.398,160.776 252.010,160.389 251.523,160.140 250.982,160.055" style="fill:none;stroke-width:0.050000mm;stroke:black"/>
<polygon points="370.932,160.140 370.444,160.389 370.057,160.776 369.809,161.264 369.723,161.805 369.809,162.345 370.057,162.833 370.444,163.220 370.932,163.469 371.473,163.555 372.014,163.469 372.502,163.220 372.889,162.833 373.137,162.345 373.223,161.805 373.137,161.264 372.889,160.776 372.502,160.389 372.014,160.140 371.473,160.055" style="fill:none;stroke-width:0.050000mm;stroke:black"/>
<polygon points="145.909,150.403 159.603,153.314 162.513,139.619 148.819,136.709" style="fill:none;stroke-width:0.050000mm;stroke:black"/>
<polygon points="222.159,132.763 222.350,133.663 220.663,134.021 221.334,137.181 219.842,137.498 218.865,132.900 205.171,135.811 206.148,140.409 204.657,140.726 203.985,137.566 202.298,137.925 202.107,137.025 198.879,137.711 199.070,138.611 197.383,138.970 198.054,142.129 197.247,142.301 197.830,145.039 198.637,144.868 199.940,151.001 201.627,150.642 201.831,151.601 205.059,150.915 204.855,149.956 206.543,149.597 205.613,145.225 207.105,144.908 208.082,149.505 221.776,146.595 220.799,141.997 222.291,141.680 223.220,146.053 224.907,145.694 225.111,146.652 228.339,145.966 228.135,145.008 229.823,144.649 228.519,138.516 229.326,138.345 228.744,135.606 227.937,135.777 227.265,132.618 225.578,132.977 225.387,132.077" style="fill:none;stroke-width:0.050000mm;stroke:black"/>
<polygon points="112.085,129.136 110.398,128.776 109.094,134.910 108.287,134.739 107.705,137.477 108.512,137.649 107.840,140.808 109.528,141.167 109.336,142.067 112.564,142.753 112.755,141.853 114.443,142.212 115.114,139.052 116.606,139.369 115.629,143.967 129.323,146.877 130.300,142.280 131.792,142.597 131.120,145.757 132.807,146.115 132.616,147.015 135.844,147.701 136.035,146.801 137.723,147.160 138.394,144.001 139.201,144.172 139.783,141.433 138.976,141.262 140.280,135.129 138.593,134.770 138.796,133.812 135.569,133.125 135.365,134.084 133.677,133.725 132.748,138.098 131.257,137.781 132.234,133.183 118.540,130.273 117.563,134.870 116.071,134.553 117.000,130.180 115.313,129.822 115.516,128.863 112.289,128.175" style="fill:none;stroke-width:0.050000mm;stroke:black"/>
<polygon points="242.439,127.890 245.350,141.584 259.043,138.673 256.132,124.979" style="fill:none;stroke-width:0.050000mm;stroke:black"/>
<polygon points="85.349,137.530 99.043,140.441 101.954,126.747 88.260,123.836" style="fill:none;stroke-width:0.050000mm;stroke:black"/>
<polygon points="336.612,122.300 336.612,136.300 350.612,136.300 350.612,122.300" style="fill:none;stroke-width:0.050000mm;stroke:black"/>
<polygon points="317.562,122.300 317.562,136.300 331.562,136.300 331.562,122.300" style="fill:none;stroke-width:0.050000mm;stroke:black"/>
<polygon points="298.512,122.300 298.512,136.300 312.512,136.300 312.512,122.300" style="fill:none;stroke-width:0.050000mm;stroke:black"/>
<polygon points="19.906,122.300 19.906,136.300 33.906,136.300 33.906,122.300" style="fill:none;stroke-width:0.050000mm;stroke:black"/>
<polygon points="194.223,118.663 197.134,132.357 210.828,129.446 207.917,115.752" style="fill:none;stroke-width:0.050000mm;stroke:black"/>
<polygon points="138.223,129.294 151.917,132.204 154.828,118.510 141.134,115.600" style="fill:none;stroke-width:0.050000mm;stroke:black"/>
<polygon points="212.857,114.702 215.767,128.395 229.462,125.485 226.551,111.791" style="fill:none;stroke-width:0.050000mm;stroke:black"/>
<polygon points="119.589,125.333 133.284,128.244 136.194,114.550 122.500,111.639" style="fill:none;stroke-width:0.050000mm;stroke:black"/>
<polygon points="231.490,110.741 234.401,124.435 248.095,121.525 245.184,107.831" style="fill:none;stroke-width:0.050000mm;stroke:black"/>
<polygon points="100.956,121.372 114.650,124.283 117.561,110.589 103.867,107.678" style="fill:none;stroke-width:0.050000mm;stroke:black"/>
<polygon points="250.124,106.781 253.035,120.475 266.729,117.564 263.818,103.870" style="fill:none;stroke-width:0.050000mm;stroke:black"/>
<polygon points="82.322,117.411 96.016,120.322 98.927,106.628 85.233,103.717" style="fill:none;stroke-width:0.050000mm;stroke:black"/>
<polygon points="29.431,103.250 29.431,107.950 27.906,107.950 27.906,104.720 26.181,104.720 26.181,103.800 22.881,103.800 22.881,104.720 21.156,104.720 21.156,107.950 20.331,107.950 20.331,110.750 21.156,110.750 21.156,117.020 22.881,117.020 22.881,118.000 26.181,118.000 26.181,117.020 27.906,117.020 27.906,112.550 29.431,112.550 29.431,117.250 43.431,117.250 43.431,112.550 44.956,112.550 44.956,117.020 46.681,117.020 46.681,118.000 49.981,118.000 49.981,117.020 51.706,117.020 51.706,110.750 52.531,110.750 52.531,107.950 51.706,107.950 51.706,104.720 49.981,104.720 49.981,103.800 46.681,103.800 46.681,104.720 44.956,104.720 44.956,107.950 43.431,107.950 43.431,103.250" style="fill:none;stroke-width:0.050000mm;stroke:black"/>
<polygon points="317.562,103.250 317.562,117.250 331.562,117.250 331.562,103.250" style="fill:none;stroke-width:0.050000mm;stroke:black"/>
<polygon points="295.178,103.250 295.178,117.250 309.178,117.250 309.178,103.250" style="fill:none;stroke-width:0.050000mm;stroke:black"/>
<polygon points="273.747,103.250 273.747,117.250 287.747,117.250 287.747,103.250" style="fill:none;stroke-width:0.050000mm;stroke:black"/>
<polygon points="60.387,103.250 60.387,117.250 74.387,117.250 74.387,103.250" style="fill:none;stroke-width:0.050000mm;stroke:black"/>
<polygon points="185.604,101.019 188.515,114.713 202.209,111.803 199.298,98.109" style="fill:none;stroke-width:0.050000mm;stroke:black"/>
<polygon points="346.137,98.487 346.137,112.487 360.137,112.487 360.137,98.487" style="fill:none;stroke-width:0.050000mm;stroke:black"/>
<polygon points="132.867,108.680 146.561,111.590 149.472,97.896 135.778,94.986" style="fill:none;stroke-width:0.050000mm;stroke:black"/>
<polygon points="204.238,97.059 207.148,110.753 220.842,107.842 217.932,94.148" style="fill:none;stroke-width:0.050000mm;stroke:black"/>
<polygon points="114.233,104.719 127.927,107.630 130.838,93.936 117.144,91.025" style="fill:none;stroke-width:0.050000mm;stroke:black"/>
<polygon points="222.871,93.098 225.782,106.792 239.476,103.881 236.565,90.187" style="fill:none;stroke-width:0.050000mm;stroke:black"/>
<polygon points="95.600,100.758 109.294,103.669 112.204,89.975 98.510,87.064" style="fill:none;stroke-width:0.050000mm;stroke:black"/>
<polygon points="241.505,89.137 244.416,102.831 258.110,99.920 255.199,86.226" style="fill:none;stroke-width:0.050000mm;stroke:black"/>
<polygon points="76.966,96.797 90.660,99.708 93.571,86.014 79.877,83.103" style="fill:none;stroke-width:0.050000mm;stroke:black"/>
<polygon points="314.228,84.200 314.228,88.900 312.703,88.900 312.703,85.670 310.978,85.670 310.978,84.750 307.678,84.750 307.678,85.670 305.953,85.670 305.953,88.900 305.128,88.900 305.128,91.700 305.953,91.700 305.953,97.970 307.678,97.970 307.678,98.950 310.978,98.950 310.978,97.970 312.703,97.970 312.703,93.500 314.228,93.500 314.228,98.200 328.228,98.200 328.228,93.500 329.753,93.500 329.753,97.970 331.478,97.970 331.478,98.950 334.778,98.950 334.778,97.970 336.503,97.970 336.503,91.700 337.328,91.700 337.328,88.900 336.503,88.900 336.503,85.670 334.778,85.670 334.778,84.750 331.478,84.750 331.478,85.670 329.753,85.670 329.753,88.900 328.228,88.900 328.228,84.200" style="fill:none;stroke-width:0.050000mm;stroke:black"/>
<polygon points="283.272,84.200 283.272,98.200 297.272,98.200 297.272,84.200" style="fill:none;stroke-width:0.050000mm;stroke:black"/>
<polygon points="264.222,84.200 264.222,98.200 278.222,98.200 278.222,84.200" style="fill:none;stroke-width:0.050000mm;stroke:black"/>
<polygon points="55.625,84.200 55.625,98.200 69.625,98.200 69.625,84.200" style="fill:none;stroke-width:0.050000mm;stroke:black"/>
<polygon points="29.431,84.200 29.431,98.200 43.431,98.200 43.431,84.200" style="fill:none;stroke-width:0.050000mm;stroke:black"/>
<polygon points="176.985,83.376 179.895,97.070 193.590,94.159 190.679,80.465" style="fill:none;stroke-width:0.050000mm;stroke:black"/>
<polygon points="349.947,79.437 349.947,93.437 363.947,93.437 363.947,79.437" style="fill:none;stroke-width:0.050000mm;stroke:black"/>
<polygon points="195.618,79.415 198.529,93.109 212.223,90.198 209.312,76.504" style="fill:none;stroke-width:0.050000mm;stroke:black"/>
<polygon points="132.169,89.056 145.863,91.966 148.774,78.272 135.080,75.362" style="fill:none;stroke-width:0.050000mm;stroke:black"/>
<polygon points="214.252,75.454 217.163,89.148 230.857,86.238 227.946,72.544" style="fill:none;stroke-width:0.050000mm;stroke:black"/>
<polygon points="113.536,85.095 127.230,88.006 130.139,74.312 116.446,71.401" style="fill:none;stroke-width:0.050000mm;stroke:black"/>
<polygon points="232.886,71.494 235.797,85.188 249.491,82.277 246.580,68.583" style="fill:none;stroke-width:0.050000mm;stroke:black"/>
<polygon points="94.902,81.134 108.596,84.045 111.507,70.351 97.813,67.440" style="fill:none;stroke-width:0.050000mm;stroke:black"/>
<polygon points="251.520,67.533 254.430,81.227 268.124,78.316 265.214,64.622" style="fill:none;stroke-width:0.050000mm;stroke:black"/>
<polygon points="76.268,77.174 89.962,80.084 92.873,66.390 79.179,63.479" style="fill:none;stroke-width:0.050000mm;stroke:black"/>
<polygon points="316.610,65.150 316.610,79.150 330.610,79.150 330.610,65.150" style="fill:none;stroke-width:0.050000mm;stroke:black"/>
<polygon points="292.797,65.150 292.797,79.150 306.797,79.150 306.797,65.150" style="fill:none;stroke-width:0.050000mm;stroke:black"/>
<polygon points="273.747,65.150 273.747,79.150 287.747,79.150 287.747,65.150" style="fill:none;stroke-width:0.050000mm;stroke:black"/>
<polygon points="55.625,65.150 55.625,79.150 69.625,79.150 69.625,65.150" style="fill:none;stroke-width:0.050000mm;stroke:black"/>
<polygon points="31.812,65.150 31.812,79.150 45.812,79.150 45.812,65.150" style="fill:none;stroke-width:0.050000mm;stroke:black"/>
<polygon points="182.341,62.762 185.252,76.456 198.946,73.545 196.035,59.851" style="fill:none;stroke-width:0.050000mm;stroke:black"/>
<polygon points="145.447,72.402 159.141,75.313 162.052,61.619 148.358,58.708" style="fill:none;stroke-width:0.050000mm;stroke:black"/>
<polygon points="345.185,60.387 345.185,74.387 359.185,74.387 359.185,60.387" style="fill:none;stroke-width:0.050000mm;stroke:black"/>
<polygon points="200.975,58.801 203.885,72.495 217.579,69.584 214.669,55.890" style="fill:none;stroke-width:0.050000mm;stroke:black"/>
<polygon points="126.813,68.442 140.507,71.352 143.418,57.658 129.723,54.748" style="fill:none;stroke-width:0.050000mm;stroke:black"/>
<polygon points="219.608,54.840 222.519,68.534 236.213,65.624 233.302,51.929" style="fill:none;stroke-width:0.050000mm;stroke:black"/>
<polygon points="108.180,64.480 121.874,67.392 124.784,53.698 111.090,50.787" style="fill:none;stroke-width:0.050000mm;stroke:black"/>
<polygon points="238.242,50.880 241.153,64.574 254.847,61.663 251.936,47.969" style="fill:none;stroke-width:0.050000mm;stroke:black"/>
<polygon points="89.546,60.520 103.240,63.431 106.151,49.737 92.457,46.826" style="fill:none;stroke-width:0.050000mm;stroke:black"/>
<polygon points="308.037,46.100 308.037,50.800 306.512,50.800 306.512,47.570 304.787,47.570 304.787,46.650 301.487,46.650 301.487,47.570 299.762,47.570 299.762,50.800 298.937,50.800 298.937,53.600 299.762,53.600 299.762,59.870 301.487,59.870 301.487,60.850 304.787,60.850 304.787,59.870 306.512,59.870 306.512,55.400 308.037,55.400 308.037,60.100 322.037,60.100 322.037,55.400 323.562,55.400 323.562,59.870 325.287,59.870 325.287,60.850 328.587,60.850 328.587,59.870 330.312,59.870 330.312,53.600 331.137,53.600 331.137,50.800 330.312,50.800 330.312,47.570 328.587,47.570 328.587,46.650 325.287,46.650 325.287,47.570 323.562,47.570 323.562,50.800 322.037,50.800 322.037,46.100" style="fill:none;stroke-width:0.050000mm;stroke:black"/>
<polygon points="278.510,46.100 278.510,60.100 292.510,60.100 292.510,46.100" style="fill:none;stroke-width:0.050000mm;stroke:black"/>
<polygon points="50.862,46.100 50.862,60.100 64.861,60.100 64.861,46.100" style="fill:none;stroke-width:0.050000mm;stroke:black"/>
<polygon points="31.812,46.100 31.812,60.100 45.812,60.100 45.812,46.100" style="fill:none;stroke-width:0.050000mm;stroke:black"/>
<polygon points="259.459,43.242 259.459,57.242 273.460,57.242 273.460,43.242" style="fill:none;stroke-width:0.050000mm;stroke:black"/>
<polygon points="69.912,43.242 69.912,57.242 83.912,57.242 83.912,43.242" style="fill:none;stroke-width:0.050000mm;stroke:black"/>
<polygon points="340.422,41.337 340.422,55.337 354.422,55.337 354.422,41.337" style="fill:none;stroke-width:0.050000mm;stroke:black"/>
<polygon points="182.048,38.479 184.959,52.173 198.653,49.263 195.742,35.569" style="fill:none;stroke-width:0.050000mm;stroke:black"/>
<polygon points="145.739,48.120 159.433,51.031 162.344,37.337 148.650,34.426" style="fill:none;stroke-width:0.050000mm;stroke:black"/>
<polygon points="200.682,34.519 203.593,48.213 217.287,45.302 214.376,31.608" style="fill:none;stroke-width:0.050000mm;stroke:black"/>
<polygon points="127.106,44.159 140.800,47.070 143.711,33.376 130.014,30.465" style="fill:none;stroke-width:0.050000mm;stroke:black"/>
<polygon points="223.974,29.568 226.885,43.262 240.579,40.351 237.668,26.657" style="fill:none;stroke-width:0.050000mm;stroke:black"/>
<polygon points="103.814,39.208 117.508,42.119 120.418,28.425 106.724,25.514" style="fill:none;stroke-width:0.050000mm;stroke:black"/>
<polygon points="242.608,25.607 245.519,39.301 259.213,36.390 256.302,22.696" style="fill:none;stroke-width:0.050000mm;stroke:black"/>
<polygon points="85.180,35.248 98.874,38.158 101.785,24.464 88.091,21.554" style="fill:none;stroke-width:0.050000mm;stroke:black"/>
<polygon points="335.659,22.287 335.659,36.287 349.659,36.287 349.659,22.287" style="fill:none;stroke-width:0.050000mm;stroke:black"/>
<polygon points="308.037,22.287 308.037,36.287 322.037,36.287 322.037,22.287" style="fill:none;stroke-width:0.050000mm;stroke:black"/>
<polygon points="21.335,22.287 21.335,36.287 35.335,36.287 35.335,22.287" style="fill:none;stroke-width:0.050000mm;stroke:black"/>
<polygon points="265.175,21.335 265.175,35.335 279.175,35.335 279.175,21.335" style="fill:none;stroke-width:0.050000mm;stroke:black"/>
<polygon points="65.150,21.335 65.150,35.335 79.150,35.335 79.150,21.335" style="fill:none;stroke-width:0.050000mm;stroke:black"/>
<polygon points="284.225,21.335 284.225,35.335 298.225,35.335 298.225,21.335" style="fill:none;stroke-width:0.050000mm;stroke:black"/>
<polygon points="46.100,21.335 46.100,35.335 60.100,35.335 60.100,21.335" style="fill:none;stroke-width:0.050000mm;stroke:black"/>
<polygon points="9.459,8.335 8.971,8.584 8.584,8.971 8.335,9.459 8.250,10.000 8.335,10.540 8.584,11.028 8.971,11.415 9.459,11.664 10.000,11.750 10.540,11.664 11.028,11.415 11.415,11.028 11.664,10.540 11.750,10.000 11.664,9.459 11.415,8.971 11.028,8.584 10.540,8.335 10.000,8.250" style="fill:none;stroke-width:0.050000mm;stroke:black"/>
<polygon points="370.932,8.335 370.444,8.584 370.057,8.971 369.809,9.459 369.723,10.000 369.809,10.540 370.057,11.028 370.444,11.415 370.932,11.664 371.473,11.750 372.014,11.664 372.502,11.415 372.889,11.028 373.137,10.540 373.223,10.000 373.137,9.459 372.889,8.971 372.502,8.584 372.014,8.335 371.473,8.250" style="fill:none;stroke-width:0.050000mm;stroke:black"/>
<polygon points="250.441,8.335 249.953,8.584 249.566,8.971 249.317,9.459 249.232,10.000 249.317,10.540 249.566,11.028 249.953,11.415 250.441,11.664 250.982,11.750 251.523,11.664 252.010,11.415 252.398,11.028 252.646,10.540 252.732,10.000 252.646,9.459 252.398,8.971 252.010,8.584 251.523,8.335 250.982,8.250" style="fill:none;stroke-width:0.050000mm;stroke:black"/>
<polygon points="129.949,8.335 129.461,8.584 129.074,8.971 128.826,9.459 128.741,10.000 128.826,10.540 129.074,11.028 129.461,11.415 129.949,11.664 130.491,11.750 131.031,11.664 131.519,11.415 131.906,11.028 132.155,10.540 132.241,10.000 132.155,9.459 131.906,8.971 131.519,8.584 131.031,8.335 130.491,8.250" style="fill:none;stroke-width:0.050000mm;stroke:black"/>
</svg>
