<?xml version="1.0"?>
<!-- Generated by SVGo -->
<svg width="377.474mm" height="167.806mm"
     viewBox="0.000 0.000 377.474 167.806"
     xmlns="http://www.w3.org/2000/svg" 
     xmlns:xlink="http://www.w3.org/1999/xlink">
<polygon points="369.474,5.001 369.709,5.010 369.943,5.037 370.174,5.083 370.401,5.147 370.622,5.229 370.836,5.327 371.041,5.443 371.237,5.573 371.422,5.719 371.595,5.879 371.755,6.052 371.901,6.237 372.032,6.433 372.147,6.639 372.246,6.852 372.327,7.073 372.391,7.300 372.437,7.531 372.465,7.765 372.474,8.001 372.474,159.806 372.465,160.041 372.437,160.275 372.391,160.506 372.327,160.733 372.246,160.954 372.147,161.168 372.032,161.373 371.901,161.569 371.755,161.754 371.595,161.927 371.422,162.087 371.237,162.233 371.041,162.364 370.836,162.479 370.622,162.577 370.401,162.659 370.174,162.723 369.943,162.769 369.709,162.796 369.474,162.806 8.001,162.806 7.765,162.796 7.531,162.769 7.300,162.723 7.073,162.659 6.852,162.577 6.639,162.479 6.433,162.364 6.237,162.233 6.052,162.087 5.879,161.927 5.719,161.754 5.573,161.569 5.443,161.373 5.327,161.168 5.229,160.954 5.147,160.733 5.083,160.506 5.037,160.275 5.010,160.041 5.000,159.806 5.001,8.001 5.010,7.765 5.037,7.531 5.083,7.300 5.147,7.073 5.229,6.852 5.327,6.639 5.443,6.433 5.573,6.237 5.719,6.052 5.879,5.879 6.052,5.719 6.237,5.573 6.433,5.443 6.639,5.327 6.852,5.229 7.073,5.147 7.300,5.083 7.531,5.037 7.765,5.010 8.001,5.000" style="fill:none;stroke-width:0.050000mm;stroke:blue"/>
<polygon points="8.691,157.855 8.413,157.997 8.190,158.218 8.049,158.497 8.000,158.806 8.049,159.115 8.190,159.393 8.413,159.615 8.691,159.757 9.000,159.806 9.310,159.757 9.588,159.615 9.810,159.393 9.952,159.115 10.001,158.806 9.952,158.497 9.810,158.218 9.588,157.997 9.310,157.855 9.001,157.806" style="fill:none;stroke-width:0.050000mm;stroke:blue"/>
<polygon points="128.515,157.855 128.236,157.997 128.015,158.218 127.874,158.497 127.825,158.806 127.874,159.115 128.015,159.393 128.236,159.615 128.515,159.757 128.825,159.806 129.134,159.757 129.413,159.615 129.634,159.393 129.776,159.115 129.825,158.806 129.776,158.497 129.634,158.218 129.413,157.997 129.134,157.855 128.825,157.806" style="fill:none;stroke-width:0.050000mm;stroke:blue"/>
<polygon points="248.340,157.855 248.062,157.997 247.840,158.218 247.698,158.497 247.650,158.806 247.698,159.115 247.840,159.393 248.062,159.615 248.340,159.757 248.650,159.806 248.959,159.757 249.237,159.615 249.459,159.393 249.601,159.115 249.650,158.806 249.601,158.497 249.459,158.218 249.237,157.997 248.959,157.855 248.650,157.806" style="fill:none;stroke-width:0.050000mm;stroke:blue"/>
<polygon points="368.165,157.855 367.886,157.997 367.665,158.218 367.523,158.497 367.474,158.806 367.523,159.115 367.665,159.393 367.886,159.615 368.165,159.757 368.474,159.806 368.783,159.757 369.062,159.615 369.283,159.393 369.425,159.115 369.474,158.806 369.425,158.497 369.283,158.218 369.062,157.997 368.783,157.855 368.474,157.806" style="fill:none;stroke-width:0.050000mm;stroke:blue"/>
<polygon points="146.612,135.688 145.830,135.522 145.185,138.554 145.968,138.720 144.762,144.393 143.979,144.227 143.335,147.259 144.117,147.426 143.910,148.404 157.604,151.315 157.812,150.336 158.594,150.503 159.239,147.470 158.456,147.304 159.662,141.631 160.444,141.797 161.089,138.765 160.306,138.599 160.514,137.620 146.820,134.710" style="fill:none;stroke-width:0.050000mm;stroke:blue"/>
<polygon points="220.160,130.764 220.351,131.664 218.664,132.022 219.335,135.182 217.844,135.499 217.719,134.912 218.501,134.746 217.857,131.713 217.074,131.880 216.866,130.901 203.172,133.812 203.380,134.790 202.598,134.957 203.242,137.989 204.025,137.823 204.150,138.410 202.658,138.727 201.986,135.567 200.299,135.926 200.108,135.026 196.880,135.712 197.071,136.612 195.384,136.971 196.055,140.130 195.248,140.302 195.831,143.040 196.638,142.869 197.941,149.002 199.628,148.643 199.832,149.602 203.060,148.916 202.856,147.957 204.544,147.598 203.614,143.226 205.106,142.909 205.231,143.496 204.448,143.662 205.093,146.694 205.875,146.528 206.083,147.506 219.777,144.596 219.569,143.617 220.352,143.451 219.707,140.419 218.925,140.585 218.800,139.998 220.292,139.681 221.221,144.054 222.908,143.695 223.112,144.653 226.340,143.967 226.136,143.009 227.824,142.650 226.520,136.517 227.327,136.346 226.745,133.607 225.938,133.778 225.266,130.619 223.579,130.978 223.388,130.078" style="fill:none;stroke-width:0.050000mm;stroke:blue"/>
<polygon points="110.086,127.137 108.399,126.778 107.095,132.911 106.288,132.740 105.706,135.478 106.513,135.650 105.841,138.809 107.529,139.168 107.337,140.068 110.565,140.754 110.756,139.854 112.444,140.213 113.115,137.053 114.607,137.370 114.482,137.957 113.700,137.791 113.055,140.823 113.838,140.989 113.630,141.968 127.324,144.878 127.532,143.900 128.313,144.067 128.959,141.034 128.176,140.868 128.301,140.281 129.793,140.598 129.121,143.758 130.807,144.116 130.617,145.016 133.845,145.702 134.036,144.802 135.724,145.161 136.395,142.002 137.202,142.173 137.784,139.434 136.977,139.263 138.281,133.130 136.594,132.771 136.797,131.813 133.570,131.126 133.366,132.085 131.678,131.726 130.748,136.099 129.257,135.782 129.382,135.195 130.164,135.361 130.809,132.329 130.027,132.162 130.235,131.184 116.541,128.274 116.333,129.252 115.550,129.085 114.906,132.118 115.688,132.284 115.563,132.871 114.072,132.554 115.001,128.181 113.314,127.823 113.517,126.864 110.290,126.178" style="fill:none;stroke-width:0.050000mm;stroke:blue"/>
<polygon points="240.440,125.891 240.648,126.869 239.865,127.035 240.510,130.068 241.292,129.901 242.498,135.574 241.716,135.741 242.360,138.773 243.143,138.607 243.351,139.585 257.044,136.674 256.837,135.696 257.619,135.530 256.975,132.497 256.191,132.664 254.986,126.990 255.769,126.824 255.124,123.792 254.342,123.958 254.134,122.980" style="fill:none;stroke-width:0.050000mm;stroke:blue"/>
<polygon points="86.053,122.816 85.270,122.649 84.626,125.681 85.408,125.848 84.202,131.521 83.420,131.355 82.775,134.387 83.558,134.553 83.350,135.531 97.044,138.442 97.252,137.464 98.034,137.630 98.679,134.598 97.897,134.432 99.102,128.759 99.885,128.925 100.529,125.893 99.747,125.726 99.955,124.748 86.261,121.837" style="fill:none;stroke-width:0.050000mm;stroke:blue"/>
<polygon points="334.613,120.301 334.613,121.301 333.813,121.301 333.813,124.401 334.613,124.401 334.613,130.200 333.813,130.200 333.813,133.301 334.613,133.301 334.613,134.301 348.613,134.301 348.613,133.301 349.413,133.301 349.413,130.200 348.613,130.200 348.613,124.401 349.413,124.401 349.413,121.301 348.613,121.301 348.613,120.301" style="fill:none;stroke-width:0.050000mm;stroke:blue"/>
<polygon points="315.563,120.301 315.563,121.301 314.763,121.301 314.763,124.401 315.563,124.401 315.563,130.200 314.763,130.200 314.763,133.301 315.563,133.301 315.563,134.301 329.563,134.301 329.563,133.301 330.363,133.301 330.363,130.200 329.563,130.200 329.563,124.401 330.363,124.401 330.363,121.301 329.563,121.301 329.563,120.301" style="fill:none;stroke-width:0.050000mm;stroke:blue"/>
<polygon points="296.513,120.301 296.513,121.301 295.713,121.301 295.713,124.401 296.513,124.401 296.513,130.200 295.713,130.200 295.713,133.301 296.513,133.301 296.513,134.301 310.513,134.301 310.513,133.301 311.313,133.301 311.313,130.200 310.513,130.200 310.513,124.401 311.313,124.401 311.313,121.301 310.513,121.301 310.513,120.301" style="fill:none;stroke-width:0.050000mm;stroke:blue"/>
<polygon points="17.907,120.301 17.907,121.301 17.107,121.301 17.107,124.401 17.907,124.401 17.907,130.200 17.107,130.200 17.107,133.301 17.907,133.301 17.907,134.301 31.907,134.301 31.907,133.301 32.707,133.301 32.707,130.200 31.907,130.200 31.907,124.401 32.707,124.401 32.707,121.301 31.907,121.301 31.907,120.301" style="fill:none;stroke-width:0.050000mm;stroke:blue"/>
<polygon points="192.224,116.664 192.432,117.642 191.649,117.808 192.294,120.841 193.076,120.674 194.282,126.347 193.500,126.514 194.144,129.545 194.927,129.378 195.135,130.358 208.829,127.447 208.621,126.469 209.403,126.303 208.759,123.270 207.976,123.437 206.770,117.763 207.553,117.597 206.908,114.565 206.126,114.731 205.918,113.753" style="fill:none;stroke-width:0.050000mm;stroke:blue"/>
<polygon points="138.927,114.579 138.145,114.412 137.500,117.445 138.283,117.611 137.077,123.284 136.294,123.118 135.650,126.150 136.432,126.316 136.224,127.295 149.918,130.205 150.126,129.227 150.909,129.394 151.553,126.361 150.771,126.195 151.977,120.522 152.759,120.688 153.404,117.656 152.621,117.489 152.829,116.511 139.135,113.601" style="fill:none;stroke-width:0.050000mm;stroke:blue"/>
<polygon points="210.858,112.703 211.066,113.681 210.283,113.848 210.928,116.880 211.710,116.713 212.916,122.387 212.134,122.553 212.778,125.585 213.561,125.419 213.768,126.397 227.463,123.486 227.255,122.508 228.037,122.342 227.393,119.310 226.610,119.476 225.404,113.803 226.187,113.636 225.542,110.604 224.760,110.770 224.552,109.792" style="fill:none;stroke-width:0.050000mm;stroke:blue"/>
<polygon points="120.293,110.618 119.511,110.452 118.866,113.484 119.649,113.650 118.443,119.324 117.660,119.157 117.016,122.189 117.798,122.356 117.590,123.334 131.285,126.245 131.492,125.267 132.275,125.433 132.920,122.401 132.137,122.234 133.343,116.561 134.125,116.727 134.770,113.695 133.987,113.529 134.195,112.551 120.501,109.640" style="fill:none;stroke-width:0.050000mm;stroke:blue"/>
<polygon points="229.491,108.742 229.699,109.721 228.917,109.887 229.561,112.919 230.344,112.753 231.550,118.426 230.767,118.592 231.412,121.625 232.194,121.458 232.402,122.436 246.096,119.526 245.888,118.548 246.671,118.381 246.026,115.349 245.244,115.515 244.038,109.842 244.820,109.676 244.176,106.643 243.393,106.810 243.185,105.832" style="fill:none;stroke-width:0.050000mm;stroke:blue"/>
<polygon points="101.660,106.657 100.877,106.491 100.233,109.523 101.015,109.690 99.809,115.363 99.027,115.196 98.382,118.229 99.165,118.395 98.957,119.373 112.651,122.284 112.859,121.306 113.641,121.472 114.286,118.440 113.503,118.274 114.709,112.600 115.492,112.767 116.136,109.734 115.354,109.568 115.562,108.590 101.868,105.679" style="fill:none;stroke-width:0.050000mm;stroke:blue"/>
<polygon points="248.125,104.782 248.333,105.760 247.551,105.926 248.195,108.958 248.978,108.792 250.183,114.465 249.401,114.632 250.045,117.664 250.828,117.498 251.036,118.476 264.730,115.565 264.522,114.587 265.305,114.420 264.660,111.388 263.878,111.555 262.672,105.881 263.454,105.715 262.810,102.683 262.027,102.849 261.818,101.871" style="fill:none;stroke-width:0.050000mm;stroke:blue"/>
<polygon points="83.026,102.697 82.243,102.530 81.599,105.562 82.381,105.729 81.176,111.402 80.393,111.236 79.748,114.268 80.531,114.434 80.323,115.412 94.017,118.323 94.225,117.345 95.008,117.511 95.652,114.479 94.870,114.313 96.075,108.640 96.858,108.806 97.503,105.774 96.720,105.607 96.928,104.629 83.234,101.718" style="fill:none;stroke-width:0.050000mm;stroke:blue"/>
<polygon points="27.432,101.251 27.432,102.251 26.632,102.251 26.632,105.351 27.432,105.351 27.432,105.951 25.907,105.951 25.907,102.721 24.182,102.721 24.182,101.801 20.882,101.801 20.882,102.721 19.157,102.721 19.157,105.951 18.332,105.951 18.332,108.751 19.157,108.751 19.157,115.021 20.882,115.021 20.882,116.001 24.182,116.001 24.182,115.021 25.907,115.021 25.907,110.551 27.432,110.551 27.432,111.151 26.632,111.151 26.632,114.251 27.432,114.251 27.432,115.251 41.432,115.251 41.432,114.251 42.232,114.251 42.232,111.151 41.432,111.151 41.432,110.551 42.957,110.551 42.957,115.021 44.682,115.021 44.682,116.001 47.982,116.001 47.982,115.021 49.707,115.021 49.707,108.751 50.532,108.751 50.532,105.951 49.707,105.951 49.707,102.721 47.982,102.721 47.982,101.801 44.682,101.801 44.682,102.721 42.957,102.721 42.957,105.951 41.432,105.951 41.432,105.351 42.232,105.351 42.232,102.251 41.432,102.251 41.432,101.251" style="fill:none;stroke-width:0.050000mm;stroke:blue"/>
<polygon points="315.563,101.251 315.563,102.251 314.763,102.251 314.763,105.351 315.563,105.351 315.563,111.151 314.763,111.151 314.763,114.251 315.563,114.251 315.563,115.251 329.563,115.251 329.563,114.251 330.363,114.251 330.363,111.151 329.563,111.151 329.563,105.351 330.363,105.351 330.363,102.251 329.563,102.251 329.563,101.251" style="fill:none;stroke-width:0.050000mm;stroke:blue"/>
<polygon points="293.179,101.251 293.179,102.251 292.379,102.251 292.379,105.351 293.179,105.351 293.179,111.151 292.379,111.151 292.379,114.251 293.179,114.251 293.179,115.251 307.179,115.251 307.179,114.251 307.979,114.251 307.979,111.151 307.179,111.151 307.179,105.351 307.979,105.351 307.979,102.251 307.179,102.251 307.179,101.251" style="fill:none;stroke-width:0.050000mm;stroke:blue"/>
<polygon points="271.748,101.251 271.748,102.251 270.948,102.251 270.948,105.351 271.748,105.351 271.748,111.151 270.948,111.151 270.948,114.251 271.748,114.251 271.748,115.251 285.748,115.251 285.748,114.251 286.548,114.251 286.548,111.151 285.748,111.151 285.748,105.351 286.548,105.351 286.548,102.251 285.748,102.251 285.748,101.251" style="fill:none;stroke-width:0.050000mm;stroke:blue"/>
<polygon points="58.388,101.251 58.388,102.251 57.588,102.251 57.588,105.351 58.388,105.351 58.388,111.151 57.588,111.151 57.588,114.251 58.388,114.251 58.388,115.251 72.388,115.251 72.388,114.251 73.188,114.251 73.188,111.151 72.388,111.151 72.388,105.351 73.188,105.351 73.188,102.251 72.388,102.251 72.388,101.251" style="fill:none;stroke-width:0.050000mm;stroke:blue"/>
<polygon points="183.605,99.020 183.813,99.998 183.030,100.165 183.675,103.197 184.457,103.031 185.663,108.704 184.881,108.870 185.525,111.903 186.308,111.736 186.516,112.714 200.210,109.804 200.002,108.825 200.784,108.659 200.140,105.627 199.357,105.793 198.151,100.120 198.934,99.954 198.289,96.921 197.507,97.088 197.299,96.110" style="fill:none;stroke-width:0.050000mm;stroke:blue"/>
<polygon points="344.138,96.488 344.138,97.488 343.338,97.488 343.338,100.588 344.138,100.588 344.138,106.388 343.338,106.388 343.338,109.488 344.138,109.488 344.138,110.488 358.138,110.488 358.138,109.488 358.938,109.488 358.938,106.388 358.138,106.388 358.138,100.588 358.938,100.588 358.938,97.488 358.138,97.488 358.138,96.488" style="fill:none;stroke-width:0.050000mm;stroke:blue"/>
<polygon points="133.571,93.965 132.788,93.798 132.144,96.831 132.926,96.997 131.721,102.670 130.938,102.504 130.293,105.536 131.076,105.702 130.867,106.681 144.562,109.591 144.770,108.613 145.553,108.780 146.197,105.747 145.415,105.581 146.620,99.908 147.403,100.074 148.048,97.042 147.265,96.875 147.473,95.897 133.779,92.987" style="fill:none;stroke-width:0.050000mm;stroke:blue"/>
<polygon points="202.239,95.060 202.446,96.038 201.664,96.204 202.308,99.236 203.091,99.070 204.297,104.743 203.514,104.910 204.159,107.942 204.941,107.775 205.149,108.754 218.843,105.843 218.635,104.865 219.418,104.698 218.773,101.666 217.991,101.832 216.785,96.159 217.568,95.993 216.923,92.961 216.141,93.127 215.933,92.149" style="fill:none;stroke-width:0.050000mm;stroke:blue"/>
<polygon points="114.937,90.004 114.155,89.838 113.510,92.870 114.293,93.036 113.087,98.709 112.304,98.543 111.660,101.575 112.442,101.742 112.234,102.720 125.928,105.631 126.136,104.652 126.919,104.819 127.563,101.787 126.781,101.620 127.987,95.947 128.769,96.113 129.414,93.081 128.631,92.915 128.839,91.937 115.145,89.026" style="fill:none;stroke-width:0.050000mm;stroke:blue"/>
<polygon points="220.872,91.099 221.080,92.077 220.298,92.243 220.942,95.276 221.725,95.109 222.931,100.782 222.148,100.949 222.793,103.981 223.575,103.815 223.783,104.793 237.477,101.882 237.269,100.904 238.052,100.738 237.407,97.705 236.625,97.872 235.419,92.198 236.201,92.032 235.557,89.000 234.774,89.166 234.566,88.188" style="fill:none;stroke-width:0.050000mm;stroke:blue"/>
<polygon points="96.303,86.043 95.521,85.877 94.876,88.909 95.659,89.075 94.453,94.749 93.671,94.582 93.026,97.615 93.809,97.781 93.601,98.759 107.295,101.670 107.503,100.692 108.285,100.858 108.930,97.826 108.147,97.659 109.353,91.986 110.136,92.153 110.780,89.120 109.998,88.954 110.205,87.976 96.511,85.065" style="fill:none;stroke-width:0.050000mm;stroke:blue"/>
<polygon points="239.506,87.138 239.714,88.116 238.931,88.283 239.576,91.315 240.358,91.149 241.564,96.822 240.782,96.988 241.426,100.020 242.209,99.854 242.417,100.832 256.111,97.921 255.903,96.943 256.685,96.777 256.041,93.745 255.258,93.911 254.052,88.238 254.835,88.071 254.190,85.039 253.408,85.205 253.200,84.227" style="fill:none;stroke-width:0.050000mm;stroke:blue"/>
<polygon points="77.670,82.082 76.887,81.916 76.243,84.948 77.025,85.115 75.819,90.788 75.037,90.622 74.392,93.654 75.175,93.820 74.967,94.798 88.661,97.709 88.869,96.731 89.651,96.897 90.296,93.865 89.513,93.699 90.719,88.026 91.502,88.192 92.146,85.160 91.364,84.993 91.572,84.015 77.878,81.104" style="fill:none;stroke-width:0.050000mm;stroke:blue"/>
<polygon points="312.229,82.201 312.229,83.201 311.429,83.201 311.429,86.301 312.229,86.301 312.229,86.901 310.704,86.901 310.704,83.671 308.979,83.671 308.979,82.751 305.679,82.751 305.679,83.671 303.954,83.671 303.954,86.901 303.129,86.901 303.129,89.701 303.954,89.701 303.954,95.971 305.679,95.971 305.679,96.951 308.979,96.951 308.979,95.971 310.704,95.971 310.704,91.501 312.229,91.501 312.229,92.101 311.429,92.101 311.429,95.201 312.229,95.201 312.229,96.201 326.229,96.201 326.229,95.201 327.029,95.201 327.029,92.101 326.229,92.101 326.229,91.501 327.754,91.501 327.754,95.971 329.479,95.971 329.479,96.951 332.779,96.951 332.779,95.971 334.504,95.971 334.504,89.701 335.329,89.701 335.329,86.901 334.504,86.901 334.504,83.671 332.779,83.671 332.779,82.751 329.479,82.751 329.479,83.671 327.754,83.671 327.754,86.901 326.229,86.901 326.229,86.301 327.029,86.301 327.029,83.201 326.229,83.201 326.229,82.201" style="fill:none;stroke-width:0.050000mm;stroke:blue"/>
<polygon points="281.273,82.201 281.273,83.201 280.473,83.201 280.473,86.301 281.273,86.301 281.273,92.101 280.473,92.101 280.473,95.201 281.273,95.201 281.273,96.201 295.273,96.201 295.273,95.201 296.073,95.201 296.073,92.101 295.273,92.101 295.273,86.301 296.073,86.301 296.073,83.201 295.273,83.201 295.273,82.201" style="fill:none;stroke-width:0.050000mm;stroke:blue"/>
<polygon points="262.223,82.201 262.223,83.201 261.423,83.201 261.423,86.301 262.223,86.301 262.223,92.101 261.423,92.101 261.423,95.201 262.223,95.201 262.223,96.201 276.223,96.201 276.223,95.201 277.023,95.201 277.023,92.101 276.223,92.101 276.223,86.301 277.023,86.301 277.023,83.201 276.223,83.201 276.223,82.201" style="fill:none;stroke-width:0.050000mm;stroke:blue"/>
<polygon points="53.626,82.201 53.626,83.201 52.826,83.201 52.826,86.301 53.626,86.301 53.626,92.101 52.826,92.101 52.826,95.201 53.626,95.201 53.626,96.201 67.626,96.201 67.626,95.201 68.426,95.201 68.426,92.101 67.626,92.101 67.626,86.301 68.426,86.301 68.426,83.201 67.626,83.201 67.626,82.201" style="fill:none;stroke-width:0.050000mm;stroke:blue"/>
<polygon points="27.432,82.201 27.432,83.201 26.632,83.201 26.632,86.301 27.432,86.301 27.432,92.101 26.632,92.101 26.632,95.201 27.432,95.201 27.432,96.201 41.432,96.201 41.432,95.201 42.232,95.201 42.232,92.101 41.432,92.101 41.432,86.301 42.232,86.301 42.232,83.201 41.432,83.201 41.432,82.201" style="fill:none;stroke-width:0.050000mm;stroke:blue"/>
<polygon points="174.986,81.377 175.194,82.355 174.411,82.521 175.056,85.553 175.838,85.387 177.044,91.060 176.262,91.227 176.906,94.259 177.689,94.093 177.896,95.071 191.591,92.160 191.383,91.182 192.165,91.016 191.521,87.983 190.738,88.150 189.532,82.476 190.315,82.310 189.670,79.278 188.888,79.444 188.680,78.466" style="fill:none;stroke-width:0.050000mm;stroke:blue"/>
<polygon points="347.948,77.438 347.948,78.438 347.148,78.438 347.148,81.538 347.948,81.538 347.948,87.338 347.148,87.338 347.148,90.438 347.948,90.438 347.948,91.438 361.948,91.438 361.948,90.438 362.748,90.438 362.748,87.338 361.948,87.338 361.948,81.538 362.748,81.538 362.748,78.438 361.948,78.438 361.948,77.438" style="fill:none;stroke-width:0.050000mm;stroke:blue"/>
<polygon points="193.619,77.416 193.827,78.394 193.045,78.560 193.689,81.593 194.472,81.426 195.678,87.100 194.895,87.266 195.540,90.298 196.322,90.132 196.530,91.110 210.224,88.199 210.016,87.221 210.799,87.055 210.154,84.023 209.372,84.189 208.166,78.516 208.948,78.349 208.304,75.317 207.521,75.483 207.313,74.505" style="fill:none;stroke-width:0.050000mm;stroke:blue"/>
<polygon points="132.873,74.341 132.091,74.174 131.446,77.207 132.229,77.373 131.021,83.046 130.240,82.880 129.596,85.912 130.378,86.079 130.170,87.057 143.864,89.967 144.072,88.989 144.855,89.156 145.499,86.123 144.717,85.957 145.923,80.284 146.705,80.450 147.350,77.418 146.567,77.252 146.775,76.273 133.081,73.363" style="fill:none;stroke-width:0.050000mm;stroke:blue"/>
<polygon points="212.253,73.455 212.461,74.433 211.679,74.600 212.323,77.632 213.106,77.466 214.311,83.139 213.529,83.305 214.173,86.338 214.956,86.171 215.164,87.149 228.858,84.239 228.650,83.260 229.433,83.094 228.788,80.062 228.006,80.228 226.800,74.555 227.582,74.389 226.938,71.356 226.155,71.523 225.947,70.545" style="fill:none;stroke-width:0.050000mm;stroke:blue"/>
<polygon points="114.239,70.380 113.457,70.214 112.812,73.246 113.595,73.412 112.389,79.086 111.607,78.919 110.962,81.951 111.745,82.118 111.537,83.096 125.231,86.007 125.439,85.029 126.221,85.195 126.866,82.163 126.083,81.996 127.289,76.323 128.072,76.489 128.716,73.457 127.934,73.291 128.140,72.313 114.447,69.402" style="fill:none;stroke-width:0.050000mm;stroke:blue"/>
<polygon points="230.887,69.495 231.095,70.473 230.312,70.639 230.957,73.671 231.739,73.505 232.945,79.178 232.163,79.345 232.807,82.377 233.590,82.210 233.798,83.189 247.492,80.278 247.284,79.300 248.066,79.133 247.422,76.101 246.639,76.267 245.433,70.594 246.216,70.428 245.571,67.396 244.789,67.562 244.581,66.584" style="fill:none;stroke-width:0.050000mm;stroke:blue"/>
<polygon points="95.606,66.419 94.823,66.253 94.179,69.285 94.961,69.452 93.755,75.125 92.973,74.959 92.328,77.991 93.111,78.157 92.903,79.135 106.597,82.046 106.805,81.068 107.587,81.234 108.232,78.202 107.449,78.036 108.655,72.362 109.438,72.529 110.082,69.496 109.300,69.330 109.508,68.352 95.814,65.441" style="fill:none;stroke-width:0.050000mm;stroke:blue"/>
<polygon points="249.521,65.534 249.728,66.512 248.946,66.678 249.590,69.711 250.373,69.544 251.579,75.218 250.796,75.384 251.441,78.416 252.223,78.250 252.431,79.228 266.125,76.317 265.917,75.339 266.700,75.173 266.055,72.140 265.273,72.307 264.067,66.634 264.850,66.467 264.205,63.435 263.423,63.601 263.215,62.623" style="fill:none;stroke-width:0.050000mm;stroke:blue"/>
<polygon points="76.972,62.459 76.190,62.292 75.545,65.325 76.328,65.490 75.122,71.164 74.339,70.998 73.695,74.030 74.477,74.196 74.269,75.175 87.963,78.085 88.171,77.107 88.954,77.273 89.598,74.241 88.816,74.075 90.022,68.402 90.804,68.568 91.449,65.536 90.666,65.368 90.874,64.391 77.180,61.480" style="fill:none;stroke-width:0.050000mm;stroke:blue"/>
<polygon points="314.611,63.151 314.611,64.151 313.811,64.151 313.811,67.251 314.611,67.251 314.611,73.051 313.811,73.051 313.811,76.151 314.611,76.151 314.611,77.151 328.611,77.151 328.611,76.151 329.411,76.151 329.411,73.051 328.611,73.051 328.611,67.251 329.411,67.251 329.411,64.151 328.611,64.151 328.611,63.151" style="fill:none;stroke-width:0.050000mm;stroke:blue"/>
<polygon points="290.798,63.151 290.798,64.151 289.998,64.151 289.998,67.251 290.798,67.251 290.798,73.051 289.998,73.051 289.998,76.151 290.798,76.151 290.798,77.151 304.798,77.151 304.798,76.151 305.598,76.151 305.598,73.051 304.798,73.051 304.798,67.251 305.598,67.251 305.598,64.151 304.798,64.151 304.798,63.151" style="fill:none;stroke-width:0.050000mm;stroke:blue"/>
<polygon points="271.748,63.151 271.748,64.151 270.948,64.151 270.948,67.251 271.748,67.251 271.748,73.051 270.948,73.051 270.948,76.151 271.748,76.151 271.748,77.151 285.748,77.151 285.748,76.151 286.548,76.151 286.548,73.051 285.748,73.051 285.748,67.251 286.548,67.251 286.548,64.151 285.748,64.151 285.748,63.151" style="fill:none;stroke-width:0.050000mm;stroke:blue"/>
<polygon points="53.626,63.151 53.626,64.151 52.826,64.151 52.826,67.251 53.626,67.251 53.626,73.051 52.826,73.051 52.826,76.151 53.626,76.151 53.626,77.151 67.626,77.151 67.626,76.151 68.426,76.151 68.426,73.051 67.626,73.051 67.626,67.251 68.426,67.251 68.426,64.151 67.626,64.151 67.626,63.151" style="fill:none;stroke-width:0.050000mm;stroke:blue"/>
<polygon points="29.813,63.151 29.813,64.151 29.013,64.151 29.013,67.251 29.813,67.251 29.813,73.051 29.013,73.051 29.013,76.151 29.813,76.151 29.813,77.151 43.813,77.151 43.813,76.151 44.613,76.151 44.613,73.051 43.813,73.051 43.813,67.251 44.613,67.251 44.613,64.151 43.813,64.151 43.813,63.151" style="fill:none;stroke-width:0.050000mm;stroke:blue"/>
<polygon points="180.342,60.763 180.550,61.741 179.767,61.907 180.412,64.939 181.194,64.773 182.400,70.446 181.618,70.613 182.262,73.645 183.045,73.479 183.253,74.457 196.947,71.546 196.739,70.568 197.521,70.401 196.877,67.369 196.094,67.536 194.888,61.862 195.671,61.696 195.026,58.664 194.244,58.830 194.036,57.852" style="fill:none;stroke-width:0.050000mm;stroke:blue"/>
<polygon points="146.151,57.687 145.368,57.521 144.724,60.553 145.506,60.720 144.300,66.393 143.518,66.227 142.873,69.259 143.656,69.425 143.448,70.403 157.142,73.314 157.350,72.336 158.132,72.502 158.777,69.470 157.994,69.304 159.200,63.630 159.983,63.797 160.627,60.765 159.845,60.598 160.053,59.620 146.359,56.709" style="fill:none;stroke-width:0.050000mm;stroke:blue"/>
<polygon points="343.186,58.388 343.186,59.388 342.386,59.388 342.386,62.488 343.186,62.488 343.186,68.288 342.386,68.288 342.386,71.388 343.186,71.388 343.186,72.388 357.186,72.388 357.186,71.388 357.986,71.388 357.986,68.288 357.186,68.288 357.186,62.488 357.986,62.488 357.986,59.388 357.186,59.388 357.186,58.388" style="fill:none;stroke-width:0.050000mm;stroke:blue"/>
<polygon points="198.976,56.802 199.183,57.780 198.401,57.946 199.045,60.979 199.828,60.812 201.034,66.486 200.251,66.652 200.896,69.684 201.678,69.518 201.886,70.496 215.580,67.585 215.372,66.607 216.155,66.441 215.510,63.409 214.728,63.575 213.522,57.902 214.305,57.735 213.660,54.703 212.878,54.869 212.670,53.891" style="fill:none;stroke-width:0.050000mm;stroke:blue"/>
<polygon points="127.517,53.727 126.735,53.560 126.090,56.593 126.873,56.759 125.667,62.432 124.884,62.266 124.240,65.298 125.022,65.463 124.814,66.443 138.508,69.353 138.716,68.375 139.499,68.542 140.143,65.508 139.361,65.343 140.567,59.670 141.349,59.836 141.994,56.804 141.211,56.637 141.419,55.659 127.725,52.749" style="fill:none;stroke-width:0.050000mm;stroke:blue"/>
<polygon points="217.609,52.841 217.817,53.819 217.035,53.986 217.679,57.018 218.462,56.852 219.668,62.525 218.885,62.691 219.530,65.723 220.312,65.557 220.520,66.535 234.214,63.625 234.006,62.646 234.789,62.480 234.144,59.448 233.362,59.614 232.156,53.941 232.938,53.775 232.294,50.742 231.511,50.909 231.303,49.930" style="fill:none;stroke-width:0.050000mm;stroke:blue"/>
<polygon points="108.883,49.766 108.101,49.600 107.456,52.632 108.239,52.798 107.033,58.471 106.250,58.305 105.606,61.337 106.388,61.504 106.181,62.482 119.875,65.392 120.082,64.415 120.865,64.581 121.510,61.549 120.727,61.382 121.933,55.709 122.715,55.875 123.360,52.843 122.577,52.677 122.785,51.699 109.091,48.788" style="fill:none;stroke-width:0.050000mm;stroke:blue"/>
<polygon points="236.243,48.881 236.451,49.859 235.668,50.025 236.313,53.057 237.095,52.891 238.301,58.564 237.519,58.730 238.163,61.763 238.946,61.596 239.154,62.575 252.848,59.664 252.640,58.686 253.422,58.519 252.778,55.487 251.995,55.653 250.789,49.980 251.572,49.814 250.927,46.782 250.145,46.948 249.937,45.970" style="fill:none;stroke-width:0.050000mm;stroke:blue"/>
<polygon points="90.250,45.805 89.467,45.639 88.823,48.671 89.605,48.838 88.399,54.511 87.617,54.344 86.972,57.377 87.755,57.543 87.547,58.521 101.241,61.432 101.449,60.454 102.231,60.620 102.876,57.588 102.093,57.422 103.299,51.748 104.082,51.915 104.726,48.882 103.944,48.716 104.152,47.738 90.458,44.827" style="fill:none;stroke-width:0.050000mm;stroke:blue"/>
<polygon points="306.038,44.101 306.038,45.101 305.238,45.101 305.238,48.201 306.038,48.201 306.038,48.801 304.513,48.801 304.513,45.571 302.788,45.571 302.788,44.651 299.488,44.651 299.488,45.571 297.763,45.571 297.763,48.801 296.938,48.801 296.938,51.601 297.763,51.601 297.763,57.871 299.488,57.871 299.488,58.851 302.788,58.851 302.788,57.871 304.513,57.871 304.513,53.401 306.038,53.401 306.038,54.001 305.238,54.001 305.238,57.101 306.038,57.101 306.038,58.101 320.038,58.101 320.038,57.101 320.838,57.101 320.838,54.001 320.038,54.001 320.038,53.401 321.563,53.401 321.563,57.871 323.288,57.871 323.288,58.851 326.588,58.851 326.588,57.871 328.313,57.871 328.313,51.601 329.138,51.601 329.138,48.801 328.313,48.801 328.313,45.571 326.588,45.571 326.588,44.651 323.288,44.651 323.288,45.571 321.563,45.571 321.563,48.801 320.038,48.801 320.038,48.201 320.838,48.201 320.838,45.101 320.038,45.101 320.038,44.101" style="fill:none;stroke-width:0.050000mm;stroke:blue"/>
<polygon points="276.511,44.101 276.511,45.101 275.711,45.101 275.711,48.201 276.511,48.201 276.511,54.001 275.711,54.001 275.711,57.101 276.511,57.101 276.511,58.101 290.511,58.101 290.511,57.101 291.311,57.101 291.311,54.001 290.511,54.001 290.511,48.201 291.311,48.201 291.311,45.101 290.511,45.101 290.511,44.101" style="fill:none;stroke-width:0.050000mm;stroke:blue"/>
<polygon points="48.863,44.101 48.863,45.101 48.063,45.101 48.063,48.201 48.863,48.201 48.863,54.001 48.063,54.001 48.063,57.101 48.863,57.101 48.863,58.101 62.863,58.101 62.863,57.101 63.663,57.101 63.663,54.001 62.863,54.001 62.863,48.201 63.663,48.201 63.663,45.101 62.863,45.101 62.863,44.101" style="fill:none;stroke-width:0.050000mm;stroke:blue"/>
<polygon points="29.813,44.101 29.813,45.101 29.013,45.101 29.013,48.201 29.813,48.201 29.813,54.001 29.013,54.001 29.013,57.101 29.813,57.101 29.813,58.101 43.813,58.101 43.813,57.101 44.613,57.101 44.613,54.001 43.813,54.001 43.813,48.201 44.613,48.201 44.613,45.101 43.813,45.101 43.813,44.101" style="fill:none;stroke-width:0.050000mm;stroke:blue"/>
<polygon points="257.460,41.243 257.460,42.243 256.661,42.243 256.661,45.343 257.460,45.343 257.460,51.143 256.661,51.143 256.661,54.243 257.460,54.243 257.460,55.243 271.461,55.243 271.461,54.243 272.261,54.243 272.261,51.143 271.461,51.143 271.461,45.343 272.261,45.343 272.261,42.243 271.461,42.243 271.461,41.243" style="fill:none;stroke-width:0.050000mm;stroke:blue"/>
<polygon points="67.913,41.243 67.913,42.243 67.113,42.243 67.113,45.343 67.913,45.343 67.913,51.143 67.113,51.143 67.113,54.243 67.913,54.243 67.913,55.243 81.913,55.243 81.913,54.243 82.713,54.243 82.713,51.143 81.913,51.143 81.913,45.343 82.713,45.343 82.713,42.243 81.913,42.243 81.913,41.243" style="fill:none;stroke-width:0.050000mm;stroke:blue"/>
<polygon points="338.423,39.338 338.423,40.338 337.623,40.338 337.623,43.438 338.423,43.438 338.423,49.238 337.623,49.238 337.623,52.338 338.423,52.338 338.423,53.338 352.423,53.338 352.423,52.338 353.223,52.338 353.223,49.238 352.423,49.238 352.423,43.438 353.223,43.438 353.223,40.338 352.423,40.338 352.423,39.338" style="fill:none;stroke-width:0.050000mm;stroke:blue"/>
<polygon points="180.049,36.480 180.257,37.458 179.475,37.625 180.119,40.657 180.902,40.491 182.108,46.164 181.325,46.330 181.970,49.363 182.752,49.196 182.960,50.174 196.654,47.264 196.446,46.285 197.229,46.119 196.584,43.087 195.802,43.253 194.596,37.580 195.378,37.414 194.734,34.381 193.951,34.548 193.743,33.570" style="fill:none;stroke-width:0.050000mm;stroke:blue"/>
<polygon points="146.443,33.405 145.661,33.239 145.016,36.271 145.799,36.437 144.593,42.111 143.810,41.944 143.166,44.977 143.948,45.143 143.740,46.121 157.434,49.032 157.642,48.054 158.425,48.220 159.069,45.188 158.287,45.021 159.493,39.348 160.275,39.514 160.920,36.482 160.137,36.316 160.345,35.338 146.651,32.427" style="fill:none;stroke-width:0.050000mm;stroke:blue"/>
<polygon points="198.683,32.520 198.891,33.498 198.108,33.664 198.753,36.696 199.536,36.530 200.741,42.203 199.959,42.370 200.603,45.402 201.386,45.236 201.594,46.214 215.288,43.303 215.080,42.325 215.863,42.158 215.218,39.126 214.435,39.293 213.230,33.619 214.012,33.453 213.368,30.421 212.585,30.587 212.377,29.609" style="fill:none;stroke-width:0.050000mm;stroke:blue"/>
<polygon points="127.810,29.444 127.027,29.278 126.382,32.309 127.165,32.477 125.959,38.150 125.177,37.984 124.532,41.016 125.315,41.182 125.107,42.160 138.801,45.071 139.009,44.093 139.791,44.259 140.436,41.227 139.653,41.061 140.859,35.387 141.642,35.554 142.286,32.521 141.504,32.355 141.712,31.377 128.015,28.466" style="fill:none;stroke-width:0.050000mm;stroke:blue"/>
<polygon points="221.975,27.569 222.183,28.547 221.401,28.713 222.045,31.745 222.828,31.579 224.034,37.252 223.251,37.419 223.896,40.451 224.678,40.285 224.886,41.263 238.580,38.352 238.372,37.374 239.155,37.208 238.510,34.175 237.728,34.342 236.522,28.668 237.304,28.502 236.660,25.470 235.877,25.636 235.669,24.658" style="fill:none;stroke-width:0.050000mm;stroke:blue"/>
<polygon points="104.517,24.493 103.735,24.327 103.090,27.359 103.873,27.526 102.667,33.199 101.884,33.033 101.240,36.065 102.022,36.231 101.815,37.209 115.509,40.120 115.717,39.142 116.499,39.308 117.144,36.276 116.361,36.110 117.567,30.436 118.349,30.603 118.994,27.571 118.211,27.404 118.419,26.426 104.725,23.515" style="fill:none;stroke-width:0.050000mm;stroke:blue"/>
<polygon points="240.609,23.608 240.817,24.586 240.034,24.752 240.679,27.785 241.461,27.618 242.667,33.292 241.885,33.458 242.529,36.490 243.312,36.324 243.520,37.302 257.214,34.391 257.006,33.413 257.787,33.247 257.143,30.215 256.361,30.381 255.155,24.708 255.938,24.541 255.293,21.509 254.511,21.675 254.303,20.697" style="fill:none;stroke-width:0.050000mm;stroke:blue"/>
<polygon points="85.884,20.533 85.101,20.366 84.457,23.399 85.239,23.565 84.033,29.238 83.251,29.072 82.606,32.104 83.389,32.271 83.181,33.249 96.875,36.159 97.083,35.181 97.865,35.348 98.510,32.315 97.727,32.149 98.933,26.476 99.716,26.642 100.360,23.610 99.578,23.444 99.786,22.465 86.092,19.555" style="fill:none;stroke-width:0.050000mm;stroke:blue"/>
<polygon points="333.660,20.288 333.660,21.288 332.860,21.288 332.860,24.388 333.660,24.388 333.660,30.188 332.860,30.188 332.860,33.288 333.660,33.288 333.660,34.288 347.660,34.288 347.660,33.288 348.461,33.288 348.461,30.188 347.660,30.188 347.660,24.388 348.461,24.388 348.461,21.288 347.660,21.288 347.660,20.288" style="fill:none;stroke-width:0.050000mm;stroke:blue"/>
<polygon points="306.038,20.288 306.038,21.288 305.238,21.288 305.238,24.388 306.038,24.388 306.038,30.188 305.238,30.188 305.238,33.288 306.038,33.288 306.038,34.288 320.038,34.288 320.038,33.288 320.838,33.288 320.838,30.188 320.038,30.188 320.038,24.388 320.838,24.388 320.838,21.288 320.038,21.288 320.038,20.288" style="fill:none;stroke-width:0.050000mm;stroke:blue"/>
<polygon points="19.336,20.288 19.336,21.288 18.536,21.288 18.536,24.388 19.336,24.388 19.336,30.188 18.536,30.188 18.536,33.288 19.336,33.288 19.336,34.288 33.336,34.288 33.336,33.288 34.136,33.288 34.136,30.188 33.336,30.188 33.336,24.388 34.136,24.388 34.136,21.288 33.336,21.288 33.336,20.288" style="fill:none;stroke-width:0.050000mm;stroke:blue"/>
<polygon points="263.176,19.336 263.176,20.336 262.376,20.336 262.376,23.436 263.176,23.436 263.176,29.236 262.376,29.236 262.376,32.336 263.176,32.336 263.176,33.336 277.176,33.336 277.176,32.336 277.976,32.336 277.976,29.236 277.176,29.236 277.176,23.436 277.976,23.436 277.976,20.336 277.176,20.336 277.176,19.336" style="fill:none;stroke-width:0.050000mm;stroke:blue"/>
<polygon points="63.151,19.336 63.151,20.336 62.351,20.336 62.351,23.436 63.151,23.436 63.151,29.236 62.351,29.236 62.351,32.336 63.151,32.336 63.151,33.336 77.151,33.336 77.151,32.336 77.951,32.336 77.951,29.236 77.151,29.236 77.151,23.436 77.951,23.436 77.951,20.336 77.151,20.336 77.151,19.336" style="fill:none;stroke-width:0.050000mm;stroke:blue"/>
<polygon points="282.226,19.336 282.226,20.336 281.426,20.336 281.426,23.436 282.226,23.436 282.226,29.236 281.426,29.236 281.426,32.336 282.226,32.336 282.226,33.336 296.226,33.336 296.226,32.336 297.026,32.336 297.026,29.236 296.226,29.236 296.226,23.436 297.026,23.436 297.026,20.336 296.226,20.336 296.226,19.336" style="fill:none;stroke-width:0.050000mm;stroke:blue"/>
<polygon points="44.101,19.336 44.101,20.336 43.301,20.336 43.301,23.436 44.101,23.436 44.101,29.236 43.301,29.236 43.301,32.336 44.101,32.336 44.101,33.336 58.101,33.336 58.101,32.336 58.901,32.336 58.901,29.236 58.101,29.236 58.101,23.436 58.901,23.436 58.901,20.336 58.101,20.336 58.101,19.336" style="fill:none;stroke-width:0.050000mm;stroke:blue"/>
<polygon points="8.691,8.049 8.413,8.190 8.190,8.413 8.049,8.691 8.000,9.001 8.049,9.310 8.190,9.588 8.413,9.810 8.691,9.952 9.000,10.001 9.310,9.952 9.588,9.810 9.810,9.588 9.952,9.310 10.001,9.001 9.952,8.691 9.810,8.413 9.588,8.190 9.310,8.049 9.001,8.001" style="fill:none;stroke-width:0.050000mm;stroke:blue"/>
<polygon points="368.165,8.049 367.886,8.190 367.665,8.413 367.523,8.691 367.474,9.001 367.523,9.310 367.665,9.588 367.886,9.810 368.165,9.952 368.474,10.001 368.783,9.952 369.062,9.810 369.283,9.588 369.425,9.310 369.474,9.001 369.425,8.691 369.283,8.413 369.062,8.190 368.783,8.049 368.474,8.001" style="fill:none;stroke-width:0.050000mm;stroke:blue"/>
<polygon points="248.340,8.049 248.062,8.190 247.840,8.413 247.698,8.691 247.650,9.001 247.698,9.310 247.840,9.588 248.062,9.810 248.340,9.952 248.650,10.001 248.959,9.952 249.237,9.810 249.459,9.588 249.601,9.310 249.650,9.001 249.601,8.691 249.459,8.413 249.237,8.190 248.959,8.049 248.650,8.001" style="fill:none;stroke-width:0.050000mm;stroke:blue"/>
<polygon points="128.515,8.049 128.236,8.190 128.015,8.413 127.874,8.691 127.825,9.001 127.874,9.310 128.015,9.588 128.236,9.810 128.515,9.952 128.825,10.001 129.134,9.952 129.413,9.810 129.634,9.588 129.776,9.310 129.825,9.001 129.776,8.691 129.634,8.413 129.413,8.190 129.134,8.049 128.825,8.001" style="fill:none;stroke-width:0.050000mm;stroke:blue"/>
</svg>
