<?xml version="1.0"?>
<!-- Generated by SVGo -->
<svg width="332.802mm" height="121.252mm"
     viewBox="0.000 0.000 332.802 121.252"
     xmlns="http://www.w3.org/2000/svg" 
     xmlns:xlink="http://www.w3.org/1999/xlink">
<polygon points="326.802,5.001 326.880,5.004 326.958,5.013 327.035,5.028 327.111,5.049 327.184,5.077 327.255,5.109 327.324,5.148 327.389,5.191 327.451,5.240 327.509,5.293 327.562,5.351 327.611,5.413 327.654,5.478 327.693,5.547 327.725,5.618 327.753,5.691 327.774,5.767 327.789,5.844 327.798,5.922 327.802,6.001 327.802,115.251 327.798,115.330 327.789,115.408 327.774,115.485 327.753,115.561 327.725,115.634 327.693,115.705 327.654,115.774 327.611,115.839 327.562,115.901 327.509,115.959 327.451,116.012 327.389,116.061 327.324,116.104 327.255,116.143 327.184,116.175 327.111,116.203 327.035,116.224 326.958,116.239 326.880,116.248 326.802,116.252 6.001,116.251 5.922,116.248 5.844,116.239 5.767,116.224 5.691,116.203 5.618,116.175 5.547,116.143 5.478,116.104 5.413,116.061 5.351,116.012 5.293,115.959 5.240,115.901 5.191,115.839 5.148,115.774 5.109,115.705 5.077,115.634 5.049,115.561 5.028,115.485 5.013,115.408 5.004,115.330 5.000,115.251 5.001,6.001 5.004,5.922 5.013,5.844 5.028,5.767 5.049,5.691 5.077,5.618 5.109,5.547 5.148,5.478 5.191,5.413 5.240,5.351 5.293,5.293 5.351,5.240 5.413,5.191 5.478,5.148 5.547,5.109 5.618,5.077 5.691,5.049 5.767,5.028 5.844,5.013 5.922,5.004 6.001,5.000" style="fill:none;stroke-width:0.050000mm;stroke:black"/>
<polygon points="8.537,110.825 8.119,111.038 7.787,111.370 7.574,111.788 7.501,112.251 7.574,112.715 7.787,113.133 8.119,113.465 8.537,113.678 9.001,113.751 9.464,113.678 9.882,113.465 10.214,113.133 10.427,112.715 10.501,112.251 10.427,111.788 10.214,111.370 9.882,111.038 9.464,110.825 9.001,110.751" style="fill:none;stroke-width:0.050000mm;stroke:black"/>
<polygon points="113.471,110.825 113.052,111.038 112.721,111.370 112.508,111.788 112.434,112.251 112.508,112.715 112.721,113.133 113.052,113.465 113.471,113.678 113.934,113.751 114.398,113.678 114.816,113.465 115.148,113.133 115.361,112.715 115.434,112.251 115.361,111.788 115.148,111.370 114.816,111.038 114.398,110.825 113.934,110.751" style="fill:none;stroke-width:0.050000mm;stroke:black"/>
<polygon points="218.404,110.825 217.986,111.038 217.654,111.370 217.441,111.788 217.368,112.251 217.441,112.715 217.654,113.133 217.986,113.465 218.404,113.678 218.868,113.751 219.331,113.678 219.750,113.465 220.081,113.133 220.294,112.715 220.368,112.251 220.294,111.788 220.081,111.370 219.750,111.038 219.331,110.825 218.868,110.751" style="fill:none;stroke-width:0.050000mm;stroke:black"/>
<polygon points="323.338,110.825 322.920,111.038 322.588,111.370 322.375,111.788 322.302,112.251 322.375,112.715 322.588,113.133 322.920,113.465 323.338,113.678 323.802,113.751 324.265,113.678 324.683,113.465 325.015,113.133 325.228,112.715 325.302,112.251 325.228,111.788 325.015,111.370 324.683,111.038 324.265,110.825 323.802,110.751" style="fill:none;stroke-width:0.050000mm;stroke:black"/>
<polygon points="177.069,91.726 177.069,96.426 175.544,96.426 175.544,93.196 168.794,93.196 168.794,96.426 167.969,96.426 167.969,99.226 168.794,99.226 168.794,105.495 170.519,105.495 170.519,106.696 173.819,106.696 173.819,105.495 175.544,105.495 175.544,101.025 177.069,101.025 177.069,105.726 191.069,105.726 191.069,101.025 192.594,101.025 192.594,105.495 194.319,105.495 194.319,106.696 197.619,106.696 197.619,105.495 199.344,105.495 199.344,99.226 200.169,99.226 200.169,96.426 199.344,96.426 199.344,93.196 192.594,93.196 192.594,96.426 191.069,96.426 191.069,91.726" style="fill:none;stroke-width:0.050000mm;stroke:black"/>
<polygon points="105.632,91.726 105.632,96.426 104.107,96.426 104.107,93.196 97.357,93.196 97.357,96.426 96.532,96.426 96.532,99.226 97.357,99.226 97.357,105.495 99.082,105.495 99.082,106.696 102.382,106.696 102.382,105.495 104.107,105.495 104.107,101.025 105.632,101.025 105.632,105.726 119.632,105.726 119.632,101.025 121.157,101.025 121.157,105.495 122.882,105.495 122.882,106.696 126.182,106.696 126.182,105.495 127.907,105.495 127.907,99.226 128.732,99.226 128.732,96.426 127.907,96.426 127.907,93.196 121.157,93.196 121.157,96.426 119.632,96.426 119.632,91.726" style="fill:none;stroke-width:0.050000mm;stroke:black"/>
<polygon points="303.276,91.726 303.276,105.726 317.276,105.726 317.276,91.726" style="fill:none;stroke-width:0.050000mm;stroke:black"/>
<polygon points="284.226,91.726 284.226,105.726 298.226,105.726 298.226,91.726" style="fill:none;stroke-width:0.050000mm;stroke:black"/>
<polygon points="265.176,91.726 265.176,105.726 279.176,105.726 279.176,91.726" style="fill:none;stroke-width:0.050000mm;stroke:black"/>
<polygon points="212.788,91.726 212.788,105.726 226.788,105.726 226.788,91.726" style="fill:none;stroke-width:0.050000mm;stroke:black"/>
<polygon points="138.969,91.726 138.969,105.726 152.969,105.726 152.969,91.726" style="fill:none;stroke-width:0.050000mm;stroke:black"/>
<polygon points="74.676,91.726 74.676,105.726 88.676,105.726 88.676,91.726" style="fill:none;stroke-width:0.050000mm;stroke:black"/>
<polygon points="19.907,91.726 19.907,105.726 33.907,105.726 33.907,91.726" style="fill:none;stroke-width:0.050000mm;stroke:black"/>
<polygon points="29.432,72.676 29.432,77.376 27.907,77.376 27.907,74.146 21.157,74.146 21.157,77.376 20.332,77.376 20.332,80.176 21.157,80.176 21.157,86.446 22.882,86.446 22.882,87.646 26.182,87.646 26.182,86.446 27.907,86.446 27.907,81.976 29.432,81.976 29.432,86.676 43.432,86.676 43.432,81.976 44.957,81.976 44.957,86.446 46.682,86.446 46.682,87.646 49.982,87.646 49.982,86.446 51.707,86.446 51.707,80.176 52.532,80.176 52.532,77.376 51.707,77.376 51.707,74.146 44.957,74.146 44.957,77.376 43.432,77.376 43.432,72.676" style="fill:none;stroke-width:0.050000mm;stroke:black"/>
<polygon points="303.276,72.676 303.276,86.676 317.276,86.676 317.276,72.676" style="fill:none;stroke-width:0.050000mm;stroke:black"/>
<polygon points="284.226,72.676 284.226,86.676 298.226,86.676 298.226,72.676" style="fill:none;stroke-width:0.050000mm;stroke:black"/>
<polygon points="258.032,72.676 258.032,86.676 272.032,86.676 272.032,72.676" style="fill:none;stroke-width:0.050000mm;stroke:black"/>
<polygon points="231.838,72.676 231.838,86.676 245.838,86.676 245.838,72.676" style="fill:none;stroke-width:0.050000mm;stroke:black"/>
<polygon points="212.788,72.676 212.788,86.676 226.788,86.676 226.788,72.676" style="fill:none;stroke-width:0.050000mm;stroke:black"/>
<polygon points="193.738,72.676 193.738,86.676 207.738,86.676 207.738,72.676" style="fill:none;stroke-width:0.050000mm;stroke:black"/>
<polygon points="174.688,72.676 174.688,86.676 188.688,86.676 188.688,72.676" style="fill:none;stroke-width:0.050000mm;stroke:black"/>
<polygon points="155.638,72.676 155.638,86.676 169.638,86.676 169.638,72.676" style="fill:none;stroke-width:0.050000mm;stroke:black"/>
<polygon points="136.588,72.676 136.588,86.676 150.588,86.676 150.588,72.676" style="fill:none;stroke-width:0.050000mm;stroke:black"/>
<polygon points="117.538,72.676 117.538,86.676 131.538,86.676 131.538,72.676" style="fill:none;stroke-width:0.050000mm;stroke:black"/>
<polygon points="98.488,72.676 98.488,86.676 112.488,86.676 112.488,72.676" style="fill:none;stroke-width:0.050000mm;stroke:black"/>
<polygon points="79.438,72.676 79.438,86.676 93.438,86.676 93.438,72.676" style="fill:none;stroke-width:0.050000mm;stroke:black"/>
<polygon points="60.388,72.676 60.388,86.676 74.388,86.676 74.388,72.676" style="fill:none;stroke-width:0.050000mm;stroke:black"/>
<polygon points="272.319,53.626 272.319,58.326 270.794,58.326 270.794,55.096 264.044,55.096 264.044,58.326 263.219,58.326 263.219,61.126 264.044,61.126 264.044,67.396 265.769,67.396 265.769,68.596 269.069,68.596 269.069,67.396 270.794,67.396 270.794,62.926 272.319,62.926 272.319,67.626 286.319,67.626 286.319,62.926 287.844,62.926 287.844,67.396 289.569,67.396 289.569,68.596 292.869,68.596 292.869,67.396 294.594,67.396 294.594,61.126 295.419,61.126 295.419,58.326 294.594,58.326 294.594,55.096 287.844,55.096 287.844,58.326 286.319,58.326 286.319,53.626" style="fill:none;stroke-width:0.050000mm;stroke:black"/>
<polygon points="303.276,53.626 303.276,67.626 317.276,67.626 317.276,53.626" style="fill:none;stroke-width:0.050000mm;stroke:black"/>
<polygon points="241.363,53.626 241.363,67.626 255.363,67.626 255.363,53.626" style="fill:none;stroke-width:0.050000mm;stroke:black"/>
<polygon points="222.313,53.626 222.313,67.626 236.313,67.626 236.313,53.626" style="fill:none;stroke-width:0.050000mm;stroke:black"/>
<polygon points="203.263,53.626 203.263,67.626 217.263,67.626 217.263,53.626" style="fill:none;stroke-width:0.050000mm;stroke:black"/>
<polygon points="184.213,53.626 184.213,67.626 198.213,67.626 198.213,53.626" style="fill:none;stroke-width:0.050000mm;stroke:black"/>
<polygon points="165.163,53.626 165.163,67.626 179.163,67.626 179.163,53.626" style="fill:none;stroke-width:0.050000mm;stroke:black"/>
<polygon points="146.113,53.626 146.113,67.626 160.113,67.626 160.113,53.626" style="fill:none;stroke-width:0.050000mm;stroke:black"/>
<polygon points="127.063,53.626 127.063,67.626 141.063,67.626 141.063,53.626" style="fill:none;stroke-width:0.050000mm;stroke:black"/>
<polygon points="108.013,53.626 108.013,67.626 122.013,67.626 122.013,53.626" style="fill:none;stroke-width:0.050000mm;stroke:black"/>
<polygon points="88.963,53.626 88.963,67.626 102.963,67.626 102.963,53.626" style="fill:none;stroke-width:0.050000mm;stroke:black"/>
<polygon points="69.913,53.626 69.913,67.626 83.913,67.626 83.913,53.626" style="fill:none;stroke-width:0.050000mm;stroke:black"/>
<polygon points="50.863,53.626 50.863,67.626 64.862,67.626 64.862,53.626" style="fill:none;stroke-width:0.050000mm;stroke:black"/>
<polygon points="24.669,53.626 24.669,67.626 38.669,67.626 38.669,53.626" style="fill:none;stroke-width:0.050000mm;stroke:black"/>
<polygon points="303.276,34.576 303.276,48.576 317.276,48.576 317.276,34.576" style="fill:none;stroke-width:0.050000mm;stroke:black"/>
<polygon points="279.463,34.576 279.463,48.576 293.463,48.576 293.463,34.576" style="fill:none;stroke-width:0.050000mm;stroke:black"/>
<polygon points="255.651,34.576 255.651,48.576 269.651,48.576 269.651,34.576" style="fill:none;stroke-width:0.050000mm;stroke:black"/>
<polygon points="236.601,34.576 236.601,48.576 250.601,48.576 250.601,34.576" style="fill:none;stroke-width:0.050000mm;stroke:black"/>
<polygon points="217.551,34.576 217.551,48.576 231.551,48.576 231.551,34.576" style="fill:none;stroke-width:0.050000mm;stroke:black"/>
<polygon points="198.501,34.576 198.501,48.576 212.501,48.576 212.501,34.576" style="fill:none;stroke-width:0.050000mm;stroke:black"/>
<polygon points="179.451,34.576 179.451,48.576 193.451,48.576 193.451,34.576" style="fill:none;stroke-width:0.050000mm;stroke:black"/>
<polygon points="160.401,34.576 160.401,48.576 174.401,48.576 174.401,34.576" style="fill:none;stroke-width:0.050000mm;stroke:black"/>
<polygon points="141.351,34.576 141.351,48.576 155.351,48.576 155.351,34.576" style="fill:none;stroke-width:0.050000mm;stroke:black"/>
<polygon points="122.301,34.576 122.301,48.576 136.301,48.576 136.301,34.576" style="fill:none;stroke-width:0.050000mm;stroke:black"/>
<polygon points="103.251,34.576 103.251,48.576 117.251,48.576 117.251,34.576" style="fill:none;stroke-width:0.050000mm;stroke:black"/>
<polygon points="84.201,34.576 84.201,48.576 98.201,48.576 98.201,34.576" style="fill:none;stroke-width:0.050000mm;stroke:black"/>
<polygon points="65.151,34.576 65.151,48.576 79.151,48.576 79.151,34.576" style="fill:none;stroke-width:0.050000mm;stroke:black"/>
<polygon points="46.101,34.576 46.101,48.576 60.101,48.576 60.101,34.576" style="fill:none;stroke-width:0.050000mm;stroke:black"/>
<polygon points="22.288,34.576 22.288,48.576 36.288,48.576 36.288,34.576" style="fill:none;stroke-width:0.050000mm;stroke:black"/>
<polygon points="274.701,15.525 274.701,20.225 273.176,20.225 273.176,16.995 266.426,16.995 266.426,20.225 265.601,20.225 265.601,23.026 266.426,23.026 266.426,29.295 268.151,29.295 268.151,30.495 271.451,30.495 271.451,29.295 273.176,29.295 273.176,24.826 274.701,24.826 274.701,29.526 288.701,29.526 288.701,24.826 290.226,24.826 290.226,29.295 291.951,29.295 291.951,30.495 295.251,30.495 295.251,29.295 296.976,29.295 296.976,23.026 297.801,23.026 297.801,20.225 296.976,20.225 296.976,16.995 290.226,16.995 290.226,20.225 288.701,20.225 288.701,15.525" style="fill:none;stroke-width:0.050000mm;stroke:black"/>
<polygon points="303.276,15.525 303.276,29.526 317.276,29.526 317.276,15.525" style="fill:none;stroke-width:0.050000mm;stroke:black"/>
<polygon points="246.126,15.525 246.126,29.526 260.126,29.526 260.126,15.525" style="fill:none;stroke-width:0.050000mm;stroke:black"/>
<polygon points="227.076,15.525 227.076,29.526 241.076,29.526 241.076,15.525" style="fill:none;stroke-width:0.050000mm;stroke:black"/>
<polygon points="208.026,15.525 208.026,29.526 222.026,29.526 222.026,15.525" style="fill:none;stroke-width:0.050000mm;stroke:black"/>
<polygon points="188.976,15.525 188.976,29.526 202.976,29.526 202.976,15.525" style="fill:none;stroke-width:0.050000mm;stroke:black"/>
<polygon points="169.926,15.525 169.926,29.526 183.926,29.526 183.926,15.525" style="fill:none;stroke-width:0.050000mm;stroke:black"/>
<polygon points="150.876,15.525 150.876,29.526 164.876,29.526 164.876,15.525" style="fill:none;stroke-width:0.050000mm;stroke:black"/>
<polygon points="131.826,15.525 131.826,29.526 145.826,29.526 145.826,15.525" style="fill:none;stroke-width:0.050000mm;stroke:black"/>
<polygon points="112.775,15.525 112.775,29.526 126.775,29.526 126.775,15.525" style="fill:none;stroke-width:0.050000mm;stroke:black"/>
<polygon points="93.726,15.525 93.726,29.526 107.726,29.526 107.726,15.525" style="fill:none;stroke-width:0.050000mm;stroke:black"/>
<polygon points="74.676,15.525 74.676,29.526 88.676,29.526 88.676,15.525" style="fill:none;stroke-width:0.050000mm;stroke:black"/>
<polygon points="55.626,15.525 55.626,29.526 69.626,29.526 69.626,15.525" style="fill:none;stroke-width:0.050000mm;stroke:black"/>
<polygon points="36.576,15.525 36.576,29.526 50.576,29.526 50.576,15.525" style="fill:none;stroke-width:0.050000mm;stroke:black"/>
<polygon points="17.526,15.525 17.526,29.526 31.526,29.526 31.526,15.525" style="fill:none;stroke-width:0.050000mm;stroke:black"/>
<polygon points="8.537,7.574 8.119,7.787 7.787,8.119 7.574,8.537 7.501,9.001 7.574,9.464 7.787,9.882 8.119,10.214 8.537,10.427 9.001,10.501 9.464,10.427 9.882,10.214 10.214,9.882 10.427,9.464 10.501,9.001 10.427,8.537 10.214,8.119 9.882,7.787 9.464,7.574 9.001,7.501" style="fill:none;stroke-width:0.050000mm;stroke:black"/>
<polygon points="323.338,7.574 322.920,7.787 322.588,8.119 322.375,8.537 322.302,9.001 322.375,9.464 322.588,9.882 322.920,10.214 323.338,10.427 323.802,10.501 324.265,10.427 324.683,10.214 325.015,9.882 325.228,9.464 325.302,9.001 325.228,8.537 325.015,8.119 324.683,7.787 324.265,7.574 323.802,7.501" style="fill:none;stroke-width:0.050000mm;stroke:black"/>
<polygon points="218.404,7.574 217.986,7.787 217.654,8.119 217.441,8.537 217.368,9.001 217.441,9.464 217.654,9.882 217.986,10.214 218.404,10.427 218.868,10.501 219.331,10.427 219.750,10.214 220.081,9.882 220.294,9.464 220.368,9.001 220.294,8.537 220.081,8.119 219.750,7.787 219.331,7.574 218.868,7.501" style="fill:none;stroke-width:0.050000mm;stroke:black"/>
<polygon points="113.471,7.574 113.052,7.787 112.721,8.119 112.508,8.537 112.434,9.001 112.508,9.464 112.721,9.882 113.052,10.214 113.471,10.427 113.934,10.501 114.398,10.427 114.816,10.214 115.148,9.882 115.361,9.464 115.434,9.001 115.361,8.537 115.148,8.119 114.816,7.787 114.398,7.574 113.934,7.501" style="fill:none;stroke-width:0.050000mm;stroke:black"/>
</svg>
