<?xml version="1.0"?>
<!-- Generated by SVGo -->
<svg width="332.802mm" height="121.252mm"
     viewBox="0.000 0.000 332.802 121.252"
     xmlns="http://www.w3.org/2000/svg" 
     xmlns:xlink="http://www.w3.org/1999/xlink">
<polygon points="326.802,5.001 326.880,5.004 326.958,5.013 327.035,5.028 327.111,5.049 327.184,5.077 327.255,5.109 327.324,5.148 327.389,5.191 327.451,5.240 327.509,5.293 327.562,5.351 327.611,5.413 327.654,5.478 327.693,5.547 327.725,5.618 327.753,5.691 327.774,5.767 327.789,5.844 327.798,5.922 327.802,6.001 327.802,115.251 327.798,115.330 327.789,115.408 327.774,115.485 327.753,115.561 327.725,115.634 327.693,115.705 327.654,115.774 327.611,115.839 327.562,115.901 327.509,115.959 327.451,116.012 327.389,116.061 327.324,116.104 327.255,116.143 327.184,116.175 327.111,116.203 327.035,116.224 326.958,116.239 326.880,116.248 326.802,116.252 6.001,116.251 5.922,116.248 5.844,116.239 5.767,116.224 5.691,116.203 5.618,116.175 5.547,116.143 5.478,116.104 5.413,116.061 5.351,116.012 5.293,115.959 5.240,115.901 5.191,115.839 5.148,115.774 5.109,115.705 5.077,115.634 5.049,115.561 5.028,115.485 5.013,115.408 5.004,115.330 5.000,115.251 5.001,6.001 5.004,5.922 5.013,5.844 5.028,5.767 5.049,5.691 5.077,5.618 5.109,5.547 5.148,5.478 5.191,5.413 5.240,5.351 5.293,5.293 5.351,5.240 5.413,5.191 5.478,5.148 5.547,5.109 5.618,5.077 5.691,5.049 5.767,5.028 5.844,5.013 5.922,5.004 6.001,5.000" style="fill:none;stroke-width:0.050000mm;stroke:black"/>
<polygon points="8.537,110.825 8.119,111.038 7.787,111.370 7.574,111.788 7.501,112.251 7.574,112.715 7.787,113.133 8.119,113.465 8.537,113.678 9.001,113.751 9.464,113.678 9.882,113.465 10.214,113.133 10.427,112.715 10.501,112.251 10.427,111.788 10.214,111.370 9.882,111.038 9.464,110.825 9.001,110.751" style="fill:none;stroke-width:0.050000mm;stroke:black"/>
<polygon points="113.471,110.825 113.052,111.038 112.721,111.370 112.508,111.788 112.434,112.251 112.508,112.715 112.721,113.133 113.052,113.465 113.471,113.678 113.934,113.751 114.398,113.678 114.816,113.465 115.148,113.133 115.361,112.715 115.434,112.251 115.361,111.788 115.148,111.370 114.816,111.038 114.398,110.825 113.934,110.751" style="fill:none;stroke-width:0.050000mm;stroke:black"/>
<polygon points="218.404,110.825 217.986,111.038 217.654,111.370 217.441,111.788 217.368,112.251 217.441,112.715 217.654,113.133 217.986,113.465 218.404,113.678 218.868,113.751 219.331,113.678 219.750,113.465 220.081,113.133 220.294,112.715 220.368,112.251 220.294,111.788 220.081,111.370 219.750,111.038 219.331,110.825 218.868,110.751" style="fill:none;stroke-width:0.050000mm;stroke:black"/>
<polygon points="323.338,110.825 322.920,111.038 322.588,111.370 322.375,111.788 322.302,112.251 322.375,112.715 322.588,113.133 322.920,113.465 323.338,113.678 323.802,113.751 324.265,113.678 324.683,113.465 325.015,113.133 325.228,112.715 325.302,112.251 325.228,111.788 325.015,111.370 324.683,111.038 324.265,110.825 323.802,110.751" style="fill:none;stroke-width:0.050000mm;stroke:black"/>
<polygon points="14.999,12.999 14.999,32.052 15.000,32.052 15.000,51.100 14.999,51.100 14.999,70.152 15.000,70.152 15.000,108.251 38.814,108.251 38.814,89.202 72.150,89.202 72.150,108.251 229.314,108.251 229.314,89.202 262.650,89.202 262.650,108.251 319.802,108.251 319.802,12.999" style="fill:none;stroke-width:0.050000mm;stroke:black"/>
<polygon points="8.537,7.574 8.119,7.787 7.787,8.119 7.574,8.537 7.501,9.001 7.574,9.464 7.787,9.882 8.119,10.214 8.537,10.427 9.001,10.501 9.464,10.427 9.882,10.214 10.214,9.882 10.427,9.464 10.501,9.001 10.427,8.537 10.214,8.119 9.882,7.787 9.464,7.574 9.001,7.501" style="fill:none;stroke-width:0.050000mm;stroke:black"/>
<polygon points="323.338,7.574 322.920,7.787 322.588,8.119 322.375,8.537 322.302,9.001 322.375,9.464 322.588,9.882 322.920,10.214 323.338,10.427 323.802,10.501 324.265,10.427 324.683,10.214 325.015,9.882 325.228,9.464 325.302,9.001 325.228,8.537 325.015,8.119 324.683,7.787 324.265,7.574 323.802,7.501" style="fill:none;stroke-width:0.050000mm;stroke:black"/>
<polygon points="218.404,7.574 217.986,7.787 217.654,8.119 217.441,8.537 217.368,9.001 217.441,9.464 217.654,9.882 217.986,10.214 218.404,10.427 218.868,10.501 219.331,10.427 219.750,10.214 220.081,9.882 220.294,9.464 220.368,9.001 220.294,8.537 220.081,8.119 219.750,7.787 219.331,7.574 218.868,7.501" style="fill:none;stroke-width:0.050000mm;stroke:black"/>
<polygon points="113.471,7.574 113.052,7.787 112.721,8.119 112.508,8.537 112.434,9.001 112.508,9.464 112.721,9.882 113.052,10.214 113.471,10.427 113.934,10.501 114.398,10.427 114.816,10.214 115.148,9.882 115.361,9.464 115.434,9.001 115.361,8.537 115.148,8.119 114.816,7.787 114.398,7.574 113.934,7.501" style="fill:none;stroke-width:0.050000mm;stroke:black"/>
</svg>
