<?xml version="1.0" encoding="UTF-8"?>
<!DOCTYPE svg PUBLIC "-//W3C//DTD SVG 1.1//EN" "http://www.w3.org/Graphics/SVG/1.1/DTD/svg11.dtd">
<!-- Creator: CorelDRAW 2020 (64-Bit) -->
<svg xmlns="http://www.w3.org/2000/svg" xml:space="preserve" width="370mm" height="520mm" version="1.1" style="shape-rendering:geometricPrecision; text-rendering:geometricPrecision; image-rendering:optimizeQuality; fill-rule:evenodd; clip-rule:evenodd"
viewBox="0 0 37000 52000"
 xmlns:xlink="http://www.w3.org/1999/xlink"
 xmlns:xodm="http://www.corel.com/coreldraw/odm/2003">
 <defs>
  <style type="text/css">
   <![CDATA[
    .str0 {stroke:#332C2B;stroke-width:20;stroke-miterlimit:22.9256}
    .str2 {stroke:#E62129;stroke-width:20;stroke-miterlimit:22.9256}
    .str4 {stroke:#769C9B;stroke-width:20;stroke-miterlimit:22.9256}
    .str1 {stroke:#332C2B;stroke-width:7.62;stroke-miterlimit:22.9256}
    .str3 {stroke:#E62129;stroke-width:7.62;stroke-miterlimit:22.9256}
    .str5 {stroke:#769C9B;stroke-width:7.62;stroke-miterlimit:22.9256}
    .str7 {stroke:black;stroke-width:30;stroke-linecap:round;stroke-linejoin:round;stroke-miterlimit:22.9256}
    .str6 {stroke:#BB002C;stroke-width:30;stroke-linecap:round;stroke-linejoin:round;stroke-miterlimit:22.9256}
    .fil0 {fill:none}
   ]]>
  </style>
 </defs>
 <g id="Layer_x0020_1">
  <metadata id="CorelCorpID_0Corel-Layer"/>
  <g id="top_x0020_layer_x0020_baru">
   <polygon class="fil0 str0" points="36445.08,310.91 36468.58,311.81 36491.98,314.51 36515.08,319.11 36537.78,325.51 36559.88,333.71 36581.28,343.51 36601.78,355.11 36621.38,368.11 36639.88,382.71 36657.18,398.71 36673.18,416.01 36687.78,434.51 36700.88,454.11 36712.38,474.71 36722.28,496.01 36730.38,518.11 36736.78,540.81 36741.38,563.91 36744.18,587.31 36745.08,610.91 36745.08,12490.72 36744.18,12514.22 36741.38,12537.62 36736.78,12560.72 36730.38,12583.42 36722.28,12605.52 36712.38,12626.92 36700.88,12647.52 36687.78,12667.02 36673.18,12685.52 36657.18,12702.82 36639.88,12718.82 36621.38,12733.42 36601.78,12746.52 36581.28,12758.02 36559.88,12767.92 36537.78,12776.02 36515.08,12782.42 36491.98,12787.02 36468.58,12789.82 36445.08,12790.72 26424.33,12787.71 19089.4,14323.18 15104.72,14323.15 7674.34,12787.69 459.73,12787.74 436.13,12786.84 412.73,12784.04 389.63,12779.44 366.93,12773.04 344.83,12764.94 323.53,12755.04 302.93,12743.54 283.33,12730.44 264.83,12715.84 247.53,12699.84 231.53,12682.54 216.93,12664.04 203.93,12644.54 192.33,12623.94 182.53,12602.54 174.33,12580.44 167.93,12557.74 163.33,12534.64 160.63,12511.24 159.63,12487.74 169.2,11787.57 169.28,610.91 170.18,587.31 172.88,563.91 177.48,540.81 183.88,518.11 192.08,496.01 201.88,474.71 213.48,454.11 226.48,434.51 241.08,416.01 257.08,398.71 274.38,382.71 292.88,368.11 312.48,355.11 333.08,343.51 354.38,333.71 376.48,325.51 399.18,319.11 422.28,314.51 445.68,311.81 469.28,310.81 "/>
   <polygon class="fil0 str0" points="598.22,12100.84 542.52,12129.24 498.22,12173.54 469.72,12229.24 460.02,12291.04 469.72,12352.84 498.22,12408.64 542.52,12452.84 598.22,12481.24 660.02,12491.04 721.92,12481.24 777.62,12452.84 821.92,12408.64 850.32,12352.84 860.02,12291.04 850.32,12229.24 821.92,12173.54 777.62,12129.24 721.92,12100.84 660.02,12091.04 "/>
   <polygon class="fil0 str0" points="12460.44,13079.38 12404.74,13107.78 12360.44,13152.08 12332.04,13207.78 12322.24,13269.58 12332.04,13331.38 12360.44,13387.18 12404.74,13431.38 12460.44,13459.78 12522.24,13469.58 12584.04,13459.78 12639.84,13431.38 12684.04,13387.18 12712.34,13331.38 12722.24,13269.58 12712.34,13207.78 12684.04,13152.08 12639.84,13107.78 12584.04,13079.38 12522.24,13069.58 "/>
   <polygon class="fil0 str0" points="24320.34,12544.32 24264.54,12572.72 24220.34,12617.02 24191.94,12672.72 24182.14,12734.52 24191.94,12796.32 24220.34,12852.12 24264.54,12896.32 24320.34,12924.72 24382.14,12934.52 24443.94,12924.72 24499.64,12896.32 24543.94,12852.12 24572.34,12796.32 24582.14,12734.52 24572.34,12672.72 24543.94,12617.02 24499.64,12572.72 24443.94,12544.32 24382.14,12534.52 "/>
   <polygon class="fil0 str0" points="36174.5,12101.95 36118.8,12130.35 36074.5,12174.65 36046.1,12230.35 36036.4,12292.15 36046.1,12353.95 36074.5,12409.75 36118.8,12453.95 36174.5,12482.35 36236.4,12492.15 36298.2,12482.35 36353.9,12453.95 36398.2,12409.75 36426.6,12353.95 36436.4,12292.15 36426.6,12230.35 36398.2,12174.65 36353.9,12130.35 36298.2,12101.95 36236.4,12092.15 "/>
   <polygon class="fil0 str0" points="24473.83,1607.51 24473.63,1606.58 20746.83,2398.78 20746.83,2398.68 17019.93,3190.88 17416.03,5054.28 16484.33,5252.28 16880.43,7115.88 17346.23,7016.88 17742.33,8880.18 18208.13,8781.18 18604.23,10644.38 17672.53,10842.38 18068.63,12705.98 25429.13,11141.48 25033.03,9278.08 26877.05,8931.28 26877.13,8931.28 26877.13,10836.28 34973.53,10836.28 34973.53,7026.28 35068.83,7026.28 35068.83,5121.08 34687.83,5121.08 34687.83,3216.08 34497.33,3216.08 34497.33,1310.98 29291.05,1310.98 28782.13,1310.98 28725.13,1310.98 26819.93,1310.98 26782.03,1310.98 26446.77,1310.98 24900.38,1310.98 24885.06,1304.92 "/>
   <polygon class="fil0 str0" points="597.83,620.78 542.13,649.28 497.83,693.58 469.33,749.28 459.63,811.18 469.33,872.98 497.83,928.68 542.13,972.98 597.83,1001.38 659.63,1011.18 721.53,1001.38 777.23,972.98 821.53,928.68 849.93,872.98 859.63,811.18 849.93,749.28 821.53,693.58 777.23,649.28 721.53,620.78 659.63,611.18 "/>
   <polygon class="fil0 str0" points="36173.63,620.78 36117.93,649.28 36073.63,693.58 36045.23,749.28 36035.53,811.18 36045.23,872.98 36073.63,928.68 36117.93,972.98 36173.63,1001.38 36235.53,1011.18 36297.33,1001.38 36353.03,972.98 36397.33,928.68 36425.73,872.98 36435.53,811.18 36425.73,749.28 36397.33,693.58 36353.03,649.28 36297.33,620.78 36235.53,611.18 "/>
   <polygon class="fil0 str0" points="24315.13,620.78 24259.33,649.28 24215.13,693.58 24186.73,749.28 24176.93,811.18 24186.73,872.98 24215.13,928.68 24259.33,972.98 24315.13,1001.38 24376.93,1011.18 24438.73,1001.38 24494.43,972.98 24538.73,928.68 24567.13,872.98 24576.93,811.18 24567.13,749.28 24538.73,693.58 24494.43,649.28 24438.73,620.78 24376.93,611.18 "/>
   <polygon class="fil0 str1" points="9186.15,1860.81 9185.77,1860.73 8740.03,1765.98 8739.78,1767.14 8303.53,1675.6 8303.53,1501.58 6398.33,1501.58 6398.33,1787.28 2588.33,1787.28 2588.33,3692.28 2112.13,3692.28 2112.13,5597.28 1635.83,5597.28 1635.83,7502.28 1350.13,7502.28 1350.13,11312.48 3731.53,11312.48 3731.53,9407.48 7505.33,9407.48 7132.33,11162.18 9461.73,11657.38 9461.73,11657.28 15517.73,12944.58 15913.83,11080.98 15075.23,10902.78 15471.33,9039.38 14353.33,8801.78 14749.43,6938.38 14283.53,6839.38 14679.53,4976.28 15797.63,5213.88 16193.73,3350.28 12466.83,2558.08 12466.83,2558.18 "/>
   <polygon class="fil0 str0" points="12456.53,620.78 12400.83,649.28 12356.53,693.58 12328.13,749.28 12318.33,811.18 12328.13,872.98 12356.53,928.68 12400.83,972.98 12456.53,1001.38 12518.33,1011.18 12580.13,1001.38 12635.93,972.98 12680.13,928.68 12708.43,872.98 12718.33,811.18 12708.43,749.28 12680.13,693.58 12635.93,649.28 12580.13,620.78 12518.33,611.18 "/>
  </g>
  <g id="plate_x0020_bottom">
   <polygon class="fil0 str2" points="13746.1,40998.26 15183.97,41303.91 15489.62,39866.04 14051.75,39560.39 "/>
   <polygon class="fil0 str2" points="7690.1,39711.06 9127.97,40016.71 9433.62,38578.84 7995.75,38273.19 "/>
   <polygon class="fil0 str2" points="23261.4,38558.04 23567.05,39995.91 25004.92,39690.26 24699.27,38252.39 "/>
   <polygon class="fil0 str2" points="1872.61,38291.8 1872.61,39761.8 3342.61,39761.8 3342.61,38291.8 "/>
   <polygon class="fil0 str2" points="13536.59,39006.16 14974.46,39311.82 15280.12,37873.95 13842.14,37568.29 "/>
   <polygon class="fil0 str2" points="33352.71,37815.6 33352.71,39285.6 34822.71,39285.6 34822.71,37815.6 "/>
   <polygon class="fil0 str2" points="31447.71,37815.6 31447.71,39285.6 32917.71,39285.6 32917.71,37815.6 "/>
   <polygon class="fil0 str2" points="29542.71,37815.6 29542.71,39285.6 31012.71,39285.6 31012.71,37815.6 "/>
   <polygon class="fil0 str2" points="27399.61,37815.6 27399.61,39285.6 28869.61,39285.6 28869.61,37815.6 "/>
   <polygon class="fil0 str2" points="18533,37615.55 18838.65,39053.42 20276.52,38747.76 19970.87,37309.89 "/>
   <polygon class="fil0 str2" points="11673.19,38610.16 13111.06,38915.71 13416.72,37477.84 11978.85,37172.29 "/>
   <polygon class="fil0 str2" points="20396.4,37219.44 20701.95,38657.31 22139.82,38351.66 21834.27,36913.79 "/>
   <polygon class="fil0 str2" points="9809.79,38214.06 11247.66,38519.71 11553.32,37081.84 10115.45,36776.19 "/>
   <polygon class="fil0 str2" points="22259.7,36823.34 22565.36,38261.31 24003.23,37955.66 23697.57,36517.79 "/>
   <polygon class="fil0 str2" points="7946.5,37817.96 9384.37,38123.62 9689.92,36685.75 8252.05,36380.09 "/>
   <polygon class="fil0 str2" points="24123.1,36427.35 24428.76,37865.22 25866.63,37559.56 25560.97,36121.69 "/>
   <polygon class="fil0 str2" points="5920.71,36386.8 5920.71,37856.8 7390.71,37856.8 7390.71,36386.8 "/>
   <polygon class="fil0 str2" points="33352.71,35910.6 33352.71,37380.6 34822.71,37380.6 34822.71,35910.6 "/>
   <polygon class="fil0 str2" points="31402.08,35955.55 31402.08,37425.55 32872.08,37425.55 32872.08,35955.55 "/>
   <polygon class="fil0 str2" points="28923.61,35910.6 28923.61,37380.6 30393.61,37380.6 30393.61,35910.6 "/>
   <polygon class="fil0 str2" points="26304.21,35910.6 26304.21,37380.6 27774.21,37380.6 27774.21,35910.6 "/>
   <polygon class="fil0 str2" points="17671.1,35851.14 17976.75,37289.01 19414.62,36983.46 19108.96,35545.59 "/>
   <polygon class="fil0 str2" points="12814.59,36905.15 14252.46,37210.81 14558.12,35772.94 13120.25,35467.29 "/>
   <polygon class="fil0 str2" points="19534.5,35455.14 19840.05,36893.01 21277.92,36587.35 20972.37,35149.49 "/>
   <polygon class="fil0 str2" points="10951.19,36509.06 12389.17,36814.71 12694.72,35376.85 11256.85,35071.19 "/>
   <polygon class="fil0 str2" points="21397.8,35059.05 21703.45,36496.91 23141.32,36191.26 22835.67,34753.39 "/>
   <polygon class="fil0 str2" points="9087.9,36113.06 10525.77,36418.71 10831.42,34980.74 9393.55,34675.19 "/>
   <polygon class="fil0 str2" points="23261.2,34662.94 23566.85,36100.81 25004.72,35795.26 24699.07,34357.29 "/>
   <polygon class="fil0 str2" points="7224.5,35716.96 8662.37,36022.61 8968.02,34584.74 7530.15,34279.09 "/>
   <polygon class="fil0 str2" points="5254.01,34481.81 5254.01,35951.8 6724.01,35951.8 6724.01,34481.81 "/>
   <polygon class="fil0 str2" points="2618.33,34455.32 2618.33,35925.31 4088.33,35925.31 4088.33,34455.32 "/>
   <polygon class="fil0 str2" points="25031.4,34286.74 25337.05,35724.61 26774.92,35418.96 26469.27,33981.09 "/>
   <polygon class="fil0 str2" points="16809.2,34086.85 17114.75,35524.72 18552.62,35219.06 18247.07,33781.19 "/>
   <polygon class="fil0 str2" points="33448.01,34005.6 33448.01,35475.6 34918.01,35475.6 34918.01,34005.6 "/>
   <polygon class="fil0 str2" points="27256.71,34005.6 27256.71,35475.6 28726.71,35475.6 28726.71,34005.6 "/>
   <polygon class="fil0 str2" points="12744.79,34942.65 14182.77,35248.41 14488.32,33810.54 13050.45,33504.89 "/>
   <polygon class="fil0 str2" points="18672.5,33690.74 18978.16,35128.61 20416.03,34822.96 20110.37,33385.09 "/>
   <polygon class="fil0 str2" points="10881.5,34546.76 12319.37,34852.31 12625.02,33414.44 11187.15,33108.89 "/>
   <polygon class="fil0 str2" points="20535.9,33294.64 20841.56,34732.51 22279.43,34426.96 21973.77,32989.09 "/>
   <polygon class="fil0 str2" points="9018.1,34150.66 10455.97,34456.32 10761.62,33018.45 9323.75,32712.79 "/>
   <polygon class="fil0 str2" points="22399.3,32898.65 22704.96,34336.52 24142.83,34030.86 23837.17,32592.99 "/>
   <polygon class="fil0 str2" points="7154.7,33754.56 8592.57,34060.21 8898.22,32622.34 7460.35,32316.69 "/>
   <polygon class="fil0 str2" points="5254.01,32576.8 5254.01,34046.8 6724.01,34046.8 6724.01,32576.8 "/>
   <polygon class="fil0 str2" points="2872.71,32576.8 2872.71,34046.8 4342.71,34046.8 4342.71,32576.8 "/>
   <polygon class="fil0 str2" points="24262.7,32502.54 24568.25,33940.41 26006.12,33634.76 25700.57,32196.89 "/>
   <polygon class="fil0 str2" points="14258.9,33317.06 15696.77,33622.72 16002.42,32184.85 14564.55,31879.19 "/>
   <polygon class="fil0 str2" points="33067.01,32100.6 33067.01,33570.6 34537.01,33570.6 34537.01,32100.6 "/>
   <polygon class="fil0 str2" points="30685.71,32100.6 30685.71,33570.6 32155.71,33570.6 32155.71,32100.6 "/>
   <polygon class="fil0 str2" points="28304.51,32100.6 28304.51,33570.6 29774.51,33570.6 29774.51,32100.6 "/>
   <polygon class="fil0 str2" points="26399.51,32100.6 26399.51,33570.6 27869.51,33570.6 27869.51,32100.6 "/>
   <polygon class="fil0 str2" points="17344.8,32025.45 17650.46,33463.32 19088.32,33157.66 18782.67,31719.79 "/>
   <polygon class="fil0 str2" points="12395.59,32920.96 13833.46,33226.61 14139.12,31788.74 12700.93,31483.09 "/>
   <polygon class="fil0 str2" points="19208.2,31629.34 19513.75,33067.21 20951.62,32761.56 20646.07,31323.69 "/>
   <polygon class="fil0 str2" points="10532.19,32524.96 11970.06,32830.51 12275.72,31392.64 10837.85,31087.09 "/>
   <polygon class="fil0 str2" points="21071.5,31233.24 21377.16,32671.11 22815.03,32365.56 22509.37,30927.69 "/>
   <polygon class="fil0 str2" points="8668.79,32128.86 10106.66,32434.52 10412.32,30996.65 8974.45,30690.99 "/>
   <polygon class="fil0 str2" points="22934.9,30837.25 23240.56,32275.12 24678.43,31969.46 24372.77,30531.59 "/>
   <polygon class="fil0 str2" points="4777.71,30671.8 4777.71,32141.8 6247.61,32141.8 6247.61,30671.8 "/>
   <polygon class="fil0 str2" points="2872.71,30671.8 2872.71,32141.8 4342.71,32141.8 4342.71,30671.8 "/>
   <polygon class="fil0 str2" points="6682.71,30386.1 6682.71,31856.1 8152.71,31856.1 8152.71,30386.1 "/>
   <polygon class="fil0 str2" points="25161.21,30195.6 25161.21,31665.6 26631.21,31665.6 26631.21,30195.6 "/>
   <polygon class="fil0 str2" points="32876.41,30195.6 32876.41,31665.6 34346.41,31665.6 34346.41,30195.6 "/>
   <polygon class="fil0 str2" points="27104.31,30195.6 27104.31,31665.6 28574.31,31665.6 28574.31,30195.6 "/>
   <polygon class="fil0 str2" points="665,40767.76 609.3,40796.16 565,40840.46 536.5,40896.16 526.8,40957.96 536.5,41019.76 565,41075.56 609.3,41119.76 665,41148.16 726.8,41157.96 788.7,41148.16 844.4,41119.76 888.7,41075.56 917.1,41019.76 926.8,40957.96 917.1,40896.16 888.7,40840.46 844.4,40796.16 788.7,40767.76 726.8,40757.96 "/>
   <polygon class="fil0 str2" points="12527.22,41746.3 12471.52,41774.7 12427.22,41819 12398.82,41874.7 12389.02,41936.5 12398.82,41998.3 12427.22,42054.1 12471.52,42098.3 12527.22,42126.7 12589.02,42136.5 12650.82,42126.7 12706.62,42098.3 12750.82,42054.1 12779.12,41998.3 12789.02,41936.5 12779.12,41874.7 12750.82,41819 12706.62,41774.7 12650.82,41746.3 12589.02,41736.5 "/>
   <polygon class="fil0 str2" points="24387.12,41211.24 24331.32,41239.64 24287.12,41283.94 24258.72,41339.64 24248.92,41401.44 24258.72,41463.24 24287.12,41519.04 24331.32,41563.24 24387.12,41591.64 24448.92,41601.44 24510.72,41591.64 24566.42,41563.24 24610.72,41519.04 24639.12,41463.24 24648.92,41401.44 24639.12,41339.64 24610.72,41283.94 24566.42,41239.64 24510.72,41211.24 24448.92,41201.44 "/>
   <polygon class="fil0 str2" points="36241.28,40768.87 36185.58,40797.27 36141.28,40841.57 36112.88,40897.27 36103.18,40959.07 36112.88,41020.87 36141.28,41076.67 36185.58,41120.87 36241.28,41149.27 36303.18,41159.07 36364.98,41149.27 36420.68,41120.87 36464.98,41076.67 36493.38,41020.87 36503.18,40959.07 36493.38,40897.27 36464.98,40841.57 36420.68,40797.27 36364.98,40768.87 36303.18,40759.07 "/>
   <polygon class="fil0 str2" points="664.61,29287.7 608.91,29316.2 564.61,29360.5 536.11,29416.2 526.41,29478.1 536.11,29539.9 564.61,29595.6 608.91,29639.9 664.61,29668.3 726.41,29678.1 788.31,29668.3 844.01,29639.9 888.31,29595.6 916.71,29539.9 926.41,29478.1 916.71,29416.2 888.31,29360.5 844.01,29316.2 788.31,29287.7 726.41,29278.1 "/>
   <polygon class="fil0 str2" points="36240.41,29287.7 36184.71,29316.2 36140.41,29360.5 36112.01,29416.2 36102.31,29478.1 36112.01,29539.9 36140.41,29595.6 36184.71,29639.9 36240.41,29668.3 36302.31,29678.1 36364.11,29668.3 36419.81,29639.9 36464.11,29595.6 36492.51,29539.9 36502.31,29478.1 36492.51,29416.2 36464.11,29360.5 36419.81,29316.2 36364.11,29287.7 36302.31,29278.1 "/>
   <polygon class="fil0 str2" points="24381.91,29287.7 24326.11,29316.2 24281.91,29360.5 24253.51,29416.2 24243.71,29478.1 24253.51,29539.9 24281.91,29595.6 24326.11,29639.9 24381.91,29668.3 24443.71,29678.1 24505.51,29668.3 24561.21,29639.9 24605.51,29595.6 24633.91,29539.9 24643.71,29478.1 24633.91,29416.2 24605.51,29360.5 24561.21,29316.2 24505.51,29287.7 24443.71,29278.1 "/>
   <polygon class="fil0 str2" points="12523.31,29287.7 12467.61,29316.2 12423.31,29360.5 12394.91,29416.2 12385.11,29478.1 12394.91,29539.9 12423.31,29595.6 12467.61,29639.9 12523.31,29668.3 12585.11,29678.1 12646.91,29668.3 12702.71,29639.9 12746.91,29595.6 12775.21,29539.9 12785.11,29478.1 12775.21,29416.2 12746.91,29360.5 12702.71,29316.2 12646.91,29287.7 12585.11,29278.1 "/>
   <rect class="fil0 str2" x="28959.6" y="30230.6" width="3624.8" height="1496.9"/>
   <rect class="fil0 str2" x="1747.71" y="36421.85" width="3624.8" height="1496.9"/>
   <rect class="fil0 str2" transform="matrix(0.977512 -0.21088 0.168037 0.778919 18562.1 39597.7)" width="3624.8" height="1878.55"/>
   <rect class="fil0 str2" x="29274.91" y="34040.65" width="3624.8" height="1496.9"/>
   <rect class="fil0 str2" transform="matrix(-0.977512 -0.21088 -0.168037 0.778919 13531.6 39392.2)" width="3624.8" height="1878.55"/>
   <polygon class="fil0 str3" points="36511.86,28977.83 36535.36,28978.73 36558.76,28981.43 36581.86,28986.03 36604.56,28992.43 36626.66,29000.63 36648.06,29010.43 36668.56,29022.03 36688.16,29035.03 36706.66,29049.63 36723.96,29065.63 36739.96,29082.93 36754.56,29101.43 36767.66,29121.03 36779.16,29141.63 36789.06,29162.93 36797.16,29185.03 36803.56,29207.73 36808.16,29230.83 36810.96,29254.23 36811.86,29277.83 36811.86,41157.64 36810.96,41181.14 36808.16,41204.54 36803.56,41227.64 36797.16,41250.34 36789.06,41272.44 36779.16,41293.84 36767.66,41314.44 36754.56,41333.94 36739.96,41352.44 36723.96,41369.74 36706.66,41385.74 36688.16,41400.34 36668.56,41413.44 36648.06,41424.94 36626.66,41434.84 36604.56,41442.94 36581.86,41449.34 36558.76,41453.94 36535.36,41456.74 36511.86,41457.64 26491.11,41454.63 19156.18,42990.1 15171.5,42990.07 7741.12,41454.61 526.51,41454.66 502.91,41453.76 479.51,41450.96 456.41,41446.36 433.71,41439.96 411.61,41431.86 390.31,41421.96 369.71,41410.46 350.11,41397.36 331.61,41382.76 314.31,41366.76 298.31,41349.46 283.71,41330.96 270.71,41311.46 259.11,41290.86 249.31,41269.46 241.11,41247.36 234.71,41224.66 230.11,41201.56 227.41,41178.16 226.41,41154.66 235.98,40454.49 236.06,29277.83 236.96,29254.23 239.66,29230.83 244.26,29207.73 250.66,29185.03 258.86,29162.93 268.66,29141.63 280.26,29121.03 293.26,29101.43 307.86,29082.93 323.86,29065.63 341.16,29049.63 359.66,29035.03 379.26,29022.03 399.86,29010.43 421.16,29000.63 443.26,28992.43 465.96,28986.03 489.06,28981.43 512.46,28978.73 536.06,28977.73 "/>
  </g>
  <g id="plate">
   <polygon class="fil0 str4" points="653.84,26373.46 598.14,26401.86 553.84,26446.16 525.34,26501.86 515.64,26563.66 525.34,26625.46 553.84,26681.26 598.14,26725.46 653.84,26753.86 715.64,26763.66 777.54,26753.86 833.24,26725.46 877.54,26681.26 905.94,26625.46 915.64,26563.66 905.94,26501.86 877.54,26446.16 833.24,26401.86 777.54,26373.46 715.64,26363.66 "/>
   <polygon class="fil0 str5" points="36500.7,14583.53 36524.2,14584.43 36547.6,14587.13 36570.7,14591.73 36593.4,14598.13 36615.5,14606.33 36636.9,14616.13 36657.4,14627.73 36677,14640.73 36695.5,14655.33 36712.8,14671.33 36728.8,14688.63 36743.4,14707.13 36756.5,14726.73 36768,14747.33 36777.9,14768.63 36786,14790.73 36792.4,14813.43 36797,14836.53 36799.8,14859.93 36800.7,14883.53 36800.7,26763.34 36799.8,26786.84 36797,26810.24 36792.4,26833.34 36786,26856.04 36777.9,26878.14 36768,26899.54 36756.5,26920.14 36743.4,26939.64 36728.8,26958.14 36712.8,26975.44 36695.5,26991.44 36677,27006.04 36657.4,27019.14 36636.9,27030.64 36615.5,27040.54 36593.4,27048.64 36570.7,27055.04 36547.6,27059.64 36524.2,27062.44 36500.7,27063.34 26479.95,27060.33 19145.02,28595.8 15160.34,28595.77 7729.96,27060.31 515.35,27060.36 491.75,27059.46 468.35,27056.66 445.25,27052.06 422.55,27045.66 400.45,27037.56 379.15,27027.66 358.55,27016.16 338.95,27003.06 320.45,26988.46 303.15,26972.46 287.15,26955.16 272.55,26936.66 259.55,26917.16 247.95,26896.56 238.15,26875.16 229.95,26853.06 223.55,26830.36 218.95,26807.26 216.25,26783.86 215.25,26760.36 224.82,26060.19 224.9,14883.53 225.8,14859.93 228.5,14836.53 233.1,14813.43 239.5,14790.73 247.7,14768.63 257.5,14747.33 269.1,14726.73 282.1,14707.13 296.7,14688.63 312.7,14671.33 330,14655.33 348.5,14640.73 368.1,14627.73 388.7,14616.13 410,14606.33 432.1,14598.13 454.8,14591.73 477.9,14587.13 501.3,14584.43 524.9,14583.43 "/>
   <polygon class="fil0 str4" points="12516.06,27352 12460.36,27380.4 12416.06,27424.7 12387.66,27480.4 12377.86,27542.2 12387.66,27604 12416.06,27659.8 12460.36,27704 12516.06,27732.4 12577.86,27742.2 12639.66,27732.4 12695.46,27704 12739.66,27659.8 12767.96,27604 12777.86,27542.2 12767.96,27480.4 12739.66,27424.7 12695.46,27380.4 12639.66,27352 12577.86,27342.2 "/>
   <polygon class="fil0 str4" points="24375.96,26816.94 24320.16,26845.34 24275.96,26889.64 24247.56,26945.34 24237.76,27007.14 24247.56,27068.94 24275.96,27124.74 24320.16,27168.94 24375.96,27197.34 24437.76,27207.14 24499.56,27197.34 24555.26,27168.94 24599.56,27124.74 24627.96,27068.94 24637.76,27007.14 24627.96,26945.34 24599.56,26889.64 24555.26,26845.34 24499.56,26816.94 24437.76,26807.14 "/>
   <polygon class="fil0 str4" points="36230.12,26374.57 36174.42,26402.97 36130.12,26447.27 36101.72,26502.97 36092.02,26564.77 36101.72,26626.57 36130.12,26682.37 36174.42,26726.57 36230.12,26754.97 36292.02,26764.77 36353.82,26754.97 36409.52,26726.57 36453.82,26682.37 36482.22,26626.57 36492.02,26564.77 36482.22,26502.97 36453.82,26447.27 36409.52,26402.97 36353.82,26374.57 36292.02,26364.77 "/>
   <polygon class="fil0 str4" points="13776.45,26577 15145.85,26868.1 15436.95,25498.7 14067.55,25207.6 "/>
   <polygon class="fil0 str4" points="21207.35,24784 21274.45,25100 21125.25,25131.7 21027.55,24672 19658.15,24963 19755.85,25422.8 19606.75,25454.5 19539.55,25138.5 18879.35,25278.9 18946.45,25594.8 18865.75,25612 18924.05,25885.8 19004.65,25868.7 19135.05,26482 19303.75,26446.1 19328.75,26563.5 19651.55,26494.9 19626.55,26377.5 19795.35,26341.7 19702.35,25904.4 19851.55,25872.7 19949.25,26332.4 21318.65,26041.4 21220.95,25581.6 21370.15,25549.9 21463.05,25987.2 21631.75,25951.3 21656.75,26068.7 21979.55,26000.1 21954.55,25882.7 22123.25,25846.8 21992.95,25233.5 22073.65,25216.4 22015.45,24942.5 21934.75,24959.6 21867.55,24643.7 "/>
   <polygon class="fil0 str4" points="10394.05,24450.3 10225.35,24414.5 10094.95,25027.8 10014.25,25010.6 9956.05,25284.5 10036.75,25301.6 9969.65,25617.6 10629.85,25757.9 10697.05,25442 10846.15,25473.7 10748.45,25933.4 12117.85,26224.5 12215.55,25764.8 12364.75,25796.5 12297.65,26112.4 12957.85,26252.7 13025.05,25936.8 13105.75,25954 13163.95,25680.1 13083.25,25662.9 13213.55,25049.6 13044.85,25013.8 13069.85,24896.4 12747.05,24827.8 12722.05,24945.1 12553.35,24909.3 12460.35,25346.5 12311.25,25314.8 12408.95,24855.1 11039.55,24564 10941.85,25023.7 10792.65,24992 10885.55,24554.8 10716.85,24518.9 10741.85,24401.6 10419.05,24332.9 "/>
   <polygon class="fil0 str4" points="7720.45,25289.8 9089.85,25580.9 9380.95,24211.5 8011.55,23920.4 "/>
   <polygon class="fil0 str4" points="23291.75,24190.7 23582.85,25560.1 24952.25,25269 24661.15,23899.6 "/>
   <polygon class="fil0 str4" points="1896.45,23932.5 1896.45,25332.5 3296.45,25332.5 3296.45,23932.5 "/>
   <polygon class="fil0 str4" points="13566.95,24584.9 14936.35,24876 15227.45,23506.6 13857.95,23215.5 "/>
   <polygon class="fil0 str4" points="33376.55,23456.3 33376.55,24856.3 34776.55,24856.3 34776.55,23456.3 "/>
   <polygon class="fil0 str4" points="31471.55,23456.3 31471.55,24856.3 32871.55,24856.3 32871.55,23456.3 "/>
   <polygon class="fil0 str4" points="29566.55,23456.3 29566.55,24856.3 30966.55,24856.3 30966.55,23456.3 "/>
   <polygon class="fil0 str4" points="27423.45,23456.3 27423.45,24856.3 28823.45,24856.3 28823.45,23456.3 "/>
   <polygon class="fil0 str4" points="18563.35,23248.2 18854.45,24617.6 20223.85,24326.5 19932.75,22957.1 "/>
   <polygon class="fil0 str4" points="11703.55,24188.9 13072.95,24479.9 13364.05,23110.5 11994.65,22819.5 "/>
   <polygon class="fil0 str4" points="20426.75,22852.1 20717.75,24221.5 22087.15,23930.4 21796.15,22561 "/>
   <polygon class="fil0 str4" points="9840.15,23792.8 11209.55,24083.9 11500.65,22714.5 10131.25,22423.4 "/>
   <polygon class="fil0 str4" points="22290.05,22456 22581.15,23825.5 23950.55,23534.4 23659.45,22165 "/>
   <polygon class="fil0 str4" points="7976.85,23396.7 9346.25,23687.8 9637.25,22318.4 8267.85,22027.3 "/>
   <polygon class="fil0 str4" points="2848.95,22027.5 2848.95,22497.5 2696.45,22497.5 2696.45,22174.5 2021.45,22174.5 2021.45,22497.5 1938.95,22497.5 1938.95,22777.5 2021.45,22777.5 2021.45,23404.5 2193.95,23404.5 2193.95,23524.5 2523.95,23524.5 2523.95,23404.5 2696.45,23404.5 2696.45,22957.5 2848.95,22957.5 2848.95,23427.5 4248.95,23427.5 4248.95,22957.5 4401.45,22957.5 4401.45,23404.5 4573.95,23404.5 4573.95,23524.5 4903.95,23524.5 4903.95,23404.5 5076.45,23404.5 5076.45,22777.5 5158.95,22777.5 5158.95,22497.5 5076.45,22497.5 5076.45,22174.5 4401.45,22174.5 4401.45,22497.5 4248.95,22497.5 4248.95,22027.5 "/>
   <polygon class="fil0 str4" points="24153.45,22060 24444.55,23429.4 25813.95,23138.3 25522.85,21768.9 "/>
   <polygon class="fil0 str4" points="5944.55,22027.5 5944.55,23427.5 7344.55,23427.5 7344.55,22027.5 "/>
   <polygon class="fil0 str4" points="33376.55,21551.3 33376.55,22951.3 34776.55,22951.3 34776.55,21551.3 "/>
   <polygon class="fil0 str4" points="31471.55,21551.3 31471.55,22951.3 32871.55,22951.3 32871.55,21551.3 "/>
   <polygon class="fil0 str4" points="28947.45,21551.3 28947.45,22951.3 30347.45,22951.3 30347.45,21551.3 "/>
   <polygon class="fil0 str4" points="26328.05,21551.3 26328.05,22951.3 27728.05,22951.3 27728.05,21551.3 "/>
   <polygon class="fil0 str4" points="17701.45,21483.8 17992.55,22853.2 19361.95,22562.2 19070.85,21192.8 "/>
   <polygon class="fil0 str4" points="12844.95,22483.9 14214.35,22775 14505.45,21405.6 13136.05,21114.5 "/>
   <polygon class="fil0 str4" points="19564.85,21087.8 19855.85,22457.2 21225.25,22166.1 20934.25,20796.7 "/>
   <polygon class="fil0 str4" points="10981.55,22087.8 12351.05,22378.9 12642.05,21009.5 11272.65,20718.4 "/>
   <polygon class="fil0 str4" points="21428.15,20691.7 21719.25,22061.1 23088.65,21770 22797.55,20400.6 "/>
   <polygon class="fil0 str4" points="9118.25,21691.8 10487.65,21982.9 10778.75,20613.4 9409.35,20322.4 "/>
   <polygon class="fil0 str4" points="23291.55,20295.6 23582.65,21665 24952.05,21374 24660.95,20004.5 "/>
   <polygon class="fil0 str4" points="7254.85,21295.7 8624.25,21586.8 8915.35,20217.4 7545.95,19926.3 "/>
   <polygon class="fil0 str4" points="5277.85,20122.5 5277.85,21522.5 6677.85,21522.5 6677.85,20122.5 "/>
   <polygon class="fil0 str4" points="2658.45,20122.5 2658.45,21522.5 4058.45,21522.5 4058.45,20122.5 "/>
   <polygon class="fil0 str4" points="25061.75,19919.4 25352.85,21288.8 26722.25,20997.7 26431.15,19628.3 "/>
   <polygon class="fil0 str4" points="30376.15,19646.3 30376.15,20116.3 30223.65,20116.3 30223.65,19793.3 29548.65,19793.3 29548.65,20116.3 29466.15,20116.3 29466.15,20396.3 29548.65,20396.3 29548.65,21023.3 29721.15,21023.3 29721.15,21143.3 30051.15,21143.3 30051.15,21023.3 30223.65,21023.3 30223.65,20576.3 30376.15,20576.3 30376.15,21046.3 31776.15,21046.3 31776.15,20576.3 31928.65,20576.3 31928.65,21023.3 32101.15,21023.3 32101.15,21143.3 32431.15,21143.3 32431.15,21023.3 32603.65,21023.3 32603.65,20396.3 32686.15,20396.3 32686.15,20116.3 32603.65,20116.3 32603.65,19793.3 31928.65,19793.3 31928.65,20116.3 31776.15,20116.3 31776.15,19646.3 "/>
   <polygon class="fil0 str4" points="16839.55,19719.5 17130.55,21088.9 18499.95,20797.8 18208.95,19428.4 "/>
   <polygon class="fil0 str4" points="33471.85,19646.3 33471.85,21046.3 34871.85,21046.3 34871.85,19646.3 "/>
   <polygon class="fil0 str4" points="27280.55,19646.3 27280.55,21046.3 28680.55,21046.3 28680.55,19646.3 "/>
   <polygon class="fil0 str4" points="12775.15,20521.4 14144.65,20812.6 14435.65,19443.2 13066.25,19152.1 "/>
   <polygon class="fil0 str4" points="18702.85,19323.4 18993.95,20692.8 20363.35,20401.7 20072.25,19032.3 "/>
   <polygon class="fil0 str4" points="10911.85,20125.5 12281.25,20416.5 12572.35,19047.1 11202.95,18756.1 "/>
   <polygon class="fil0 str4" points="20566.25,18927.3 20857.35,20296.7 22226.75,20005.7 21935.65,18636.3 "/>
   <polygon class="fil0 str4" points="9048.45,19729.4 10417.85,20020.5 10708.95,18651.1 9339.55,18360 "/>
   <polygon class="fil0 str4" points="22429.65,18531.3 22720.75,19900.7 24090.15,19609.6 23799.05,18240.2 "/>
   <polygon class="fil0 str4" points="7185.05,19333.3 8554.45,19624.4 8845.55,18255 7476.15,17963.9 "/>
   <polygon class="fil0 str4" points="5277.85,18217.5 5277.85,19617.5 6677.85,19617.5 6677.85,18217.5 "/>
   <polygon class="fil0 str4" points="2896.55,18217.5 2896.55,19617.5 4296.55,19617.5 4296.55,18217.5 "/>
   <polygon class="fil0 str4" points="24293.05,18135.2 24584.05,19504.6 25953.45,19213.5 25662.45,17844.1 "/>
   <polygon class="fil0 str4" points="14289.25,18895.8 15658.65,19186.9 15949.75,17817.5 14580.35,17526.4 "/>
   <polygon class="fil0 str4" points="33090.85,17741.3 33090.85,19141.3 34490.85,19141.3 34490.85,17741.3 "/>
   <polygon class="fil0 str4" points="30709.55,17741.3 30709.55,19141.3 32109.55,19141.3 32109.55,17741.3 "/>
   <polygon class="fil0 str4" points="28328.35,17741.3 28328.35,19141.3 29728.35,19141.3 29728.35,17741.3 "/>
   <polygon class="fil0 str4" points="26423.35,17741.3 26423.35,19141.3 27823.35,19141.3 27823.35,17741.3 "/>
   <polygon class="fil0 str4" points="17375.15,17658.1 17666.25,19027.5 19035.65,18736.4 18744.55,17367 "/>
   <polygon class="fil0 str4" points="12425.95,18499.7 13795.35,18790.8 14086.45,17421.4 12716.75,17130.3 "/>
   <polygon class="fil0 str4" points="19238.55,17262 19529.55,18631.4 20898.95,18340.3 20607.95,16970.9 "/>
   <polygon class="fil0 str4" points="10562.55,18103.7 11931.95,18394.7 12223.05,17025.3 10853.65,16734.3 "/>
   <polygon class="fil0 str4" points="21101.85,16865.9 21392.95,18235.3 22762.35,17944.3 22471.25,16574.9 "/>
   <polygon class="fil0 str4" points="8699.15,17707.6 10068.55,17998.7 10359.65,16629.3 8990.25,16338.2 "/>
   <polygon class="fil0 str4" points="22965.25,16469.9 23256.35,17839.3 24625.75,17548.2 24334.65,16178.8 "/>
   <polygon class="fil0 str4" points="4801.55,16312.5 4801.55,17712.5 6201.45,17712.5 6201.45,16312.5 "/>
   <polygon class="fil0 str4" points="2896.55,16312.5 2896.55,17712.5 4296.55,17712.5 4296.55,16312.5 "/>
   <polygon class="fil0 str4" points="6706.55,16026.8 6706.55,17426.8 8106.55,17426.8 8106.55,16026.8 "/>
   <polygon class="fil0 str4" points="30042.85,15836.3 30042.85,16306.2 29890.35,16306.2 29890.35,15983.2 29215.35,15983.2 29215.35,16306.2 29132.75,16306.2 29132.75,16586.3 29215.35,16586.3 29215.35,17213.2 29387.75,17213.2 29387.75,17333.2 29717.85,17333.2 29717.85,17213.2 29890.35,17213.2 29890.35,16766.3 30042.85,16766.3 30042.85,17236.3 31442.85,17236.3 31442.85,16766.3 31595.25,16766.3 31595.25,17213.2 31767.85,17213.2 31767.85,17333.2 32097.85,17333.2 32097.85,17213.2 32270.25,17213.2 32270.25,16586.3 32352.85,16586.3 32352.85,16306.2 32270.25,16306.2 32270.25,15983.2 31595.25,15983.2 31595.25,16306.2 31442.85,16306.2 31442.85,15836.3 "/>
   <polygon class="fil0 str4" points="25185.05,15836.3 25185.05,17236.3 26585.05,17236.3 26585.05,15836.3 "/>
   <polygon class="fil0 str4" points="32900.25,15836.3 32900.25,17236.3 34300.25,17236.3 34300.25,15836.3 "/>
   <polygon class="fil0 str4" points="27128.15,15836.3 27128.15,17236.3 28528.15,17236.3 28528.15,15836.3 "/>
   <polygon class="fil0 str4" points="653.45,14893.4 597.75,14921.9 553.45,14966.2 524.95,15021.9 515.25,15083.8 524.95,15145.6 553.45,15201.3 597.75,15245.6 653.45,15274 715.25,15283.8 777.15,15274 832.85,15245.6 877.15,15201.3 905.55,15145.6 915.25,15083.8 905.55,15021.9 877.15,14966.2 832.85,14921.9 777.15,14893.4 715.25,14883.8 "/>
   <polygon class="fil0 str4" points="36229.25,14893.4 36173.55,14921.9 36129.25,14966.2 36100.85,15021.9 36091.15,15083.8 36100.85,15145.6 36129.25,15201.3 36173.55,15245.6 36229.25,15274 36291.15,15283.8 36352.95,15274 36408.65,15245.6 36452.95,15201.3 36481.35,15145.6 36491.15,15083.8 36481.35,15021.9 36452.95,14966.2 36408.65,14921.9 36352.95,14893.4 36291.15,14883.8 "/>
   <polygon class="fil0 str4" points="24370.75,14893.4 24314.95,14921.9 24270.75,14966.2 24242.35,15021.9 24232.55,15083.8 24242.35,15145.6 24270.75,15201.3 24314.95,15245.6 24370.75,15274 24432.55,15283.8 24494.35,15274 24550.05,15245.6 24594.35,15201.3 24622.75,15145.6 24632.55,15083.8 24622.75,15021.9 24594.35,14966.2 24550.05,14921.9 24494.35,14893.4 24432.55,14883.8 "/>
   <polygon class="fil0 str4" points="12512.15,14893.4 12456.45,14921.9 12412.15,14966.2 12383.75,15021.9 12373.95,15083.8 12383.75,15145.6 12412.15,15201.3 12456.45,15245.6 12512.15,15274 12573.95,15283.8 12635.75,15274 12691.55,15245.6 12735.75,15201.3 12764.05,15145.6 12773.95,15083.8 12764.05,15021.9 12735.75,14966.2 12691.55,14921.9 12635.75,14893.4 12573.95,14883.8 "/>
  </g>
  <g id="bottom">
   <path class="fil0 str6" d="M30564.1 46561.39c0,0 -0.28,-267.34 -0.42,-400.97 -0.11,-133.67 -0.11,-133.67 -0.11,-133.67 0,0 0,0 -0.14,-3 -0.11,-2.96 -0.35,-8.92 -0.49,-11.92 -0.11,-2.96 -0.11,-2.96 -0.11,-2.96 0,0 0,0 -0.35,-3 -0.39,-2.97 -1.1,-8.89 -1.48,-11.86 -0.36,-2.99 -0.36,-2.99 -0.36,-2.99 0,0 0,0 -0.6,-2.93 -0.6,-2.93 -1.76,-8.79 -2.36,-11.71 -0.6,-2.93 -0.6,-2.93 -0.6,-2.93 0,0 0,0 -0.81,-2.9 -0.81,-2.85 -2.47,-8.64 -3.28,-11.5 -0.81,-2.89 -0.81,-2.89 -0.81,-2.89 0,0 0,0 -1.06,-2.79 -1.02,-2.82 -3.11,-8.43 -4.16,-11.21 -1.03,-2.83 -1.03,-2.83 -1.03,-2.83 0,0 0,0 -1.27,-2.71 -1.23,-2.68 -3.77,-8.12 -5.04,-10.83 -1.27,-2.72 -1.27,-2.72 -1.27,-2.72 0,0 0,0 -1.45,-2.61 -1.48,-2.61 -4.41,-7.83 -5.89,-10.44 -1.45,-2.61 -1.45,-2.61 -1.45,-2.61 0,0 0,0 -1.69,-2.47 -1.66,-2.47 -5.01,-7.41 -6.67,-9.88 -1.65,-2.47 -1.65,-2.47 -1.65,-2.47 0,0 0,0 -1.87,-2.36 -1.87,-2.33 -5.61,-7.02 -7.45,-9.35 -1.87,-2.37 -1.87,-2.37 -1.87,-2.37 0,0 0,0 -2.04,-2.18 -2.01,-2.19 -6.11,-6.56 -8.15,-8.75 -2.01,-2.19 -2.01,-2.19 -2.01,-2.19 0,0 0,0 -2.23,-2.04 -2.18,-2.02 -6.59,-6.07 -8.82,-8.08 -2.18,-2.05 -2.18,-2.05 -2.18,-2.05 0,0 0,0 -2.37,-1.83 -2.33,-1.84 -7.05,-5.54 -9.42,-7.41 -2.32,-1.84 -2.32,-1.84 -2.32,-1.84 0,0 0,0 -2.51,-1.65 -2.5,-1.66 -7.48,-4.98 -9.98,-6.64 -2.47,-1.62 -2.47,-1.62 -2.47,-1.62 0,0 0,0 -2.61,-1.48 -2.61,-1.45 -7.83,-4.34 -10.44,-5.79 -2.62,-1.44 -2.62,-1.44 -2.62,-1.44 0,0 0,0 -2.71,-1.27 -2.72,-1.24 -8.15,-3.74 -10.87,-5.01 -2.71,-1.24 -2.71,-1.24 -2.71,-1.24 0,0 0,0 -2.83,-1.02 -2.82,-1.02 -8.43,-3.07 -11.21,-4.09 -2.83,-1.03 -2.83,-1.03 -2.83,-1.03 0,0 0,0 -2.89,-0.77 -2.89,-0.81 -8.64,-2.44 -11.54,-3.21 -2.89,-0.81 -2.89,-0.81 -2.89,-0.81 0,0 0,0 -2.93,-0.6 -2.92,-0.57 -8.78,-1.73 -11.71,-2.3 -2.96,-0.56 -2.96,-0.56 -2.96,-0.56 0,0 0,0 -2.96,-0.35 -2.97,-0.36 -8.93,-1.06 -11.89,-1.38 -2.97,-0.35 -2.97,-0.35 -2.97,-0.35 0,0 0,0 -3,-0.11 -2.96,-0.1 -8.92,-0.32 -11.92,-0.42 -3,-0.11 -3,-0.11 -3,-0.11 0,0 0,0 -1272.15,4.02 -1272.19,4.03 -3816.56,12.1 -5088.75,16.13 -1272.15,4.02 -1272.15,4.02 -1272.15,4.02 0,0 0,0 -931.79,-192.27 -931.76,-192.26 -2795.27,-576.79 -3727.06,-769.05 -931.76,-192.26 -931.76,-192.26 -931.76,-192.26 0,0 0,0 -505.85,1.44 -505.88,1.45 -1517.65,4.34 -2023.49,5.82 -505.89,1.45 -505.89,1.45 -505.89,1.45 0,0 0,0 -942.76,197.62 -942.76,197.63 -2828.29,592.92 -3771.05,790.58 -942.77,197.63 -942.77,197.63 -942.77,197.63 0,0 0,0 -915.95,2.61 -915.91,2.61 -2747.77,7.86 -3663.7,10.47 -915.93,2.61 -915.93,2.61 -915.93,2.61 0,0 0,0 -2.99,0.15 -3,0.1 -8.98,0.35 -11.98,0.49 -2.99,0.11 -2.99,0.11 -2.99,0.11 0,0 0,0 -2.97,0.38 -2.98,0.36 -8.92,1.1 -11.89,1.45 -2.97,0.35 -2.97,0.35 -2.97,0.35 0,0 0,0 -2.93,0.6 -2.93,0.6 -8.79,1.77 -11.72,2.37 -2.93,0.6 -2.93,0.6 -2.93,0.6 0,0 0,0 -2.88,0.81 -2.88,0.81 -8.64,2.47 -11.52,3.28 -2.88,0.84 -2.88,0.84 -2.88,0.84 0,0 0,0 -2.8,1.03 -2.8,1.02 -8.41,3.1 -11.21,4.12 -2.81,1.06 -2.81,1.06 -2.81,1.06 0,0 0,0 -2.7,1.27 -2.7,1.24 -8.1,3.78 -10.8,5.05 -2.71,1.27 -2.71,1.27 -2.71,1.27 0,0 0,0 -2.61,1.44 -2.61,1.49 -7.83,4.41 -10.44,5.9 -2.61,1.44 -2.61,1.44 -2.61,1.44 0,0 0,0 -2.48,1.7 -2.48,1.65 -7.45,5 -9.93,6.66 -2.49,1.7 -2.49,1.7 -2.49,1.7 0,0 0,0 -2.34,1.83 -2.34,1.87 -7.03,5.57 -9.38,7.44 -2.34,1.87 -2.34,1.87 -2.34,1.87 0,0 0,0 -2.19,2.05 -2.19,2.01 -6.57,6.1 -8.76,8.15 -2.19,2.01 -2.19,2.01 -2.19,2.01 0,0 0,0 -2.02,2.22 -2.03,2.19 -6.08,6.6 -8.1,8.82 -2.03,2.19 -2.03,2.19 -2.03,2.19 0,0 0,0 -1.84,2.36 -1.85,2.33 -5.55,7.06 -7.39,9.42 -1.85,2.33 -1.85,2.33 -1.85,2.33 0,0 0,0 -1.64,2.51 -1.65,2.46 -4.93,7.44 -6.58,9.91 -1.64,2.47 -1.64,2.47 -1.64,2.47 0,0 0,0 -1.46,2.61 -1.47,2.64 -4.4,7.87 -5.87,10.48 -1.46,2.64 -1.46,2.64 -1.46,2.64 0,0 0,0 -1.24,2.72 -1.24,2.71 -3.71,8.15 -4.94,10.86 -1.24,2.72 -1.24,2.72 -1.24,2.72 0,0 0,0 -1.03,2.82 -1.03,2.79 -3.1,8.43 -4.13,11.22 -1.04,2.82 -1.04,2.82 -1.04,2.82 0,0 0,0 -0.8,2.9 -0.81,2.85 -2.42,8.64 -3.22,11.53 -0.81,2.89 -0.81,2.89 -0.81,2.89 0,0 0,0 -0.57,2.93 -0.58,2.93 -1.73,8.79 -2.3,11.75 -0.58,2.93 -0.58,2.93 -0.58,2.93 0,0 0,0 -0.33,2.96 -0.33,2.96 -1,8.93 -1.34,11.89 -0.33,2.96 -0.33,2.96 -0.33,2.96 0,0 0,0 -0.12,3 -0.12,2.96 -0.36,8.93 -0.48,11.93 -0.12,2.99 -0.12,2.99 -0.12,2.99 0,0 0,0 0.49,132.68 0.49,132.68 1.47,398.04 1.47,398.04"/>
   <path class="fil0 str6" d="M3466 46639.63c0,0 2477.36,-7.09 3716.07,-10.65 1238.67,-3.53 1238.67,-3.53 1238.67,-3.53 0,0 0,0 944.88,-197.59 944.88,-197.59 2834.64,-592.74 3779.52,-790.33 944.88,-197.55 944.88,-197.55 944.88,-197.55 0,0 0,0 503.8,-1.45 503.84,-1.45 1511.48,-4.34 2015.28,-5.79 503.83,-1.44 503.83,-1.44 503.83,-1.44 0,0 0,0 931.76,192.19 931.76,192.16 2795.31,576.51 3727.06,768.7 931.76,192.2 931.76,192.2 931.76,192.2 0,0 0,0 591.64,-1.87 591.68,-1.84 1774.97,-5.54 2366.65,-7.41 591.64,-1.83 591.64,-1.83 591.64,-1.83 0,0 0,0 887.48,-2.79 887.49,-2.79 2662.45,-8.36 2662.45,-8.36"/>
   <path class="fil0 str6" d="M29803.37 46562.13c0,0 763.66,-0.74 763.66,-0.74"/>
   <path class="fil0 str6" d="M2694.44 46639.63c0,0 771.56,0 771.56,0"/>
   <path class="fil0 str7" d="M12064.65 45343.67c0,0 -20.74,11.75 -31.15,17.64 -10.37,5.85 -10.37,5.85 -10.37,5.85 0,0 0,0 -5.36,5.86 -5.37,5.86 -16.09,17.57 -21.49,23.46 -5.36,5.86 -5.36,5.86 -5.36,5.86 0,0 0,0 -3.28,7.19 -3.32,7.23 -9.91,21.66 -13.2,28.89 -3.31,7.24 -3.31,7.24 -3.31,7.24 0,0 0,0 -0.88,7.9 -0.92,7.9 -2.72,23.71 -3.64,31.61 -0.91,7.9 -0.91,7.9 -0.91,7.9 0,0 0,0 1.58,7.8 1.59,7.76 4.73,23.35 6.32,31.11 1.59,7.8 1.59,7.8 1.59,7.8 0,0 0,0 3.91,6.91 3.88,6.92 11.71,20.75 15.59,27.66 3.92,6.91 3.92,6.91 3.92,6.91 0,0 0,0 5.86,5.37 5.85,5.36 17.53,16.12 23.39,21.52 5.85,5.36 5.85,5.36 5.85,5.36 0,0 0,0 7.23,3.31 7.24,3.29 21.7,9.88 28.93,13.2 7.23,3.28 7.23,3.28 7.23,3.28 0,0 0,0 7.87,0.92 7.9,0.91 23.67,2.71 31.57,3.63 7.91,0.88 7.91,0.88 7.91,0.88 0,0 0,0 7.79,-1.55 7.76,-1.59 23.36,-4.76 31.12,-6.35 7.79,-1.55 7.79,-1.55 7.79,-1.55 0,0 0,0 6.92,-3.92 6.91,-3.91 20.74,-11.71 27.66,-15.63 6.87,-3.88 6.87,-3.88 6.87,-3.88 0,0 0,0 5.4,-5.89 5.36,-5.85 16.12,-17.57 21.52,-23.42 5.36,-5.86 5.36,-5.86 5.36,-5.86 0,0 0,0 3.32,-7.23 3.28,-7.23 9.88,-21.66 13.19,-28.89 3.28,-7.2 3.28,-7.2 3.28,-7.2 0,0 0,0 0.92,-7.9 0.88,-7.9 2.72,-23.67 3.64,-31.58 0.88,-7.86 0.88,-7.86 0.88,-7.86 0,0 0,0 -1.59,-7.8 -1.55,-7.8 -4.73,-23.39 -6.31,-31.18 -1.56,-7.84 -1.56,-7.84 -1.56,-7.84 0,0 0,0 -3.91,-6.88 -3.92,-6.91 -11.71,-20.74 -15.63,-27.65 -3.92,-6.92 -3.92,-6.92 -3.92,-6.92 0,0 0,0 -5.85,-5.36 -5.86,-5.4 -17.57,-16.16 -23.43,-21.52 -5.85,-5.36 -5.85,-5.36 -5.85,-5.36 0,0 0,0 -7.24,-3.32 -7.23,-3.31 -21.66,-9.95 -28.89,-13.26 -7.19,-3.32 -7.19,-3.32 -7.19,-3.32 0,0 0,0 -7.91,-0.88 -7.9,-0.88 -23.67,-2.65 -31.57,-3.53 -7.87,-0.88 -7.87,-0.88 -7.87,-0.88 0,0 0,0 -11.71,2.33 -11.68,2.33 -35.03,7.02 -35.03,7.02"/>
   <path class="fil0 str7" d="M3030.04 46114.1c0,0 -20.77,11.75 -31.15,17.64 -10.38,5.85 -10.38,5.85 -10.38,5.85 0,0 0,0 -5.37,5.86 -5.37,5.89 -16.09,17.6 -21.46,23.46 -5.37,5.86 -5.37,5.86 -5.37,5.86 0,0 0,0 -3.29,7.23 -3.3,7.2 -9.9,21.66 -13.2,28.86 -3.3,7.23 -3.3,7.23 -3.3,7.23 0,0 0,0 -0.9,7.9 -0.91,7.9 -2.72,23.71 -3.63,31.61 -0.9,7.9 -0.9,7.9 -0.9,7.9 0,0 0,0 1.57,7.8 1.58,7.79 4.74,23.35 6.32,31.15 1.58,7.76 1.58,7.76 1.58,7.76 0,0 0,0 3.91,6.91 3.9,6.92 11.71,20.75 15.62,27.66 3.9,6.92 3.9,6.92 3.9,6.92 0,0 0,0 5.85,5.36 5.85,5.4 17.54,16.15 23.39,21.52 5.85,5.39 5.85,5.39 5.85,5.39 0,0 0,0 7.23,3.29 7.23,3.31 21.7,9.91 28.93,13.19 7.23,3.32 7.23,3.32 7.23,3.32 0,0 0,0 7.89,0.88 7.9,0.91 23.68,2.71 31.57,3.63 7.89,0.92 7.89,0.92 7.89,0.92 0,0 0,0 7.79,-1.59 7.78,-1.59 23.36,-4.73 31.15,-6.31 7.78,-1.59 7.78,-1.59 7.78,-1.59 0,0 0,0 6.91,-3.92 6.91,-3.88 20.73,-11.71 27.64,-15.59 6.91,-3.92 6.91,-3.92 6.91,-3.92 0,0 0,0 5.38,-5.85 5.38,-5.86 16.13,-17.61 21.51,-23.46 5.38,-5.86 5.38,-5.86 5.38,-5.86 0,0 0,0 3.3,-7.19 3.3,-7.24 9.89,-21.67 13.19,-28.9 3.3,-7.23 3.3,-7.23 3.3,-7.23 0,0 0,0 0.91,-7.87 0.9,-7.9 2.71,-23.7 3.62,-31.57 0.91,-7.9 0.91,-7.9 0.91,-7.9 0,0 0,0 -1.58,-7.8 -1.58,-7.79 -4.74,-23.39 -6.32,-31.18 -1.58,-7.8 -1.58,-7.8 -1.58,-7.8 0,0 0,0 -3.91,-6.91 -3.9,-6.92 -11.71,-20.75 -15.62,-27.66 -3.9,-6.92 -3.9,-6.92 -3.9,-6.92 0,0 0,0 -5.86,-5.36 -5.86,-5.36 -17.58,-16.12 -23.44,-21.52 -5.86,-5.36 -5.86,-5.36 -5.86,-5.36 0,0 0,0 -7.22,-3.32 -7.22,-3.31 -21.66,-9.94 -28.88,-13.26 -7.22,-3.28 -7.22,-3.28 -7.22,-3.28 0,0 0,0 -7.89,-0.88 -7.89,-0.89 -23.68,-2.65 -31.57,-3.53 -7.89,-0.88 -7.89,-0.88 -7.89,-0.88 0,0 0,0 -11.68,2.32 -11.68,2.33 -35.04,6.99 -35.04,6.99"/>
   <path class="fil0 str7" d="M21099.85 45725.34c0,0 -20.78,11.75 -31.15,17.64 -10.37,5.85 -10.37,5.85 -10.37,5.85 0,0 0,0 -5.36,5.86 -5.36,5.86 -16.12,17.6 -21.49,23.46 -5.36,5.86 -5.36,5.86 -5.36,5.86 0,0 0,0 -3.28,7.19 -3.32,7.23 -9.91,21.66 -13.19,28.89 -3.32,7.24 -3.32,7.24 -3.32,7.24 0,0 0,0 -0.92,7.9 -0.88,7.9 -2.71,23.71 -3.6,31.61 -0.91,7.9 -0.91,7.9 -0.91,7.9 0,0 0,0 1.58,7.8 1.56,7.76 4.73,23.35 6.32,31.15 1.55,7.76 1.55,7.76 1.55,7.76 0,0 0,0 3.92,6.91 3.91,6.92 11.71,20.75 15.63,27.66 3.91,6.91 3.91,6.91 3.91,6.91 0,0 0,0 5.86,5.37 5.82,5.39 17.53,16.12 23.39,21.52 5.82,5.36 5.82,5.36 5.82,5.36 0,0 0,0 7.23,3.31 7.23,3.29 21.7,9.88 28.93,13.2 7.23,3.28 7.23,3.28 7.23,3.28 0,0 0,0 7.9,0.92 7.9,0.91 23.67,2.71 31.58,3.63 7.86,0.88 7.86,0.88 7.86,0.88 0,0 0,0 7.8,-1.55 7.79,-1.59 23.35,-4.76 31.15,-6.31 7.8,-1.59 7.8,-1.59 7.8,-1.59 0,0 0,0 6.91,-3.92 6.91,-3.91 20.71,-11.71 27.62,-15.63 6.92,-3.88 6.92,-3.88 6.92,-3.88 0,0 0,0 5.36,-5.85 5.4,-5.89 16.16,-17.61 21.52,-23.46 5.4,-5.86 5.4,-5.86 5.4,-5.86 0,0 0,0 3.28,-7.23 3.31,-7.2 9.91,-21.66 13.19,-28.86 3.32,-7.23 3.32,-7.23 3.32,-7.23 0,0 0,0 0.88,-7.9 0.92,-7.87 2.75,-23.67 3.63,-31.54 0.92,-7.9 0.92,-7.9 0.92,-7.9 0,0 0,0 -1.59,-7.8 -1.59,-7.8 -4.73,-23.39 -6.31,-31.18 -1.59,-7.8 -1.59,-7.8 -1.59,-7.8 0,0 0,0 -3.92,-6.92 -3.88,-6.91 -11.71,-20.74 -15.59,-27.65 -3.92,-6.92 -3.92,-6.92 -3.92,-6.92 0,0 0,0 -5.85,-5.36 -5.86,-5.4 -17.57,-16.16 -23.46,-21.52 -5.86,-5.36 -5.86,-5.36 -5.86,-5.36 0,0 0,0 -7.19,-3.32 -7.24,-3.31 -21.66,-9.95 -28.9,-13.26 -7.23,-3.32 -7.23,-3.32 -7.23,-3.32 0,0 0,0 -7.86,-0.88 -7.91,-0.88 -23.68,-2.65 -31.58,-3.53 -7.9,-0.88 -7.9,-0.88 -7.9,-0.88 0,0 0,0 -11.68,2.36 -11.67,2.33 -35.03,6.99 -35.03,6.99"/>
   <path class="fil0 str7" d="M30129.58 46037.26c0,0 -20.77,11.75 -31.15,17.64 -10.37,5.86 -10.37,5.86 -10.37,5.86 0,0 0,0 -5.36,5.86 -5.36,5.89 -16.12,17.6 -21.48,23.46 -5.37,5.85 -5.37,5.85 -5.37,5.85 0,0 0,0 -3.28,7.23 -3.31,7.2 -9.91,21.66 -13.19,28.86 -3.32,7.23 -3.32,7.23 -3.32,7.23 0,0 0,0 -0.91,7.91 -0.89,7.9 -2.72,23.7 -3.6,31.6 -0.92,7.91 -0.92,7.91 -0.92,7.91 0,0 0,0 1.59,7.79 1.55,7.8 4.73,23.36 6.31,31.15 1.56,7.76 1.56,7.76 1.56,7.76 0,0 0,0 3.91,6.92 3.92,6.91 11.71,20.74 15.63,27.66 3.91,6.91 3.91,6.91 3.91,6.91 0,0 0,0 5.86,5.36 5.82,5.4 17.53,16.16 23.35,21.52 5.86,5.4 5.86,5.4 5.86,5.4 0,0 0,0 7.23,3.28 7.23,3.32 21.7,9.91 28.93,13.19 7.23,3.32 7.23,3.32 7.23,3.32 0,0 0,0 7.9,0.88 7.91,0.92 23.68,2.72 31.58,3.64 7.9,0.91 7.9,0.91 7.9,0.91 0,0 0,0 7.76,-1.58 7.8,-1.59 23.36,-4.73 31.15,-6.32 7.8,-1.59 7.8,-1.59 7.8,-1.59 0,0 0,0 6.91,-3.91 6.92,-3.88 20.71,-11.71 27.63,-15.6 6.91,-3.91 6.91,-3.91 6.91,-3.91 0,0 0,0 5.4,-5.86 5.36,-5.85 16.12,-17.6 21.48,-23.46 5.4,-5.85 5.4,-5.85 5.4,-5.85 0,0 0,0 3.28,-7.2 3.32,-7.23 9.91,-21.66 13.19,-28.89 3.32,-7.23 3.32,-7.23 3.32,-7.23 0,0 0,0 0.88,-7.87 0.92,-7.9 2.75,-23.71 3.64,-31.57 0.91,-7.91 0.91,-7.91 0.91,-7.91 0,0 0,0 -1.58,-7.79 -1.59,-7.8 -4.73,-23.39 -6.32,-31.19 -1.59,-7.79 -1.59,-7.79 -1.59,-7.79 0,0 0,0 -3.88,-6.92 -3.91,-6.91 -11.75,-20.74 -15.63,-27.66 -3.91,-6.91 -3.91,-6.91 -3.91,-6.91 0,0 0,0 -5.86,-5.36 -5.85,-5.4 -17.57,-16.13 -23.46,-21.52 -5.85,-5.37 -5.85,-5.37 -5.85,-5.37 0,0 0,0 -7.2,-3.31 -7.23,-3.32 -21.66,-9.95 -28.89,-13.27 -7.23,-3.28 -7.23,-3.28 -7.23,-3.28 0,0 0,0 -7.87,-0.88 -7.9,-0.88 -23.67,-2.64 -31.58,-3.53 -7.9,-0.88 -7.9,-0.88 -7.9,-0.88 0,0 0,0 -11.67,2.33 -11.68,2.33 -35.04,6.98 -35.04,6.98"/>
  </g>
  <g id="bottom_0">
   <path class="fil0 str6" d="M30775.77 48095.98c0,0 -0.28,-267.34 -0.42,-400.97 -0.11,-133.67 -0.11,-133.67 -0.11,-133.67 0,0 0,0 -0.14,-3 -0.11,-2.96 -0.35,-8.92 -0.49,-11.92 -0.11,-2.96 -0.11,-2.96 -0.11,-2.96 0,0 0,0 -0.35,-3 -0.39,-2.97 -1.1,-8.89 -1.48,-11.86 -0.36,-2.99 -0.36,-2.99 -0.36,-2.99 0,0 0,0 -0.6,-2.93 -0.6,-2.93 -1.76,-8.79 -2.36,-11.71 -0.6,-2.93 -0.6,-2.93 -0.6,-2.93 0,0 0,0 -0.81,-2.9 -0.81,-2.85 -2.47,-8.64 -3.28,-11.5 -0.81,-2.89 -0.81,-2.89 -0.81,-2.89 0,0 0,0 -1.06,-2.79 -1.02,-2.82 -3.11,-8.43 -4.16,-11.21 -1.03,-2.83 -1.03,-2.83 -1.03,-2.83 0,0 0,0 -1.27,-2.71 -1.23,-2.68 -3.77,-8.12 -5.04,-10.83 -1.27,-2.72 -1.27,-2.72 -1.27,-2.72 0,0 0,0 -1.45,-2.61 -1.48,-2.61 -4.41,-7.83 -5.89,-10.44 -1.45,-2.61 -1.45,-2.61 -1.45,-2.61 0,0 0,0 -1.69,-2.47 -1.66,-2.47 -5.01,-7.41 -6.67,-9.88 -1.65,-2.47 -1.65,-2.47 -1.65,-2.47 0,0 0,0 -1.87,-2.36 -1.87,-2.33 -5.61,-7.02 -7.45,-9.35 -1.87,-2.37 -1.87,-2.37 -1.87,-2.37 0,0 0,0 -2.04,-2.18 -2.01,-2.19 -6.11,-6.56 -8.15,-8.75 -2.01,-2.19 -2.01,-2.19 -2.01,-2.19 0,0 0,0 -2.23,-2.04 -2.18,-2.02 -6.59,-6.07 -8.82,-8.08 -2.18,-2.05 -2.18,-2.05 -2.18,-2.05 0,0 0,0 -2.37,-1.83 -2.33,-1.84 -7.05,-5.54 -9.42,-7.41 -2.32,-1.84 -2.32,-1.84 -2.32,-1.84 0,0 0,0 -2.51,-1.65 -2.5,-1.66 -7.48,-4.98 -9.98,-6.64 -2.47,-1.62 -2.47,-1.62 -2.47,-1.62 0,0 0,0 -2.61,-1.48 -2.61,-1.45 -7.83,-4.34 -10.44,-5.79 -2.62,-1.44 -2.62,-1.44 -2.62,-1.44 0,0 0,0 -2.71,-1.27 -2.72,-1.24 -8.15,-3.74 -10.87,-5.01 -2.71,-1.24 -2.71,-1.24 -2.71,-1.24 0,0 0,0 -2.83,-1.02 -2.82,-1.02 -8.43,-3.07 -11.21,-4.09 -2.83,-1.03 -2.83,-1.03 -2.83,-1.03 0,0 0,0 -2.89,-0.77 -2.89,-0.81 -8.64,-2.44 -11.54,-3.21 -2.89,-0.81 -2.89,-0.81 -2.89,-0.81 0,0 0,0 -2.93,-0.6 -2.92,-0.57 -8.78,-1.73 -11.71,-2.3 -2.96,-0.56 -2.96,-0.56 -2.96,-0.56 0,0 0,0 -2.96,-0.35 -2.97,-0.36 -8.93,-1.06 -11.89,-1.38 -2.97,-0.35 -2.97,-0.35 -2.97,-0.35 0,0 0,0 -3,-0.11 -2.96,-0.1 -8.92,-0.32 -11.92,-0.42 -3,-0.11 -3,-0.11 -3,-0.11 0,0 0,0 -1272.15,4.02 -1272.19,4.03 -3816.56,12.1 -5088.75,16.13 -1272.15,4.02 -1272.15,4.02 -1272.15,4.02 0,0 0,0 -931.79,-192.27 -931.76,-192.26 -2795.27,-576.79 -3727.06,-769.05 -931.76,-192.26 -931.76,-192.26 -931.76,-192.26 0,0 0,0 -505.85,1.44 -505.88,1.45 -1517.65,4.34 -2023.49,5.82 -505.89,1.45 -505.89,1.45 -505.89,1.45 0,0 0,0 -942.76,197.62 -942.76,197.63 -2828.29,592.92 -3771.05,790.58 -942.77,197.63 -942.77,197.63 -942.77,197.63 0,0 0,0 -915.95,2.61 -915.91,2.61 -2747.77,7.86 -3663.7,10.47 -915.93,2.61 -915.93,2.61 -915.93,2.61 0,0 0,0 -2.99,0.15 -3,0.1 -8.98,0.35 -11.98,0.49 -2.99,0.11 -2.99,0.11 -2.99,0.11 0,0 0,0 -2.97,0.38 -2.98,0.36 -8.92,1.1 -11.89,1.45 -2.97,0.35 -2.97,0.35 -2.97,0.35 0,0 0,0 -2.93,0.6 -2.93,0.6 -8.79,1.77 -11.72,2.37 -2.93,0.6 -2.93,0.6 -2.93,0.6 0,0 0,0 -2.88,0.81 -2.88,0.81 -8.64,2.47 -11.52,3.28 -2.88,0.84 -2.88,0.84 -2.88,0.84 0,0 0,0 -2.8,1.03 -2.8,1.02 -8.41,3.1 -11.21,4.12 -2.81,1.06 -2.81,1.06 -2.81,1.06 0,0 0,0 -2.7,1.27 -2.7,1.24 -8.1,3.78 -10.8,5.05 -2.71,1.27 -2.71,1.27 -2.71,1.27 0,0 0,0 -2.61,1.44 -2.61,1.49 -7.83,4.41 -10.44,5.9 -2.61,1.44 -2.61,1.44 -2.61,1.44 0,0 0,0 -2.48,1.7 -2.48,1.65 -7.45,5 -9.93,6.66 -2.49,1.7 -2.49,1.7 -2.49,1.7 0,0 0,0 -2.34,1.83 -2.34,1.87 -7.03,5.57 -9.38,7.44 -2.34,1.87 -2.34,1.87 -2.34,1.87 0,0 0,0 -2.19,2.05 -2.19,2.01 -6.57,6.1 -8.76,8.15 -2.19,2.01 -2.19,2.01 -2.19,2.01 0,0 0,0 -2.02,2.22 -2.03,2.19 -6.08,6.6 -8.1,8.82 -2.03,2.19 -2.03,2.19 -2.03,2.19 0,0 0,0 -1.84,2.36 -1.85,2.33 -5.55,7.06 -7.39,9.42 -1.85,2.33 -1.85,2.33 -1.85,2.33 0,0 0,0 -1.64,2.51 -1.65,2.46 -4.93,7.44 -6.58,9.91 -1.64,2.47 -1.64,2.47 -1.64,2.47 0,0 0,0 -1.46,2.61 -1.47,2.64 -4.4,7.87 -5.87,10.48 -1.46,2.64 -1.46,2.64 -1.46,2.64 0,0 0,0 -1.24,2.72 -1.24,2.71 -3.71,8.15 -4.94,10.86 -1.24,2.72 -1.24,2.72 -1.24,2.72 0,0 0,0 -1.03,2.82 -1.03,2.79 -3.1,8.43 -4.13,11.22 -1.04,2.82 -1.04,2.82 -1.04,2.82 0,0 0,0 -0.8,2.9 -0.81,2.85 -2.42,8.64 -3.22,11.53 -0.81,2.89 -0.81,2.89 -0.81,2.89 0,0 0,0 -0.57,2.93 -0.58,2.93 -1.73,8.79 -2.3,11.75 -0.58,2.93 -0.58,2.93 -0.58,2.93 0,0 0,0 -0.33,2.96 -0.33,2.96 -1,8.93 -1.34,11.89 -0.33,2.96 -0.33,2.96 -0.33,2.96 0,0 0,0 -0.12,3 -0.12,2.96 -0.36,8.93 -0.48,11.93 -0.12,2.99 -0.12,2.99 -0.12,2.99 0,0 0,0 0.49,132.68 0.49,132.68 1.47,398.04 1.47,398.04"/>
   <path class="fil0 str6" d="M3677.67 48174.22c0,0 2477.36,-7.09 3716.07,-10.65 1238.67,-3.53 1238.67,-3.53 1238.67,-3.53 0,0 0,0 944.88,-197.59 944.88,-197.59 2834.64,-592.74 3779.52,-790.33 944.88,-197.55 944.88,-197.55 944.88,-197.55 0,0 0,0 503.8,-1.45 503.84,-1.45 1511.48,-4.34 2015.28,-5.79 503.83,-1.44 503.83,-1.44 503.83,-1.44 0,0 0,0 931.76,192.19 931.76,192.16 2795.31,576.51 3727.06,768.7 931.76,192.2 931.76,192.2 931.76,192.2 0,0 0,0 591.64,-1.87 591.68,-1.84 1774.97,-5.54 2366.65,-7.41 591.64,-1.83 591.64,-1.83 591.64,-1.83 0,0 0,0 887.48,-2.79 887.49,-2.79 2662.45,-8.36 2662.45,-8.36"/>
   <path class="fil0 str6" d="M30015.04 48096.72c0,0 763.66,-0.74 763.66,-0.74"/>
   <path class="fil0 str6" d="M2906.11 48174.22c0,0 771.56,0 771.56,0"/>
   <path class="fil0 str7" d="M12276.32 46878.26c0,0 -20.74,11.75 -31.15,17.64 -10.37,5.85 -10.37,5.85 -10.37,5.85 0,0 0,0 -5.36,5.86 -5.37,5.86 -16.09,17.57 -21.49,23.46 -5.36,5.86 -5.36,5.86 -5.36,5.86 0,0 0,0 -3.28,7.19 -3.32,7.23 -9.91,21.66 -13.2,28.89 -3.31,7.24 -3.31,7.24 -3.31,7.24 0,0 0,0 -0.88,7.9 -0.92,7.9 -2.72,23.71 -3.64,31.61 -0.91,7.9 -0.91,7.9 -0.91,7.9 0,0 0,0 1.58,7.8 1.59,7.76 4.73,23.35 6.32,31.11 1.59,7.8 1.59,7.8 1.59,7.8 0,0 0,0 3.91,6.91 3.88,6.92 11.71,20.75 15.59,27.66 3.92,6.91 3.92,6.91 3.92,6.91 0,0 0,0 5.86,5.37 5.85,5.36 17.53,16.12 23.39,21.52 5.85,5.36 5.85,5.36 5.85,5.36 0,0 0,0 7.23,3.31 7.24,3.29 21.7,9.88 28.93,13.2 7.23,3.28 7.23,3.28 7.23,3.28 0,0 0,0 7.87,0.92 7.9,0.91 23.67,2.71 31.57,3.63 7.91,0.88 7.91,0.88 7.91,0.88 0,0 0,0 7.79,-1.55 7.76,-1.59 23.36,-4.76 31.12,-6.35 7.79,-1.55 7.79,-1.55 7.79,-1.55 0,0 0,0 6.92,-3.92 6.91,-3.91 20.74,-11.71 27.66,-15.63 6.87,-3.88 6.87,-3.88 6.87,-3.88 0,0 0,0 5.4,-5.89 5.36,-5.85 16.12,-17.57 21.52,-23.42 5.36,-5.86 5.36,-5.86 5.36,-5.86 0,0 0,0 3.32,-7.23 3.28,-7.23 9.88,-21.66 13.19,-28.89 3.28,-7.2 3.28,-7.2 3.28,-7.2 0,0 0,0 0.92,-7.9 0.88,-7.9 2.72,-23.67 3.64,-31.58 0.88,-7.86 0.88,-7.86 0.88,-7.86 0,0 0,0 -1.59,-7.8 -1.55,-7.8 -4.73,-23.39 -6.31,-31.18 -1.56,-7.84 -1.56,-7.84 -1.56,-7.84 0,0 0,0 -3.91,-6.88 -3.92,-6.91 -11.71,-20.74 -15.63,-27.65 -3.92,-6.92 -3.92,-6.92 -3.92,-6.92 0,0 0,0 -5.85,-5.36 -5.86,-5.4 -17.57,-16.16 -23.43,-21.52 -5.85,-5.36 -5.85,-5.36 -5.85,-5.36 0,0 0,0 -7.24,-3.32 -7.23,-3.31 -21.66,-9.95 -28.89,-13.26 -7.19,-3.32 -7.19,-3.32 -7.19,-3.32 0,0 0,0 -7.91,-0.88 -7.9,-0.88 -23.67,-2.65 -31.57,-3.53 -7.87,-0.88 -7.87,-0.88 -7.87,-0.88 0,0 0,0 -11.71,2.33 -11.68,2.33 -35.03,7.02 -35.03,7.02"/>
   <path class="fil0 str7" d="M3241.71 47648.69c0,0 -20.77,11.75 -31.15,17.64 -10.38,5.85 -10.38,5.85 -10.38,5.85 0,0 0,0 -5.37,5.86 -5.37,5.89 -16.09,17.6 -21.46,23.46 -5.37,5.86 -5.37,5.86 -5.37,5.86 0,0 0,0 -3.29,7.23 -3.3,7.2 -9.9,21.66 -13.2,28.86 -3.3,7.23 -3.3,7.23 -3.3,7.23 0,0 0,0 -0.9,7.9 -0.91,7.9 -2.72,23.71 -3.63,31.61 -0.9,7.9 -0.9,7.9 -0.9,7.9 0,0 0,0 1.57,7.8 1.58,7.79 4.74,23.35 6.32,31.15 1.58,7.76 1.58,7.76 1.58,7.76 0,0 0,0 3.91,6.91 3.9,6.92 11.71,20.75 15.62,27.66 3.9,6.92 3.9,6.92 3.9,6.92 0,0 0,0 5.85,5.36 5.85,5.4 17.54,16.15 23.39,21.52 5.85,5.39 5.85,5.39 5.85,5.39 0,0 0,0 7.23,3.29 7.23,3.31 21.7,9.91 28.93,13.19 7.23,3.32 7.23,3.32 7.23,3.32 0,0 0,0 7.89,0.88 7.9,0.91 23.68,2.71 31.57,3.63 7.89,0.92 7.89,0.92 7.89,0.92 0,0 0,0 7.79,-1.59 7.78,-1.59 23.36,-4.73 31.15,-6.31 7.78,-1.59 7.78,-1.59 7.78,-1.59 0,0 0,0 6.91,-3.92 6.91,-3.88 20.73,-11.71 27.64,-15.59 6.91,-3.92 6.91,-3.92 6.91,-3.92 0,0 0,0 5.38,-5.85 5.38,-5.86 16.13,-17.61 21.51,-23.46 5.38,-5.86 5.38,-5.86 5.38,-5.86 0,0 0,0 3.3,-7.19 3.3,-7.24 9.89,-21.67 13.19,-28.9 3.3,-7.23 3.3,-7.23 3.3,-7.23 0,0 0,0 0.91,-7.87 0.9,-7.9 2.71,-23.7 3.62,-31.57 0.91,-7.9 0.91,-7.9 0.91,-7.9 0,0 0,0 -1.58,-7.8 -1.58,-7.79 -4.74,-23.39 -6.32,-31.18 -1.58,-7.8 -1.58,-7.8 -1.58,-7.8 0,0 0,0 -3.91,-6.91 -3.9,-6.92 -11.71,-20.75 -15.62,-27.66 -3.9,-6.92 -3.9,-6.92 -3.9,-6.92 0,0 0,0 -5.86,-5.36 -5.86,-5.36 -17.58,-16.12 -23.44,-21.52 -5.86,-5.36 -5.86,-5.36 -5.86,-5.36 0,0 0,0 -7.22,-3.32 -7.22,-3.31 -21.66,-9.94 -28.88,-13.26 -7.22,-3.28 -7.22,-3.28 -7.22,-3.28 0,0 0,0 -7.89,-0.88 -7.89,-0.89 -23.68,-2.65 -31.57,-3.53 -7.89,-0.88 -7.89,-0.88 -7.89,-0.88 0,0 0,0 -11.68,2.32 -11.68,2.33 -35.04,6.99 -35.04,6.99"/>
   <path class="fil0 str7" d="M21311.52 47259.93c0,0 -20.78,11.75 -31.15,17.64 -10.37,5.85 -10.37,5.85 -10.37,5.85 0,0 0,0 -5.36,5.86 -5.36,5.86 -16.12,17.6 -21.49,23.46 -5.36,5.86 -5.36,5.86 -5.36,5.86 0,0 0,0 -3.28,7.19 -3.32,7.23 -9.91,21.66 -13.19,28.89 -3.32,7.24 -3.32,7.24 -3.32,7.24 0,0 0,0 -0.92,7.9 -0.88,7.9 -2.71,23.71 -3.6,31.61 -0.91,7.9 -0.91,7.9 -0.91,7.9 0,0 0,0 1.58,7.8 1.56,7.76 4.73,23.35 6.32,31.15 1.55,7.76 1.55,7.76 1.55,7.76 0,0 0,0 3.92,6.91 3.91,6.92 11.71,20.75 15.63,27.66 3.91,6.91 3.91,6.91 3.91,6.91 0,0 0,0 5.86,5.37 5.82,5.39 17.53,16.12 23.39,21.52 5.82,5.36 5.82,5.36 5.82,5.36 0,0 0,0 7.23,3.31 7.23,3.29 21.7,9.88 28.93,13.2 7.23,3.28 7.23,3.28 7.23,3.28 0,0 0,0 7.9,0.92 7.9,0.91 23.67,2.71 31.58,3.63 7.86,0.88 7.86,0.88 7.86,0.88 0,0 0,0 7.8,-1.55 7.79,-1.59 23.35,-4.76 31.15,-6.31 7.8,-1.59 7.8,-1.59 7.8,-1.59 0,0 0,0 6.91,-3.92 6.91,-3.91 20.71,-11.71 27.62,-15.63 6.92,-3.88 6.92,-3.88 6.92,-3.88 0,0 0,0 5.36,-5.85 5.4,-5.89 16.16,-17.61 21.52,-23.46 5.4,-5.86 5.4,-5.86 5.4,-5.86 0,0 0,0 3.28,-7.23 3.31,-7.2 9.91,-21.66 13.19,-28.86 3.32,-7.23 3.32,-7.23 3.32,-7.23 0,0 0,0 0.88,-7.9 0.92,-7.87 2.75,-23.67 3.63,-31.54 0.92,-7.9 0.92,-7.9 0.92,-7.9 0,0 0,0 -1.59,-7.8 -1.59,-7.8 -4.73,-23.39 -6.31,-31.18 -1.59,-7.8 -1.59,-7.8 -1.59,-7.8 0,0 0,0 -3.92,-6.92 -3.88,-6.91 -11.71,-20.74 -15.59,-27.65 -3.92,-6.92 -3.92,-6.92 -3.92,-6.92 0,0 0,0 -5.85,-5.36 -5.86,-5.4 -17.57,-16.16 -23.46,-21.52 -5.86,-5.36 -5.86,-5.36 -5.86,-5.36 0,0 0,0 -7.19,-3.32 -7.24,-3.31 -21.66,-9.95 -28.9,-13.26 -7.23,-3.32 -7.23,-3.32 -7.23,-3.32 0,0 0,0 -7.86,-0.88 -7.91,-0.88 -23.68,-2.65 -31.58,-3.53 -7.9,-0.88 -7.9,-0.88 -7.9,-0.88 0,0 0,0 -11.68,2.36 -11.67,2.33 -35.03,6.99 -35.03,6.99"/>
   <path class="fil0 str7" d="M30341.25 47571.85c0,0 -20.77,11.75 -31.15,17.64 -10.37,5.86 -10.37,5.86 -10.37,5.86 0,0 0,0 -5.36,5.86 -5.36,5.89 -16.12,17.6 -21.48,23.46 -5.37,5.85 -5.37,5.85 -5.37,5.85 0,0 0,0 -3.28,7.23 -3.31,7.2 -9.91,21.66 -13.19,28.86 -3.32,7.23 -3.32,7.23 -3.32,7.23 0,0 0,0 -0.91,7.91 -0.89,7.9 -2.72,23.7 -3.6,31.6 -0.92,7.91 -0.92,7.91 -0.92,7.91 0,0 0,0 1.59,7.79 1.55,7.8 4.73,23.36 6.31,31.15 1.56,7.76 1.56,7.76 1.56,7.76 0,0 0,0 3.91,6.92 3.92,6.91 11.71,20.74 15.63,27.66 3.91,6.91 3.91,6.91 3.91,6.91 0,0 0,0 5.86,5.36 5.82,5.4 17.53,16.16 23.35,21.52 5.86,5.4 5.86,5.4 5.86,5.4 0,0 0,0 7.23,3.28 7.23,3.32 21.7,9.91 28.93,13.19 7.23,3.32 7.23,3.32 7.23,3.32 0,0 0,0 7.9,0.88 7.91,0.92 23.68,2.72 31.58,3.64 7.9,0.91 7.9,0.91 7.9,0.91 0,0 0,0 7.76,-1.58 7.8,-1.59 23.36,-4.73 31.15,-6.32 7.8,-1.59 7.8,-1.59 7.8,-1.59 0,0 0,0 6.91,-3.91 6.92,-3.88 20.71,-11.71 27.63,-15.6 6.91,-3.91 6.91,-3.91 6.91,-3.91 0,0 0,0 5.4,-5.86 5.36,-5.85 16.12,-17.6 21.48,-23.46 5.4,-5.85 5.4,-5.85 5.4,-5.85 0,0 0,0 3.28,-7.2 3.32,-7.23 9.91,-21.66 13.19,-28.89 3.32,-7.23 3.32,-7.23 3.32,-7.23 0,0 0,0 0.88,-7.87 0.92,-7.9 2.75,-23.71 3.64,-31.57 0.91,-7.91 0.91,-7.91 0.91,-7.91 0,0 0,0 -1.58,-7.79 -1.59,-7.8 -4.73,-23.39 -6.32,-31.19 -1.59,-7.79 -1.59,-7.79 -1.59,-7.79 0,0 0,0 -3.88,-6.92 -3.91,-6.91 -11.75,-20.74 -15.63,-27.66 -3.91,-6.91 -3.91,-6.91 -3.91,-6.91 0,0 0,0 -5.86,-5.36 -5.85,-5.4 -17.57,-16.13 -23.46,-21.52 -5.85,-5.37 -5.85,-5.37 -5.85,-5.37 0,0 0,0 -7.2,-3.31 -7.23,-3.32 -21.66,-9.95 -28.89,-13.27 -7.23,-3.28 -7.23,-3.28 -7.23,-3.28 0,0 0,0 -7.87,-0.88 -7.9,-0.88 -23.67,-2.64 -31.58,-3.53 -7.9,-0.88 -7.9,-0.88 -7.9,-0.88 0,0 0,0 -11.67,2.33 -11.68,2.33 -35.04,6.98 -35.04,6.98"/>
  </g>
  <g id="side">
   <path class="fil0 str6" d="M943.96 51920.59c0,0 -764.75,-0.31 -764.75,-0.31"/>
   <path class="fil0 str6" d="M13729.66 43175.2c0,0 -6660.93,1.44 -9991.4,2.15 -3330.47,0.71 -3330.47,0.71 -3330.47,0.71 0,0 0,0 -3,0.14 -2.99,0.1 -8.98,0.38 -11.98,0.49 -2.99,0.14 -2.99,0.14 -2.99,0.14 0,0 0,0 -2.98,0.32 -2.97,0.35 -8.91,1.06 -11.88,1.38 -2.97,0.35 -2.97,0.35 -2.97,0.35 0,0 0,0 -2.93,0.6 -2.94,0.56 -8.8,1.73 -11.74,2.33 -2.93,0.56 -2.93,0.56 -2.93,0.56 0,0 0,0 -2.88,0.81 -2.88,0.81 -8.65,2.44 -11.52,3.28 -2.89,0.81 -2.89,0.81 -2.89,0.81 0,0 0,0 -2.8,1.03 -2.81,1.06 -8.42,3.14 -11.23,4.16 -2.8,1.06 -2.8,1.06 -2.8,1.06 0,0 0,0 -2.71,1.23 -2.7,1.24 -8.11,3.74 -10.81,4.98 -2.71,1.23 -2.71,1.23 -2.71,1.23 0,0 0,0 -2.61,1.48 -2.62,1.49 -7.85,4.41 -10.46,5.89 -2.62,1.49 -2.62,1.49 -2.62,1.49 0,0 0,0 -2.49,1.62 -2.48,1.66 -7.46,4.97 -9.95,6.63 -2.49,1.62 -2.49,1.62 -2.49,1.62 0,0 0,0 -2.35,1.87 -2.35,1.84 -7.04,5.58 -9.39,7.41 -2.35,1.87 -2.35,1.87 -2.35,1.87 0,0 0,0 -2.2,2.01 -2.19,2.05 -6.58,6.11 -8.78,8.15 -2.2,2.01 -2.2,2.01 -2.2,2.01 0,0 0,0 -2.03,2.19 -2.03,2.22 -6.09,6.6 -8.13,8.78 -2.02,2.23 -2.02,2.23 -2.02,2.23 0,0 0,0 -1.86,2.33 -1.85,2.36 -5.56,7.05 -7.42,9.41 -1.85,2.33 -1.85,2.33 -1.85,2.33 0,0 0,0 -1.65,2.51 -1.65,2.47 -4.95,7.44 -6.6,9.95 -1.65,2.47 -1.65,2.47 -1.65,2.47 0,0 0,0 -1.47,2.61 -1.48,2.64 -4.42,7.86 -5.89,10.47 -1.48,2.61 -1.48,2.61 -1.48,2.61 0,0 0,0 -1.24,2.72 -1.24,2.68 -3.73,8.11 -4.98,10.8 -1.24,2.71 -1.24,2.71 -1.24,2.71 0,0 0,0 -1.04,2.82 -1.04,2.79 -3.12,8.4 -4.17,11.22 -1.04,2.79 -1.04,2.79 -1.04,2.79 0,0 0,0 -0.81,2.89 -0.81,2.89 -2.44,8.64 -3.25,11.54 -0.81,2.86 -0.81,2.86 -0.81,2.86 0,0 0,0 -0.59,2.96 -0.58,2.93 -1.75,8.78 -2.33,11.71 -0.58,2.93 -0.58,2.93 -0.58,2.93 0,0 0,0 -0.35,2.96 -0.34,3 -1.03,8.93 -1.37,11.89 -0.34,2.96 -0.34,2.96 -0.34,2.96 0,0 0,0 -0.12,3 -0.11,3 -0.34,9 -0.45,12 -0.12,3 -0.12,3 -0.12,3 0,0 0,0 -1.28,1419.33 -1.28,1419.33 -3.83,4258.02 -5.11,5677.35 -1.28,1419.33 -1.28,1419.33 -1.28,1419.33 0,0 0,0 192.84,0 192.83,-0.03 578.5,-0.03 578.5,-0.03"/>
   <path class="fil0 str6" d="M13728.78 43939.88c0,0 -6393.88,0 -9590.82,0 -3196.96,0 -3196.96,0 -3196.96,0 0,0 0,0 -0.23,1995.66 -0.22,1995.7 -0.68,5987.1 -0.68,5987.1"/>
   <path class="fil0 str6" d="M13729.66 43175.2c0,0 -0.88,764.68 -0.88,764.68"/>
   <path class="fil0 str7" d="M506.81 43416.11c0,0 -20.77,11.75 -31.15,17.64 -10.39,5.89 -10.39,5.89 -10.39,5.89 0,0 0,0 -5.36,5.86 -5.37,5.85 -16.1,17.56 -21.46,23.42 -5.37,5.86 -5.37,5.86 -5.37,5.86 0,0 0,0 -3.3,7.23 -3.3,7.23 -9.89,21.66 -13.19,28.86 -3.3,7.23 -3.3,7.23 -3.3,7.23 0,0 0,0 -0.91,7.9 -0.9,7.9 -2.71,23.71 -3.62,31.61 -0.91,7.94 -0.91,7.94 -0.91,7.94 0,0 0,0 1.58,7.76 1.58,7.79 4.74,23.35 6.32,31.15 1.58,7.79 1.58,7.79 1.58,7.79 0,0 0,0 3.9,6.88 3.91,6.92 11.72,20.75 15.62,27.66 3.91,6.92 3.91,6.92 3.91,6.92 0,0 0,0 5.85,5.36 5.84,5.4 17.54,16.16 23.38,21.52 5.85,5.39 5.85,5.39 5.85,5.39 0,0 0,0 7.24,3.29 7.23,3.31 21.7,9.91 28.93,13.19 7.23,3.32 7.23,3.32 7.23,3.32 0,0 0,0 7.89,0.88 7.89,0.91 23.68,2.71 31.57,3.63 7.89,0.92 7.89,0.92 7.89,0.92 0,0 0,0 7.78,-1.59 7.79,-1.59 23.37,-4.73 31.15,-6.31 7.79,-1.59 7.79,-1.59 7.79,-1.59 0,0 0,0 6.9,-3.88 6.92,-3.92 20.74,-11.75 27.65,-15.63 6.91,-3.92 6.91,-3.92 6.91,-3.92 0,0 0,0 5.38,-5.85 5.37,-5.86 16.13,-17.57 21.51,-23.46 5.37,-5.86 5.37,-5.86 5.37,-5.86 0,0 0,0 3.3,-7.19 3.3,-7.24 9.9,-21.66 13.2,-28.9 3.29,-7.23 3.29,-7.23 3.29,-7.23 0,0 0,0 0.91,-7.87 0.91,-7.9 2.72,-23.67 3.62,-31.57 0.91,-7.9 0.91,-7.9 0.91,-7.9 0,0 0,0 -1.58,-7.8 -1.58,-7.79 -4.73,-23.39 -6.31,-31.18 -1.58,-7.8 -1.58,-7.8 -1.58,-7.8 0,0 0,0 -3.91,-6.91 -3.9,-6.92 -11.72,-20.75 -15.62,-27.66 -3.91,-6.88 -3.91,-6.88 -3.91,-6.88 0,0 0,0 -5.86,-5.4 -5.86,-5.36 -17.57,-16.12 -23.43,-21.52 -5.87,-5.36 -5.87,-5.36 -5.87,-5.36 0,0 0,0 -7.21,-3.32 -7.23,-3.31 -21.67,-9.94 -28.89,-13.23 -7.21,-3.31 -7.21,-3.31 -7.21,-3.31 0,0 0,0 -7.9,-0.88 -7.89,-0.89 -23.67,-2.65 -31.56,-3.53 -7.89,-0.88 -7.89,-0.88 -7.89,-0.88 0,0 0,0 -11.69,2.33 -11.67,2.32 -35.03,6.98 -35.03,6.98"/>
   <path class="fil0 str7" d="M9539.97 43416.11c0,0 -20.78,11.75 -31.15,17.64 -10.41,5.89 -10.41,5.89 -10.41,5.89 0,0 0,0 -5.36,5.86 -5.36,5.85 -16.09,17.56 -21.45,23.42 -5.36,5.86 -5.36,5.86 -5.36,5.86 0,0 0,0 -3.32,7.23 -3.28,7.23 -9.87,21.66 -13.19,28.86 -3.28,7.23 -3.28,7.23 -3.28,7.23 0,0 0,0 -0.92,7.9 -0.92,7.9 -2.72,23.71 -3.63,31.61 -0.88,7.94 -0.88,7.94 -0.88,7.94 0,0 0,0 1.55,7.76 1.59,7.79 4.76,23.35 6.31,31.15 1.59,7.79 1.59,7.79 1.59,7.79 0,0 0,0 3.92,6.88 3.91,6.92 11.71,20.75 15.62,27.66 3.88,6.92 3.88,6.92 3.88,6.92 0,0 0,0 5.86,5.36 5.86,5.4 17.53,16.16 23.39,21.52 5.86,5.39 5.86,5.39 5.86,5.39 0,0 0,0 7.23,3.29 7.23,3.31 21.69,9.91 28.93,13.19 7.23,3.32 7.23,3.32 7.23,3.32 0,0 0,0 7.9,0.88 7.87,0.91 23.67,2.71 31.54,3.63 7.9,0.92 7.9,0.92 7.9,0.92 0,0 0,0 7.8,-1.59 7.79,-1.59 23.35,-4.73 31.15,-6.31 7.76,-1.59 7.76,-1.59 7.76,-1.59 0,0 0,0 6.91,-3.88 6.92,-3.92 20.75,-11.75 27.66,-15.63 6.91,-3.92 6.91,-3.92 6.91,-3.92 0,0 0,0 5.37,-5.85 5.39,-5.86 16.12,-17.57 21.52,-23.46 5.36,-5.86 5.36,-5.86 5.36,-5.86 0,0 0,0 3.31,-7.19 3.29,-7.24 9.88,-21.66 13.2,-28.9 3.28,-7.23 3.28,-7.23 3.28,-7.23 0,0 0,0 0.92,-7.87 0.91,-7.9 2.71,-23.67 3.63,-31.57 0.92,-7.9 0.92,-7.9 0.92,-7.9 0,0 0,0 -1.59,-7.8 -1.59,-7.79 -4.76,-23.39 -6.32,-31.18 -1.58,-7.8 -1.58,-7.8 -1.58,-7.8 0,0 0,0 -3.92,-6.91 -3.88,-6.92 -11.71,-20.75 -15.63,-27.66 -3.88,-6.88 -3.88,-6.88 -3.88,-6.88 0,0 0,0 -5.85,-5.4 -5.89,-5.36 -17.61,-16.12 -23.46,-21.52 -5.86,-5.36 -5.86,-5.36 -5.86,-5.36 0,0 0,0 -7.23,-3.32 -7.2,-3.31 -21.66,-9.94 -28.86,-13.23 -7.23,-3.31 -7.23,-3.31 -7.23,-3.31 0,0 0,0 -7.9,-0.88 -7.87,-0.89 -23.67,-2.65 -31.54,-3.53 -7.9,-0.88 -7.9,-0.88 -7.9,-0.88 0,0 0,0 -11.68,2.33 -11.68,2.32 -35.03,6.98 -35.03,6.98"/>
  </g>
  <g id="side_1">
   <path class="fil0 str6" d="M35451.16 51507.73c0,0 764.75,-0.31 764.75,-0.31"/>
   <path class="fil0 str6" d="M22665.46 42762.34c0,0 6660.93,1.44 9991.4,2.15 3330.47,0.71 3330.47,0.71 3330.47,0.71 0,0 0,0 3,0.14 2.99,0.1 8.98,0.38 11.98,0.49 2.99,0.14 2.99,0.14 2.99,0.14 0,0 0,0 2.98,0.32 2.97,0.35 8.91,1.06 11.88,1.38 2.97,0.35 2.97,0.35 2.97,0.35 0,0 0,0 2.93,0.6 2.94,0.56 8.8,1.73 11.74,2.33 2.93,0.56 2.93,0.56 2.93,0.56 0,0 0,0 2.88,0.81 2.88,0.81 8.65,2.44 11.52,3.28 2.89,0.81 2.89,0.81 2.89,0.81 0,0 0,0 2.8,1.03 2.81,1.06 8.42,3.14 11.23,4.16 2.8,1.06 2.8,1.06 2.8,1.06 0,0 0,0 2.71,1.23 2.7,1.24 8.11,3.74 10.81,4.98 2.71,1.23 2.71,1.23 2.71,1.23 0,0 0,0 2.61,1.48 2.62,1.49 7.85,4.41 10.46,5.89 2.62,1.49 2.62,1.49 2.62,1.49 0,0 0,0 2.49,1.62 2.48,1.66 7.46,4.97 9.95,6.63 2.49,1.62 2.49,1.62 2.49,1.62 0,0 0,0 2.35,1.87 2.35,1.84 7.04,5.58 9.39,7.41 2.35,1.87 2.35,1.87 2.35,1.87 0,0 0,0 2.2,2.01 2.19,2.05 6.58,6.11 8.78,8.15 2.2,2.01 2.2,2.01 2.2,2.01 0,0 0,0 2.03,2.19 2.03,2.22 6.09,6.6 8.13,8.78 2.02,2.23 2.02,2.23 2.02,2.23 0,0 0,0 1.86,2.33 1.85,2.36 5.56,7.05 7.42,9.41 1.85,2.33 1.85,2.33 1.85,2.33 0,0 0,0 1.65,2.51 1.65,2.47 4.95,7.44 6.6,9.95 1.65,2.47 1.65,2.47 1.65,2.47 0,0 0,0 1.47,2.61 1.48,2.64 4.42,7.86 5.89,10.47 1.48,2.61 1.48,2.61 1.48,2.61 0,0 0,0 1.24,2.72 1.24,2.68 3.73,8.11 4.98,10.8 1.24,2.71 1.24,2.71 1.24,2.71 0,0 0,0 1.04,2.82 1.04,2.79 3.12,8.4 4.17,11.22 1.04,2.79 1.04,2.79 1.04,2.79 0,0 0,0 0.81,2.89 0.81,2.89 2.44,8.64 3.25,11.54 0.81,2.86 0.81,2.86 0.81,2.86 0,0 0,0 0.59,2.96 0.58,2.93 1.75,8.78 2.33,11.71 0.58,2.93 0.58,2.93 0.58,2.93 0,0 0,0 0.35,2.96 0.34,3 1.03,8.93 1.37,11.89 0.34,2.96 0.34,2.96 0.34,2.96 0,0 0,0 0.12,3 0.11,3 0.34,9 0.45,12 0.12,3 0.12,3 0.12,3 0,0 0,0 1.28,1419.33 1.28,1419.33 3.83,4258.02 5.11,5677.35 1.28,1419.33 1.28,1419.33 1.28,1419.33 0,0 0,0 -192.84,0 -192.83,-0.03 -578.5,-0.03 -578.5,-0.03"/>
   <path class="fil0 str6" d="M22666.34 43527.02c0,0 6393.88,0 9590.82,0 3196.96,0 3196.96,0 3196.96,0 0,0 0,0 0.23,1995.66 0.22,1995.7 0.68,5987.1 0.68,5987.1"/>
   <path class="fil0 str6" d="M22665.46 42762.34c0,0 0.88,764.68 0.88,764.68"/>
   <path class="fil0 str7" d="M35888.31 43003.25c0,0 20.77,11.75 31.15,17.64 10.39,5.89 10.39,5.89 10.39,5.89 0,0 0,0 5.36,5.86 5.37,5.85 16.1,17.56 21.46,23.42 5.37,5.86 5.37,5.86 5.37,5.86 0,0 0,0 3.3,7.23 3.3,7.23 9.89,21.66 13.19,28.86 3.3,7.23 3.3,7.23 3.3,7.23 0,0 0,0 0.91,7.9 0.9,7.9 2.71,23.71 3.62,31.61 0.91,7.94 0.91,7.94 0.91,7.94 0,0 0,0 -1.58,7.76 -1.58,7.79 -4.74,23.35 -6.32,31.15 -1.58,7.79 -1.58,7.79 -1.58,7.79 0,0 0,0 -3.9,6.88 -3.91,6.92 -11.72,20.75 -15.62,27.66 -3.91,6.92 -3.91,6.92 -3.91,6.92 0,0 0,0 -5.85,5.36 -5.84,5.4 -17.54,16.16 -23.38,21.52 -5.85,5.39 -5.85,5.39 -5.85,5.39 0,0 0,0 -7.24,3.29 -7.23,3.31 -21.7,9.91 -28.93,13.19 -7.23,3.32 -7.23,3.32 -7.23,3.32 0,0 0,0 -7.89,0.88 -7.89,0.91 -23.68,2.71 -31.57,3.63 -7.89,0.92 -7.89,0.92 -7.89,0.92 0,0 0,0 -7.78,-1.59 -7.79,-1.59 -23.37,-4.73 -31.15,-6.31 -7.79,-1.59 -7.79,-1.59 -7.79,-1.59 0,0 0,0 -6.9,-3.88 -6.92,-3.92 -20.74,-11.75 -27.65,-15.63 -6.91,-3.92 -6.91,-3.92 -6.91,-3.92 0,0 0,0 -5.38,-5.85 -5.37,-5.86 -16.13,-17.57 -21.51,-23.46 -5.37,-5.86 -5.37,-5.86 -5.37,-5.86 0,0 0,0 -3.3,-7.19 -3.3,-7.24 -9.9,-21.66 -13.2,-28.9 -3.29,-7.23 -3.29,-7.23 -3.29,-7.23 0,0 0,0 -0.91,-7.87 -0.91,-7.9 -2.72,-23.67 -3.62,-31.57 -0.91,-7.9 -0.91,-7.9 -0.91,-7.9 0,0 0,0 1.58,-7.8 1.58,-7.79 4.73,-23.39 6.31,-31.18 1.58,-7.8 1.58,-7.8 1.58,-7.8 0,0 0,0 3.91,-6.91 3.9,-6.92 11.72,-20.75 15.62,-27.66 3.91,-6.88 3.91,-6.88 3.91,-6.88 0,0 0,0 5.86,-5.4 5.86,-5.36 17.57,-16.12 23.43,-21.52 5.87,-5.36 5.87,-5.36 5.87,-5.36 0,0 0,0 7.21,-3.32 7.23,-3.31 21.67,-9.94 28.89,-13.23 7.21,-3.31 7.21,-3.31 7.21,-3.31 0,0 0,0 7.9,-0.88 7.89,-0.89 23.67,-2.65 31.56,-3.53 7.89,-0.88 7.89,-0.88 7.89,-0.88 0,0 0,0 11.69,2.33 11.67,2.32 35.03,6.98 35.03,6.98"/>
   <path class="fil0 str7" d="M26855.15 43003.25c0,0 20.78,11.75 31.15,17.64 10.41,5.89 10.41,5.89 10.41,5.89 0,0 0,0 5.36,5.86 5.36,5.85 16.09,17.56 21.45,23.42 5.36,5.86 5.36,5.86 5.36,5.86 0,0 0,0 3.32,7.23 3.28,7.23 9.87,21.66 13.19,28.86 3.28,7.23 3.28,7.23 3.28,7.23 0,0 0,0 0.92,7.9 0.92,7.9 2.72,23.71 3.63,31.61 0.88,7.94 0.88,7.94 0.88,7.94 0,0 0,0 -1.55,7.76 -1.59,7.79 -4.76,23.35 -6.31,31.15 -1.59,7.79 -1.59,7.79 -1.59,7.79 0,0 0,0 -3.92,6.88 -3.91,6.92 -11.71,20.75 -15.62,27.66 -3.88,6.92 -3.88,6.92 -3.88,6.92 0,0 0,0 -5.86,5.36 -5.86,5.4 -17.53,16.16 -23.39,21.52 -5.86,5.39 -5.86,5.39 -5.86,5.39 0,0 0,0 -7.23,3.29 -7.23,3.31 -21.69,9.91 -28.93,13.19 -7.23,3.32 -7.23,3.32 -7.23,3.32 0,0 0,0 -7.9,0.88 -7.87,0.91 -23.67,2.71 -31.54,3.63 -7.9,0.92 -7.9,0.92 -7.9,0.92 0,0 0,0 -7.8,-1.59 -7.79,-1.59 -23.35,-4.73 -31.15,-6.31 -7.76,-1.59 -7.76,-1.59 -7.76,-1.59 0,0 0,0 -6.91,-3.88 -6.92,-3.92 -20.75,-11.75 -27.66,-15.63 -6.91,-3.92 -6.91,-3.92 -6.91,-3.92 0,0 0,0 -5.37,-5.85 -5.39,-5.86 -16.12,-17.57 -21.52,-23.46 -5.36,-5.86 -5.36,-5.86 -5.36,-5.86 0,0 0,0 -3.31,-7.19 -3.29,-7.24 -9.88,-21.66 -13.2,-28.9 -3.28,-7.23 -3.28,-7.23 -3.28,-7.23 0,0 0,0 -0.92,-7.87 -0.91,-7.9 -2.71,-23.67 -3.63,-31.57 -0.92,-7.9 -0.92,-7.9 -0.92,-7.9 0,0 0,0 1.59,-7.8 1.59,-7.79 4.76,-23.39 6.32,-31.18 1.58,-7.8 1.58,-7.8 1.58,-7.8 0,0 0,0 3.92,-6.91 3.88,-6.92 11.71,-20.75 15.63,-27.66 3.88,-6.88 3.88,-6.88 3.88,-6.88 0,0 0,0 5.85,-5.4 5.89,-5.36 17.61,-16.12 23.46,-21.52 5.86,-5.36 5.86,-5.36 5.86,-5.36 0,0 0,0 7.23,-3.32 7.2,-3.31 21.66,-9.94 28.86,-13.23 7.23,-3.31 7.23,-3.31 7.23,-3.31 0,0 0,0 7.9,-0.88 7.87,-0.89 23.67,-2.65 31.54,-3.53 7.9,-0.88 7.9,-0.88 7.9,-0.88 0,0 0,0 11.68,2.33 11.68,2.32 35.03,6.98 35.03,6.98"/>
  </g>
  <g id="feet">
   <polyline class="fil0 str6" points="14711.45,49876.98 17758.38,49876.98 17758.38,49115.27 14711.45,49115.27 14711.45,49876.98 "/>
   <path class="fil0 str6" d="M15426.03 49351.1c0,0 -21.28,10.86 -31.89,16.3 -10.62,5.39 -10.62,5.39 -10.62,5.39 0,0 0,0 -5.61,5.65 -5.61,5.61 -16.83,16.86 -22.46,22.47 -5.61,5.64 -5.61,5.64 -5.61,5.64 0,0 0,0 -3.6,7.06 -3.61,7.09 -10.82,21.24 -14.43,28.29 -3.6,7.09 -3.6,7.09 -3.6,7.09 0,0 0,0 -1.25,7.83 -1.24,7.87 -3.73,23.61 -4.97,31.44 -1.25,7.86 -1.25,7.86 -1.25,7.86 0,0 0,0 1.25,7.87 1.24,7.83 3.73,23.53 4.97,31.36 1.25,7.87 1.25,7.87 1.25,7.87 0,0 0,0 3.6,7.06 3.61,7.05 10.82,21.2 14.43,28.29 3.6,7.05 3.6,7.05 3.6,7.05 0,0 0,0 5.61,5.65 5.63,5.61 16.85,16.86 22.46,22.47 5.61,5.64 5.61,5.64 5.61,5.64 0,0 0,0 7.09,3.6 7.05,3.6 21.24,10.83 28.33,14.43 7.09,3.6 7.09,3.6 7.09,3.6 0,0 0,0 7.83,1.23 7.83,1.27 23.53,3.74 31.4,4.98 7.83,1.27 7.83,1.27 7.83,1.27 0,0 0,0 7.83,-1.27 7.87,-1.24 23.56,-3.71 31.4,-4.98 7.83,-1.23 7.83,-1.23 7.83,-1.23 0,0 0,0 7.09,-3.6 7.05,-3.6 21.2,-10.83 28.29,-14.43 7.06,-3.6 7.06,-3.6 7.06,-3.6 0,0 0,0 5.64,-5.64 5.61,-5.61 16.86,-16.86 22.47,-22.47 5.65,-5.65 5.65,-5.65 5.65,-5.65 0,0 0,0 3.6,-7.05 3.59,-7.09 10.79,-21.24 14.42,-28.29 3.6,-7.06 3.6,-7.06 3.6,-7.06 0,0 0,0 1.24,-7.87 1.23,-7.83 3.74,-23.53 4.97,-31.36 1.27,-7.87 1.27,-7.87 1.27,-7.87 0,0 0,0 -1.27,-7.86 -1.23,-7.83 -3.74,-23.57 -4.97,-31.44 -1.24,-7.83 -1.24,-7.83 -1.24,-7.83 0,0 0,0 -3.6,-7.09 -3.63,-7.05 -10.83,-21.2 -14.42,-28.29 -3.6,-7.06 -3.6,-7.06 -3.6,-7.06 0,0 0,0 -5.65,-5.64 -5.61,-5.61 -16.86,-16.86 -22.47,-22.47 -5.64,-5.65 -5.64,-5.65 -5.64,-5.65 0,0 0,0 -7.06,-3.6 -7.09,-3.63 -21.24,-10.86 -28.29,-14.46 -7.09,-3.63 -7.09,-3.63 -7.09,-3.63 0,0 0,0 -7.83,-1.24 -7.84,-1.2 -23.53,-3.63 -31.4,-4.87 -7.83,-1.2 -7.83,-1.2 -7.83,-1.2 0,0 0,0 -11.79,1.8 -11.74,1.84 -35.27,5.51 -35.27,5.51"/>
   <path class="fil0 str6" d="M16949.67 49351.1c0,0 -21.27,10.86 -31.89,16.3 -10.62,5.39 -10.62,5.39 -10.62,5.39 0,0 0,0 -5.61,5.65 -5.6,5.61 -16.86,16.86 -22.47,22.47 -5.61,5.64 -5.61,5.64 -5.61,5.64 0,0 0,0 -3.59,7.06 -3.6,7.09 -10.8,21.24 -14.43,28.29 -3.6,7.09 -3.6,7.09 -3.6,7.09 0,0 0,0 -1.24,7.83 -1.23,7.87 -3.74,23.61 -4.97,31.44 -1.24,7.86 -1.24,7.86 -1.24,7.86 0,0 0,0 1.24,7.87 1.23,7.83 3.74,23.53 4.97,31.36 1.24,7.87 1.24,7.87 1.24,7.87 0,0 0,0 3.6,7.06 3.63,7.05 10.83,21.2 14.43,28.29 3.59,7.05 3.59,7.05 3.59,7.05 0,0 0,0 5.61,5.65 5.61,5.61 16.87,16.86 22.47,22.47 5.61,5.64 5.61,5.64 5.61,5.64 0,0 0,0 7.09,3.6 7.06,3.6 21.24,10.83 28.33,14.43 7.09,3.6 7.09,3.6 7.09,3.6 0,0 0,0 7.84,1.23 7.83,1.27 23.53,3.74 31.39,4.98 7.83,1.27 7.83,1.27 7.83,1.27 0,0 0,0 7.84,-1.27 7.86,-1.24 23.56,-3.71 31.39,-4.98 7.83,-1.23 7.83,-1.23 7.83,-1.23 0,0 0,0 7.1,-3.6 7.05,-3.6 21.2,-10.83 28.29,-14.43 7.05,-3.6 7.05,-3.6 7.05,-3.6 0,0 0,0 5.65,-5.64 5.61,-5.61 16.86,-16.86 22.47,-22.47 5.64,-5.65 5.64,-5.65 5.64,-5.65 0,0 0,0 3.6,-7.05 3.6,-7.09 10.8,-21.24 14.43,-28.29 3.6,-7.06 3.6,-7.06 3.6,-7.06 0,0 0,0 1.23,-7.87 1.24,-7.83 3.74,-23.53 4.98,-31.36 1.23,-7.87 1.23,-7.87 1.23,-7.87 0,0 0,0 -1.23,-7.86 -1.24,-7.83 -3.74,-23.57 -4.98,-31.44 -1.23,-7.83 -1.23,-7.83 -1.23,-7.83 0,0 0,0 -3.6,-7.09 -3.63,-7.05 -10.83,-21.2 -14.43,-28.29 -3.6,-7.06 -3.6,-7.06 -3.6,-7.06 0,0 0,0 -5.64,-5.64 -5.61,-5.61 -16.86,-16.86 -22.47,-22.47 -5.65,-5.65 -5.65,-5.65 -5.65,-5.65 0,0 0,0 -7.05,-3.6 -7.09,-3.63 -21.24,-10.86 -28.29,-14.46 -7.1,-3.63 -7.1,-3.63 -7.1,-3.63 0,0 0,0 -7.83,-1.24 -7.83,-1.2 -23.53,-3.63 -31.39,-4.87 -7.84,-1.2 -7.84,-1.2 -7.84,-1.2 0,0 0,0 -11.78,1.8 -11.75,1.84 -35.28,5.51 -35.28,5.51"/>
   <polyline class="fil0 str6" points="14711.45,50787.96 17758.38,50787.96 17758.38,50026.24 14711.45,50026.24 14711.45,50787.96 "/>
   <path class="fil0 str6" d="M15426.03 50262.08c0,0 -21.28,10.83 -31.89,16.26 -10.62,5.43 -10.62,5.43 -10.62,5.43 0,0 0,0 -5.61,5.65 -5.61,5.6 -16.83,16.86 -22.46,22.47 -5.61,5.64 -5.61,5.64 -5.61,5.64 0,0 0,0 -3.6,7.06 -3.61,7.09 -10.82,21.2 -14.43,28.29 -3.6,7.06 -3.6,7.06 -3.6,7.06 0,0 0,0 -1.25,7.86 -1.24,7.87 -3.73,23.57 -4.97,31.44 -1.25,7.86 -1.25,7.86 -1.25,7.86 0,0 0,0 1.25,7.83 1.24,7.87 3.73,23.57 4.97,31.4 1.25,7.83 1.25,7.83 1.25,7.83 0,0 0,0 3.6,7.09 3.61,7.06 10.82,21.21 14.43,28.3 3.6,7.05 3.6,7.05 3.6,7.05 0,0 0,0 5.61,5.61 5.63,5.65 16.85,16.9 22.46,22.51 5.61,5.64 5.61,5.64 5.61,5.64 0,0 0,0 7.09,3.6 7.05,3.6 21.24,10.8 28.33,14.43 7.09,3.6 7.09,3.6 7.09,3.6 0,0 0,0 7.83,1.23 7.83,1.24 23.53,3.74 31.4,4.98 7.83,1.23 7.83,1.23 7.83,1.23 0,0 0,0 7.83,-1.23 7.87,-1.24 23.56,-3.74 31.4,-4.98 7.83,-1.23 7.83,-1.23 7.83,-1.23 0,0 0,0 7.09,-3.6 7.05,-3.63 21.2,-10.83 28.29,-14.43 7.06,-3.6 7.06,-3.6 7.06,-3.6 0,0 0,0 5.64,-5.64 5.61,-5.61 16.86,-16.86 22.47,-22.51 5.65,-5.61 5.65,-5.61 5.65,-5.61 0,0 0,0 3.6,-7.05 3.59,-7.09 10.79,-21.24 14.42,-28.3 3.6,-7.09 3.6,-7.09 3.6,-7.09 0,0 0,0 1.24,-7.83 1.23,-7.83 3.74,-23.53 4.97,-31.4 1.27,-7.83 1.27,-7.83 1.27,-7.83 0,0 0,0 -1.27,-7.86 -1.23,-7.87 -3.74,-23.57 -4.97,-31.44 -1.24,-7.86 -1.24,-7.86 -1.24,-7.86 0,0 0,0 -3.6,-7.06 -3.63,-7.09 -10.83,-21.2 -14.42,-28.29 -3.6,-7.06 -3.6,-7.06 -3.6,-7.06 0,0 0,0 -5.65,-5.64 -5.61,-5.61 -16.86,-16.87 -22.47,-22.47 -5.64,-5.65 -5.64,-5.65 -5.64,-5.65 0,0 0,0 -7.06,-3.6 -7.09,-3.63 -21.24,-10.86 -28.29,-14.5 -7.09,-3.59 -7.09,-3.59 -7.09,-3.59 0,0 0,0 -7.83,-1.24 -7.84,-1.2 -23.53,-3.63 -31.4,-4.87 -7.83,-1.23 -7.83,-1.23 -7.83,-1.23 0,0 0,0 -11.79,1.83 -11.74,1.84 -35.27,5.51 -35.27,5.51"/>
   <path class="fil0 str6" d="M16949.67 50262.08c0,0 -21.27,10.83 -31.89,16.26 -10.62,5.43 -10.62,5.43 -10.62,5.43 0,0 0,0 -5.61,5.65 -5.6,5.6 -16.86,16.86 -22.47,22.47 -5.61,5.64 -5.61,5.64 -5.61,5.64 0,0 0,0 -3.59,7.06 -3.6,7.09 -10.8,21.2 -14.43,28.29 -3.6,7.06 -3.6,7.06 -3.6,7.06 0,0 0,0 -1.24,7.86 -1.23,7.87 -3.74,23.57 -4.97,31.44 -1.24,7.86 -1.24,7.86 -1.24,7.86 0,0 0,0 1.24,7.83 1.23,7.87 3.74,23.57 4.97,31.4 1.24,7.83 1.24,7.83 1.24,7.83 0,0 0,0 3.6,7.09 3.63,7.06 10.83,21.21 14.43,28.3 3.59,7.05 3.59,7.05 3.59,7.05 0,0 0,0 5.61,5.61 5.61,5.65 16.87,16.9 22.47,22.51 5.61,5.64 5.61,5.64 5.61,5.64 0,0 0,0 7.09,3.6 7.06,3.6 21.24,10.8 28.33,14.43 7.09,3.6 7.09,3.6 7.09,3.6 0,0 0,0 7.84,1.23 7.83,1.24 23.53,3.74 31.39,4.98 7.83,1.23 7.83,1.23 7.83,1.23 0,0 0,0 7.84,-1.23 7.86,-1.24 23.56,-3.74 31.39,-4.98 7.83,-1.23 7.83,-1.23 7.83,-1.23 0,0 0,0 7.1,-3.6 7.05,-3.63 21.2,-10.83 28.29,-14.43 7.05,-3.6 7.05,-3.6 7.05,-3.6 0,0 0,0 5.65,-5.64 5.61,-5.61 16.86,-16.86 22.47,-22.51 5.64,-5.61 5.64,-5.61 5.64,-5.61 0,0 0,0 3.6,-7.05 3.6,-7.09 10.8,-21.24 14.43,-28.3 3.6,-7.09 3.6,-7.09 3.6,-7.09 0,0 0,0 1.23,-7.83 1.24,-7.83 3.74,-23.53 4.98,-31.4 1.23,-7.83 1.23,-7.83 1.23,-7.83 0,0 0,0 -1.23,-7.86 -1.24,-7.87 -3.74,-23.57 -4.98,-31.44 -1.23,-7.86 -1.23,-7.86 -1.23,-7.86 0,0 0,0 -3.6,-7.06 -3.63,-7.09 -10.83,-21.2 -14.43,-28.29 -3.6,-7.06 -3.6,-7.06 -3.6,-7.06 0,0 0,0 -5.64,-5.64 -5.61,-5.61 -16.86,-16.87 -22.47,-22.47 -5.65,-5.65 -5.65,-5.65 -5.65,-5.65 0,0 0,0 -7.05,-3.6 -7.09,-3.63 -21.24,-10.86 -28.29,-14.5 -7.1,-3.59 -7.1,-3.59 -7.1,-3.59 0,0 0,0 -7.83,-1.24 -7.83,-1.2 -23.53,-3.63 -31.39,-4.87 -7.84,-1.23 -7.84,-1.23 -7.84,-1.23 0,0 0,0 -11.78,1.83 -11.75,1.84 -35.28,5.51 -35.28,5.51"/>
   <polyline class="fil0 str6" points="14679.22,48885.4 17726.14,48885.4 17726.14,48123.68 14679.22,48123.68 14679.22,48885.4 "/>
   <path class="fil0 str6" d="M15393.78 48359.51c0,0 -21.23,10.87 -31.89,16.3 -10.61,5.4 -10.61,5.4 -10.61,5.4 0,0 0,0 -5.61,5.64 -5.61,5.61 -16.84,16.86 -22.45,22.51 -5.61,5.61 -5.61,5.61 -5.61,5.61 0,0 0,0 -3.6,7.05 -3.61,7.09 -10.82,21.24 -14.43,28.29 -3.6,7.1 -3.6,7.1 -3.6,7.1 0,0 0,0 -1.25,7.83 -1.24,7.86 -3.73,23.6 -4.97,31.46 -1.25,7.84 -1.25,7.84 -1.25,7.84 0,0 0,0 1.25,7.86 1.24,7.84 3.73,23.53 4.97,31.37 1.25,7.86 1.25,7.86 1.25,7.86 0,0 0,0 3.6,7.06 3.61,7.09 10.82,21.2 14.43,28.29 3.6,7.06 3.6,7.06 3.6,7.06 0,0 0,0 5.61,5.64 5.61,5.61 16.84,16.86 22.45,22.51 5.61,5.61 5.61,5.61 5.61,5.61 0,0 0,0 7.08,3.6 7.09,3.59 21.24,10.83 28.33,14.42 7.09,3.6 7.09,3.6 7.09,3.6 0,0 0,0 7.83,1.24 7.87,1.27 23.57,3.74 31.4,4.97 7.83,1.27 7.83,1.27 7.83,1.27 0,0 0,0 7.87,-1.27 7.83,-1.23 23.53,-3.7 31.36,-4.97 7.87,-1.24 7.87,-1.24 7.87,-1.24 0,0 0,0 7.05,-3.6 7.1,-3.59 21.24,-10.83 28.3,-14.42 7.09,-3.6 7.09,-3.6 7.09,-3.6 0,0 0,0 5.61,-5.61 5.61,-5.65 16.86,-16.9 22.5,-22.51 5.61,-5.64 5.61,-5.64 5.61,-5.64 0,0 0,0 3.6,-7.06 3.64,-7.09 10.83,-21.2 14.43,-28.29 3.6,-7.06 3.6,-7.06 3.6,-7.06 0,0 0,0 1.27,-7.86 1.23,-7.84 3.7,-23.53 4.97,-31.37 1.24,-7.86 1.24,-7.86 1.24,-7.86 0,0 0,0 -1.24,-7.84 -1.27,-7.86 -3.74,-23.6 -4.97,-31.46 -1.27,-7.83 -1.27,-7.83 -1.27,-7.83 0,0 0,0 -3.6,-7.1 -3.6,-7.05 -10.79,-21.2 -14.43,-28.29 -3.6,-7.05 -3.6,-7.05 -3.6,-7.05 0,0 0,0 -5.61,-5.61 -5.64,-5.65 -16.89,-16.9 -22.5,-22.51 -5.61,-5.64 -5.61,-5.64 -5.61,-5.64 0,0 0,0 -7.09,-3.6 -7.06,-3.64 -21.2,-10.87 -28.3,-14.47 -7.05,-3.63 -7.05,-3.63 -7.05,-3.63 0,0 0,0 -7.87,-1.2 -7.83,-1.23 -23.53,-3.67 -31.36,-4.9 -7.87,-1.2 -7.87,-1.2 -7.87,-1.2 0,0 0,0 -11.74,1.83 -11.79,1.8 -35.32,5.47 -35.32,5.47"/>
   <path class="fil0 str6" d="M16917.43 48359.51c0,0 -21.24,10.87 -31.89,16.3 -10.62,5.4 -10.62,5.4 -10.62,5.4 0,0 0,0 -5.61,5.64 -5.61,5.61 -16.83,16.86 -22.44,22.51 -5.6,5.61 -5.6,5.61 -5.6,5.61 0,0 0,0 -3.6,7.05 -3.64,7.09 -10.83,21.24 -14.43,28.29 -3.6,7.1 -3.6,7.1 -3.6,7.1 0,0 0,0 -1.27,7.83 -1.23,7.86 -3.74,23.6 -4.97,31.46 -1.24,7.84 -1.24,7.84 -1.24,7.84 0,0 0,0 1.24,7.86 1.23,7.84 3.74,23.53 4.97,31.37 1.27,7.86 1.27,7.86 1.27,7.86 0,0 0,0 3.6,7.06 3.6,7.09 10.79,21.2 14.43,28.29 3.6,7.06 3.6,7.06 3.6,7.06 0,0 0,0 5.6,5.64 5.61,5.61 16.83,16.86 22.44,22.51 5.61,5.61 5.61,5.61 5.61,5.61 0,0 0,0 7.09,3.6 7.09,3.59 21.24,10.83 28.33,14.42 7.09,3.6 7.09,3.6 7.09,3.6 0,0 0,0 7.83,1.24 7.87,1.27 23.57,3.74 31.4,4.97 7.83,1.27 7.83,1.27 7.83,1.27 0,0 0,0 7.87,-1.27 7.83,-1.23 23.53,-3.7 31.36,-4.97 7.87,-1.24 7.87,-1.24 7.87,-1.24 0,0 0,0 7.05,-3.6 7.09,-3.59 21.24,-10.83 28.29,-14.42 7.1,-3.6 7.1,-3.6 7.1,-3.6 0,0 0,0 5.6,-5.61 5.61,-5.65 16.87,-16.9 22.51,-22.51 5.61,-5.64 5.61,-5.64 5.61,-5.64 0,0 0,0 3.6,-7.06 3.6,-7.09 10.83,-21.2 14.43,-28.29 3.6,-7.06 3.6,-7.06 3.6,-7.06 0,0 0,0 1.27,-7.86 1.23,-7.84 3.7,-23.53 4.97,-31.37 1.23,-7.86 1.23,-7.86 1.23,-7.86 0,0 0,0 -1.23,-7.84 -1.27,-7.86 -3.74,-23.6 -4.97,-31.46 -1.27,-7.83 -1.27,-7.83 -1.27,-7.83 0,0 0,0 -3.6,-7.1 -3.6,-7.05 -10.83,-21.2 -14.43,-28.29 -3.6,-7.05 -3.6,-7.05 -3.6,-7.05 0,0 0,0 -5.61,-5.61 -5.64,-5.65 -16.9,-16.9 -22.51,-22.51 -5.6,-5.64 -5.6,-5.64 -5.6,-5.64 0,0 0,0 -7.1,-3.6 -7.05,-3.64 -21.2,-10.87 -28.29,-14.47 -7.05,-3.63 -7.05,-3.63 -7.05,-3.63 0,0 0,0 -7.87,-1.2 -7.83,-1.23 -23.53,-3.67 -31.36,-4.9 -7.87,-1.2 -7.87,-1.2 -7.87,-1.2 0,0 0,0 -11.75,1.83 -11.78,1.8 -35.31,5.47 -35.31,5.47"/>
  </g>
 </g>
</svg>
